<?xml version="1.0" encoding="utf-8"?>
<!-- Generator: Adobe Illustrator 16.0.0, SVG Export Plug-In . SVG Version: 6.00 Build 0)  -->
<!DOCTYPE svg PUBLIC "-//W3C//DTD SVG 1.1//EN" "http://www.w3.org/Graphics/SVG/1.1/DTD/svg11.dtd" [
	<!ENTITY ns_extend "http://ns.adobe.com/Extensibility/1.0/">
	<!ENTITY ns_ai "http://ns.adobe.com/AdobeIllustrator/10.0/">
	<!ENTITY ns_graphs "http://ns.adobe.com/Graphs/1.0/">
	<!ENTITY ns_vars "http://ns.adobe.com/Variables/1.0/">
	<!ENTITY ns_imrep "http://ns.adobe.com/ImageReplacement/1.0/">
	<!ENTITY ns_sfw "http://ns.adobe.com/SaveForWeb/1.0/">
	<!ENTITY ns_custom "http://ns.adobe.com/GenericCustomNamespace/1.0/">
	<!ENTITY ns_adobe_xpath "http://ns.adobe.com/XPath/1.0/">
]>
<svg version="1.1" id="Layer_1" xmlns:x="&ns_extend;" xmlns:i="&ns_ai;" xmlns:graph="&ns_graphs;"
	 xmlns="http://www.w3.org/2000/svg" xmlns:xlink="http://www.w3.org/1999/xlink" x="0px" y="0px" width="375px" height="150px"
	 viewBox="0 0 375 150" enable-background="new 0 0 375 150" xml:space="preserve">
<metadata>
	<sfw  xmlns="&ns_sfw;">
		<slices></slices>
		<sliceSourceBounds  height="144" width="366.659" y="-835" x="2966.029" bottomLeftOrigin="true"></sliceSourceBounds>
	</sfw>
</metadata>
<g>
</g>
<g>
	<g>
		<path fill="#754E37" d="M156.313,69.834V15.227h18.562c6.375,0,11.242,1.289,14.602,3.867c3.358,2.578,5.038,6.32,5.038,11.226
			c0,2.782-0.609,5.203-1.827,7.266c-1.219,2.063-3.017,3.579-5.391,4.547c2.562,0.75,4.547,2.18,5.953,4.289
			c1.405,2.109,2.108,4.695,2.108,7.758c0,5.437-1.578,9.405-4.733,11.905c-3.157,2.501-7.906,3.75-14.25,3.75H156.313z
			 M169.577,37.913h6.375c3.531-0.094,5.297-1.969,5.297-5.625c0-2.156-0.438-3.694-1.313-4.616
			c-0.875-0.922-2.219-1.383-4.031-1.383h-6.328V37.913z M169.577,47.147v11.765h6.797c1.844,0,3.258-0.501,4.242-1.506
			c0.984-1.003,1.477-2.384,1.477-4.142c0-3.952-1.594-5.991-4.781-6.117H169.577z"/>
		<path fill="#754E37" d="M202.032,44.995c0-7.072,1.667-12.621,5.002-16.646c3.335-4.025,7.949-6.038,13.843-6.038
			c5.951,0,10.594,2.013,13.93,6.038c3.334,4.024,5.002,9.602,5.002,16.731v2.976c0,7.102-1.653,12.65-4.959,16.646
			c-3.307,3.996-7.935,5.994-13.886,5.994c-5.98,0-10.63-2.005-13.951-6.016c-3.32-4.011-4.98-9.58-4.98-16.71V44.995z
			 M214.279,48.066c0,8.389,2.228,12.582,6.685,12.582c4.11,0,6.324-3.499,6.641-10.5l0.043-5.163c0-4.28-0.59-7.455-1.768-9.523
			c-1.18-2.068-2.847-3.103-5.003-3.103c-2.069,0-3.687,1.034-4.851,3.103c-1.165,2.068-1.747,5.243-1.747,9.523V48.066z"/>
		<path fill="#754E37" d="M245.976,44.995c0-7.072,1.667-12.621,5.002-16.646c3.335-4.025,7.949-6.038,13.843-6.038
			c5.951,0,10.594,2.013,13.93,6.038c3.334,4.024,5.002,9.602,5.002,16.731v2.976c0,7.102-1.653,12.65-4.959,16.646
			c-3.307,3.996-7.935,5.994-13.886,5.994c-5.98,0-10.63-2.005-13.951-6.016c-3.32-4.011-4.98-9.58-4.98-16.71V44.995z
			 M258.223,48.066c0,8.389,2.228,12.582,6.685,12.582c4.11,0,6.324-3.499,6.641-10.5l0.043-5.163c0-4.28-0.59-7.455-1.768-9.523
			c-1.18-2.068-2.847-3.103-5.003-3.103c-2.069,0-3.687,1.034-4.851,3.103c-1.165,2.068-1.747,5.243-1.747,9.523V48.066z"/>
		<path fill="#754E37" d="M306.822,51.852l-3.277,3.665v14.317h-12.204V3.597h12.204v35.792l1.51-2.242l8.452-13.972h14.532
			l-13.541,19.232l14.835,27.427h-13.972L306.822,51.852z"/>
		<path fill="#EB743B" d="M156.313,138.834V84.227h18.562c6.375,0,11.242,1.289,14.602,3.867c3.358,2.578,5.038,6.32,5.038,11.226
			c0,2.782-0.609,5.203-1.827,7.266c-1.219,2.063-3.017,3.579-5.391,4.547c2.562,0.75,4.547,2.18,5.953,4.289
			c1.405,2.109,2.108,4.695,2.108,7.758c0,5.437-1.578,9.405-4.733,11.905c-3.157,2.501-7.906,3.75-14.25,3.75H156.313z
			 M169.577,106.913h6.375c3.531-0.094,5.297-1.969,5.297-5.625c0-2.156-0.438-3.694-1.313-4.616
			c-0.875-0.922-2.219-1.383-4.031-1.383h-6.328V106.913z M169.577,116.147v11.765h6.797c1.844,0,3.258-0.501,4.242-1.506
			c0.984-1.003,1.477-2.384,1.477-4.142c0-3.952-1.594-5.991-4.781-6.117H169.577z"/>
		<path fill="#EB743B" d="M226.483,103.947l-4.054-0.345c-3.335,0-5.592,1.466-6.771,4.398v30.833h-12.247V92.175h11.514
			l0.346,5.045c1.926-3.938,4.585-5.908,7.978-5.908c1.38,0,2.501,0.188,3.363,0.561L226.483,103.947z"/>
		<path fill="#EB743B" d="M253.608,138.834c-0.346-0.719-0.69-1.926-1.035-3.622c-2.186,2.99-5.146,4.484-8.884,4.484
			c-3.91,0-7.151-1.294-9.724-3.881c-2.573-2.588-3.86-5.937-3.86-10.048c0-4.887,1.56-8.668,4.68-11.342
			c3.118-2.674,7.611-4.038,13.476-4.097h3.709v-3.752c0-2.098-0.36-3.579-1.078-4.441c-0.719-0.862-1.769-1.294-3.148-1.294
			c-3.048,0-4.571,1.783-4.571,5.348h-12.203c0-4.313,1.617-7.87,4.851-10.673c3.234-2.803,7.324-4.205,12.269-4.205
			c5.117,0,9.078,1.33,11.881,3.989s4.205,6.462,4.205,11.406v21.95c0.057,4.025,0.632,7.173,1.725,9.443v0.733H253.608z
			 M246.406,130.123c1.352,0,2.501-0.272,3.45-0.819c0.948-0.546,1.652-1.192,2.113-1.94v-9.703h-2.933
			c-2.07,0-3.702,0.662-4.895,1.983c-1.193,1.323-1.79,3.091-1.79,5.305C242.353,128.398,243.704,130.123,246.406,130.123z"/>
		<path fill="#EB743B" d="M273.014,80.1c0-1.897,0.604-3.449,1.812-4.657c1.207-1.207,2.817-1.812,4.83-1.812
			c2.012,0,3.622,0.604,4.829,1.812c1.208,1.208,1.812,2.76,1.812,4.657c0,1.869-0.597,3.422-1.789,4.657
			c-1.193,1.236-2.811,1.854-4.852,1.854c-2.042,0-3.659-0.618-4.852-1.854C273.61,83.521,273.014,81.969,273.014,80.1z
			 M285.821,138.834h-12.247V92.175h12.247V138.834z"/>
		<path fill="#EB743B" d="M306.435,92.175l0.346,4.614c2.76-3.651,6.367-5.478,10.823-5.478c8.021,0,12.146,5.621,12.377,16.861
			v30.661h-12.247v-29.755c0-2.645-0.396-4.564-1.186-5.757c-0.792-1.193-2.178-1.79-4.162-1.79c-2.214,0-3.938,1.136-5.175,3.406
			v33.896h-12.247V92.175H306.435z"/>
		<path fill="#EB743B" d="M352.231,128.786h18.457v10.048h-32.946v-7.568l18.025-28.914h-17.595V92.175h32.257v7.374
			L352.231,128.786z"/>
	</g>
	<g>
		<polygon fill="#EB743B" points="70.029,2.834 70.029,146.834 131.029,111.834 131.029,37.834 		"/>
		<polygon fill="#754E37" points="65.029,2.834 4.029,37.834 4.029,111.834 65.029,146.834 		"/>
		<g>
			<g>
				<path fill="#573A29" d="M65.029,125.123h-7c-0.884,0-1.6-0.716-1.6-1.6c0-2.306,0-4.92-8.348-6.037
					c-8.708-1.164-31.479-4.937-31.708-4.975c-0.772-0.128-1.338-0.796-1.338-1.578V49.105c0-0.455,0.193-0.889,0.532-1.192
					c0.339-0.303,0.794-0.453,1.244-0.397l7.2,0.801c0.878,0.098,1.511,0.889,1.413,1.767c-0.097,0.878-0.886,1.514-1.767,1.413
					l-5.424-0.603v58.683c5.025,0.828,22.834,3.744,30.271,4.738c8.466,1.134,10.61,4.203,11.034,7.609h5.489V125.123z"/>
				<path fill="#573A29" d="M61.436,57.414c0-9.393-17.466-22.424-37.6-17.773v61.826c20.667-0.861,37.6,6.65,37.6,16.148V57.414z"
					/>
				<path fill="#573A29" d="M35.253,55.117c-0.84,0-1.536,0.664-1.568,1.51c-0.033,0.865,0.364,1.629,1.51,1.629
					c14.479,0,26.241,12.355,26.241,16.195v-4.189c0-4.025-10.984-15.145-26.123-15.145C35.313,55.117,35.272,55.117,35.253,55.117z
					"/>
				<path fill="#573A29" d="M35.253,66.014c-0.84,0-1.536,0.664-1.568,1.51c-0.033,0.865,0.364,1.629,1.51,1.629
					c14.479,0,26.241,12.355,26.241,16.195v-4.189c0-4.025-10.984-15.145-26.123-15.145C35.313,66.014,35.272,66.014,35.253,66.014z
					"/>
				<path fill="#573A29" d="M35.253,76.91c-0.84,0-1.536,0.664-1.568,1.51c-0.033,0.865,0.364,1.629,1.51,1.629
					c14.479,0,26.241,12.355,26.241,16.195v-4.189c0-4.025-10.984-15.145-26.123-15.145C35.313,76.91,35.272,76.91,35.253,76.91z"/>
			</g>
			<g>
				<g>
					<path fill="#FFFEDB" d="M65.029,122.123h-7c-0.884,0-1.6-0.716-1.6-1.6c0-2.306,0-4.92-8.348-6.037
						c-8.708-1.164-31.479-4.937-31.708-4.975c-0.772-0.128-1.338-0.796-1.338-1.578V46.105c0-0.455,0.193-0.889,0.532-1.192
						c0.339-0.303,0.794-0.453,1.244-0.397l7.2,0.801c0.878,0.098,1.511,0.889,1.413,1.767c-0.097,0.878-0.886,1.514-1.767,1.413
						l-5.424-0.603v58.683c5.025,0.828,22.834,3.744,30.271,4.738c8.466,1.134,10.61,4.203,11.034,7.609h5.489V122.123z"/>
				</g>
				<path fill="#CFA691" d="M61.436,54.414c0-9.393-17.466-22.424-37.6-17.773v61.826c20.667-0.861,37.6,6.65,37.6,16.148V54.414z"
					/>
				<g>
					<path fill="#FFFEDB" d="M35.253,52.117c-0.84,0-1.536,0.664-1.568,1.51c-0.033,0.865,0.364,1.629,1.51,1.629
						c14.479,0,26.241,12.355,26.241,16.195v-4.189c0-4.025-10.984-15.145-26.123-15.145C35.313,52.117,35.272,52.117,35.253,52.117
						z"/>
					<path fill="#FFFEDB" d="M35.253,63.014c-0.84,0-1.536,0.664-1.568,1.51c-0.033,0.865,0.364,1.629,1.51,1.629
						c14.479,0,26.241,12.355,26.241,16.195v-4.189c0-4.025-10.984-15.145-26.123-15.145C35.313,63.014,35.272,63.014,35.253,63.014
						z"/>
					<path fill="#FFFEDB" d="M35.253,73.91c-0.84,0-1.536,0.664-1.568,1.51c-0.033,0.865,0.364,1.629,1.51,1.629
						c14.479,0,26.241,12.355,26.241,16.195v-4.189c0-4.025-10.984-15.145-26.123-15.145C35.313,73.91,35.272,73.91,35.253,73.91z"
						/>
				</g>
			</g>
		</g>
		<g>
			<g opacity="0.07">
				<path d="M87.331,94.567c0.386-0.645,1.066-1.03,1.819-1.03c0.378,0,0.752,0.104,1.078,0.297c1,0.601,1.331,1.899,0.735,2.898
					c-0.385,0.646-1.064,1.032-1.817,1.032c-0.379,0-0.755-0.104-1.084-0.301c-0.483-0.288-0.826-0.748-0.964-1.294
					C86.96,95.621,87.043,95.053,87.331,94.567z M99.934,116.93c-0.49,0.421-1.018,0.509-1.373,0.509
					c-0.621,0-1.207-0.269-1.608-0.734c-0.758-0.885-0.654-2.222,0.231-2.981c0.492-0.423,1.018-0.512,1.373-0.512
					c0.617,0,1.201,0.269,1.605,0.74c0.368,0.43,0.547,0.976,0.504,1.538S100.364,116.562,99.934,116.93z"/>
				<path d="M79.03,48.444c0.07,0.019,0.142,0.034,0.212,0.046C79.17,48.479,79.1,48.463,79.03,48.444z"/>
				<path d="M90.409,58.091c0.169-0.267,0.395-0.49,0.673-0.661c0.335-0.207,0.722-0.316,1.121-0.316c0.4,0,0.79,0.112,1.122,0.321
					c0.987,0.627,1.283,1.936,0.66,2.919c-0.392,0.618-1.063,0.988-1.795,0.988c-0.397,0-0.785-0.113-1.124-0.327
					C90.082,60.391,89.788,59.078,90.409,58.091z M96.788,37.903c-0.6,0.951-1.938,1.271-2.912,0.653l-0.096-0.063
					c-0.914-0.647-1.161-1.897-0.558-2.851c0.386-0.613,1.053-0.98,1.784-0.98c0.397,0,0.787,0.113,1.124,0.326
					c0.479,0.304,0.813,0.775,0.937,1.33C97.189,36.865,97.093,37.426,96.788,37.903z"/>
				<path d="M113.555,49.502c0.388-0.614,1.054-0.98,1.783-0.98c0.399,0,0.79,0.113,1.125,0.325c0.48,0.304,0.813,0.775,0.937,1.33
					c0.122,0.546,0.024,1.106-0.279,1.584c-0.598,0.951-1.938,1.272-2.912,0.653l-0.094-0.063
					C113.197,51.705,112.952,50.455,113.555,49.502z M113.555,72.965c0.388-0.614,1.054-0.98,1.783-0.98
					c0.399,0,0.79,0.112,1.125,0.326c0.48,0.304,0.813,0.774,0.937,1.329c0.122,0.546,0.024,1.107-0.279,1.585
					c-0.598,0.95-1.938,1.271-2.912,0.652l-0.094-0.063C113.197,75.168,112.952,73.918,113.555,72.965z M113.555,99.268
					c0.388-0.613,1.054-0.979,1.783-0.979c0.399,0,0.79,0.112,1.125,0.325c0.48,0.304,0.813,0.775,0.937,1.33
					c0.122,0.547,0.024,1.106-0.279,1.584c-0.598,0.951-1.938,1.271-2.912,0.653l-0.094-0.063
					C113.197,101.471,112.952,100.222,113.555,99.268z"/>
				<path d="M103.205,108.938c-1.165-1.36-2.858-2.139-4.648-2.139c-1.459,0-2.875,0.525-3.983,1.477
					c-1.612,1.383-2.326,3.429-2.087,5.397c-1.948,0.7-4.258,1.365-5.328,1.332c-0.821-0.044-1.302-0.346-2.224-0.972
					c-1.172-0.795-2.418-1.512-4.148-1.847c2.936-2.761,6.009-6.83,8.584-12.834c2.061-0.076,3.976-1.193,5.038-2.972
					c1.725-2.896,0.773-6.659-2.124-8.394c-0.949-0.565-2.032-0.864-3.134-0.864c-2.146,0-4.161,1.144-5.261,2.986
					c-0.838,1.405-1.079,3.05-0.678,4.636c0.351,1.393,1.16,2.59,2.302,3.429c-4.053,9.218-9.219,13.081-12.565,14.685
					c-0.128,0.045-0.248,0.101-0.36,0.168c-1.187,0.531-2.05,0.704-2.559,0.808v4c0.275-0.03,1.885-0.118,4.247-1.192
					c5.348-1.357,6.839-0.354,8.407,0.709c1.021,0.692,2.291,1.554,4.263,1.656c0.1,0.005,0.204,0.008,0.309,0.008
					c2.109,0,5.172-1.022,7.021-1.723c1.144,1.116,2.676,1.75,4.285,1.75l0,0c1.461,0,2.876-0.524,3.983-1.476
					c1.24-1.062,1.993-2.546,2.118-4.176C104.787,111.759,104.27,110.176,103.205,108.938z M87.331,92.162
					c0.386-0.645,1.066-1.03,1.819-1.03c0.378,0,0.752,0.104,1.078,0.297c1,0.601,1.331,1.899,0.735,2.898
					c-0.385,0.646-1.064,1.032-1.817,1.032c-0.379,0-0.755-0.104-1.084-0.301c-0.483-0.288-0.826-0.748-0.964-1.294
					C86.96,93.216,87.043,92.647,87.331,92.162z M99.934,114.524c-0.49,0.421-1.018,0.509-1.373,0.509
					c-0.621,0-1.207-0.269-1.608-0.734c-0.758-0.885-0.654-2.222,0.231-2.981c0.492-0.423,1.018-0.512,1.373-0.512
					c0.617,0,1.201,0.269,1.605,0.74c0.368,0.43,0.547,0.976,0.504,1.538S100.364,114.156,99.934,114.524z"/>
				<path d="M79.03,46.039c0.07,0.019,0.142,0.034,0.212,0.046C79.17,46.073,79.1,46.058,79.03,46.039z"/>
				<path d="M100.979,33.038c-0.357-1.599-1.317-2.964-2.708-3.844c-0.98-0.617-2.109-0.944-3.265-0.944
					c-2.117,0-4.053,1.066-5.174,2.85c-1.354,2.138-1.218,4.799,0.144,6.759c-3.646,4.124-8.706,4.313-9.942,4.293
					c-3.692-1.604-7.234-2.164-10.005-2.317v3.996c2.441,0.144,5.553,0.686,8.748,2.136c0.005,0.002,0.01,0.002,0.015,0.005
					c3.445,1.563,6.334,3.928,8.607,7.041c-0.136,0.173-0.265,0.352-0.382,0.538c-1.796,2.854-0.942,6.644,1.903,8.444
					c0.98,0.622,2.111,0.951,3.27,0.951c2.113,0,4.051-1.065,5.183-2.852c1.806-2.851,0.951-6.642-1.908-8.453
					c-1.384-0.871-3.092-1.113-4.667-0.755c-1.538-2.154-3.323-4.017-5.345-5.566c2.517-0.778,5.401-2.269,7.78-5.096
					c0.572,0.172,1.166,0.267,1.77,0.267c2.116,0,4.051-1.068,5.172-2.849C101.05,36.267,101.336,34.633,100.979,33.038z
					 M90.409,55.686c0.169-0.267,0.395-0.49,0.673-0.661c0.335-0.207,0.722-0.316,1.121-0.316c0.4,0,0.79,0.112,1.122,0.321
					c0.987,0.627,1.283,1.936,0.66,2.919c-0.392,0.618-1.063,0.988-1.795,0.988c-0.397,0-0.785-0.113-1.124-0.327
					C90.082,57.985,89.788,56.673,90.409,55.686z M96.788,35.498c-0.6,0.951-1.938,1.271-2.912,0.653l-0.096-0.063
					c-0.914-0.647-1.161-1.897-0.558-2.851c0.386-0.613,1.053-0.98,1.784-0.98c0.397,0,0.787,0.113,1.124,0.326
					c0.479,0.304,0.813,0.775,0.937,1.33C97.189,34.46,97.093,35.021,96.788,35.498z"/>
				<path d="M109.675,74.021c0.425,1.035,1.136,1.962,2.109,2.649c0.072,0.052,0.151,0.105,0.283,0.191
					c0.981,0.621,2.11,0.949,3.268,0.949c2.116,0,4.052-1.068,5.173-2.849c0.875-1.375,1.16-3.01,0.805-4.604
					c-0.358-1.598-1.318-2.964-2.709-3.844c-0.98-0.617-2.109-0.944-3.266-0.944c-0.125,0-0.25,0.008-0.375,0.018
					c-0.71-3.157-0.919-7.769,0.035-11.265c0.112,0.011,0.225,0.024,0.337,0.024c2.116,0,4.052-1.067,5.173-2.849
					c0.875-1.375,1.16-3.009,0.805-4.604c-0.358-1.599-1.318-2.964-2.709-3.844c-0.98-0.617-2.109-0.944-3.266-0.944
					c-2.114,0-4.051,1.066-5.173,2.85c-1.604,2.532-1.12,5.804,1.024,7.765c0.021,0.02,0.048,0.037,0.071,0.059
					c-1.349,4.518-1.146,10.324-0.036,14.417c-0.144,0.132-0.294,0.254-0.426,0.399c-0.229,0.255-0.445,0.526-0.634,0.824
					c-0.318,0.502-0.551,1.033-0.71,1.578c-3.371,0.488-5.198,1.671-6.824,2.729c-2.035,1.324-3.961,2.572-9.636,2.665
					c-1.964-0.23-3.553-0.177-5.29-0.116c-1.431,0.052-2.91,0.106-4.849,0.003c-1.335-0.071-2.104-0.882-3.458-2.424
					c-1.803-2.055-4.219-4.648-9.369-5.022v4c3.295,0.3,4.796,1.888,6.356,3.667c1.487,1.694,3.175,3.615,6.256,3.782
					c2.118,0.114,3.76,0.052,5.208,0.001c2.491-0.092,4.453-0.161,7.855,0.684c2.607,0.643,12.099,9.673,14.773,14.322
					c-0.108,0.142-0.219,0.282-0.313,0.434c-1.743,2.755-1.026,6.385,1.619,8.251c0.072,0.052,0.151,0.104,0.283,0.191
					c0.981,0.621,2.11,0.948,3.268,0.948c2.116,0,4.052-1.068,5.173-2.849c0.875-1.374,1.16-3.009,0.805-4.603
					c-0.358-1.6-1.318-2.965-2.709-3.845c-0.98-0.617-2.109-0.944-3.266-0.944c-0.528,0-1.047,0.067-1.543,0.195
					c-2.561-4.187-8.652-10.455-13.189-13.792c1.813-0.628,3.05-1.435,4.212-2.188C106.245,75.159,107.432,74.398,109.675,74.021z
					 M113.555,47.097c0.388-0.614,1.054-0.98,1.783-0.98c0.399,0,0.79,0.113,1.125,0.325c0.48,0.304,0.813,0.775,0.937,1.33
					c0.122,0.546,0.024,1.106-0.279,1.584c-0.598,0.951-1.938,1.272-2.912,0.653l-0.094-0.063
					C113.197,49.3,112.952,48.05,113.555,47.097z M113.555,70.56c0.388-0.614,1.054-0.98,1.783-0.98c0.399,0,0.79,0.112,1.125,0.326
					c0.48,0.304,0.813,0.774,0.937,1.329c0.122,0.546,0.024,1.107-0.279,1.585c-0.598,0.95-1.938,1.271-2.912,0.652l-0.094-0.063
					C113.197,72.763,112.952,71.513,113.555,70.56z M113.555,96.862c0.388-0.613,1.054-0.979,1.783-0.979
					c0.399,0,0.79,0.112,1.125,0.325c0.48,0.304,0.813,0.775,0.937,1.33c0.122,0.547,0.024,1.106-0.279,1.584
					c-0.598,0.951-1.938,1.271-2.912,0.653l-0.094-0.063C113.197,99.065,112.952,97.816,113.555,96.862z"/>
			</g>
			<g>
				<g>
					<path fill="#D3562C" d="M103.205,111.938c-1.165-1.36-2.858-2.139-4.648-2.139c-1.459,0-2.875,0.525-3.983,1.477
						c-1.612,1.383-2.326,3.429-2.087,5.397c-1.948,0.7-4.258,1.365-5.328,1.332c-0.821-0.044-1.302-0.346-2.224-0.972
						c-1.172-0.795-2.418-1.512-4.148-1.847c2.936-2.761,6.009-6.83,8.584-12.834c2.061-0.076,3.976-1.193,5.038-2.972
						c1.725-2.896,0.773-6.659-2.124-8.394c-0.949-0.565-2.032-0.864-3.134-0.864c-2.146,0-4.161,1.144-5.261,2.986
						c-0.838,1.405-1.079,3.05-0.678,4.636c0.351,1.393,1.16,2.59,2.302,3.429c-4.053,9.218-9.219,13.081-12.565,14.685
						c-0.128,0.045-0.248,0.101-0.36,0.168c-1.187,0.531-2.05,0.704-2.559,0.808v4c0.275-0.03,1.885-0.118,4.247-1.192
						c5.348-1.357,6.839-0.354,8.407,0.709c1.021,0.692,2.291,1.554,4.263,1.656c0.1,0.005,0.204,0.008,0.309,0.008
						c2.109,0,5.172-1.022,7.021-1.723c1.144,1.116,2.676,1.75,4.285,1.75l0,0c1.461,0,2.876-0.524,3.983-1.476
						c1.24-1.062,1.993-2.546,2.118-4.176C104.787,114.759,104.27,113.176,103.205,111.938z M87.331,95.162
						c0.386-0.645,1.066-1.03,1.819-1.03c0.378,0,0.752,0.104,1.078,0.297c1,0.601,1.331,1.899,0.735,2.898
						c-0.385,0.646-1.064,1.032-1.817,1.032c-0.379,0-0.755-0.104-1.084-0.301c-0.483-0.288-0.826-0.748-0.964-1.294
						C86.96,96.216,87.043,95.647,87.331,95.162z M99.934,117.524c-0.49,0.421-1.018,0.509-1.373,0.509
						c-0.621,0-1.207-0.269-1.608-0.734c-0.758-0.885-0.654-2.222,0.231-2.981c0.492-0.423,1.018-0.512,1.373-0.512
						c0.617,0,1.201,0.269,1.605,0.74c0.368,0.43,0.547,0.976,0.504,1.538S100.364,117.156,99.934,117.524z"/>
					<path d="M79.03,48.444c0.07,0.019,0.142,0.034,0.212,0.046C79.17,48.479,79.1,48.463,79.03,48.444z"/>
					<path fill="#D3562C" d="M100.979,36.042c-0.357-1.599-1.317-2.964-2.708-3.844c-0.98-0.617-2.109-0.944-3.265-0.944
						c-2.117,0-4.053,1.066-5.174,2.85c-1.354,2.138-1.218,4.799,0.144,6.759c-3.646,4.124-8.706,4.313-9.942,4.293
						c-3.692-1.604-7.234-2.164-10.005-2.317v3.996c2.441,0.144,5.553,0.686,8.748,2.136c0.005,0.002,0.01,0.002,0.015,0.005
						c3.445,1.563,6.334,3.928,8.607,7.041c-0.136,0.173-0.265,0.352-0.382,0.538c-1.796,2.854-0.942,6.644,1.903,8.444
						c0.98,0.622,2.111,0.951,3.27,0.951c2.113,0,4.051-1.065,5.183-2.852c1.806-2.851,0.951-6.642-1.908-8.453
						c-1.384-0.871-3.092-1.113-4.667-0.755c-1.538-2.154-3.323-4.017-5.345-5.566c2.517-0.778,5.401-2.269,7.78-5.096
						c0.572,0.172,1.166,0.267,1.77,0.267c2.116,0,4.051-1.068,5.172-2.849C101.05,39.271,101.336,37.637,100.979,36.042z
						 M90.409,58.689c0.169-0.267,0.395-0.49,0.673-0.661c0.335-0.207,0.722-0.316,1.121-0.316c0.4,0,0.79,0.112,1.122,0.321
						c0.987,0.627,1.283,1.936,0.66,2.919c-0.392,0.618-1.063,0.988-1.795,0.988c-0.397,0-0.785-0.113-1.124-0.327
						C90.082,60.989,89.788,59.677,90.409,58.689z M96.788,38.502c-0.6,0.951-1.938,1.271-2.912,0.653l-0.096-0.063
						c-0.914-0.647-1.161-1.897-0.558-2.851c0.386-0.613,1.053-0.98,1.784-0.98c0.397,0,0.787,0.113,1.124,0.326
						c0.479,0.304,0.813,0.775,0.937,1.33C97.189,37.464,97.093,38.024,96.788,38.502z"/>
					<path fill="#D3562C" d="M109.675,77.021c0.425,1.035,1.136,1.962,2.109,2.649c0.072,0.052,0.151,0.105,0.283,0.191
						c0.981,0.621,2.11,0.949,3.268,0.949c2.116,0,4.052-1.068,5.173-2.849c0.875-1.375,1.16-3.01,0.805-4.604
						c-0.358-1.598-1.318-2.964-2.709-3.844c-0.98-0.617-2.109-0.944-3.266-0.944c-0.125,0-0.25,0.008-0.375,0.018
						c-0.71-3.157-0.919-7.769,0.035-11.265c0.112,0.011,0.225,0.024,0.337,0.024c2.116,0,4.052-1.067,5.173-2.849
						c0.875-1.375,1.16-3.009,0.805-4.604c-0.358-1.599-1.318-2.964-2.709-3.844c-0.98-0.617-2.109-0.944-3.266-0.944
						c-2.114,0-4.051,1.066-5.173,2.85c-1.604,2.532-1.12,5.804,1.024,7.765c0.021,0.02,0.048,0.037,0.071,0.059
						c-1.349,4.518-1.146,10.324-0.036,14.417c-0.144,0.132-0.294,0.254-0.426,0.399c-0.229,0.255-0.445,0.526-0.634,0.824
						c-0.318,0.502-0.551,1.033-0.71,1.578c-3.371,0.488-5.198,1.671-6.824,2.729c-2.035,1.324-3.961,2.572-9.636,2.665
						c-1.964-0.23-3.553-0.177-5.29-0.116c-1.431,0.052-2.91,0.106-4.849,0.003c-1.335-0.071-2.104-0.882-3.458-2.424
						c-1.803-2.055-4.219-4.648-9.369-5.022v4c3.295,0.3,4.796,1.888,6.356,3.667c1.487,1.694,3.175,3.615,6.256,3.782
						c2.118,0.114,3.76,0.052,5.208,0.001c2.491-0.092,4.453-0.161,7.855,0.684c2.607,0.643,12.099,9.673,14.773,14.322
						c-0.108,0.142-0.219,0.282-0.313,0.434c-1.743,2.755-1.026,6.385,1.619,8.251c0.072,0.052,0.151,0.104,0.283,0.191
						c0.981,0.621,2.11,0.948,3.268,0.948c2.116,0,4.052-1.068,5.173-2.849c0.875-1.374,1.16-3.009,0.805-4.603
						c-0.358-1.6-1.318-2.965-2.709-3.845c-0.98-0.617-2.109-0.944-3.266-0.944c-0.528,0-1.047,0.067-1.543,0.195
						c-2.561-4.187-8.652-10.455-13.189-13.792c1.813-0.628,3.05-1.435,4.212-2.188C106.245,78.159,107.432,77.398,109.675,77.021z
						 M113.555,50.097c0.388-0.614,1.054-0.98,1.783-0.98c0.399,0,0.79,0.113,1.125,0.325c0.48,0.304,0.813,0.775,0.937,1.33
						c0.122,0.546,0.024,1.106-0.279,1.584c-0.598,0.951-1.938,1.272-2.912,0.653l-0.094-0.063
						C113.197,52.3,112.952,51.05,113.555,50.097z M113.555,73.56c0.388-0.614,1.054-0.98,1.783-0.98
						c0.399,0,0.79,0.112,1.125,0.326c0.48,0.304,0.813,0.774,0.937,1.329c0.122,0.546,0.024,1.107-0.279,1.585
						c-0.598,0.95-1.938,1.271-2.912,0.652l-0.094-0.063C113.197,75.763,112.952,74.513,113.555,73.56z M113.555,99.862
						c0.388-0.613,1.054-0.979,1.783-0.979c0.399,0,0.79,0.112,1.125,0.325c0.48,0.304,0.813,0.775,0.937,1.33
						c0.122,0.547,0.024,1.106-0.279,1.584c-0.598,0.951-1.938,1.271-2.912,0.653l-0.094-0.063
						C113.197,102.065,112.952,100.816,113.555,99.862z"/>
				</g>
				<g>
					<path fill="#FFFEDB" d="M103.205,108.938c-1.165-1.36-2.858-2.139-4.648-2.139c-1.459,0-2.875,0.525-3.983,1.477
						c-1.612,1.383-2.326,3.429-2.087,5.397c-1.948,0.7-4.258,1.365-5.328,1.332c-0.821-0.044-1.302-0.346-2.224-0.972
						c-1.172-0.795-2.418-1.512-4.148-1.847c2.936-2.761,6.009-6.83,8.584-12.834c2.061-0.076,3.976-1.193,5.038-2.972
						c1.725-2.896,0.773-6.659-2.124-8.394c-0.949-0.565-2.032-0.864-3.134-0.864c-2.146,0-4.161,1.144-5.261,2.986
						c-0.838,1.405-1.079,3.05-0.678,4.636c0.351,1.393,1.16,2.59,2.302,3.429c-4.053,9.218-9.219,13.081-12.565,14.685
						c-0.128,0.045-0.248,0.101-0.36,0.168c-1.187,0.531-2.05,0.704-2.559,0.808v4c0.275-0.03,1.885-0.118,4.247-1.192
						c5.348-1.357,6.839-0.354,8.407,0.709c1.021,0.692,2.291,1.554,4.263,1.656c0.1,0.005,0.204,0.008,0.309,0.008
						c2.109,0,5.172-1.022,7.021-1.723c1.144,1.116,2.676,1.75,4.285,1.75l0,0c1.461,0,2.876-0.524,3.983-1.476
						c1.24-1.062,1.993-2.546,2.118-4.176C104.787,111.759,104.27,110.176,103.205,108.938z M87.331,92.162
						c0.386-0.645,1.066-1.03,1.819-1.03c0.378,0,0.752,0.104,1.078,0.297c1,0.601,1.331,1.899,0.735,2.898
						c-0.385,0.646-1.064,1.032-1.817,1.032c-0.379,0-0.755-0.104-1.084-0.301c-0.483-0.288-0.826-0.748-0.964-1.294
						C86.96,93.216,87.043,92.647,87.331,92.162z M99.934,114.524c-0.49,0.421-1.018,0.509-1.373,0.509
						c-0.621,0-1.207-0.269-1.608-0.734c-0.758-0.885-0.654-2.222,0.231-2.981c0.492-0.423,1.018-0.512,1.373-0.512
						c0.617,0,1.201,0.269,1.605,0.74c0.368,0.43,0.547,0.976,0.504,1.538S100.364,114.156,99.934,114.524z"/>
					<path fill="#FFFEDB" d="M79.03,46.039c0.07,0.019,0.142,0.034,0.212,0.046C79.17,46.073,79.1,46.058,79.03,46.039z"/>
					<path fill="#FFFEDB" d="M100.979,33.038c-0.357-1.599-1.317-2.964-2.708-3.844c-0.98-0.617-2.109-0.944-3.265-0.944
						c-2.117,0-4.053,1.066-5.174,2.85c-1.354,2.138-1.218,4.799,0.144,6.759c-3.646,4.124-8.706,4.313-9.942,4.293
						c-3.692-1.604-7.234-2.164-10.005-2.317v3.996c2.441,0.144,5.553,0.686,8.748,2.136c0.005,0.002,0.01,0.002,0.015,0.005
						c3.445,1.563,6.334,3.928,8.607,7.041c-0.136,0.173-0.265,0.352-0.382,0.538c-1.796,2.854-0.942,6.644,1.903,8.444
						c0.98,0.622,2.111,0.951,3.27,0.951c2.113,0,4.051-1.065,5.183-2.852c1.806-2.851,0.951-6.642-1.908-8.453
						c-1.384-0.871-3.092-1.113-4.667-0.755c-1.538-2.154-3.323-4.017-5.345-5.566c2.517-0.778,5.401-2.269,7.78-5.096
						c0.572,0.172,1.166,0.267,1.77,0.267c2.116,0,4.051-1.068,5.172-2.849C101.05,36.267,101.336,34.633,100.979,33.038z
						 M90.409,55.686c0.169-0.267,0.395-0.49,0.673-0.661c0.335-0.207,0.722-0.316,1.121-0.316c0.4,0,0.79,0.112,1.122,0.321
						c0.987,0.627,1.283,1.936,0.66,2.919c-0.392,0.618-1.063,0.988-1.795,0.988c-0.397,0-0.785-0.113-1.124-0.327
						C90.082,57.985,89.788,56.673,90.409,55.686z M96.788,35.498c-0.6,0.951-1.938,1.271-2.912,0.653l-0.096-0.063
						c-0.914-0.647-1.161-1.897-0.558-2.851c0.386-0.613,1.053-0.98,1.784-0.98c0.397,0,0.787,0.113,1.124,0.326
						c0.479,0.304,0.813,0.775,0.937,1.33C97.189,34.46,97.093,35.021,96.788,35.498z"/>
					<path fill="#FFFEDB" d="M109.675,74.021c0.425,1.035,1.136,1.962,2.109,2.649c0.072,0.052,0.151,0.105,0.283,0.191
						c0.981,0.621,2.11,0.949,3.268,0.949c2.116,0,4.052-1.068,5.173-2.849c0.875-1.375,1.16-3.01,0.805-4.604
						c-0.358-1.598-1.318-2.964-2.709-3.844c-0.98-0.617-2.109-0.944-3.266-0.944c-0.125,0-0.25,0.008-0.375,0.018
						c-0.71-3.157-0.919-7.769,0.035-11.265c0.112,0.011,0.225,0.024,0.337,0.024c2.116,0,4.052-1.067,5.173-2.849
						c0.875-1.375,1.16-3.009,0.805-4.604c-0.358-1.599-1.318-2.964-2.709-3.844c-0.98-0.617-2.109-0.944-3.266-0.944
						c-2.114,0-4.051,1.066-5.173,2.85c-1.604,2.532-1.12,5.804,1.024,7.765c0.021,0.02,0.048,0.037,0.071,0.059
						c-1.349,4.518-1.146,10.324-0.036,14.417c-0.144,0.132-0.294,0.254-0.426,0.399c-0.229,0.255-0.445,0.526-0.634,0.824
						c-0.318,0.502-0.551,1.033-0.71,1.578c-3.371,0.488-5.198,1.671-6.824,2.729c-2.035,1.324-3.961,2.572-9.636,2.665
						c-1.964-0.23-3.553-0.177-5.29-0.116c-1.431,0.052-2.91,0.106-4.849,0.003c-1.335-0.071-2.104-0.882-3.458-2.424
						c-1.803-2.055-4.219-4.648-9.369-5.022v4c3.295,0.3,4.796,1.888,6.356,3.667c1.487,1.694,3.175,3.615,6.256,3.782
						c2.118,0.114,3.76,0.052,5.208,0.001c2.491-0.092,4.453-0.161,7.855,0.684c2.607,0.643,12.099,9.673,14.773,14.322
						c-0.108,0.142-0.219,0.282-0.313,0.434c-1.743,2.755-1.026,6.385,1.619,8.251c0.072,0.052,0.151,0.104,0.283,0.191
						c0.981,0.621,2.11,0.948,3.268,0.948c2.116,0,4.052-1.068,5.173-2.849c0.875-1.374,1.16-3.009,0.805-4.603
						c-0.358-1.6-1.318-2.965-2.709-3.845c-0.98-0.617-2.109-0.944-3.266-0.944c-0.528,0-1.047,0.067-1.543,0.195
						c-2.561-4.187-8.652-10.455-13.189-13.792c1.813-0.628,3.05-1.435,4.212-2.188C106.245,75.159,107.432,74.398,109.675,74.021z
						 M113.555,47.097c0.388-0.614,1.054-0.98,1.783-0.98c0.399,0,0.79,0.113,1.125,0.325c0.48,0.304,0.813,0.775,0.937,1.33
						c0.122,0.546,0.024,1.106-0.279,1.584c-0.598,0.951-1.938,1.272-2.912,0.653l-0.094-0.063
						C113.197,49.3,112.952,48.05,113.555,47.097z M113.555,70.56c0.388-0.614,1.054-0.98,1.783-0.98
						c0.399,0,0.79,0.112,1.125,0.326c0.48,0.304,0.813,0.774,0.937,1.329c0.122,0.546,0.024,1.107-0.279,1.585
						c-0.598,0.95-1.938,1.271-2.912,0.652l-0.094-0.063C113.197,72.763,112.952,71.513,113.555,70.56z M113.555,96.862
						c0.388-0.613,1.054-0.979,1.783-0.979c0.399,0,0.79,0.112,1.125,0.325c0.48,0.304,0.813,0.775,0.937,1.33
						c0.122,0.547,0.024,1.106-0.279,1.584c-0.598,0.951-1.938,1.271-2.912,0.653l-0.094-0.063
						C113.197,99.065,112.952,97.816,113.555,96.862z"/>
				</g>
			</g>
		</g>
	</g>
</g>
</svg>
