<?xml version="1.0" encoding="UTF-8" standalone="no"?>
<svg
   xmlns:ns="&amp;ns_sfw;"
   xmlns:dc="http://purl.org/dc/elements/1.1/"
   xmlns:cc="http://creativecommons.org/ns#"
   xmlns:rdf="http://www.w3.org/1999/02/22-rdf-syntax-ns#"
   xmlns:svg="http://www.w3.org/2000/svg"
   xmlns="http://www.w3.org/2000/svg"
   xml:space="preserve"
   enable-background="new 0 0 585 150"
   viewBox="0 0 391.53699 67.098999"
   height="67.098999"
   width="391.53699"
   y="0px"
   x="0px"
   id="Layer_1"
   version="1.1"><defs
     id="defs111" /><metadata
     id="metadata3"><ns:sfw><ns:slices /><ns:sliceSourceBounds
         bottomLeftOrigin="true"
         x="2966"
         y="-589"
         width="542.828"
         height="144" /></ns:sfw><rdf:RDF><cc:Work
         rdf:about=""><dc:format>image/svg+xml</dc:format><dc:type
           rdf:resource="http://purl.org/dc/dcmitype/StillImage" /><dc:title></dc:title></cc:Work></rdf:RDF></metadata><g
     transform="translate(-155.646,-36.586)"
     id="g5" /><g
     transform="translate(-155.646,-36.586)"
     id="g87"><path
       d="m 155.646,102.823 0,-54.607 18.562,0 c 6.375,0 11.242,1.289 14.602,3.867 3.358,2.578 5.038,6.32 5.038,11.226 0,2.782 -0.609,5.203 -1.827,7.266 -1.219,2.063 -3.017,3.579 -5.391,4.547 2.562,0.75 4.547,2.18 5.953,4.289 1.405,2.109 2.108,4.695 2.108,7.758 0,5.437 -1.578,9.405 -4.733,11.905 -3.157,2.501 -7.906,3.75 -14.25,3.75 l -20.062,0 z m 13.264,-31.921 6.375,0 c 3.531,-0.094 5.297,-1.969 5.297,-5.625 0,-2.156 -0.438,-3.694 -1.313,-4.616 -0.875,-0.922 -2.219,-1.383 -4.031,-1.383 l -6.328,0 0,11.624 z m 0,9.235 0,11.765 6.797,0 c 1.844,0 3.258,-0.501 4.242,-1.506 0.984,-1.003 1.477,-2.384 1.477,-4.142 0,-3.952 -1.594,-5.991 -4.781,-6.117 l -7.735,0 z"
       id="path89"
       style="fill:#754e37" /><path
       d="m 201.365,77.984 c 0,-7.072 1.667,-12.621 5.002,-16.646 3.335,-4.025 7.949,-6.038 13.843,-6.038 5.951,0 10.594,2.013 13.93,6.038 3.334,4.024 5.002,9.602 5.002,16.731 l 0,2.976 c 0,7.102 -1.653,12.65 -4.959,16.646 -3.307,3.996 -7.935,5.994 -13.886,5.994 -5.98,0 -10.63,-2.005 -13.951,-6.016 -3.32,-4.011 -4.98,-9.58 -4.98,-16.71 l 0,-2.975 z m 12.247,3.072 c 0,8.389 2.228,12.582 6.685,12.582 4.11,0 6.324,-3.499 6.641,-10.5 l 0.043,-5.163 c 0,-4.28 -0.59,-7.455 -1.768,-9.523 -1.18,-2.068 -2.847,-3.103 -5.003,-3.103 -2.069,0 -3.687,1.034 -4.851,3.103 -1.165,2.068 -1.747,5.243 -1.747,9.523 l 0,3.081 z"
       id="path91"
       style="fill:#754e37" /><path
       d="m 245.309,77.984 c 0,-7.072 1.667,-12.621 5.002,-16.646 3.335,-4.025 7.949,-6.038 13.843,-6.038 5.951,0 10.594,2.013 13.93,6.038 3.334,4.024 5.002,9.602 5.002,16.731 l 0,2.976 c 0,7.102 -1.653,12.65 -4.959,16.646 -3.307,3.996 -7.935,5.994 -13.886,5.994 -5.98,0 -10.63,-2.005 -13.951,-6.016 -3.32,-4.011 -4.98,-9.58 -4.98,-16.71 l 0,-2.975 z m 12.247,3.072 c 0,8.389 2.228,12.582 6.685,12.582 4.11,0 6.324,-3.499 6.641,-10.5 l 0.043,-5.163 c 0,-4.28 -0.59,-7.455 -1.768,-9.523 -1.18,-2.068 -2.847,-3.103 -5.003,-3.103 -2.069,0 -3.687,1.034 -4.851,3.103 -1.165,2.068 -1.747,5.243 -1.747,9.523 l 0,3.081 z"
       id="path93"
       style="fill:#754e37" /><path
       d="m 306.155,84.841 -3.277,3.665 0,14.317 -12.204,0 0,-66.237 12.204,0 0,35.792 1.51,-2.242 8.452,-13.972 14.532,0 -13.541,19.232 14.835,27.427 -13.972,0 -8.539,-17.982 z"
       id="path95"
       style="fill:#754e37" /><path
       d="m 332.806,102.823 0,-54.607 18.562,0 c 6.375,0 11.242,1.289 14.602,3.867 3.358,2.578 5.038,6.32 5.038,11.226 0,2.782 -0.609,5.203 -1.827,7.266 -1.219,2.063 -3.017,3.579 -5.391,4.547 2.562,0.75 4.547,2.18 5.953,4.289 1.405,2.109 2.108,4.695 2.108,7.758 0,5.437 -1.578,9.405 -4.733,11.905 -3.157,2.501 -7.906,3.75 -14.25,3.75 l -20.062,0 z m 13.264,-31.921 6.375,0 c 3.531,-0.094 5.297,-1.969 5.297,-5.625 0,-2.156 -0.438,-3.694 -1.313,-4.616 -0.875,-0.922 -2.219,-1.383 -4.031,-1.383 l -6.328,0 0,11.624 z m 0,9.235 0,11.765 6.797,0 c 1.844,0 3.258,-0.501 4.242,-1.506 0.984,-1.003 1.477,-2.384 1.477,-4.142 0,-3.952 -1.594,-5.991 -4.781,-6.117 l -7.735,0 z"
       id="path97"
       style="fill:#eb743b" /><path
       d="m 402.978,67.937 -4.054,-0.345 c -3.335,0 -5.592,1.466 -6.771,4.398 l 0,30.833 -12.247,0 0,-46.659 11.514,0 0.346,5.045 c 1.926,-3.938 4.585,-5.908 7.978,-5.908 1.38,0 2.501,0.188 3.363,0.561 l -0.129,12.075 z"
       id="path99"
       style="fill:#eb743b" /><path
       d="m 430.103,102.823 c -0.346,-0.719 -0.69,-1.926 -1.035,-3.622 -2.186,2.99 -5.146,4.484 -8.884,4.484 -3.91,0 -7.151,-1.294 -9.724,-3.881 -2.573,-2.588 -3.86,-5.937 -3.86,-10.048 0,-4.887 1.56,-8.668 4.68,-11.342 3.118,-2.674 7.611,-4.038 13.476,-4.097 l 3.709,0 0,-3.752 c 0,-2.098 -0.36,-3.579 -1.078,-4.441 -0.719,-0.862 -1.769,-1.294 -3.148,-1.294 -3.048,0 -4.571,1.783 -4.571,5.348 l -12.203,0 c 0,-4.313 1.617,-7.87 4.851,-10.673 3.234,-2.803 7.324,-4.205 12.269,-4.205 5.117,0 9.078,1.33 11.881,3.989 2.803,2.659 4.205,6.462 4.205,11.406 l 0,21.95 c 0.057,4.025 0.632,7.173 1.725,9.443 l 0,0.733 -12.293,0 z M 422.9,94.112 c 1.352,0 2.501,-0.272 3.45,-0.819 0.948,-0.546 1.652,-1.192 2.113,-1.94 l 0,-9.703 -2.933,0 c -2.07,0 -3.702,0.662 -4.895,1.983 -1.193,1.323 -1.79,3.091 -1.79,5.305 0.002,3.45 1.353,5.174 4.055,5.174 z"
       id="path101"
       style="fill:#eb743b" /><path
       d="m 449.507,44.089 c 0,-1.897 0.604,-3.449 1.812,-4.657 1.207,-1.207 2.817,-1.812 4.83,-1.812 2.012,0 3.622,0.604 4.829,1.812 1.208,1.208 1.812,2.76 1.812,4.657 0,1.869 -0.597,3.422 -1.789,4.657 -1.193,1.236 -2.811,1.854 -4.852,1.854 -2.042,0 -3.659,-0.618 -4.852,-1.854 -1.193,-1.235 -1.79,-2.788 -1.79,-4.657 z m 12.807,58.734 -12.247,0 0,-46.659 12.247,0 0,46.659 z"
       id="path103"
       style="fill:#eb743b" /><path
       d="m 482.928,56.164 0.346,4.614 c 2.76,-3.651 6.367,-5.478 10.823,-5.478 8.021,0 12.146,5.621 12.377,16.861 l 0,30.661 -12.247,0 0,-29.754 c 0,-2.645 -0.396,-4.564 -1.186,-5.757 -0.792,-1.193 -2.178,-1.79 -4.162,-1.79 -2.214,0 -3.938,1.136 -5.175,3.406 l 0,33.896 -12.247,0 0,-46.659 11.471,0 z"
       id="path105"
       style="fill:#eb743b" /><path
       d="m 528.726,92.775 18.457,0 0,10.048 -32.946,0 0,-7.568 18.025,-28.914 -17.595,0 0,-10.177 32.257,0 0,7.374 -18.198,29.237 z"
       id="path107"
       style="fill:#eb743b" /></g></svg>