<?xml version="1.0" encoding="UTF-8"?><svg id="a" xmlns="http://www.w3.org/2000/svg" viewBox="0 0 258.65 100"><defs><style>.b{fill:#cfa691;}.c{fill:#fffedb;}.d{fill:#754e37;}.e{fill:#eb743b;}</style></defs><g><polygon class="e" points="46 2 46 98 87 74 87 26 46 2"/><polygon class="d" points="43 2 2 26 2 74 43 98 43 2"/><path class="c" d="M78.28,58.09c-1.24-1.97-3.38-3.15-5.72-3.15-.67,0-1.32,.1-1.96,.29-2.63-3.12-5.82-4.78-8.6-5.64,2.24-1.71,4.21-3.77,5.91-6.15,1.74,.39,3.63,.13,5.16-.83,3.16-2.01,4.1-6.2,2.1-9.35-1.25-1.97-3.39-3.15-5.72-3.15-1.28,0-2.53,.36-3.62,1.05-3.15,1.99-4.09,6.18-2.11,9.34,.13,.21,.27,.4,.42,.6-2.51,3.44-5.71,6.06-9.52,7.79h-.01c-3.53,1.61-5.62,2.12-8.62,2.12v5c4,0,5.93-1.12,10.02-2.9,1.37-.02,6.96,.18,10.99,4.75-1.51,2.16-1.66,5.11-.16,7.47,1.24,1.97,3.38,3.15,5.72,3.15,1.28,0,2.52-.36,3.61-1.04,1.54-.97,2.6-2.48,3-4.25,.4-1.76,.08-3.57-.89-5.09Zm-10.22-23.42c.42-.27,.9-.41,1.4-.41,.9,0,1.73,.46,2.22,1.22,.77,1.21,.4,2.84-.82,3.61-.41,.26-.9,.4-1.39,.4s-.97-.13-1.39-.39c-.34-.21-.62-.49-.83-.82-.77-1.22-.41-2.85,.81-3.62Zm7.06,27.6c-.15,.69-.56,1.27-1.16,1.64-.41,.26-.9,.41-1.39,.41-.91,0-1.73-.46-2.21-1.22-.75-1.18-.44-2.73,.69-3.53l.12-.08c1.21-.77,2.87-.37,3.61,.81,.38,.59,.5,1.29,.34,1.97Z"/><g><path class="c" d="M43,81.73h-4.68c-.59,0-1.07-.48-1.07-1.07,0-1.54,0-3.29-5.58-4.04-5.82-.78-21.04-3.3-21.19-3.32-.52-.08-.89-.53-.89-1.05V30.92c0-.3,.13-.59,.36-.8,.23-.2,.53-.3,.83-.26l4.81,.54c.59,.07,1.01,.59,.95,1.18-.06,.59-.59,1.01-1.18,.95l-3.62-.4v39.22c3.36,.55,15.26,2.5,20.23,3.17,5.66,.76,7.09,2.81,7.38,5.09h3.67v2.14Z"/><path class="b" d="M40.6,36.48c0-6.28-11.67-14.99-25.13-11.88v41.32c13.81-.57,25.13,4.45,25.13,10.79V36.48Z"/><g><path class="c" d="M23.1,34.94c-.56,0-1.03,.44-1.05,1.01-.02,.58,.24,1.09,1.01,1.09,9.68,0,17.54,8.26,17.54,10.82v-2.8c0-2.69-7.34-10.12-17.46-10.12h-.04Z"/><path class="c" d="M23.1,42.22c-.56,0-1.03,.44-1.05,1.01-.02,.58,.24,1.09,1.01,1.09,9.68,0,17.54,8.26,17.54,10.82v-2.8c0-2.69-7.34-10.12-17.46-10.12h-.04Z"/><path class="c" d="M23.1,49.51c-.56,0-1.03,.44-1.05,1.01-.02,.58,.24,1.09,1.01,1.09,9.68,0,17.54,8.26,17.54,10.82v-2.8c0-2.69-7.34-10.12-17.46-10.12h-.04Z"/></g></g></g><g><path class="d" d="M103.47,46V6.9h14.05c5.03,0,8.86,.92,11.48,2.77,2.62,1.84,3.93,4.52,3.93,8.03,0,2.02-.46,3.75-1.4,5.18-.93,1.43-2.3,2.49-4.11,3.17,2.04,.54,3.61,1.54,4.7,3.01,1.09,1.47,1.64,3.26,1.64,5.37,0,3.83-1.21,6.71-3.64,8.63-2.43,1.92-6.02,2.9-10.78,2.94h-15.87Zm9.43-22.8h4.91c2.06-.02,3.53-.39,4.4-1.13s1.32-1.82,1.32-3.26c0-1.65-.47-2.84-1.42-3.57-.95-.73-2.48-1.09-4.59-1.09h-4.62v9.05Zm0,6.18v9.37h6.18c1.7,0,3.01-.39,3.92-1.17,.91-.78,1.37-1.88,1.37-3.29,0-3.26-1.62-4.9-4.86-4.91h-6.61Z"/><path class="d" d="M137.39,31.2c0-2.9,.56-5.48,1.69-7.75,1.13-2.26,2.75-4.01,4.86-5.22s4.59-1.83,7.44-1.83c4.35,0,7.78,1.35,10.29,4.04s3.76,6.36,3.76,11v.32c0,4.53-1.26,8.12-3.77,10.78-2.52,2.66-5.92,3.99-10.22,3.99s-7.46-1.24-9.96-3.72c-2.51-2.48-3.86-5.84-4.05-10.08l-.03-1.53Zm9.05,.56c0,2.69,.42,4.66,1.26,5.91s2.09,1.88,3.73,1.88c3.22,0,4.87-2.48,4.94-7.44v-.91c0-5.21-1.66-7.82-4.99-7.82-3.03,0-4.66,2.25-4.92,6.74l-.03,1.64Z"/><path class="d" d="M168.27,31.2c0-2.9,.56-5.48,1.69-7.75,1.13-2.26,2.75-4.01,4.86-5.22s4.59-1.83,7.44-1.83c4.35,0,7.78,1.35,10.29,4.04s3.76,6.36,3.76,11v.32c0,4.53-1.26,8.12-3.77,10.78-2.52,2.66-5.92,3.99-10.22,3.99s-7.46-1.24-9.96-3.72c-2.51-2.48-3.86-5.84-4.05-10.08l-.03-1.53Zm9.05,.56c0,2.69,.42,4.66,1.26,5.91s2.09,1.88,3.73,1.88c3.22,0,4.87-2.48,4.94-7.44v-.91c0-5.21-1.66-7.82-4.99-7.82-3.03,0-4.66,2.25-4.92,6.74l-.03,1.64Z"/><path class="d" d="M211.97,35.18l-2.55,2.55v8.27h-9.05V4.72h9.05V26.64l.91-1.21,6.82-8.49h10.85l-10.18,11.95,10.85,17.11h-10.37l-6.34-10.82Z"/><path class="e" d="M103.47,92V52.9h14.05c5.03,0,8.86,.92,11.48,2.77,2.62,1.84,3.93,4.52,3.93,8.03,0,2.02-.46,3.75-1.4,5.18-.93,1.43-2.3,2.49-4.11,3.17,2.04,.54,3.61,1.54,4.7,3.01,1.09,1.47,1.64,3.26,1.64,5.37,0,3.83-1.21,6.71-3.64,8.63-2.43,1.92-6.02,2.9-10.78,2.94h-15.87Zm9.43-22.8h4.91c2.06-.02,3.53-.39,4.4-1.13s1.32-1.82,1.32-3.26c0-1.65-.47-2.84-1.42-3.57-.95-.73-2.48-1.09-4.59-1.09h-4.62v9.05Zm0,6.18v9.37h6.18c1.7,0,3.01-.39,3.92-1.17,.91-.78,1.37-1.88,1.37-3.29,0-3.26-1.62-4.9-4.86-4.91h-6.61Z"/><path class="e" d="M156.11,71.13l-2.98-.21c-2.85,0-4.67,.9-5.48,2.69v18.4h-9.05v-29.06h8.49l.29,3.73c1.52-2.85,3.64-4.27,6.37-4.27,.97,0,1.81,.11,2.52,.32l-.16,8.41Z"/><path class="e" d="M174.93,92c-.32-.59-.61-1.46-.86-2.61-1.67,2.1-3.99,3.14-6.98,3.14-2.74,0-5.07-.83-6.98-2.48-1.92-1.66-2.87-3.74-2.87-6.24,0-3.15,1.16-5.53,3.49-7.14,2.33-1.61,5.71-2.42,10.15-2.42h2.79v-1.54c0-2.68-1.16-4.02-3.46-4.02-2.15,0-3.22,1.06-3.22,3.18h-9.05c0-2.81,1.2-5.09,3.59-6.84,2.39-1.75,5.44-2.63,9.14-2.63s6.63,.9,8.78,2.71c2.15,1.81,3.25,4.29,3.3,7.44v12.86c.04,2.67,.45,4.71,1.24,6.12v.46h-9.05Zm-5.67-5.91c1.13,0,2.06-.24,2.81-.72,.74-.48,1.28-1.03,1.6-1.64v-4.65h-2.63c-3.15,0-4.73,1.42-4.73,4.24,0,.82,.28,1.49,.83,2,.55,.51,1.26,.77,2.12,.77Z"/><path class="e" d="M187.69,55.42c0-1.3,.47-2.36,1.4-3.19,.93-.83,2.14-1.24,3.62-1.24s2.7,.41,3.63,1.24c.93,.83,1.4,1.89,1.4,3.19s-.47,2.36-1.4,3.19-2.14,1.24-3.63,1.24-2.69-.41-3.62-1.24-1.4-1.89-1.4-3.19Zm9.61,36.58h-9.08v-29.06h9.08v29.06Z"/><path class="e" d="M211.19,62.94l.29,3.41c2.01-2.63,4.77-3.95,8.3-3.95,3.03,0,5.29,.9,6.78,2.71,1.49,1.81,2.27,4.53,2.32,8.16v18.72h-9.08v-18.34c0-1.47-.3-2.55-.89-3.24s-1.67-1.03-3.22-1.03c-1.77,0-3.09,.7-3.95,2.09v20.52h-9.05v-29.06h8.49Z"/><path class="e" d="M244.57,85.02h13.24v6.98h-24.68v-5.05l12.89-17.03h-12.33v-6.98h23.82v4.89l-12.94,17.19Z"/></g></svg>