<?xml version="1.0" encoding="utf-8"?>
<!-- Generator: Adobe Illustrator 16.0.0, SVG Export Plug-In . SVG Version: 6.00 Build 0)  -->
<!DOCTYPE svg PUBLIC "-//W3C//DTD SVG 1.1//EN" "http://www.w3.org/Graphics/SVG/1.1/DTD/svg11.dtd" [
	<!ENTITY ns_extend "http://ns.adobe.com/Extensibility/1.0/">
	<!ENTITY ns_ai "http://ns.adobe.com/AdobeIllustrator/10.0/">
	<!ENTITY ns_graphs "http://ns.adobe.com/Graphs/1.0/">
	<!ENTITY ns_vars "http://ns.adobe.com/Variables/1.0/">
	<!ENTITY ns_imrep "http://ns.adobe.com/ImageReplacement/1.0/">
	<!ENTITY ns_sfw "http://ns.adobe.com/SaveForWeb/1.0/">
	<!ENTITY ns_custom "http://ns.adobe.com/GenericCustomNamespace/1.0/">
	<!ENTITY ns_adobe_xpath "http://ns.adobe.com/XPath/1.0/">
]>
<svg version="1.1" id="Layer_1" xmlns:x="&ns_extend;" xmlns:i="&ns_ai;" xmlns:graph="&ns_graphs;"
	 xmlns="http://www.w3.org/2000/svg" xmlns:xlink="http://www.w3.org/1999/xlink" x="0px" y="0px" width="245px" height="100px"
	 viewBox="0 0 245 100" enable-background="new 0 0 245 100" xml:space="preserve">
<metadata>
	<sfw  xmlns="&ns_sfw;">
		<slices></slices>
		<sliceSourceBounds  height="96" width="239.869" y="-1059" x="2964" bottomLeftOrigin="true"></sliceSourceBounds>
	</sfw>
</metadata>
<g>
</g>
<g>
	<g>
		<polygon fill="#EB743B" points="46,2 46,98 87,74 87,26 		"/>
		<polygon fill="#754E37" points="43,2 2,26 2,74 43,98 		"/>
		<path fill="#FFFEDB" d="M78.281,58.087c-1.239-1.97-3.38-3.148-5.718-3.148c-0.666,0-1.324,0.103-1.956,0.295
			c-2.632-3.125-5.819-4.775-8.603-5.636c2.235-1.714,4.208-3.771,5.909-6.153c1.74,0.394,3.63,0.127,5.162-0.832
			c3.158-2.006,4.103-6.197,2.104-9.348c-1.249-1.975-3.39-3.152-5.724-3.152c-1.283,0-2.533,0.363-3.616,1.05
			c-3.146,1.991-4.093,6.181-2.105,9.336c0.13,0.207,0.271,0.404,0.422,0.596c-2.514,3.442-5.708,6.056-9.519,7.785l-0.014,0.004
			C51.093,50.487,49,51,46,51v5c4,0,5.931-1.125,10.016-2.898c1.366-0.023,6.962,0.185,10.991,4.747
			c-1.507,2.164-1.655,5.108-0.16,7.471c1.241,1.97,3.382,3.15,5.721,3.15c1.278,0,2.524-0.36,3.607-1.044
			c1.538-0.975,2.599-2.482,2.995-4.252C79.566,61.413,79.248,59.606,78.281,58.087z M68.061,34.67
			c0.423-0.266,0.901-0.405,1.396-0.405c0.903,0,1.731,0.456,2.219,1.224c0.771,1.214,0.403,2.836-0.818,3.61
			c-0.41,0.261-0.896,0.398-1.387,0.398c-0.493,0-0.974-0.134-1.39-0.391c-0.343-0.213-0.625-0.489-0.832-0.817
			C66.478,37.064,66.842,35.443,68.061,34.67z M75.119,62.27c-0.154,0.687-0.564,1.27-1.161,1.645
			c-0.413,0.264-0.896,0.406-1.391,0.406c-0.906,0-1.731-0.457-2.21-1.218c-0.745-1.18-0.441-2.727,0.691-3.528l0.117-0.078
			c1.208-0.766,2.866-0.367,3.608,0.808C75.151,60.896,75.271,61.591,75.119,62.27z"/>
		<g>
			<g>
				<g>
					<g>
						<path fill="#FFFEDB" d="M43,81.732h-4.68c-0.59,0-1.068-0.479-1.068-1.069c0-1.541,0-3.288-5.58-4.036
							c-5.819-0.777-21.041-3.299-21.193-3.324c-0.517-0.085-0.895-0.532-0.895-1.055V30.923c0-0.304,0.13-0.594,0.356-0.798
							c0.227-0.202,0.53-0.303,0.831-0.265l4.813,0.535c0.588,0.065,1.01,0.594,0.945,1.18c-0.064,0.587-0.593,1.013-1.181,0.945
							l-3.625-0.402v39.223c3.358,0.554,15.262,2.503,20.232,3.167c5.658,0.758,7.091,2.81,7.375,5.086H43V81.732z"/>
					</g>
					<path fill="#CFA691" d="M40.599,36.477c0-6.278-11.675-14.989-25.132-11.88V65.92c13.813-0.574,25.132,4.445,25.132,10.795
						V36.477z"/>
					<g>
						<path fill="#FFFEDB" d="M23.098,34.94c-0.563,0-1.027,0.444-1.049,1.009c-0.021,0.579,0.243,1.09,1.01,1.09
							c9.678,0,17.54,8.258,17.54,10.824v-2.8c0-2.69-7.343-10.123-17.462-10.123C23.137,34.94,23.11,34.94,23.098,34.94z"/>
						<path fill="#FFFEDB" d="M23.098,42.224c-0.563,0-1.027,0.444-1.049,1.009c-0.021,0.579,0.243,1.09,1.01,1.09
							c9.678,0,17.54,8.258,17.54,10.824v-2.8c0-2.69-7.343-10.123-17.462-10.123C23.137,42.224,23.11,42.224,23.098,42.224z"/>
						<path fill="#FFFEDB" d="M23.098,49.507c-0.563,0-1.027,0.444-1.049,1.009c-0.021,0.579,0.243,1.09,1.01,1.09
							c9.678,0,17.54,8.258,17.54,10.824v-2.801c0-2.689-7.343-10.122-17.462-10.122C23.137,49.507,23.11,49.507,23.098,49.507z"/>
					</g>
				</g>
			</g>
		</g>
	</g>
	<g>
		<path fill="#754E37" d="M103.302,46V10.703H115.3c4.121,0,7.267,0.833,9.438,2.5c2.172,1.666,3.258,4.085,3.258,7.256
			c0,1.798-0.395,3.363-1.182,4.696c-0.788,1.333-1.95,2.313-3.484,2.938c1.655,0.485,2.938,1.409,3.848,2.772
			s1.363,3.035,1.363,5.015c0,3.515-1.021,6.08-3.061,7.695c-2.04,1.616-5.11,2.424-9.21,2.424H103.302z M111.876,25.367h4.121
			c2.282-0.061,3.424-1.272,3.424-3.636c0-1.394-0.283-2.389-0.849-2.984s-1.435-0.894-2.605-0.894h-4.091V25.367z M111.876,31.336
			v7.604h4.394c1.191,0,2.105-0.324,2.742-0.973c0.636-0.649,0.954-1.541,0.954-2.678c0-2.555-1.03-3.873-3.091-3.954H111.876z"/>
		<path fill="#754E37" d="M132.854,29.944c0-4.571,1.077-8.157,3.233-10.759c2.155-2.602,5.138-3.902,8.947-3.902
			c3.847,0,6.848,1.301,9.004,3.902c2.155,2.602,3.233,6.206,3.233,10.814v1.924c0,4.59-1.069,8.177-3.206,10.759
			c-2.137,2.584-5.129,3.875-8.976,3.875c-3.865,0-6.87-1.296-9.017-3.889c-2.146-2.592-3.22-6.192-3.22-10.801V29.944z
			 M140.771,31.93c0,5.423,1.44,8.133,4.32,8.133c2.657,0,4.088-2.262,4.293-6.786l0.027-3.338c0-2.767-0.381-4.818-1.143-6.155
			s-1.84-2.006-3.233-2.006c-1.338,0-2.383,0.669-3.136,2.006c-0.752,1.337-1.129,3.389-1.129,6.155V31.93z"/>
		<path fill="#754E37" d="M161.258,29.944c0-4.571,1.077-8.157,3.233-10.759c2.155-2.602,5.138-3.902,8.947-3.902
			c3.847,0,6.848,1.301,9.004,3.902c2.155,2.602,3.233,6.206,3.233,10.814v1.924c0,4.59-1.069,8.177-3.206,10.759
			c-2.137,2.584-5.129,3.875-8.976,3.875c-3.865,0-6.87-1.296-9.017-3.889c-2.146-2.592-3.22-6.192-3.22-10.801V29.944z
			 M169.174,31.93c0,5.423,1.44,8.133,4.32,8.133c2.657,0,4.088-2.262,4.293-6.786l0.027-3.338c0-2.767-0.381-4.818-1.143-6.155
			s-1.84-2.006-3.233-2.006c-1.338,0-2.383,0.669-3.136,2.006c-0.752,1.337-1.129,3.389-1.129,6.155V31.93z"/>
		<path fill="#754E37" d="M200.588,34.377l-2.118,2.369V46h-7.889V3.186h7.889v23.136l0.976-1.45l5.463-9.03h9.394l-8.753,12.432
			L215.138,46h-9.031L200.588,34.377z"/>
		<path fill="#EB743B" d="M103.302,92V56.703H115.3c4.121,0,7.267,0.833,9.438,2.5c2.172,1.666,3.258,4.085,3.258,7.256
			c0,1.798-0.395,3.363-1.182,4.696c-0.788,1.333-1.95,2.313-3.484,2.938c1.655,0.485,2.938,1.409,3.848,2.772
			s1.363,3.035,1.363,5.015c0,3.515-1.021,6.08-3.061,7.695c-2.04,1.616-5.11,2.424-9.21,2.424H103.302z M111.876,71.367h4.121
			c2.282-0.061,3.424-1.272,3.424-3.636c0-1.394-0.283-2.389-0.849-2.984s-1.435-0.894-2.605-0.894h-4.091V71.367z M111.876,77.336
			v7.604h4.394c1.191,0,2.105-0.324,2.742-0.973c0.636-0.649,0.954-1.541,0.954-2.678c0-2.555-1.03-3.873-3.091-3.954H111.876z"/>
		<path fill="#EB743B" d="M148.659,69.45l-2.62-0.224c-2.156,0-3.614,0.948-4.376,2.844V92h-7.917V61.841h7.442l0.224,3.261
			c1.244-2.546,2.964-3.818,5.156-3.818c0.892,0,1.617,0.121,2.174,0.362L148.659,69.45z"/>
		<path fill="#EB743B" d="M166.191,92c-0.223-0.464-0.446-1.245-0.669-2.342c-1.412,1.934-3.326,2.899-5.742,2.899
			c-2.527,0-4.623-0.836-6.285-2.509c-1.664-1.673-2.495-3.837-2.495-6.494c0-3.159,1.008-5.604,3.024-7.331
			c2.016-1.729,4.92-2.61,8.711-2.648h2.396V71.15c0-1.356-0.232-2.313-0.696-2.871c-0.465-0.558-1.144-0.836-2.035-0.836
			c-1.97,0-2.954,1.152-2.954,3.456h-7.889c0-2.787,1.045-5.087,3.136-6.898c2.091-1.813,4.733-2.718,7.93-2.718
			c3.308,0,5.868,0.859,7.68,2.578s2.718,4.177,2.718,7.373v14.188c0.037,2.602,0.408,4.637,1.115,6.104V92H166.191z
			 M161.536,86.369c0.873,0,1.617-0.176,2.23-0.529c0.613-0.353,1.068-0.771,1.365-1.254v-6.272h-1.896
			c-1.338,0-2.393,0.428-3.163,1.282c-0.771,0.855-1.157,1.998-1.157,3.429C158.916,85.255,159.789,86.369,161.536,86.369z"/>
		<path fill="#EB743B" d="M178.735,54.036c0-1.227,0.391-2.23,1.171-3.011s1.82-1.171,3.122-1.171c1.3,0,2.341,0.391,3.121,1.171
			c0.781,0.78,1.171,1.784,1.171,3.011c0,1.208-0.386,2.211-1.156,3.01c-0.771,0.8-1.817,1.199-3.136,1.199
			c-1.32,0-2.365-0.399-3.137-1.199C179.121,56.247,178.735,55.244,178.735,54.036z M187.014,92h-7.916V61.841h7.916V92z"/>
		<path fill="#EB743B" d="M200.338,61.841l0.223,2.982c1.784-2.36,4.115-3.54,6.996-3.54c5.185,0,7.851,3.633,8,10.898V92h-7.916
			V72.767c0-1.709-0.256-2.949-0.767-3.721c-0.512-0.771-1.408-1.157-2.69-1.157c-1.431,0-2.546,0.734-3.345,2.202V92h-7.916V61.841
			H200.338z"/>
		<path fill="#EB743B" d="M229.939,85.506h11.93V92h-21.296v-4.892l11.651-18.689h-11.372v-6.578h20.85v4.766L229.939,85.506z"/>
	</g>
</g>
</svg>
