<?xml version="1.0" encoding="utf-8"?>
<!-- Generator: Adobe Illustrator 26.2.1, SVG Export Plug-In . SVG Version: 6.00 Build 0)  -->
<svg version="1.1" id="a" xmlns="http://www.w3.org/2000/svg" xmlns:xlink="http://www.w3.org/1999/xlink" x="0px" y="0px"
	 width="468.4px" height="100px" viewBox="0 0 468.4 100" style="enable-background:new 0 0 468.4 100;" xml:space="preserve">
<style type="text/css">
	.st0{fill:#754E37;}
	.st1{fill:#EB743B;}
	.st2{fill:#FFFEDB;}
	.st3{fill:#CFA691;}
</style>
<g>
	<path class="st0" d="M103.8,74.8V24.5h18.1c6.5,0,11.4,1.2,14.8,3.6c3.4,2.4,5.1,5.8,5.1,10.3c0,2.6-0.6,4.8-1.8,6.7
		c-1.2,1.8-3,3.2-5.3,4.1c2.6,0.7,4.6,2,6.1,3.9c1.4,1.9,2.1,4.2,2.1,6.9c0,4.9-1.6,8.6-4.7,11.1c-3.1,2.5-7.8,3.7-13.9,3.8
		C124.2,74.8,103.8,74.8,103.8,74.8z M115.9,45.4h6.3c2.7,0,4.5-0.5,5.7-1.5c1.1-1,1.7-2.3,1.7-4.2c0-2.1-0.6-3.7-1.8-4.6
		s-3.2-1.4-5.9-1.4H116L115.9,45.4L115.9,45.4z M115.9,53.4v12.1h8c2.2,0,3.9-0.5,5-1.5s1.8-2.4,1.8-4.2c0-4.2-2.1-6.3-6.3-6.3
		H115.9L115.9,53.4z"/>
	<path class="st0" d="M147.5,55.8c0-3.7,0.7-7.1,2.2-10s3.5-5.2,6.3-6.7s5.9-2.3,9.6-2.3c5.6,0,10,1.7,13.2,5.2
		c3.2,3.5,4.8,8.2,4.8,14.2v0.4c0,5.8-1.6,10.5-4.9,13.9c-3.2,3.4-7.6,5.1-13.2,5.1s-9.6-1.6-12.8-4.8s-5-7.5-5.2-13L147.5,55.8
		L147.5,55.8z M159.2,56.5c0,3.5,0.5,6,1.6,7.6s2.7,2.4,4.8,2.4c4.1,0,6.3-3.2,6.4-9.6v-1.2c0-6.7-2.1-10.1-6.4-10.1
		c-3.9,0-6,2.9-6.3,8.7L159.2,56.5L159.2,56.5z"/>
	<path class="st0" d="M187.3,55.8c0-3.7,0.7-7.1,2.2-10s3.5-5.2,6.3-6.7s5.9-2.3,9.6-2.3c5.6,0,10,1.7,13.2,5.2
		c3.2,3.5,4.8,8.2,4.8,14.2v0.4c0,5.8-1.6,10.5-4.9,13.9c-3.2,3.4-7.6,5.1-13.2,5.1s-9.6-1.6-12.8-4.8s-5-7.5-5.2-13L187.3,55.8
		L187.3,55.8z M198.9,56.5c0,3.5,0.5,6,1.6,7.6s2.7,2.4,4.8,2.4c4.1,0,6.3-3.2,6.4-9.6v-1.2c0-6.7-2.1-10.1-6.4-10.1
		c-3.9,0-6,2.9-6.3,8.7L198.9,56.5L198.9,56.5z"/>
	<path class="st0" d="M243.6,60.9l-3.3,3.3v10.7h-11.7V21.7h11.7v28.2l1.2-1.6l8.8-10.9h14l-13.1,15.4l14,22h-13.4L243.6,60.9
		L243.6,60.9z"/>
	<path class="st1" d="M267.8,74.8V24.5h18.1c6.5,0,11.4,1.2,14.8,3.6c3.4,2.4,5.1,5.8,5.1,10.3c0,2.6-0.6,4.8-1.8,6.7
		c-1.2,1.8-3,3.2-5.3,4.1c2.6,0.7,4.6,2,6,3.9c1.4,1.9,2.1,4.2,2.1,6.9c0,4.9-1.6,8.6-4.7,11.1c-3.1,2.5-7.8,3.7-13.9,3.8
		L267.8,74.8L267.8,74.8z M279.9,45.4h6.3c2.6,0,4.5-0.5,5.7-1.5s1.7-2.3,1.7-4.2c0-2.1-0.6-3.7-1.8-4.6s-3.2-1.4-5.9-1.4h-6
		L279.9,45.4L279.9,45.4z M279.9,53.4v12.1h8c2.2,0,3.9-0.5,5-1.5s1.8-2.4,1.8-4.2c0-4.2-2.1-6.3-6.3-6.3H279.9L279.9,53.4z"/>
	<path class="st1" d="M335.6,48l-3.8-0.3c-3.7,0-6,1.2-7.1,3.5v23.7H313V37.4H324l0.4,4.8c2-3.7,4.7-5.5,8.2-5.5
		c1.2,0,2.3,0.1,3.2,0.4L335.6,48L335.6,48z"/>
	<path class="st1" d="M359.8,74.8c-0.4-0.8-0.8-1.9-1.1-3.4c-2.1,2.7-5.1,4.1-9,4.1c-3.5,0-6.5-1.1-9-3.2c-2.5-2.1-3.7-4.8-3.7-8
		c0-4.1,1.5-7.1,4.5-9.2c3-2.1,7.4-3.1,13.1-3.1h3.6v-2c0-3.5-1.5-5.2-4.5-5.2c-2.8,0-4.1,1.4-4.1,4.1H338c0-3.6,1.5-6.5,4.6-8.8
		c3.1-2.3,7-3.4,11.8-3.4s8.5,1.2,11.3,3.5s4.2,5.5,4.2,9.6v16.6c0,3.4,0.6,6.1,1.6,7.9v0.6H359.8L359.8,74.8z M352.5,67.2
		c1.5,0,2.7-0.3,3.6-0.9c1-0.6,1.6-1.3,2.1-2.1v-6h-3.4c-4.1,0-6.1,1.8-6.1,5.5c0,1.1,0.4,1.9,1.1,2.6
		C350.5,66.9,351.4,67.2,352.5,67.2L352.5,67.2z"/>
	<path class="st1" d="M376.3,27.7c0-1.7,0.6-3,1.8-4.1s2.8-1.6,4.7-1.6s3.5,0.5,4.7,1.6s1.8,2.4,1.8,4.1s-0.6,3-1.8,4.1
		c-1.2,1.1-2.8,1.6-4.7,1.6s-3.5-0.5-4.7-1.6C376.9,30.7,376.3,29.4,376.3,27.7z M388.6,74.8H377V37.4h11.7V74.8L388.6,74.8z"/>
	<path class="st1" d="M406.5,37.4l0.4,4.4c2.6-3.4,6.1-5.1,10.7-5.1c3.9,0,6.8,1.2,8.7,3.5s2.9,5.8,3,10.5v24.1h-11.7V51.2
		c0-1.9-0.4-3.3-1.1-4.2s-2.1-1.3-4.1-1.3c-2.3,0-4,0.9-5.1,2.7v26.4h-11.7V37.4H406.5z"/>
	<path class="st1" d="M449.5,65.8h17v9h-31.8v-6.5l16.6-21.9h-15.9v-9h30.7v6.3L449.5,65.8L449.5,65.8z"/>
</g>
<g>
	<polygon class="st1" points="47,2 47,98 88,74 88,26 	"/>
	<polygon class="st0" points="44,2 3,26 3,74 44,98 	"/>
	<path class="st2" d="M79.3,58.1c-1.2-2-3.4-3.2-5.7-3.2c-0.7,0-1.3,0.1-2,0.3c-2.6-3.1-5.8-4.8-8.6-5.6c2.2-1.7,4.2-3.8,5.9-6.2
		c1.7,0.4,3.6,0.1,5.2-0.8c3.2-2,4.1-6.2,2.1-9.4c-1.2-2-3.4-3.1-5.7-3.1c-1.3,0-2.5,0.4-3.6,1c-3.2,2-4.1,6.2-2.1,9.3
		c0.1,0.2,0.3,0.4,0.4,0.6c-2.5,3.4-5.7,6.1-9.5,7.8h0C52.1,50.5,50,51,47,51v5c4,0,5.9-1.1,10-2.9c1.4,0,7,0.2,11,4.8
		c-1.5,2.2-1.7,5.1-0.2,7.5c1.2,2,3.4,3.2,5.7,3.2c1.3,0,2.5-0.4,3.6-1c1.5-1,2.6-2.5,3-4.2C80.6,61.4,80.2,59.6,79.3,58.1
		L79.3,58.1z M69.1,34.7c0.4-0.3,0.9-0.4,1.4-0.4c0.9,0,1.7,0.5,2.2,1.2c0.8,1.2,0.4,2.8-0.8,3.6c-0.4,0.3-0.9,0.4-1.4,0.4
		s-1-0.1-1.4-0.4c-0.3-0.2-0.6-0.5-0.8-0.8C67.5,37.1,67.8,35.4,69.1,34.7L69.1,34.7z M76.1,62.3C76,63,75.6,63.5,75,63.9
		c-0.4,0.3-0.9,0.4-1.4,0.4c-0.9,0-1.7-0.5-2.2-1.2c-0.8-1.2-0.4-2.7,0.7-3.5l0.1-0.1c1.2-0.8,2.9-0.4,3.6,0.8
		C76.2,60.9,76.3,61.6,76.1,62.3z"/>
	<g>
		<path class="st2" d="M44,81.7h-4.7c-0.6,0-1.1-0.5-1.1-1.1c0-1.5,0-3.3-5.6-4c-5.8-0.8-21-3.3-21.2-3.3c-0.5-0.1-0.9-0.5-0.9-1.1
			V30.9c0-0.3,0.1-0.6,0.4-0.8c0.2-0.2,0.5-0.3,0.8-0.3l4.8,0.5c0.6,0.1,1,0.6,1,1.2s-0.6,1-1.2,1l-3.6-0.4v39.2
			c3.4,0.6,15.3,2.5,20.2,3.2c5.7,0.8,7.1,2.8,7.4,5.1H44L44,81.7L44,81.7z"/>
		<path class="st3" d="M41.6,36.5c0-6.3-11.7-15-25.1-11.9v41.3c13.8-0.6,25.1,4.4,25.1,10.8V36.5z"/>
		<g>
			<path class="st2" d="M24.1,34.9c-0.6,0-1,0.4-1,1c0,0.6,0.2,1.1,1,1.1c9.7,0,17.5,8.3,17.5,10.8v-2.8
				C41.6,42.4,34.3,34.9,24.1,34.9C24.1,34.9,24.1,34.9,24.1,34.9z"/>
			<path class="st2" d="M24.1,42.2c-0.6,0-1,0.4-1,1c0,0.6,0.2,1.1,1,1.1c9.7,0,17.5,8.3,17.5,10.8v-2.8
				C41.6,49.7,34.3,42.2,24.1,42.2C24.1,42.2,24.1,42.2,24.1,42.2z"/>
			<path class="st2" d="M24.1,49.5c-0.6,0-1,0.4-1,1c0,0.6,0.2,1.1,1,1.1c9.7,0,17.5,8.3,17.5,10.8v-2.8
				C41.6,56.9,34.3,49.5,24.1,49.5C24.1,49.5,24.1,49.5,24.1,49.5z"/>
		</g>
	</g>
</g>
</svg>
