<?xml version="1.0" encoding="utf-8"?>
<!-- Generator: Adobe Illustrator 26.2.1, SVG Export Plug-In . SVG Version: 6.00 Build 0)  -->
<svg version="1.1" id="a" xmlns="http://www.w3.org/2000/svg" xmlns:xlink="http://www.w3.org/1999/xlink" x="0px" y="0px"
	 width="70px" height="30px" viewBox="0 0 70 30" style="enable-background:new 0 0 70 30;" xml:space="preserve">
<style type="text/css">
	.st0{fill:#754E37;}
	.st1{fill:#EB743B;}
</style>
<g>
	<polygon class="st0" points="14,1 2,8 2,22 14,29 	"/>
	<polygon class="st1" points="15,1 27,8 27,22 15,29 	"/>
</g>
<g>
	<path class="st0" d="M31,25V5.2h7.9c2.8,0,5,0.5,6.4,1.4s2.2,2.3,2.2,4.1c0,2.2-1,3.6-2.9,4.3c1,0.3,1.9,0.8,2.5,1.5
		s0.9,1.7,0.9,2.7c0,1.9-0.7,3.3-2,4.3c-1.3,0.9-3.3,1.4-6.1,1.4L31,25L31,25z M36.7,13.4h2.7c0.9,0,1.5-0.2,1.9-0.5
		s0.5-0.8,0.5-1.4c0-0.7-0.2-1.2-0.6-1.5s-1-0.4-1.8-0.4h-2.8V13.4z M36.7,17v3.6h3c0.8,0,1.4-0.2,1.8-0.5s0.7-0.7,0.7-1.3
		c0-1.2-0.7-1.8-2.1-1.9H36.7z"/>
	<path class="st1" d="M50.4,25V5.2h7.9c2.8,0,5,0.5,6.4,1.4c1.5,0.9,2.2,2.3,2.2,4.1c0,2.2-1,3.6-2.9,4.3c1.1,0.3,1.9,0.8,2.5,1.5
		s0.9,1.7,0.9,2.7c0,1.9-0.7,3.3-2,4.3c-1.3,0.9-3.3,1.4-6.1,1.4L50.4,25L50.4,25z M56.1,13.4h2.7c0.9,0,1.5-0.2,1.9-0.5
		s0.5-0.8,0.5-1.4c0-0.7-0.2-1.2-0.6-1.5s-1-0.4-1.8-0.4h-2.8V13.4z M56.1,17v3.6h3c0.8,0,1.4-0.2,1.8-0.5s0.7-0.7,0.7-1.3
		c0-1.2-0.7-1.8-2.1-1.9H56.1z"/>
</g>
</svg>
