<?xml version="1.0" encoding="utf-8"?>
<!-- Generator: Adobe Illustrator 26.2.1, SVG Export Plug-In . SVG Version: 6.00 Build 0)  -->
<svg version="1.1" id="a" xmlns="http://www.w3.org/2000/svg" xmlns:xlink="http://www.w3.org/1999/xlink" x="0px" y="0px"
	 width="140px" height="190px" viewBox="0 0 140 190" style="enable-background:new 0 0 140 190;" xml:space="preserve">
<style type="text/css">
	.st0{fill:#754E37;}
	.st1{fill:#EB743B;}
	.st2{fill:#FFFEDB;}
	.st3{fill:#CFA691;}
</style>
<g>
	<path class="st0" d="M15.5,142v-35.3h12c4.1,0,7.3,0.8,9.4,2.5c2.2,1.7,3.3,4.1,3.3,7.3c0,1.8-0.4,3.4-1.2,4.7
		c-0.8,1.3-2,2.3-3.5,2.9c1.7,0.5,2.9,1.4,3.8,2.8c0.9,1.4,1.4,3,1.4,5c0,3.5-1,6.1-3.1,7.7s-5.1,2.4-9.2,2.4L15.5,142L15.5,142z
		 M24.1,121.4h4.1c2.3-0.1,3.4-1.3,3.4-3.6c0-1.4-0.3-2.4-0.9-3s-1.4-0.9-2.6-0.9h-4.1L24.1,121.4L24.1,121.4z M24.1,127.3v7.6h4.4
		c1.2,0,2.1-0.3,2.7-1c0.6-0.6,0.9-1.5,0.9-2.7c0-2.6-1-3.9-3.1-3.9L24.1,127.3L24.1,127.3z"/>
	<path class="st0" d="M45.1,125.9c0-4.6,1.1-8.2,3.2-10.8c2.2-2.6,5.1-3.9,9-3.9s6.8,1.3,9,3.9c2.2,2.6,3.2,6.2,3.2,10.8v1.9
		c0,4.6-1.1,8.2-3.2,10.8s-5.1,3.9-9,3.9s-6.9-1.3-9-3.9s-3.2-6.2-3.2-10.8L45.1,125.9L45.1,125.9z M53,127.9c0,5.4,1.4,8.1,4.3,8.1
		c2.7,0,4.1-2.2,4.3-6.8l0-3.3c0-2.8-0.4-4.8-1.1-6.1s-1.8-2-3.2-2s-2.4,0.7-3.1,2c-0.8,1.3-1.1,3.4-1.1,6.1V127.9L53,127.9z"/>
	<path class="st0" d="M73.5,125.9c0-4.6,1.1-8.2,3.2-10.8c2.2-2.6,5.1-3.9,8.9-3.9s6.8,1.3,9,3.9c2.2,2.6,3.2,6.2,3.2,10.8v1.9
		c0,4.6-1.1,8.2-3.2,10.8s-5.1,3.9-9,3.9s-6.9-1.3-9-3.9s-3.2-6.2-3.2-10.8L73.5,125.9L73.5,125.9z M81.4,127.9
		c0,5.4,1.4,8.1,4.3,8.1c2.7,0,4.1-2.2,4.3-6.8l0-3.3c0-2.8-0.4-4.8-1.1-6.1s-1.8-2-3.2-2s-2.4,0.7-3.1,2c-0.8,1.3-1.1,3.4-1.1,6.1
		V127.9L81.4,127.9z"/>
	<path class="st0" d="M112.8,130.4l-2.1,2.4v9.2h-7.9V99.2h7.9v23.1l1-1.4l5.5-9h9.4l-8.8,12.4l9.6,17.7h-9L112.8,130.4L112.8,130.4
		z"/>
	<path class="st1" d="M0.9,188v-35.3h12c4.1,0,7.3,0.8,9.4,2.5s3.3,4.1,3.3,7.3c0,1.8-0.4,3.4-1.2,4.7c-0.8,1.3-2,2.3-3.5,2.9
		c1.7,0.5,2.9,1.4,3.9,2.8s1.4,3,1.4,5c0,3.5-1,6.1-3.1,7.7S18,188,13.9,188L0.9,188L0.9,188z M9.5,167.4h4.1
		c2.3-0.1,3.4-1.3,3.4-3.6c0-1.4-0.3-2.4-0.9-3s-1.4-0.9-2.6-0.9H9.5L9.5,167.4L9.5,167.4z M9.5,173.3v7.6h4.4c1.2,0,2.1-0.3,2.7-1
		c0.6-0.6,1-1.5,1-2.7c0-2.6-1-3.9-3.1-3.9L9.5,173.3L9.5,173.3z"/>
	<path class="st1" d="M46.3,165.4l-2.6-0.2c-2.2,0-3.6,0.9-4.4,2.8V188h-7.9v-30.2h7.4l0.2,3.3c1.2-2.6,3-3.8,5.2-3.8
		c0.9,0,1.6,0.1,2.2,0.4L46.3,165.4L46.3,165.4z"/>
	<path class="st1" d="M63.8,188c-0.2-0.5-0.5-1.2-0.7-2.3c-1.4,1.9-3.3,2.9-5.7,2.9s-4.6-0.8-6.3-2.5c-1.7-1.7-2.5-3.8-2.5-6.5
		c0-3.2,1-5.6,3-7.3c2-1.7,4.9-2.6,8.7-2.6h2.4v-2.4c0-1.4-0.2-2.3-0.7-2.9c-0.5-0.6-1.1-0.8-2-0.8c-2,0-3,1.1-3,3.5h-7.9
		c0-2.8,1-5.1,3.1-6.9c2.1-1.8,4.7-2.7,7.9-2.7s5.9,0.9,7.7,2.6s2.7,4.2,2.7,7.4v14.2c0,2.6,0.4,4.6,1.1,6.1v0.5L63.8,188L63.8,188z
		 M59.2,182.4c0.9,0,1.6-0.2,2.2-0.5s1.1-0.8,1.4-1.2v-6.3h-1.9c-1.3,0-2.4,0.4-3.2,1.3c-0.8,0.9-1.2,2-1.2,3.4
		C56.6,181.3,57.4,182.4,59.2,182.4L59.2,182.4z"/>
	<path class="st1" d="M76.4,150c0-1.2,0.4-2.2,1.2-3s1.8-1.2,3.1-1.2s2.3,0.4,3.1,1.2c0.8,0.8,1.2,1.8,1.2,3s-0.4,2.2-1.2,3
		c-0.8,0.8-1.8,1.2-3.1,1.2s-2.4-0.4-3.1-1.2S76.4,151.2,76.4,150L76.4,150z M84.7,188h-7.9v-30.2h7.9V188z"/>
	<path class="st1" d="M98,157.8l0.2,3c1.8-2.4,4.1-3.5,7-3.5c5.2,0,7.8,3.6,8,10.9V188h-7.9v-19.2c0-1.7-0.3-2.9-0.8-3.7
		c-0.5-0.8-1.4-1.2-2.7-1.2c-1.4,0-2.6,0.7-3.3,2.2V188h-7.9v-30.2C90.6,157.8,98,157.8,98,157.8z"/>
	<path class="st1" d="M127.6,181.4h11.9v6.6h-21.3v-4.9l11.6-18.6h-11.4v-6.6h20.8v4.8L127.6,181.4L127.6,181.4z"/>
</g>
<g>
	<polygon class="st1" points="72,3 72,99 113,75 113,27 	"/>
	<polygon class="st0" points="69,3 28,27 28,75 69,99 	"/>
	<path class="st2" d="M104.3,59.1c-1.2-2-3.4-3.2-5.7-3.2c-0.7,0-1.3,0.1-2,0.3c-2.6-3.1-5.8-4.8-8.6-5.6c2.2-1.7,4.2-3.8,5.9-6.2
		c1.7,0.4,3.6,0.1,5.2-0.8c3.2-2,4.1-6.2,2.1-9.4c-1.2-2-3.4-3.1-5.7-3.1c-1.3,0-2.5,0.4-3.6,1.1c-3.2,2-4.1,6.2-2.1,9.3
		c0.1,0.2,0.3,0.4,0.4,0.6c-2.5,3.4-5.7,6.1-9.5,7.8h0C77.1,51.5,75,52,72,52v5c4,0,5.9-1.1,10-2.9c1.4,0,7,0.2,11,4.8
		c-1.5,2.2-1.7,5.1-0.2,7.5c1.2,2,3.4,3.2,5.7,3.2c1.3,0,2.5-0.4,3.6-1c1.5-1,2.6-2.5,3-4.2C105.6,62.4,105.2,60.6,104.3,59.1
		L104.3,59.1z M94.1,35.7c0.4-0.3,0.9-0.4,1.4-0.4c0.9,0,1.7,0.5,2.2,1.2c0.8,1.2,0.4,2.8-0.8,3.6c-0.4,0.3-0.9,0.4-1.4,0.4
		s-1-0.1-1.4-0.4c-0.3-0.2-0.6-0.5-0.8-0.8C92.5,38.1,92.8,36.4,94.1,35.7L94.1,35.7z M101.1,63.3c-0.2,0.7-0.6,1.3-1.2,1.6
		c-0.4,0.3-0.9,0.4-1.4,0.4c-0.9,0-1.7-0.5-2.2-1.2c-0.8-1.2-0.4-2.7,0.7-3.5l0.1-0.1c1.2-0.8,2.9-0.4,3.6,0.8
		C101.2,61.9,101.3,62.6,101.1,63.3z"/>
	<g>
		<path class="st2" d="M69,82.7h-4.7c-0.6,0-1.1-0.5-1.1-1.1c0-1.5,0-3.3-5.6-4c-5.8-0.8-21-3.3-21.2-3.3c-0.5-0.1-0.9-0.5-0.9-1.1
			V31.9c0-0.3,0.1-0.6,0.4-0.8c0.2-0.2,0.5-0.3,0.8-0.3l4.8,0.5c0.6,0.1,1,0.6,1,1.2c-0.1,0.6-0.6,1-1.2,1l-3.6-0.4v39.2
			c3.4,0.6,15.3,2.5,20.2,3.2c5.7,0.8,7.1,2.8,7.4,5.1H69L69,82.7L69,82.7z"/>
		<path class="st3" d="M66.6,37.5c0-6.3-11.7-15-25.1-11.9v41.3c13.8-0.6,25.1,4.4,25.1,10.8V37.5z"/>
		<g>
			<path class="st2" d="M49.1,35.9c-0.6,0-1,0.4-1,1c0,0.6,0.2,1.1,1,1.1c9.7,0,17.5,8.3,17.5,10.8v-2.8
				C66.6,43.4,59.3,35.9,49.1,35.9L49.1,35.9z"/>
			<path class="st2" d="M49.1,43.2c-0.6,0-1,0.4-1,1c0,0.6,0.2,1.1,1,1.1c9.7,0,17.5,8.3,17.5,10.8v-2.8
				C66.6,50.7,59.3,43.2,49.1,43.2L49.1,43.2z"/>
			<path class="st2" d="M49.1,50.5c-0.6,0-1,0.4-1,1c0,0.6,0.2,1.1,1,1.1c9.7,0,17.5,8.3,17.5,10.8v-2.8
				C66.6,57.9,59.3,50.5,49.1,50.5L49.1,50.5z"/>
		</g>
	</g>
</g>
</svg>
