<?xml version="1.0" encoding="utf-8"?>
<!-- Generator: Adobe Illustrator 26.2.1, SVG Export Plug-In . SVG Version: 6.00 Build 0)  -->
<svg version="1.1" id="Layer_1" xmlns="http://www.w3.org/2000/svg" xmlns:xlink="http://www.w3.org/1999/xlink" x="0px" y="0px"
	 width="220px" height="290px" viewBox="0 0 220 290" style="enable-background:new 0 0 220 290;" xml:space="preserve">
<style type="text/css">
	.st0{fill:#754E37;}
	.st1{fill:#EB743B;}
	.st2{fill:#573A29;}
	.st3{fill:#FFFEDB;}
	.st4{fill:#CFA691;}
	.st5{opacity:7.000000e-02;}
	.st6{fill:#D3562C;}
</style>
<g>
	<g id="a">
		<g>
			<g>
				<path class="st0" d="M25.7,216.5v-54.6h18.6c6.4,0,11.2,1.3,14.6,3.9s5,6.3,5,11.2c0,2.8-0.6,5.2-1.8,7.3
					c-1.2,2.1-3,3.6-5.4,4.6c2.6,0.8,4.5,2.2,6,4.3c1.4,2.1,2.1,4.7,2.1,7.8c0,5.4-1.6,9.4-4.7,11.9c-3.2,2.5-7.9,3.8-14.2,3.8
					L25.7,216.5L25.7,216.5z M39,184.5h6.4c3.5-0.1,5.3-2,5.3-5.6c0-2.2-0.4-3.7-1.3-4.6c-0.9-0.9-2.2-1.4-4-1.4H39L39,184.5
					L39,184.5z M39,193.8v11.8h6.8c1.8,0,3.3-0.5,4.2-1.5c1-1,1.5-2.4,1.5-4.1c0-3.9-1.6-6-4.8-6.1L39,193.8L39,193.8z"/>
				<path class="st0" d="M71.4,191.6c0-7.1,1.7-12.6,5-16.6s7.9-6,13.8-6s10.6,2,13.9,6c3.3,4,5,9.6,5,16.7v3c0,7.1-1.7,12.6-5,16.6
					s-7.9,6-13.9,6s-10.6-2-13.9-6c-3.3-4-5-9.6-5-16.7L71.4,191.6L71.4,191.6z M83.7,194.7c0,8.3,2.2,12.5,6.7,12.5
					c4.1,0,6.3-3.5,6.6-10.4l0-5.1c0-4.2-0.6-7.4-1.8-9.5c-1.2-2.1-2.8-3.1-5-3.1s-3.7,1-4.8,3.1c-1.2,2.1-1.8,5.2-1.8,9.5
					L83.7,194.7L83.7,194.7z"/>
				<path class="st0" d="M115.4,191.6c0-7.1,1.7-12.6,5-16.6s7.9-6,13.8-6s10.6,2,13.9,6c3.3,4,5,9.6,5,16.7v3
					c0,7.1-1.6,12.6-5,16.6c-3.3,4-7.9,6-13.9,6s-10.6-2-13.9-6c-3.3-4-5-9.6-5-16.7L115.4,191.6L115.4,191.6z M127.6,194.7
					c0,8.3,2.2,12.5,6.7,12.5c4.1,0,6.3-3.5,6.6-10.4l0-5.1c0-4.2-0.6-7.4-1.8-9.5c-1.2-2.1-2.9-3.1-5-3.1s-3.7,1-4.9,3.1
					c-1.2,2.1-1.8,5.2-1.8,9.5L127.6,194.7L127.6,194.7z"/>
				<path class="st0" d="M176.2,198.5l-3.3,3.7v14.3h-12.2v-66.2H173V186l1.5-2.2l8.4-14h14.5L183.9,189l14.8,27.4h-14L176.2,198.5
					L176.2,198.5z"/>
				<path class="st1" d="M3.2,285.5v-54.6h18.6c6.4,0,11.2,1.3,14.6,3.9s5,6.3,5,11.2c0,2.8-0.6,5.2-1.8,7.3c-1.2,2.1-3,3.6-5.4,4.6
					c2.6,0.8,4.5,2.2,6,4.3c1.4,2.1,2.1,4.7,2.1,7.8c0,5.4-1.6,9.4-4.7,11.9c-3.2,2.5-7.9,3.8-14.2,3.8L3.2,285.5L3.2,285.5z
					 M16.4,253.5h6.4c3.5-0.1,5.3-2,5.3-5.6c0-2.2-0.4-3.7-1.3-4.6c-0.9-0.9-2.2-1.4-4-1.4h-6.3L16.4,253.5L16.4,253.5z M16.4,262.8
					v11.8h6.8c1.8,0,3.3-0.5,4.2-1.5c1-1,1.5-2.4,1.5-4.1c0-4-1.6-6-4.8-6.1L16.4,262.8L16.4,262.8z"/>
				<path class="st1" d="M73.3,250.6l-4.1-0.3c-3.3,0-5.6,1.5-6.8,4.4v30.8H50.3v-46.7h11.5l0.3,5c1.9-3.9,4.6-5.9,8-5.9
					c1.4,0,2.5,0.2,3.4,0.6L73.3,250.6L73.3,250.6z"/>
				<path class="st1" d="M100.5,285.5c-0.3-0.7-0.7-1.9-1-3.6c-2.2,3-5.2,4.5-8.9,4.5s-7.2-1.3-9.7-3.9s-3.9-5.9-3.9-10
					c0-4.9,1.6-8.7,4.7-11.3c3.1-2.7,7.6-4,13.5-4.1h3.7v-3.8c0-2.1-0.4-3.6-1.1-4.4s-1.8-1.3-3.2-1.3c-3.1,0-4.6,1.8-4.6,5.4H77.8
					c0-4.3,1.6-7.9,4.8-10.7c3.2-2.8,7.3-4.2,12.3-4.2s9.1,1.3,11.9,4s4.2,6.5,4.2,11.4v22c0.1,4,0.6,7.2,1.7,9.4v0.7L100.5,285.5
					L100.5,285.5z M93.3,276.8c1.3,0,2.5-0.3,3.4-0.8c0.9-0.5,1.7-1.2,2.1-1.9v-9.7h-2.9c-2.1,0-3.7,0.7-4.9,2s-1.8,3.1-1.8,5.3
					C89.2,275,90.6,276.7,93.3,276.8L93.3,276.8z"/>
				<path class="st1" d="M119.9,226.7c0-1.9,0.6-3.4,1.8-4.7s2.8-1.8,4.8-1.8s3.6,0.6,4.8,1.8s1.8,2.8,1.8,4.7s-0.6,3.4-1.8,4.7
					c-1.2,1.2-2.8,1.9-4.8,1.9s-3.7-0.6-4.8-1.9C120.5,230.1,119.9,228.6,119.9,226.7z M132.7,285.5h-12.2v-46.7h12.2V285.5z"/>
				<path class="st1" d="M153.3,238.8l0.4,4.6c2.8-3.6,6.4-5.5,10.8-5.5c8,0,12.1,5.6,12.4,16.9v30.7h-12.2v-29.8
					c0-2.6-0.4-4.6-1.2-5.8c-0.8-1.2-2.2-1.8-4.2-1.8c-2.2,0-3.9,1.1-5.2,3.4v33.9h-12.2v-46.7L153.3,238.8L153.3,238.8z"/>
				<path class="st1" d="M199.1,275.3h18.5v10.1h-32.9v-7.6l18-28.9h-17.6v-10.2h32.3v7.4L199.1,275.3L199.1,275.3z"/>
			</g>
			<g>
				<polygon class="st1" points="112,2.5 112,146.5 173,111.5 173,37.5 				"/>
				<polygon class="st0" points="107,2.5 46,37.5 46,111.5 107,146.5 				"/>
				<g>
					<g>
						<path class="st2" d="M107,124.8h-7c-0.9,0-1.6-0.7-1.6-1.6c0-2.3,0-4.9-8.3-6c-8.7-1.2-31.5-4.9-31.7-5
							c-0.8-0.1-1.3-0.8-1.3-1.6V48.7c0-0.5,0.2-0.9,0.5-1.2s0.8-0.5,1.2-0.4l7.2,0.8c0.9,0.1,1.5,0.9,1.4,1.8s-0.9,1.5-1.8,1.4
							l-5.4-0.6v58.7c5,0.8,22.8,3.7,30.3,4.7c8.5,1.1,10.6,4.2,11,7.6h5.5L107,124.8L107,124.8z"/>
						<path class="st2" d="M103.4,57c0-9.4-17.5-22.4-37.6-17.8v61.8c20.7-0.9,37.6,6.7,37.6,16.2V57z"/>
						<path class="st2" d="M77.2,54.7c-0.8,0-1.5,0.7-1.6,1.5c0,0.9,0.4,1.6,1.5,1.6c14.5,0,26.2,12.4,26.2,16.2v-4.2
							C103.4,65.9,92.4,54.8,77.2,54.7L77.2,54.7L77.2,54.7z"/>
						<path class="st2" d="M77.2,65.6c-0.8,0-1.5,0.7-1.6,1.5c0,0.9,0.4,1.6,1.5,1.6c14.5,0,26.2,12.4,26.2,16.2v-4.2
							C103.4,76.8,92.4,65.6,77.2,65.6L77.2,65.6L77.2,65.6z"/>
						<path class="st2" d="M77.2,76.5c-0.8,0-1.5,0.7-1.6,1.5c0,0.9,0.4,1.6,1.5,1.6c14.5,0,26.2,12.4,26.2,16.2v-4.2
							C103.4,87.6,92.4,76.5,77.2,76.5L77.2,76.5L77.2,76.5z"/>
					</g>
					<g>
						<path class="st3" d="M107,121.8h-7c-0.9,0-1.6-0.7-1.6-1.6c0-2.3,0-4.9-8.3-6c-8.7-1.2-31.5-4.9-31.7-5
							c-0.8-0.1-1.3-0.8-1.3-1.6V45.7c0-0.5,0.2-0.9,0.5-1.2s0.8-0.5,1.2-0.4l7.2,0.8c0.9,0.1,1.5,0.9,1.4,1.8s-0.9,1.5-1.8,1.4
							l-5.4-0.6v58.7c5,0.8,22.8,3.7,30.3,4.7c8.5,1.1,10.6,4.2,11,7.6h5.5L107,121.8L107,121.8z"/>
						<path class="st4" d="M103.4,54c0-9.4-17.5-22.4-37.6-17.8v61.8c20.7-0.9,37.6,6.7,37.6,16.2V54z"/>
						<g>
							<path class="st3" d="M77.2,51.7c-0.8,0-1.5,0.7-1.6,1.5c0,0.9,0.4,1.6,1.5,1.6c14.5,0,26.2,12.4,26.2,16.2v-4.2
								C103.4,62.9,92.4,51.8,77.2,51.7L77.2,51.7L77.2,51.7z"/>
							<path class="st3" d="M77.2,62.6c-0.8,0-1.5,0.7-1.6,1.5c0,0.9,0.4,1.6,1.5,1.6c14.5,0,26.2,12.4,26.2,16.2v-4.2
								C103.4,73.8,92.4,62.6,77.2,62.6L77.2,62.6L77.2,62.6z"/>
							<path class="st3" d="M77.2,73.5c-0.8,0-1.5,0.7-1.6,1.5c0,0.9,0.4,1.6,1.5,1.6c14.5,0,26.2,12.4,26.2,16.2v-4.2
								C103.4,84.6,92.4,73.5,77.2,73.5L77.2,73.5L77.2,73.5z"/>
						</g>
					</g>
				</g>
				<g>
					<g class="st5">
						<path d="M129.3,94.2c0.4-0.6,1.1-1,1.8-1c0.4,0,0.8,0.1,1.1,0.3c1,0.6,1.3,1.9,0.7,2.9c-0.4,0.7-1.1,1-1.8,1
							c-0.4,0-0.8-0.1-1.1-0.3c-0.5-0.3-0.8-0.8-1-1.3C128.9,95.2,129,94.7,129.3,94.2L129.3,94.2z M141.9,116.6
							c-0.5,0.4-1,0.5-1.4,0.5c-0.6,0-1.2-0.3-1.6-0.7c-0.8-0.9-0.6-2.2,0.2-3c0.5-0.4,1-0.5,1.4-0.5c0.6,0,1.2,0.3,1.6,0.7
							c0.4,0.4,0.6,1,0.5,1.5C142.6,115.7,142.3,116.2,141.9,116.6L141.9,116.6z"/>
						<path d="M121,48.1c0.1,0,0.1,0,0.2,0C121.1,48.1,121,48.1,121,48.1z"/>
						<path d="M132.4,57.7c0.2-0.3,0.4-0.5,0.7-0.7c0.3-0.2,0.7-0.3,1.1-0.3s0.8,0.1,1.1,0.3c1,0.6,1.3,1.9,0.7,2.9
							c-0.4,0.6-1.1,1-1.8,1c-0.4,0-0.8-0.1-1.1-0.3C132,60,131.7,58.7,132.4,57.7z M138.7,37.5c-0.6,1-1.9,1.3-2.9,0.7l-0.1-0.1
							c-0.9-0.7-1.2-1.9-0.6-2.8c0.4-0.6,1.1-1,1.8-1c0.4,0,0.8,0.1,1.1,0.3c0.5,0.3,0.8,0.8,0.9,1.3
							C139.1,36.5,139,37.1,138.7,37.5L138.7,37.5z"/>
						<path d="M155.5,49.1c0.4-0.6,1.1-1,1.8-1c0.4,0,0.8,0.1,1.1,0.3c0.5,0.3,0.8,0.8,0.9,1.3c0.1,0.5,0,1.1-0.3,1.6
							c-0.6,1-1.9,1.3-2.9,0.7l-0.1-0.1C155.1,51.3,154.9,50.1,155.5,49.1z M155.5,72.6c0.4-0.6,1.1-1,1.8-1c0.4,0,0.8,0.1,1.1,0.3
							c0.5,0.3,0.8,0.8,0.9,1.3c0.1,0.6,0,1.1-0.3,1.6c-0.6,0.9-1.9,1.3-2.9,0.7l-0.1-0.1C155.1,74.8,154.9,73.5,155.5,72.6z
							 M155.5,98.9c0.4-0.6,1.1-1,1.8-1c0.4,0,0.8,0.1,1.1,0.3c0.5,0.3,0.8,0.8,0.9,1.3c0.1,0.6,0,1.1-0.3,1.6
							c-0.6,0.9-1.9,1.3-2.9,0.7l-0.1-0.1C155.1,101.1,154.9,99.8,155.5,98.9z"/>
						<path d="M145.1,108.6c-1.2-1.4-2.9-2.1-4.6-2.1c-1.5,0-2.9,0.5-4,1.5c-1.6,1.4-2.3,3.4-2.1,5.4c-1.9,0.7-4.3,1.4-5.3,1.3
							c-0.8,0-1.3-0.3-2.2-1c-1.2-0.8-2.4-1.5-4.2-1.8c2.9-2.8,6-6.8,8.6-12.8c2.1-0.1,4-1.2,5-3c1.7-2.9,0.8-6.7-2.1-8.4
							c-0.9-0.6-2-0.9-3.1-0.9c-2.1,0-4.2,1.1-5.3,3c-0.8,1.4-1.1,3.1-0.7,4.6c0.3,1.4,1.2,2.6,2.3,3.4c-4.1,9.2-9.2,13.1-12.6,14.7
							c-0.1,0-0.2,0.1-0.4,0.2c-1.2,0.5-2.1,0.7-2.6,0.8v4c0.3,0,1.9-0.1,4.2-1.2c5.3-1.4,6.8-0.3,8.4,0.7c1,0.7,2.3,1.6,4.3,1.7
							c0.1,0,0.2,0,0.3,0c2.1,0,5.2-1,7-1.7c1.1,1.1,2.7,1.8,4.3,1.8l0,0c1.5,0,2.9-0.5,4-1.5c1.2-1.1,2-2.6,2.1-4.2
							C146.7,111.4,146.2,109.8,145.1,108.6L145.1,108.6z M129.3,91.8c0.4-0.6,1.1-1,1.8-1c0.4,0,0.8,0.1,1.1,0.3
							c1,0.6,1.3,1.9,0.7,2.9c-0.4,0.7-1.1,1-1.8,1c-0.4,0-0.8-0.1-1.1-0.3c-0.5-0.3-0.8-0.8-1-1.3C128.9,92.8,129,92.3,129.3,91.8
							L129.3,91.8z M141.9,114.1c-0.5,0.4-1,0.5-1.4,0.5c-0.6,0-1.2-0.3-1.6-0.7c-0.8-0.9-0.6-2.2,0.2-3c0.5-0.4,1-0.5,1.4-0.5
							c0.6,0,1.2,0.3,1.6,0.7c0.4,0.4,0.6,1,0.5,1.5C142.6,113.3,142.3,113.8,141.9,114.1L141.9,114.1z"/>
						<path d="M121,45.7c0.1,0,0.1,0,0.2,0C121.1,45.7,121,45.7,121,45.7z"/>
						<path d="M142.9,32.7c-0.4-1.6-1.3-3-2.7-3.8c-1-0.6-2.1-0.9-3.3-0.9c-2.1,0-4.1,1.1-5.2,2.9c-1.4,2.1-1.2,4.8,0.1,6.8
							c-3.6,4.1-8.7,4.3-9.9,4.3c-3.7-1.6-7.2-2.2-10-2.3v4c2.4,0.1,5.6,0.7,8.8,2.1h0c3.4,1.6,6.3,3.9,8.6,7
							c-0.1,0.2-0.3,0.3-0.4,0.5c-1.8,2.8-0.9,6.6,1.9,8.4c1,0.6,2.1,1,3.3,1c2.1,0,4.1-1.1,5.2-2.8c1.8-2.8,0.9-6.6-1.9-8.5
							c-1.4-0.9-3.1-1.1-4.7-0.8c-1.5-2.2-3.3-4-5.3-5.6c2.5-0.8,5.4-2.3,7.8-5.1c0.6,0.2,1.2,0.3,1.8,0.3c2.1,0,4.1-1.1,5.2-2.8
							C143,35.9,143.3,34.3,142.9,32.7L142.9,32.7z M132.4,55.3c0.2-0.3,0.4-0.5,0.7-0.7c0.3-0.2,0.7-0.3,1.1-0.3s0.8,0.1,1.1,0.3
							c1,0.6,1.3,1.9,0.7,2.9c-0.4,0.6-1.1,1-1.8,1c-0.4,0-0.8-0.1-1.1-0.3C132,57.6,131.7,56.3,132.4,55.3z M138.7,35.1
							c-0.6,1-1.9,1.3-2.9,0.7l-0.1-0.1c-0.9-0.7-1.2-1.9-0.6-2.8c0.4-0.6,1.1-1,1.8-1c0.4,0,0.8,0.1,1.1,0.3
							c0.5,0.3,0.8,0.8,0.9,1.3C139.1,34.1,139,34.7,138.7,35.1L138.7,35.1z"/>
						<path d="M151.6,73.6c0.4,1,1.1,2,2.1,2.7c0.1,0.1,0.1,0.1,0.3,0.2c1,0.6,2.1,0.9,3.3,0.9c2.1,0,4.1-1.1,5.2-2.8
							c0.9-1.4,1.2-3,0.8-4.6c-0.4-1.6-1.3-3-2.7-3.8c-1-0.6-2.1-0.9-3.3-0.9c-0.1,0-0.2,0-0.4,0c-0.7-3.2-0.9-7.8,0-11.3
							c0.1,0,0.2,0,0.3,0c2.1,0,4.1-1.1,5.2-2.8c0.9-1.4,1.2-3,0.8-4.6c-0.4-1.6-1.3-3-2.7-3.8c-1-0.6-2.1-0.9-3.3-0.9
							c-2.1,0-4.1,1.1-5.2,2.8c-1.6,2.5-1.1,5.8,1,7.8c0,0,0.1,0,0.1,0.1c-1.4,4.5-1.1,10.3,0,14.4c-0.1,0.1-0.3,0.2-0.4,0.4
							c-0.2,0.2-0.4,0.5-0.6,0.8c-0.3,0.5-0.6,1-0.7,1.6c-3.4,0.5-5.2,1.7-6.8,2.7c-2,1.3-4,2.6-9.6,2.7c-2-0.2-3.6-0.2-5.3-0.1
							c-1.4,0.1-2.9,0.1-4.8,0c-1.3-0.1-2.1-0.9-3.5-2.4c-1.8-2.1-4.2-4.7-9.4-5v4c3.3,0.3,4.8,1.9,6.4,3.7c1.5,1.7,3.2,3.6,6.3,3.8
							c2.1,0.1,3.8,0.1,5.2,0c2.5-0.1,4.4-0.2,7.9,0.7c2.6,0.6,12.1,9.7,14.8,14.3c-0.1,0.1-0.2,0.3-0.3,0.4c-1.7,2.8-1,6.4,1.6,8.2
							c0.1,0.1,0.1,0.1,0.3,0.2c1,0.6,2.1,0.9,3.3,0.9c2.1,0,4.1-1.1,5.2-2.8c0.9-1.4,1.2-3,0.8-4.6c-0.4-1.6-1.3-3-2.7-3.8
							c-1-0.6-2.1-0.9-3.3-0.9c-0.5,0-1.1,0.1-1.5,0.2c-2.6-4.2-8.6-10.5-13.2-13.8c1.8-0.6,3.1-1.4,4.2-2.2
							C148.1,74.8,149.3,74.1,151.6,73.6L151.6,73.6z M155.5,46.7c0.4-0.6,1.1-1,1.8-1c0.4,0,0.8,0.1,1.1,0.3
							c0.5,0.3,0.8,0.8,0.9,1.3c0.1,0.5,0,1.1-0.3,1.6c-0.6,1-1.9,1.3-2.9,0.7l-0.1-0.1C155.1,48.9,154.9,47.7,155.5,46.7z
							 M155.5,70.2c0.4-0.6,1.1-1,1.8-1c0.4,0,0.8,0.1,1.1,0.3c0.5,0.3,0.8,0.8,0.9,1.3c0.1,0.6,0,1.1-0.3,1.6
							c-0.6,0.9-1.9,1.3-2.9,0.7l-0.1-0.1C155.1,72.4,154.9,71.1,155.5,70.2z M155.5,96.5c0.4-0.6,1.1-1,1.8-1
							c0.4,0,0.8,0.1,1.1,0.3c0.5,0.3,0.8,0.8,0.9,1.3c0.1,0.6,0,1.1-0.3,1.6c-0.6,0.9-1.9,1.3-2.9,0.7l-0.1-0.1
							C155.1,98.7,154.9,97.4,155.5,96.5z"/>
					</g>
					<g>
						<g>
							<path class="st6" d="M145.1,111.6c-1.2-1.4-2.9-2.1-4.6-2.1c-1.5,0-2.9,0.5-4,1.5c-1.6,1.4-2.3,3.4-2.1,5.4
								c-1.9,0.7-4.3,1.4-5.3,1.3c-0.8,0-1.3-0.3-2.2-1c-1.2-0.8-2.4-1.5-4.2-1.8c2.9-2.8,6-6.8,8.6-12.8c2.1-0.1,4-1.2,5-3
								c1.7-2.9,0.8-6.7-2.1-8.4c-0.9-0.6-2-0.9-3.1-0.9c-2.1,0-4.2,1.1-5.3,3c-0.8,1.4-1.1,3.1-0.7,4.6c0.3,1.4,1.2,2.6,2.3,3.4
								c-4.1,9.2-9.2,13.1-12.6,14.7c-0.1,0-0.2,0.1-0.4,0.2c-1.2,0.5-2.1,0.7-2.6,0.8v4c0.3,0,1.9-0.1,4.2-1.2
								c5.3-1.4,6.8-0.3,8.4,0.7c1,0.7,2.3,1.6,4.3,1.7c0.1,0,0.2,0,0.3,0c2.1,0,5.2-1,7-1.7c1.1,1.1,2.7,1.8,4.3,1.8l0,0
								c1.5,0,2.9-0.5,4-1.5c1.2-1.1,2-2.6,2.1-4.2C146.7,114.4,146.2,112.8,145.1,111.6L145.1,111.6z M129.3,94.8
								c0.4-0.6,1.1-1,1.8-1c0.4,0,0.8,0.1,1.1,0.3c1,0.6,1.3,1.9,0.7,2.9c-0.4,0.7-1.1,1-1.8,1c-0.4,0-0.8-0.1-1.1-0.3
								c-0.5-0.3-0.8-0.8-1-1.3C128.9,95.8,129,95.3,129.3,94.8L129.3,94.8z M141.9,117.1c-0.5,0.4-1,0.5-1.4,0.5
								c-0.6,0-1.2-0.3-1.6-0.7c-0.8-0.9-0.6-2.2,0.2-3c0.5-0.4,1-0.5,1.4-0.5c0.6,0,1.2,0.3,1.6,0.7c0.4,0.4,0.6,1,0.5,1.5
								C142.6,116.3,142.3,116.8,141.9,117.1L141.9,117.1z"/>
							<path d="M121,48.1c0.1,0,0.1,0,0.2,0C121.1,48.1,121,48.1,121,48.1z"/>
							<path class="st6" d="M142.9,35.7c-0.4-1.6-1.3-3-2.7-3.8c-1-0.6-2.1-0.9-3.3-0.9c-2.1,0-4.1,1.1-5.2,2.9
								c-1.4,2.1-1.2,4.8,0.1,6.8c-3.6,4.1-8.7,4.3-9.9,4.3c-3.7-1.6-7.2-2.2-10-2.3v4c2.4,0.1,5.6,0.7,8.8,2.1h0
								c3.4,1.6,6.3,3.9,8.6,7c-0.1,0.2-0.3,0.3-0.4,0.5c-1.8,2.8-0.9,6.6,1.9,8.4c1,0.6,2.1,0.9,3.3,0.9c2.1,0,4.1-1.1,5.2-2.8
								c1.8-2.8,0.9-6.6-1.9-8.5c-1.4-0.9-3.1-1.1-4.7-0.8c-1.5-2.2-3.3-4-5.3-5.6c2.5-0.8,5.4-2.3,7.8-5.1c0.6,0.2,1.2,0.3,1.8,0.3
								c2.1,0,4.1-1.1,5.2-2.8C143,38.9,143.3,37.3,142.9,35.7L142.9,35.7z M132.4,58.3c0.2-0.3,0.4-0.5,0.7-0.7
								c0.3-0.2,0.7-0.3,1.1-0.3s0.8,0.1,1.1,0.3c1,0.6,1.3,1.9,0.7,2.9c-0.4,0.6-1.1,1-1.8,1c-0.4,0-0.8-0.1-1.1-0.3
								C132,60.6,131.7,59.3,132.4,58.3z M138.7,38.1c-0.6,1-1.9,1.3-2.9,0.7l-0.1-0.1c-0.9-0.7-1.2-1.9-0.6-2.8
								c0.4-0.6,1.1-1,1.8-1c0.4,0,0.8,0.1,1.1,0.3c0.5,0.3,0.8,0.8,0.9,1.3C139.1,37.1,139,37.7,138.7,38.1L138.7,38.1z"/>
							<path class="st6" d="M151.6,76.6c0.4,1,1.1,2,2.1,2.7c0.1,0.1,0.1,0.1,0.3,0.2c1,0.6,2.1,0.9,3.3,0.9c2.1,0,4.1-1.1,5.2-2.8
								c0.9-1.4,1.2-3,0.8-4.6c-0.4-1.6-1.3-3-2.7-3.8c-1-0.6-2.1-0.9-3.3-0.9c-0.1,0-0.2,0-0.4,0c-0.7-3.2-0.9-7.8,0-11.3
								c0.1,0,0.2,0,0.3,0c2.1,0,4.1-1.1,5.2-2.8c0.9-1.4,1.2-3,0.8-4.6c-0.4-1.6-1.3-3-2.7-3.8c-1-0.6-2.1-0.9-3.3-0.9
								c-2.1,0-4.1,1.1-5.2,2.8c-1.6,2.5-1.1,5.8,1,7.8c0,0,0.1,0,0.1,0.1c-1.4,4.5-1.1,10.3,0,14.4c-0.1,0.1-0.3,0.2-0.4,0.4
								c-0.2,0.2-0.4,0.5-0.6,0.8c-0.3,0.5-0.6,1-0.7,1.6c-3.4,0.5-5.2,1.7-6.8,2.7c-2,1.3-4,2.6-9.6,2.7c-2-0.2-3.6-0.2-5.3-0.1
								c-1.4,0.1-2.9,0.1-4.8,0c-1.3-0.1-2.1-0.9-3.5-2.4c-1.8-2.1-4.2-4.7-9.4-5v4c3.3,0.3,4.8,1.9,6.4,3.7
								c1.5,1.7,3.2,3.6,6.3,3.8c2.1,0.1,3.8,0.1,5.2,0c2.5-0.1,4.4-0.2,7.9,0.7c2.6,0.6,12.1,9.7,14.8,14.3
								c-0.1,0.1-0.2,0.3-0.3,0.4c-1.7,2.8-1,6.4,1.6,8.2c0.1,0.1,0.1,0.1,0.3,0.2c1,0.6,2.1,0.9,3.3,0.9c2.1,0,4.1-1.1,5.2-2.8
								c0.9-1.4,1.2-3,0.8-4.6c-0.4-1.6-1.3-3-2.7-3.8c-1-0.6-2.1-0.9-3.3-0.9c-0.5,0-1.1,0.1-1.5,0.2c-2.6-4.2-8.6-10.5-13.2-13.8
								c1.8-0.6,3.1-1.4,4.2-2.2C148.1,77.8,149.3,77.1,151.6,76.6L151.6,76.6z M155.5,49.7c0.4-0.6,1.1-1,1.8-1
								c0.4,0,0.8,0.1,1.1,0.3c0.5,0.3,0.8,0.8,0.9,1.3c0.1,0.5,0,1.1-0.3,1.6c-0.6,1-1.9,1.3-2.9,0.7l-0.1-0.1
								C155.1,51.9,154.9,50.7,155.5,49.7z M155.5,73.2c0.4-0.6,1.1-1,1.8-1c0.4,0,0.8,0.1,1.1,0.3c0.5,0.3,0.8,0.8,0.9,1.3
								c0.1,0.6,0,1.1-0.3,1.6c-0.6,0.9-1.9,1.3-2.9,0.7l-0.1-0.1C155.1,75.4,154.9,74.1,155.5,73.2z M155.5,99.5
								c0.4-0.6,1.1-1,1.8-1c0.4,0,0.8,0.1,1.1,0.3c0.5,0.3,0.8,0.8,0.9,1.3c0.1,0.6,0,1.1-0.3,1.6c-0.6,0.9-1.9,1.3-2.9,0.7
								l-0.1-0.1C155.1,101.7,154.9,100.4,155.5,99.5z"/>
						</g>
						<g>
							<path class="st3" d="M145.1,108.6c-1.2-1.4-2.9-2.1-4.6-2.1c-1.5,0-2.9,0.5-4,1.5c-1.6,1.4-2.3,3.4-2.1,5.4
								c-1.9,0.7-4.3,1.4-5.3,1.3c-0.8,0-1.3-0.3-2.2-1c-1.2-0.8-2.4-1.5-4.2-1.8c2.9-2.8,6-6.8,8.6-12.8c2.1-0.1,4-1.2,5-3
								c1.7-2.9,0.8-6.7-2.1-8.4c-0.9-0.6-2-0.9-3.1-0.9c-2.1,0-4.2,1.1-5.3,3c-0.8,1.4-1.1,3.1-0.7,4.6c0.3,1.4,1.2,2.6,2.3,3.4
								c-4.1,9.2-9.2,13.1-12.6,14.7c-0.1,0-0.2,0.1-0.4,0.2c-1.2,0.5-2.1,0.7-2.6,0.8v4c0.3,0,1.9-0.1,4.2-1.2
								c5.3-1.4,6.8-0.3,8.4,0.7c1,0.7,2.3,1.6,4.3,1.7c0.1,0,0.2,0,0.3,0c2.1,0,5.2-1,7-1.7c1.1,1.1,2.7,1.8,4.3,1.8l0,0
								c1.5,0,2.9-0.5,4-1.5c1.2-1.1,2-2.6,2.1-4.2C146.7,111.4,146.2,109.8,145.1,108.6L145.1,108.6z M129.3,91.8
								c0.4-0.6,1.1-1,1.8-1c0.4,0,0.8,0.1,1.1,0.3c1,0.6,1.3,1.9,0.7,2.9c-0.4,0.7-1.1,1-1.8,1c-0.4,0-0.8-0.1-1.1-0.3
								c-0.5-0.3-0.8-0.8-1-1.3C128.9,92.8,129,92.3,129.3,91.8L129.3,91.8z M141.9,114.1c-0.5,0.4-1,0.5-1.4,0.5
								c-0.6,0-1.2-0.3-1.6-0.7c-0.8-0.9-0.6-2.2,0.2-3c0.5-0.4,1-0.5,1.4-0.5c0.6,0,1.2,0.3,1.6,0.7c0.4,0.4,0.6,1,0.5,1.5
								C142.6,113.3,142.3,113.8,141.9,114.1L141.9,114.1z"/>
							<path class="st3" d="M121,45.7c0.1,0,0.1,0,0.2,0C121.1,45.7,121,45.7,121,45.7z"/>
							<path class="st3" d="M142.9,32.7c-0.4-1.6-1.3-3-2.7-3.8c-1-0.6-2.1-0.9-3.3-0.9c-2.1,0-4.1,1.1-5.2,2.9
								c-1.4,2.1-1.2,4.8,0.1,6.8c-3.6,4.1-8.7,4.3-9.9,4.3c-3.7-1.6-7.2-2.2-10-2.3v4c2.4,0.1,5.6,0.7,8.8,2.1h0
								c3.4,1.6,6.3,3.9,8.6,7c-0.1,0.2-0.3,0.3-0.4,0.5c-1.8,2.8-0.9,6.6,1.9,8.4c1,0.6,2.1,1,3.3,1c2.1,0,4.1-1.1,5.2-2.8
								c1.8-2.8,0.9-6.6-1.9-8.5c-1.4-0.9-3.1-1.1-4.7-0.8c-1.5-2.2-3.3-4-5.3-5.6c2.5-0.8,5.4-2.3,7.8-5.1c0.6,0.2,1.2,0.3,1.8,0.3
								c2.1,0,4.1-1.1,5.2-2.8C143,35.9,143.3,34.3,142.9,32.7L142.9,32.7z M132.4,55.3c0.2-0.3,0.4-0.5,0.7-0.7
								c0.3-0.2,0.7-0.3,1.1-0.3s0.8,0.1,1.1,0.3c1,0.6,1.3,1.9,0.7,2.9c-0.4,0.6-1.1,1-1.8,1c-0.4,0-0.8-0.1-1.1-0.3
								C132,57.6,131.7,56.3,132.4,55.3z M138.7,35.1c-0.6,1-1.9,1.3-2.9,0.7l-0.1-0.1c-0.9-0.7-1.2-1.9-0.6-2.8
								c0.4-0.6,1.1-1,1.8-1c0.4,0,0.8,0.1,1.1,0.3c0.5,0.3,0.8,0.8,0.9,1.3C139.1,34.1,139,34.7,138.7,35.1L138.7,35.1z"/>
							<path class="st3" d="M151.6,73.6c0.4,1,1.1,2,2.1,2.7c0.1,0.1,0.1,0.1,0.3,0.2c1,0.6,2.1,0.9,3.3,0.9c2.1,0,4.1-1.1,5.2-2.8
								c0.9-1.4,1.2-3,0.8-4.6c-0.4-1.6-1.3-3-2.7-3.8c-1-0.6-2.1-0.9-3.3-0.9c-0.1,0-0.2,0-0.4,0c-0.7-3.2-0.9-7.8,0-11.3
								c0.1,0,0.2,0,0.3,0c2.1,0,4.1-1.1,5.2-2.8c0.9-1.4,1.2-3,0.8-4.6c-0.4-1.6-1.3-3-2.7-3.8c-1-0.6-2.1-0.9-3.3-0.9
								c-2.1,0-4.1,1.1-5.2,2.8c-1.6,2.5-1.1,5.8,1,7.8c0,0,0.1,0,0.1,0.1c-1.4,4.5-1.1,10.3,0,14.4c-0.1,0.1-0.3,0.2-0.4,0.4
								c-0.2,0.2-0.4,0.5-0.6,0.8c-0.3,0.5-0.6,1-0.7,1.6c-3.4,0.5-5.2,1.7-6.8,2.7c-2,1.3-4,2.6-9.6,2.7c-2-0.2-3.6-0.2-5.3-0.1
								c-1.4,0.1-2.9,0.1-4.8,0c-1.3-0.1-2.1-0.9-3.5-2.4c-1.8-2.1-4.2-4.7-9.4-5v4c3.3,0.3,4.8,1.9,6.4,3.7
								c1.5,1.7,3.2,3.6,6.3,3.8c2.1,0.1,3.8,0.1,5.2,0c2.5-0.1,4.4-0.2,7.9,0.7c2.6,0.6,12.1,9.7,14.8,14.3
								c-0.1,0.1-0.2,0.3-0.3,0.4c-1.7,2.8-1,6.4,1.6,8.2c0.1,0.1,0.1,0.1,0.3,0.2c1,0.6,2.1,0.9,3.3,0.9c2.1,0,4.1-1.1,5.2-2.8
								c0.9-1.4,1.2-3,0.8-4.6c-0.4-1.6-1.3-3-2.7-3.8c-1-0.6-2.1-0.9-3.3-0.9c-0.5,0-1.1,0.1-1.5,0.2c-2.6-4.2-8.6-10.5-13.2-13.8
								c1.8-0.6,3.1-1.4,4.2-2.2C148.1,74.8,149.3,74.1,151.6,73.6L151.6,73.6z M155.5,46.7c0.4-0.6,1.1-1,1.8-1
								c0.4,0,0.8,0.1,1.1,0.3c0.5,0.3,0.8,0.8,0.9,1.3c0.1,0.5,0,1.1-0.3,1.6c-0.6,1-1.9,1.3-2.9,0.7l-0.1-0.1
								C155.1,48.9,154.9,47.7,155.5,46.7z M155.5,70.2c0.4-0.6,1.1-1,1.8-1c0.4,0,0.8,0.1,1.1,0.3c0.5,0.3,0.8,0.8,0.9,1.3
								c0.1,0.6,0,1.1-0.3,1.6c-0.6,0.9-1.9,1.3-2.9,0.7l-0.1-0.1C155.1,72.4,154.9,71.1,155.5,70.2z M155.5,96.5
								c0.4-0.6,1.1-1,1.8-1c0.4,0,0.8,0.1,1.1,0.3c0.5,0.3,0.8,0.8,0.9,1.3c0.1,0.6,0,1.1-0.3,1.6c-0.6,0.9-1.9,1.3-2.9,0.7
								l-0.1-0.1C155.1,98.7,154.9,97.4,155.5,96.5z"/>
						</g>
					</g>
				</g>
			</g>
		</g>
	</g>
</g>
</svg>
