<?xml version="1.0" encoding="utf-8"?>
<!-- Generator: Adobe Illustrator 16.0.0, SVG Export Plug-In . SVG Version: 6.00 Build 0)  -->
<!DOCTYPE svg PUBLIC "-//W3C//DTD SVG 1.1//EN" "http://www.w3.org/Graphics/SVG/1.1/DTD/svg11.dtd" [
	<!ENTITY ns_extend "http://ns.adobe.com/Extensibility/1.0/">
	<!ENTITY ns_ai "http://ns.adobe.com/AdobeIllustrator/10.0/">
	<!ENTITY ns_graphs "http://ns.adobe.com/Graphs/1.0/">
	<!ENTITY ns_vars "http://ns.adobe.com/Variables/1.0/">
	<!ENTITY ns_imrep "http://ns.adobe.com/ImageReplacement/1.0/">
	<!ENTITY ns_sfw "http://ns.adobe.com/SaveForWeb/1.0/">
	<!ENTITY ns_custom "http://ns.adobe.com/GenericCustomNamespace/1.0/">
	<!ENTITY ns_adobe_xpath "http://ns.adobe.com/XPath/1.0/">
]>
<svg version="1.1" id="Layer_1" xmlns:x="&ns_extend;" xmlns:i="&ns_ai;" xmlns:graph="&ns_graphs;"
	 xmlns="http://www.w3.org/2000/svg" xmlns:xlink="http://www.w3.org/1999/xlink" x="0px" y="0px" width="420px" height="100px"
	 viewBox="0 0 420 100" enable-background="new 0 0 420 100" xml:space="preserve">
<metadata>
	<sfw  xmlns="&ns_sfw;">
		<slices></slices>
		<sliceSourceBounds  height="96" width="414.512" y="-1358" x="2964" bottomLeftOrigin="true"></sliceSourceBounds>
	</sfw>
</metadata>
<g>
</g>
<g>
	<g>
		<path fill="#754E37" d="M103.459,71.823V28.022h14.889c5.113,0,9.017,1.034,11.711,3.102c2.694,2.068,4.042,5.07,4.042,9.005
			c0,2.231-0.488,4.173-1.466,5.827s-2.42,2.871-4.324,3.647c2.055,0.602,3.647,1.748,4.775,3.439
			c1.128,1.692,1.691,3.767,1.691,6.223c0,4.361-1.266,7.545-3.797,9.55c-2.532,2.006-6.342,3.008-11.43,3.008H103.459z
			 M114.099,46.22h5.113c2.832-0.075,4.249-1.579,4.249-4.512c0-1.729-0.352-2.964-1.053-3.703c-0.702-0.739-1.78-1.109-3.233-1.109
			h-5.076V46.22z M114.099,53.626v9.438h5.452c1.479,0,2.612-0.402,3.402-1.208c0.789-0.805,1.185-1.912,1.185-3.322
			c0-3.171-1.278-4.806-3.835-4.907H114.099z"/>
		<path fill="#754E37" d="M140.131,51.899c0-5.672,1.338-10.122,4.013-13.352c2.675-3.228,6.376-4.842,11.104-4.842
			c4.773,0,8.497,1.614,11.172,4.842c2.675,3.229,4.013,7.702,4.013,13.421v2.387c0,5.696-1.326,10.146-3.978,13.352
			c-2.652,3.205-6.365,4.808-11.138,4.808c-4.797,0-8.526-1.608-11.19-4.825c-2.663-3.217-3.995-7.684-3.995-13.403V51.899z
			 M149.955,54.363c0,6.729,1.786,10.093,5.361,10.093c3.297,0,5.072-2.808,5.326-8.422l0.035-4.142c0-3.434-0.474-5.98-1.419-7.64
			c-0.945-1.658-2.282-2.488-4.012-2.488c-1.66,0-2.958,0.83-3.892,2.488c-0.934,1.659-1.4,4.206-1.4,7.64V54.363z"/>
		<path fill="#754E37" d="M175.378,51.899c0-5.672,1.338-10.122,4.013-13.352c2.675-3.228,6.376-4.842,11.104-4.842
			c4.773,0,8.497,1.614,11.172,4.842c2.675,3.229,4.013,7.702,4.013,13.421v2.387c0,5.696-1.326,10.146-3.978,13.352
			c-2.652,3.205-6.365,4.808-11.138,4.808c-4.797,0-8.526-1.608-11.19-4.825c-2.663-3.217-3.995-7.684-3.995-13.403V51.899z
			 M185.202,54.363c0,6.729,1.786,10.093,5.361,10.093c3.297,0,5.072-2.808,5.326-8.422l0.035-4.142c0-3.434-0.474-5.98-1.419-7.64
			c-0.945-1.658-2.282-2.488-4.012-2.488c-1.66,0-2.958,0.83-3.892,2.488c-0.934,1.659-1.4,4.206-1.4,7.64V54.363z"/>
		<path fill="#754E37" d="M224.184,57.399l-2.629,2.94v11.483h-9.789V18.694h9.789v28.709l1.211-1.799l6.779-11.207h11.656
			l-10.86,15.427l11.898,21.999h-11.207L224.184,57.399z"/>
		<path fill="#EB743B" d="M245.56,71.823V28.022h14.889c5.113,0,9.017,1.034,11.711,3.102c2.694,2.068,4.042,5.07,4.042,9.005
			c0,2.231-0.488,4.173-1.466,5.827s-2.42,2.871-4.324,3.647c2.055,0.602,3.647,1.748,4.775,3.439
			c1.128,1.692,1.691,3.767,1.691,6.223c0,4.361-1.266,7.545-3.797,9.55c-2.532,2.006-6.342,3.008-11.43,3.008H245.56z
			 M256.199,46.22h5.113c2.832-0.075,4.249-1.579,4.249-4.512c0-1.729-0.352-2.964-1.053-3.703c-0.702-0.739-1.78-1.109-3.233-1.109
			h-5.076V46.22z M256.199,53.626v9.438h5.452c1.479,0,2.612-0.402,3.402-1.208c0.789-0.805,1.185-1.912,1.185-3.322
			c0-3.171-1.278-4.806-3.835-4.907H256.199z"/>
		<path fill="#EB743B" d="M301.844,43.841l-3.251-0.277c-2.676,0-4.485,1.176-5.431,3.528v24.731h-9.823V34.397h9.235l0.276,4.047
			c1.545-3.159,3.678-4.738,6.399-4.738c1.106,0,2.006,0.149,2.698,0.449L301.844,43.841z"/>
		<path fill="#EB743B" d="M323.602,71.823c-0.276-0.576-0.554-1.545-0.83-2.905c-1.753,2.398-4.128,3.597-7.126,3.597
			c-3.136,0-5.736-1.037-7.8-3.112c-2.063-2.076-3.096-4.762-3.096-8.06c0-3.92,1.251-6.952,3.753-9.097
			c2.502-2.146,6.105-3.24,10.81-3.286h2.975v-3.01c0-1.683-0.289-2.871-0.865-3.563s-1.418-1.038-2.524-1.038
			c-2.444,0-3.667,1.431-3.667,4.289h-9.788c0-3.459,1.297-6.313,3.891-8.561c2.595-2.248,5.875-3.372,9.841-3.372
			c4.104,0,7.281,1.066,9.529,3.199c2.249,2.133,3.373,5.183,3.373,9.148V63.66c0.046,3.229,0.507,5.754,1.383,7.575v0.588H323.602z
			 M317.825,64.836c1.083,0,2.006-0.219,2.767-0.657c0.762-0.438,1.326-0.956,1.695-1.557V54.84h-2.353
			c-1.66,0-2.969,0.53-3.926,1.591c-0.957,1.062-1.436,2.479-1.436,4.255C314.573,63.452,315.657,64.836,317.825,64.836z"/>
		<path fill="#EB743B" d="M339.166,24.713c0-1.522,0.484-2.768,1.453-3.736s2.26-1.452,3.874-1.452c1.613,0,2.905,0.483,3.874,1.452
			s1.452,2.214,1.452,3.736c0,1.499-0.479,2.744-1.435,3.735c-0.958,0.991-2.255,1.487-3.892,1.487
			c-1.638,0-2.935-0.496-3.892-1.487S339.166,26.212,339.166,24.713z M349.439,71.823h-9.823V34.397h9.823V71.823z"/>
		<path fill="#EB743B" d="M365.974,34.397l0.276,3.701c2.214-2.929,5.107-4.393,8.683-4.393c6.434,0,9.742,4.508,9.927,13.524
			v24.593h-9.823V47.956c0-2.121-0.317-3.66-0.951-4.617c-0.635-0.957-1.747-1.436-3.338-1.436c-1.776,0-3.16,0.911-4.151,2.732
			v27.188h-9.823V34.397H365.974z"/>
		<path fill="#EB743B" d="M402.708,63.764h14.804v8.06h-26.426v-6.07l14.458-23.192h-14.112v-8.163h25.873v5.915L402.708,63.764z"/>
	</g>
	<g>
		<polygon fill="#EB743B" points="47,2 47,98 88,74 88,26 		"/>
		<polygon fill="#754E37" points="44,2 3,26 3,74 44,98 		"/>
		<path fill="#FFFEDB" d="M79.281,58.087c-1.239-1.97-3.38-3.148-5.718-3.148c-0.666,0-1.324,0.103-1.956,0.295
			c-2.632-3.125-5.819-4.775-8.603-5.636c2.235-1.714,4.208-3.771,5.909-6.153c1.74,0.394,3.63,0.127,5.162-0.832
			c3.158-2.006,4.103-6.197,2.104-9.348c-1.249-1.975-3.39-3.152-5.724-3.152c-1.283,0-2.533,0.363-3.616,1.05
			c-3.146,1.991-4.093,6.181-2.105,9.336c0.13,0.207,0.271,0.404,0.422,0.596c-2.514,3.442-5.708,6.056-9.519,7.785l-0.014,0.004
			C52.093,50.487,50,51,47,51v5c4,0,5.931-1.125,10.016-2.898c1.366-0.023,6.962,0.185,10.991,4.747
			c-1.507,2.164-1.655,5.108-0.16,7.471c1.241,1.97,3.382,3.15,5.721,3.15c1.278,0,2.524-0.36,3.607-1.044
			c1.538-0.975,2.599-2.482,2.995-4.252C80.566,61.413,80.248,59.606,79.281,58.087z M69.061,34.67
			c0.423-0.266,0.901-0.405,1.396-0.405c0.903,0,1.731,0.456,2.219,1.224c0.771,1.214,0.403,2.836-0.818,3.61
			c-0.41,0.261-0.896,0.398-1.387,0.398c-0.493,0-0.974-0.134-1.39-0.391c-0.343-0.213-0.625-0.489-0.832-0.817
			C67.478,37.064,67.842,35.443,69.061,34.67z M76.119,62.27c-0.154,0.687-0.564,1.27-1.161,1.645
			c-0.413,0.264-0.896,0.406-1.391,0.406c-0.906,0-1.731-0.457-2.21-1.218c-0.745-1.18-0.441-2.727,0.691-3.528l0.117-0.078
			c1.208-0.766,2.866-0.367,3.608,0.808C76.151,60.896,76.271,61.591,76.119,62.27z"/>
		<g>
			<g>
				<g>
					<g>
						<path fill="#FFFEDB" d="M44,81.732h-4.68c-0.59,0-1.068-0.479-1.068-1.069c0-1.541,0-3.288-5.58-4.036
							c-5.819-0.777-21.041-3.299-21.193-3.324c-0.517-0.085-0.895-0.532-0.895-1.055V30.923c0-0.304,0.13-0.594,0.356-0.798
							c0.227-0.202,0.53-0.303,0.831-0.265l4.813,0.535c0.588,0.065,1.01,0.594,0.945,1.18c-0.064,0.587-0.593,1.013-1.181,0.945
							l-3.625-0.402v39.223c3.358,0.554,15.262,2.503,20.232,3.167c5.658,0.758,7.091,2.81,7.375,5.086H44V81.732z"/>
					</g>
					<path fill="#CFA691" d="M41.599,36.477c0-6.278-11.675-14.989-25.132-11.88V65.92c13.813-0.574,25.132,4.445,25.132,10.795
						V36.477z"/>
					<g>
						<path fill="#FFFEDB" d="M24.098,34.94c-0.563,0-1.027,0.444-1.049,1.009c-0.021,0.579,0.243,1.09,1.01,1.09
							c9.678,0,17.54,8.258,17.54,10.824v-2.8c0-2.69-7.343-10.123-17.462-10.123C24.137,34.94,24.11,34.94,24.098,34.94z"/>
						<path fill="#FFFEDB" d="M24.098,42.224c-0.563,0-1.027,0.444-1.049,1.009c-0.021,0.579,0.243,1.09,1.01,1.09
							c9.678,0,17.54,8.258,17.54,10.824v-2.8c0-2.69-7.343-10.123-17.462-10.123C24.137,42.224,24.11,42.224,24.098,42.224z"/>
						<path fill="#FFFEDB" d="M24.098,49.507c-0.563,0-1.027,0.444-1.049,1.009c-0.021,0.579,0.243,1.09,1.01,1.09
							c9.678,0,17.54,8.258,17.54,10.824v-2.801c0-2.689-7.343-10.122-17.462-10.122C24.137,49.507,24.11,49.507,24.098,49.507z"/>
					</g>
				</g>
			</g>
		</g>
	</g>
</g>
</svg>
