<?xml version="1.0" encoding="utf-8"?>
<!-- Generator: Adobe Illustrator 26.2.1, SVG Export Plug-In . SVG Version: 6.00 Build 0)  -->
<svg version="1.1" id="Layer_1" xmlns="http://www.w3.org/2000/svg" xmlns:xlink="http://www.w3.org/1999/xlink" x="0px" y="0px"
	 width="554.8px" height="150px" viewBox="0 0 554.8 150" style="enable-background:new 0 0 554.8 150;" xml:space="preserve">
<style type="text/css">
	.st0{fill:#EB743B;}
	.st1{fill:#754E37;}
	.st2{fill:#573A29;}
	.st3{fill:#FFFEDB;}
	.st4{fill:#CFA691;}
	.st5{opacity:7.000000e-02;}
	.st6{fill:#D3562C;}
</style>
<g>
	<g id="a">
		<g>
			<g>
				<polygon class="st0" points="70.3,2.8 70.3,146.8 131.4,111.8 131.4,37.8 				"/>
				<polygon class="st1" points="65.3,2.8 4.3,37.8 4.3,111.8 65.3,146.8 				"/>
				<g>
					<g>
						<path class="st2" d="M65.3,125.1h-7c-0.9,0-1.6-0.7-1.6-1.6c0-2.3,0-4.9-8.3-6c-8.7-1.2-31.5-4.9-31.7-5
							c-0.8-0.1-1.3-0.8-1.3-1.6V49.1c0-0.5,0.2-0.9,0.5-1.2c0.3-0.3,0.8-0.5,1.2-0.4l7.2,0.8c0.9,0.1,1.5,0.9,1.4,1.8
							s-0.9,1.5-1.8,1.4l-5.4-0.6v58.7c5,0.8,22.8,3.7,30.3,4.7c8.5,1.1,10.6,4.2,11,7.6h5.5L65.3,125.1L65.3,125.1z"/>
						<path class="st2" d="M61.8,57.4c0-9.4-17.5-22.4-37.6-17.8v61.8c20.7-0.9,37.6,6.7,37.6,16.2V57.4z"/>
						<path class="st2" d="M35.6,55.1c-0.8,0-1.5,0.7-1.6,1.5c0,0.9,0.4,1.6,1.5,1.6c14.5,0,26.2,12.4,26.2,16.2v-4.2
							C61.8,66.2,50.8,55.1,35.6,55.1L35.6,55.1L35.6,55.1z"/>
						<path class="st2" d="M35.6,66c-0.8,0-1.5,0.7-1.6,1.5c0,0.9,0.4,1.6,1.5,1.6c14.5,0,26.2,12.4,26.2,16.2v-4.2
							C61.8,77.1,50.8,66,35.6,66L35.6,66L35.6,66z"/>
						<path class="st2" d="M35.6,76.9c-0.8,0-1.5,0.7-1.6,1.5c0,0.9,0.4,1.6,1.5,1.6C50,80,61.8,92.4,61.8,96.2v-4.2
							C61.8,88,50.8,76.9,35.6,76.9L35.6,76.9L35.6,76.9z"/>
					</g>
					<g>
						<path class="st3" d="M65.3,122.1h-7c-0.9,0-1.6-0.7-1.6-1.6c0-2.3,0-4.9-8.3-6c-8.7-1.2-31.5-4.9-31.7-5
							c-0.8-0.1-1.3-0.8-1.3-1.6V46.1c0-0.5,0.2-0.9,0.5-1.2c0.3-0.3,0.8-0.5,1.2-0.4l7.2,0.8c0.9,0.1,1.5,0.9,1.4,1.8
							s-0.9,1.5-1.8,1.4l-5.4-0.6v58.7c5,0.8,22.8,3.7,30.3,4.7c8.5,1.1,10.6,4.2,11,7.6h5.5L65.3,122.1L65.3,122.1z"/>
						<path class="st4" d="M61.8,54.4c0-9.4-17.5-22.4-37.6-17.8v61.8c20.7-0.9,37.6,6.7,37.6,16.2V54.4z"/>
						<g>
							<path class="st3" d="M35.6,52.1c-0.8,0-1.5,0.7-1.6,1.5c0,0.9,0.4,1.6,1.5,1.6c14.5,0,26.2,12.4,26.2,16.2v-4.2
								C61.8,63.2,50.8,52.1,35.6,52.1L35.6,52.1L35.6,52.1z"/>
							<path class="st3" d="M35.6,63c-0.8,0-1.5,0.7-1.6,1.5c0,0.9,0.4,1.6,1.5,1.6c14.5,0,26.2,12.4,26.2,16.2v-4.2
								C61.8,74.1,50.8,63,35.6,63L35.6,63L35.6,63z"/>
							<path class="st3" d="M35.6,73.9c-0.8,0-1.5,0.7-1.6,1.5c0,0.9,0.4,1.6,1.5,1.6C50,77,61.8,89.4,61.8,93.2v-4.2
								C61.8,85,50.8,73.9,35.6,73.9L35.6,73.9L35.6,73.9z"/>
						</g>
					</g>
				</g>
				<g>
					<g class="st5">
						<path d="M87.7,94.6c0.4-0.6,1.1-1,1.8-1c0.4,0,0.8,0.1,1.1,0.3c1,0.6,1.3,1.9,0.7,2.9c-0.4,0.7-1.1,1-1.8,1
							c-0.4,0-0.8-0.1-1.1-0.3c-0.5-0.3-0.8-0.8-1-1.3C87.3,95.6,87.4,95,87.7,94.6L87.7,94.6z M100.3,116.9c-0.5,0.4-1,0.5-1.4,0.5
							c-0.6,0-1.2-0.3-1.6-0.7c-0.8-0.9-0.7-2.2,0.2-3c0.5-0.4,1-0.5,1.4-0.5c0.6,0,1.2,0.3,1.6,0.7c0.4,0.4,0.6,1,0.5,1.5
							C101,116,100.7,116.6,100.3,116.9L100.3,116.9z"/>
						<path d="M79.4,48.4c0.1,0,0.1,0,0.2,0C79.5,48.5,79.4,48.5,79.4,48.4z"/>
						<path d="M90.7,58.1c0.2-0.3,0.4-0.5,0.7-0.7c0.3-0.2,0.7-0.3,1.1-0.3s0.8,0.1,1.1,0.3c1,0.6,1.3,1.9,0.7,2.9
							c-0.4,0.6-1.1,1-1.8,1c-0.4,0-0.8-0.1-1.1-0.3C90.4,60.4,90.1,59.1,90.7,58.1z M97.1,37.9c-0.6,1-1.9,1.3-2.9,0.7l-0.1-0.1
							c-0.9-0.7-1.2-1.9-0.6-2.8c0.4-0.6,1.1-1,1.8-1c0.4,0,0.8,0.1,1.1,0.3c0.5,0.3,0.8,0.8,0.9,1.3C97.5,36.9,97.4,37.4,97.1,37.9
							L97.1,37.9z"/>
						<path d="M113.9,49.5c0.4-0.6,1.1-1,1.8-1c0.4,0,0.8,0.1,1.1,0.3c0.5,0.3,0.8,0.8,0.9,1.3c0.1,0.5,0,1.1-0.3,1.6
							c-0.6,1-1.9,1.3-2.9,0.7l-0.1-0.1C113.5,51.7,113.3,50.4,113.9,49.5z M113.9,72.9c0.4-0.6,1.1-1,1.8-1c0.4,0,0.8,0.1,1.1,0.3
							c0.5,0.3,0.8,0.8,0.9,1.3c0.1,0.6,0,1.1-0.3,1.6c-0.6,0.9-1.9,1.3-2.9,0.7l-0.1-0.1C113.5,75.2,113.3,73.9,113.9,72.9z
							 M113.9,99.2c0.4-0.6,1.1-1,1.8-1c0.4,0,0.8,0.1,1.1,0.3c0.5,0.3,0.8,0.8,0.9,1.3c0.1,0.6,0,1.1-0.3,1.6
							c-0.6,0.9-1.9,1.3-2.9,0.7l-0.1-0.1C113.5,101.5,113.3,100.2,113.9,99.2z"/>
						<path d="M103.5,108.9c-1.2-1.4-2.9-2.1-4.7-2.1c-1.5,0-2.9,0.5-4,1.5c-1.6,1.4-2.3,3.4-2.1,5.4c-1.9,0.7-4.3,1.4-5.3,1.3
							c-0.8,0-1.3-0.3-2.2-1c-1.2-0.8-2.4-1.5-4.2-1.8c2.9-2.8,6-6.8,8.6-12.8c2.1-0.1,4-1.2,5-3c1.7-2.9,0.8-6.7-2.1-8.4
							c-0.9-0.6-2-0.9-3.1-0.9c-2.2,0-4.2,1.1-5.3,3c-0.8,1.4-1.1,3.1-0.7,4.6c0.3,1.4,1.2,2.6,2.3,3.4c-4.1,9.2-9.2,13.1-12.6,14.7
							c-0.1,0-0.2,0.1-0.4,0.2c-1.2,0.5-2.1,0.7-2.6,0.8v4c0.3,0,1.9-0.1,4.2-1.2c5.3-1.4,6.8-0.3,8.4,0.7c1,0.7,2.3,1.6,4.3,1.7
							c0.1,0,0.2,0,0.3,0c2.1,0,5.2-1,7-1.7c1.1,1.1,2.7,1.8,4.3,1.8l0,0c1.5,0,2.9-0.5,4-1.5c1.2-1.1,2-2.6,2.1-4.2
							C105.1,111.8,104.6,110.2,103.5,108.9L103.5,108.9z M87.7,92.2c0.4-0.6,1.1-1,1.8-1c0.4,0,0.8,0.1,1.1,0.3
							c1,0.6,1.3,1.9,0.7,2.9c-0.4,0.7-1.1,1-1.8,1c-0.4,0-0.8-0.1-1.1-0.3c-0.5-0.3-0.8-0.8-1-1.3C87.3,93.2,87.4,92.6,87.7,92.2
							L87.7,92.2z M100.3,114.5c-0.5,0.4-1,0.5-1.4,0.5c-0.6,0-1.2-0.3-1.6-0.7c-0.8-0.9-0.7-2.2,0.2-3c0.5-0.4,1-0.5,1.4-0.5
							c0.6,0,1.2,0.3,1.6,0.7c0.4,0.4,0.6,1,0.5,1.5C100.9,113.6,100.7,114.1,100.3,114.5L100.3,114.5z"/>
						<path d="M79.4,46c0.1,0,0.1,0,0.2,0C79.5,46.1,79.4,46,79.4,46z"/>
						<path d="M101.3,33c-0.4-1.6-1.3-3-2.7-3.8c-1-0.6-2.1-0.9-3.3-0.9c-2.1,0-4.1,1.1-5.2,2.9c-1.3,2.1-1.2,4.8,0.1,6.8
							c-3.7,4.1-8.7,4.3-9.9,4.3c-3.7-1.6-7.2-2.2-10-2.3v4c2.4,0.1,5.6,0.7,8.8,2.1h0c3.4,1.6,6.3,3.9,8.6,7
							c-0.1,0.2-0.3,0.3-0.4,0.5c-1.8,2.8-0.9,6.6,1.9,8.4c1,0.6,2.1,1,3.3,1c2.1,0,4.1-1.1,5.2-2.8c1.8-2.8,0.9-6.6-1.9-8.5
							c-1.4-0.9-3.1-1.1-4.7-0.8c-1.5-2.2-3.3-4-5.3-5.6c2.5-0.8,5.4-2.3,7.8-5.1c0.6,0.2,1.2,0.3,1.8,0.3c2.1,0,4.1-1.1,5.2-2.8
							C101.4,36.3,101.7,34.6,101.3,33L101.3,33z M90.7,55.7c0.2-0.3,0.4-0.5,0.7-0.7c0.3-0.2,0.7-0.3,1.1-0.3s0.8,0.1,1.1,0.3
							c1,0.6,1.3,1.9,0.7,2.9c-0.4,0.6-1.1,1-1.8,1c-0.4,0-0.8-0.1-1.1-0.3C90.4,58,90.1,56.7,90.7,55.7z M97.1,35.5
							c-0.6,1-1.9,1.3-2.9,0.7l-0.1-0.1c-0.9-0.7-1.2-1.9-0.6-2.8c0.4-0.6,1.1-1,1.8-1c0.4,0,0.8,0.1,1.1,0.3
							c0.5,0.3,0.8,0.8,0.9,1.3C97.5,34.5,97.4,35,97.1,35.5L97.1,35.5z"/>
						<path d="M110,74c0.4,1,1.1,2,2.1,2.7c0.1,0.1,0.2,0.1,0.3,0.2c1,0.6,2.1,0.9,3.3,0.9c2.1,0,4.1-1.1,5.2-2.8
							c0.9-1.4,1.2-3,0.8-4.6c-0.4-1.6-1.3-3-2.7-3.8c-1-0.6-2.1-0.9-3.3-0.9c-0.1,0-0.2,0-0.4,0c-0.7-3.2-0.9-7.8,0-11.3
							c0.1,0,0.2,0,0.3,0c2.1,0,4.1-1.1,5.2-2.8c0.9-1.4,1.2-3,0.8-4.6c-0.4-1.6-1.3-3-2.7-3.8c-1-0.6-2.1-0.9-3.3-0.9
							c-2.1,0-4.1,1.1-5.2,2.8c-1.6,2.5-1.1,5.8,1,7.8c0,0,0.1,0,0.1,0.1c-1.3,4.5-1.2,10.3,0,14.4c-0.1,0.1-0.3,0.2-0.4,0.4
							c-0.2,0.2-0.4,0.5-0.6,0.8c-0.3,0.5-0.6,1-0.7,1.6c-3.4,0.5-5.2,1.7-6.8,2.7c-2,1.3-4,2.6-9.6,2.7c-2-0.2-3.6-0.2-5.3-0.1
							c-1.4,0.1-2.9,0.1-4.8,0c-1.3-0.1-2.1-0.9-3.5-2.4c-1.8-2.1-4.2-4.7-9.4-5v4c3.3,0.3,4.8,1.9,6.4,3.7c1.5,1.7,3.2,3.6,6.3,3.8
							c2.1,0.1,3.8,0.1,5.2,0c2.5-0.1,4.4-0.2,7.9,0.7c2.6,0.6,12.1,9.7,14.8,14.3c-0.1,0.1-0.2,0.3-0.3,0.4c-1.7,2.8-1,6.4,1.6,8.2
							c0.1,0.1,0.2,0.1,0.3,0.2c1,0.6,2.1,0.9,3.3,0.9c2.1,0,4.1-1.1,5.2-2.8c0.9-1.4,1.2-3,0.8-4.6c-0.4-1.6-1.3-3-2.7-3.8
							c-1-0.6-2.1-0.9-3.3-0.9c-0.5,0-1.1,0.1-1.5,0.2c-2.6-4.2-8.7-10.5-13.2-13.8c1.8-0.6,3.1-1.4,4.2-2.2
							C106.5,75.2,107.7,74.4,110,74L110,74z M113.9,47.1c0.4-0.6,1.1-1,1.8-1c0.4,0,0.8,0.1,1.1,0.3c0.5,0.3,0.8,0.8,0.9,1.3
							c0.1,0.5,0,1.1-0.3,1.6c-0.6,1-1.9,1.3-2.9,0.7l-0.1-0.1C113.5,49.3,113.3,48,113.9,47.1z M113.9,70.6c0.4-0.6,1.1-1,1.8-1
							c0.4,0,0.8,0.1,1.1,0.3c0.5,0.3,0.8,0.8,0.9,1.3c0.1,0.6,0,1.1-0.3,1.6c-0.6,0.9-1.9,1.3-2.9,0.7l-0.1-0.1
							C113.5,72.8,113.3,71.5,113.9,70.6z M113.9,96.9c0.4-0.6,1.1-1,1.8-1c0.4,0,0.8,0.1,1.1,0.3c0.5,0.3,0.8,0.8,0.9,1.3
							c0.1,0.6,0,1.1-0.3,1.6c-0.6,0.9-1.9,1.3-2.9,0.7l-0.1-0.1C113.5,99.1,113.3,97.8,113.9,96.9z"/>
					</g>
					<g>
						<g>
							<path class="st6" d="M103.5,111.9c-1.2-1.4-2.9-2.1-4.7-2.1c-1.5,0-2.9,0.5-4,1.5c-1.6,1.4-2.3,3.4-2.1,5.4
								c-1.9,0.7-4.3,1.4-5.3,1.3c-0.8,0-1.3-0.3-2.2-1c-1.2-0.8-2.4-1.5-4.2-1.8c2.9-2.8,6-6.8,8.6-12.8c2.1-0.1,4-1.2,5-3
								c1.7-2.9,0.8-6.7-2.1-8.4c-0.9-0.6-2-0.9-3.1-0.9c-2.2,0-4.2,1.1-5.3,3c-0.8,1.4-1.1,3.1-0.7,4.6c0.3,1.4,1.2,2.6,2.3,3.4
								c-4.1,9.2-9.2,13.1-12.6,14.7c-0.1,0-0.2,0.1-0.4,0.2c-1.2,0.5-2.1,0.7-2.6,0.8v4c0.3,0,1.9-0.1,4.2-1.2
								c5.3-1.4,6.8-0.3,8.4,0.7c1,0.7,2.3,1.6,4.3,1.7c0.1,0,0.2,0,0.3,0c2.1,0,5.2-1,7-1.7c1.1,1.1,2.7,1.8,4.3,1.8l0,0
								c1.5,0,2.9-0.5,4-1.5c1.2-1.1,2-2.6,2.1-4.2C105.1,114.8,104.6,113.2,103.5,111.9L103.5,111.9z M87.7,95.2
								c0.4-0.6,1.1-1,1.8-1c0.4,0,0.8,0.1,1.1,0.3c1,0.6,1.3,1.9,0.7,2.9c-0.4,0.7-1.1,1-1.8,1c-0.4,0-0.8-0.1-1.1-0.3
								c-0.5-0.3-0.8-0.8-1-1.3C87.3,96.2,87.4,95.6,87.7,95.2L87.7,95.2z M100.3,117.5c-0.5,0.4-1,0.5-1.4,0.5
								c-0.6,0-1.2-0.3-1.6-0.7c-0.8-0.9-0.7-2.2,0.2-3c0.5-0.4,1-0.5,1.4-0.5c0.6,0,1.2,0.3,1.6,0.7c0.4,0.4,0.6,1,0.5,1.5
								C100.9,116.6,100.7,117.1,100.3,117.5L100.3,117.5z"/>
							<path d="M79.4,48.4c0.1,0,0.1,0,0.2,0C79.5,48.5,79.4,48.5,79.4,48.4z"/>
							<path class="st6" d="M101.3,36c-0.4-1.6-1.3-3-2.7-3.8c-1-0.6-2.1-0.9-3.3-0.9c-2.1,0-4.1,1.1-5.2,2.9
								c-1.3,2.1-1.2,4.8,0.1,6.8c-3.7,4.1-8.7,4.3-9.9,4.3c-3.7-1.6-7.2-2.2-10-2.3v4c2.4,0.1,5.6,0.7,8.8,2.1h0
								c3.4,1.6,6.3,3.9,8.6,7c-0.1,0.2-0.3,0.3-0.4,0.5c-1.8,2.8-0.9,6.6,1.9,8.4c1,0.6,2.1,0.9,3.3,0.9c2.1,0,4.1-1.1,5.2-2.8
								c1.8-2.8,0.9-6.6-1.9-8.5c-1.4-0.9-3.1-1.1-4.7-0.8c-1.5-2.2-3.3-4-5.3-5.6c2.5-0.8,5.4-2.3,7.8-5.1c0.6,0.2,1.2,0.3,1.8,0.3
								c2.1,0,4.1-1.1,5.2-2.8C101.4,39.3,101.7,37.6,101.3,36L101.3,36z M90.7,58.7c0.2-0.3,0.4-0.5,0.7-0.7
								c0.3-0.2,0.7-0.3,1.1-0.3s0.8,0.1,1.1,0.3c1,0.6,1.3,1.9,0.7,2.9c-0.4,0.6-1.1,1-1.8,1c-0.4,0-0.8-0.1-1.1-0.3
								C90.4,61,90.1,59.7,90.7,58.7z M97.1,38.5c-0.6,1-1.9,1.3-2.9,0.7l-0.1-0.1c-0.9-0.7-1.2-1.9-0.6-2.8c0.4-0.6,1.1-1,1.8-1
								c0.4,0,0.8,0.1,1.1,0.3c0.5,0.3,0.8,0.8,0.9,1.3C97.5,37.5,97.4,38,97.1,38.5L97.1,38.5z"/>
							<path class="st6" d="M110,77c0.4,1,1.1,2,2.1,2.7c0.1,0.1,0.2,0.1,0.3,0.2c1,0.6,2.1,0.9,3.3,0.9c2.1,0,4.1-1.1,5.2-2.8
								c0.9-1.4,1.2-3,0.8-4.6c-0.4-1.6-1.3-3-2.7-3.8c-1-0.6-2.1-0.9-3.3-0.9c-0.1,0-0.2,0-0.4,0c-0.7-3.2-0.9-7.8,0-11.3
								c0.1,0,0.2,0,0.3,0c2.1,0,4.1-1.1,5.2-2.8c0.9-1.4,1.2-3,0.8-4.6c-0.4-1.6-1.3-3-2.7-3.8c-1-0.6-2.1-0.9-3.3-0.9
								c-2.1,0-4.1,1.1-5.2,2.8c-1.6,2.5-1.1,5.8,1,7.8c0,0,0.1,0,0.1,0.1c-1.3,4.5-1.2,10.3,0,14.4c-0.1,0.1-0.3,0.2-0.4,0.4
								c-0.2,0.2-0.4,0.5-0.6,0.8c-0.3,0.5-0.6,1-0.7,1.6c-3.4,0.5-5.2,1.7-6.8,2.7c-2,1.3-4,2.6-9.6,2.7c-2-0.2-3.6-0.2-5.3-0.1
								c-1.4,0.1-2.9,0.1-4.8,0c-1.3-0.1-2.1-0.9-3.5-2.4c-1.8-2.1-4.2-4.7-9.4-5v4c3.3,0.3,4.8,1.9,6.4,3.7
								c1.5,1.7,3.2,3.6,6.3,3.8c2.1,0.1,3.8,0.1,5.2,0c2.5-0.1,4.4-0.2,7.9,0.7c2.6,0.6,12.1,9.7,14.8,14.3
								c-0.1,0.1-0.2,0.3-0.3,0.4c-1.7,2.8-1,6.4,1.6,8.2c0.1,0.1,0.2,0.1,0.3,0.2c1,0.6,2.1,0.9,3.3,0.9c2.1,0,4.1-1.1,5.2-2.8
								c0.9-1.4,1.2-3,0.8-4.6c-0.4-1.6-1.3-3-2.7-3.8c-1-0.6-2.1-0.9-3.3-0.9c-0.5,0-1.1,0.1-1.5,0.2c-2.6-4.2-8.7-10.5-13.2-13.8
								c1.8-0.6,3.1-1.4,4.2-2.2C106.5,78.2,107.7,77.4,110,77L110,77z M113.9,50.1c0.4-0.6,1.1-1,1.8-1c0.4,0,0.8,0.1,1.1,0.3
								c0.5,0.3,0.8,0.8,0.9,1.3c0.1,0.5,0,1.1-0.3,1.6c-0.6,1-1.9,1.3-2.9,0.7l-0.1-0.1C113.5,52.3,113.3,51,113.9,50.1z
								 M113.9,73.6c0.4-0.6,1.1-1,1.8-1c0.4,0,0.8,0.1,1.1,0.3c0.5,0.3,0.8,0.8,0.9,1.3c0.1,0.6,0,1.1-0.3,1.6
								c-0.6,0.9-1.9,1.3-2.9,0.7l-0.1-0.1C113.5,75.8,113.3,74.5,113.9,73.6z M113.9,99.9c0.4-0.6,1.1-1,1.8-1
								c0.4,0,0.8,0.1,1.1,0.3c0.5,0.3,0.8,0.8,0.9,1.3c0.1,0.6,0,1.1-0.3,1.6c-0.6,0.9-1.9,1.3-2.9,0.7l-0.1-0.1
								C113.5,102.1,113.3,100.8,113.9,99.9z"/>
						</g>
						<g>
							<path class="st3" d="M103.5,108.9c-1.2-1.4-2.9-2.1-4.7-2.1c-1.5,0-2.9,0.5-4,1.5c-1.6,1.4-2.3,3.4-2.1,5.4
								c-1.9,0.7-4.3,1.4-5.3,1.3c-0.8,0-1.3-0.3-2.2-1c-1.2-0.8-2.4-1.5-4.2-1.8c2.9-2.8,6-6.8,8.6-12.8c2.1-0.1,4-1.2,5-3
								c1.7-2.9,0.8-6.7-2.1-8.4c-0.9-0.6-2-0.9-3.1-0.9c-2.2,0-4.2,1.1-5.3,3c-0.8,1.4-1.1,3.1-0.7,4.6c0.3,1.4,1.2,2.6,2.3,3.4
								c-4.1,9.2-9.2,13.1-12.6,14.7c-0.1,0-0.2,0.1-0.4,0.2c-1.2,0.5-2.1,0.7-2.6,0.8v4c0.3,0,1.9-0.1,4.2-1.2
								c5.3-1.4,6.8-0.3,8.4,0.7c1,0.7,2.3,1.6,4.3,1.7c0.1,0,0.2,0,0.3,0c2.1,0,5.2-1,7-1.7c1.1,1.1,2.7,1.8,4.3,1.8l0,0
								c1.5,0,2.9-0.5,4-1.5c1.2-1.1,2-2.6,2.1-4.2C105.1,111.8,104.6,110.2,103.5,108.9L103.5,108.9z M87.7,92.2
								c0.4-0.6,1.1-1,1.8-1c0.4,0,0.8,0.1,1.1,0.3c1,0.6,1.3,1.9,0.7,2.9c-0.4,0.7-1.1,1-1.8,1c-0.4,0-0.8-0.1-1.1-0.3
								c-0.5-0.3-0.8-0.8-1-1.3C87.3,93.2,87.4,92.6,87.7,92.2L87.7,92.2z M100.3,114.5c-0.5,0.4-1,0.5-1.4,0.5
								c-0.6,0-1.2-0.3-1.6-0.7c-0.8-0.9-0.7-2.2,0.2-3c0.5-0.4,1-0.5,1.4-0.5c0.6,0,1.2,0.3,1.6,0.7c0.4,0.4,0.6,1,0.5,1.5
								C100.9,113.6,100.7,114.1,100.3,114.5L100.3,114.5z"/>
							<path class="st3" d="M79.4,46c0.1,0,0.1,0,0.2,0C79.5,46.1,79.4,46,79.4,46z"/>
							<path class="st3" d="M101.3,33c-0.4-1.6-1.3-3-2.7-3.8c-1-0.6-2.1-0.9-3.3-0.9c-2.1,0-4.1,1.1-5.2,2.9
								c-1.3,2.1-1.2,4.8,0.1,6.8c-3.7,4.1-8.7,4.3-9.9,4.3c-3.7-1.6-7.2-2.2-10-2.3v4c2.4,0.1,5.6,0.7,8.8,2.1h0
								c3.4,1.6,6.3,3.9,8.6,7c-0.1,0.2-0.3,0.3-0.4,0.5c-1.8,2.8-0.9,6.6,1.9,8.4c1,0.6,2.1,1,3.3,1c2.1,0,4.1-1.1,5.2-2.8
								c1.8-2.8,0.9-6.6-1.9-8.5c-1.4-0.9-3.1-1.1-4.7-0.8c-1.5-2.2-3.3-4-5.3-5.6c2.5-0.8,5.4-2.3,7.8-5.1c0.6,0.2,1.2,0.3,1.8,0.3
								c2.1,0,4.1-1.1,5.2-2.8C101.4,36.3,101.7,34.6,101.3,33L101.3,33z M90.7,55.7c0.2-0.3,0.4-0.5,0.7-0.7
								c0.3-0.2,0.7-0.3,1.1-0.3s0.8,0.1,1.1,0.3c1,0.6,1.3,1.9,0.7,2.9c-0.4,0.6-1.1,1-1.8,1c-0.4,0-0.8-0.1-1.1-0.3
								C90.4,58,90.1,56.7,90.7,55.7z M97.1,35.5c-0.6,1-1.9,1.3-2.9,0.7l-0.1-0.1c-0.9-0.7-1.2-1.9-0.6-2.8c0.4-0.6,1.1-1,1.8-1
								c0.4,0,0.8,0.1,1.1,0.3c0.5,0.3,0.8,0.8,0.9,1.3C97.5,34.5,97.4,35,97.1,35.5L97.1,35.5z"/>
							<path class="st3" d="M110,74c0.4,1,1.1,2,2.1,2.7c0.1,0.1,0.2,0.1,0.3,0.2c1,0.6,2.1,0.9,3.3,0.9c2.1,0,4.1-1.1,5.2-2.8
								c0.9-1.4,1.2-3,0.8-4.6c-0.4-1.6-1.3-3-2.7-3.8c-1-0.6-2.1-0.9-3.3-0.9c-0.1,0-0.2,0-0.4,0c-0.7-3.2-0.9-7.8,0-11.3
								c0.1,0,0.2,0,0.3,0c2.1,0,4.1-1.1,5.2-2.8c0.9-1.4,1.2-3,0.8-4.6c-0.4-1.6-1.3-3-2.7-3.8c-1-0.6-2.1-0.9-3.3-0.9
								c-2.1,0-4.1,1.1-5.2,2.8c-1.6,2.5-1.1,5.8,1,7.8c0,0,0.1,0,0.1,0.1c-1.3,4.5-1.2,10.3,0,14.4c-0.1,0.1-0.3,0.2-0.4,0.4
								c-0.2,0.2-0.4,0.5-0.6,0.8c-0.3,0.5-0.6,1-0.7,1.6c-3.4,0.5-5.2,1.7-6.8,2.7c-2,1.3-4,2.6-9.6,2.7c-2-0.2-3.6-0.2-5.3-0.1
								c-1.4,0.1-2.9,0.1-4.8,0c-1.3-0.1-2.1-0.9-3.5-2.4c-1.8-2.1-4.2-4.7-9.4-5v4c3.3,0.3,4.8,1.9,6.4,3.7
								c1.5,1.7,3.2,3.6,6.3,3.8c2.1,0.1,3.8,0.1,5.2,0c2.5-0.1,4.4-0.2,7.9,0.7c2.6,0.6,12.1,9.7,14.8,14.3
								c-0.1,0.1-0.2,0.3-0.3,0.4c-1.7,2.8-1,6.4,1.6,8.2c0.1,0.1,0.2,0.1,0.3,0.2c1,0.6,2.1,0.9,3.3,0.9c2.1,0,4.1-1.1,5.2-2.8
								c0.9-1.4,1.2-3,0.8-4.6c-0.4-1.6-1.3-3-2.7-3.8c-1-0.6-2.1-0.9-3.3-0.9c-0.5,0-1.1,0.1-1.5,0.2c-2.6-4.2-8.7-10.5-13.2-13.8
								c1.8-0.6,3.1-1.4,4.2-2.2C106.5,75.2,107.7,74.4,110,74L110,74z M113.9,47.1c0.4-0.6,1.1-1,1.8-1c0.4,0,0.8,0.1,1.1,0.3
								c0.5,0.3,0.8,0.8,0.9,1.3c0.1,0.5,0,1.1-0.3,1.6c-0.6,1-1.9,1.3-2.9,0.7l-0.1-0.1C113.5,49.3,113.3,48,113.9,47.1z
								 M113.9,70.6c0.4-0.6,1.1-1,1.8-1c0.4,0,0.8,0.1,1.1,0.3c0.5,0.3,0.8,0.8,0.9,1.3c0.1,0.6,0,1.1-0.3,1.6
								c-0.6,0.9-1.9,1.3-2.9,0.7l-0.1-0.1C113.5,72.8,113.3,71.5,113.9,70.6z M113.9,96.9c0.4-0.6,1.1-1,1.8-1
								c0.4,0,0.8,0.1,1.1,0.3c0.5,0.3,0.8,0.8,0.9,1.3c0.1,0.6,0,1.1-0.3,1.6c-0.6,0.9-1.9,1.3-2.9,0.7l-0.1-0.1
								C113.5,99.1,113.3,97.8,113.9,96.9z"/>
						</g>
					</g>
				</g>
			</g>
			<g>
				<path class="st1" d="M155.5,102.8V48.1h19.7c7,0,12.4,1.3,16.1,3.9c3.7,2.6,5.5,6.3,5.5,11.2c0,2.8-0.6,5.2-2,7.3
					c-1.3,2-3.2,3.5-5.8,4.4c2.9,0.8,5.1,2.2,6.6,4.2c1.5,2.1,2.3,4.6,2.3,7.5c0,5.4-1.7,9.4-5.1,12.1c-3.4,2.7-8.4,4.1-15.1,4.1
					L155.5,102.8L155.5,102.8z M168.7,70.9h6.9c2.9,0,4.9-0.6,6.2-1.6s1.8-2.6,1.8-4.6c0-2.3-0.7-4-2-5s-3.5-1.5-6.4-1.5h-6.5V70.9z
					 M168.7,79.6v13.1h8.6c2.4,0,4.2-0.5,5.5-1.6c1.3-1.1,1.9-2.6,1.9-4.6c0-4.6-2.3-6.9-6.8-6.9L168.7,79.6L168.7,79.6z"/>
				<path class="st1" d="M202.9,82.1c0-4.1,0.8-7.7,2.4-10.8s3.9-5.6,6.8-7.3c3-1.7,6.4-2.6,10.4-2.6c6.1,0,10.9,1.9,14.4,5.7
					c3.5,3.8,5.3,8.9,5.3,15.4v0.4c0,6.3-1.8,11.4-5.3,15.1c-3.5,3.7-8.3,5.6-14.3,5.6s-10.4-1.7-13.9-5.2s-5.4-8.2-5.7-14.1
					L202.9,82.1L202.9,82.1z M215.6,82.9c0,3.8,0.6,6.5,1.8,8.3c1.2,1.8,2.9,2.6,5.2,2.6c4.5,0,6.8-3.5,6.9-10.4v-1.3
					c0-7.3-2.3-10.9-7-10.9c-4.2,0-6.5,3.2-6.9,9.4L215.6,82.9L215.6,82.9z"/>
				<path class="st1" d="M246.2,82.1c0-4.1,0.8-7.7,2.4-10.8s3.9-5.6,6.8-7.3c3-1.7,6.4-2.6,10.4-2.6c6.1,0,10.9,1.9,14.4,5.7
					c3.5,3.8,5.3,8.9,5.3,15.4v0.4c0,6.3-1.8,11.4-5.3,15.1c-3.5,3.7-8.3,5.6-14.3,5.6s-10.4-1.7-13.9-5.2s-5.4-8.2-5.7-14.1
					L246.2,82.1L246.2,82.1z M258.9,82.9c0,3.8,0.6,6.5,1.8,8.3s2.9,2.6,5.2,2.6c4.5,0,6.8-3.5,6.9-10.4v-1.3c0-7.3-2.3-10.9-7-10.9
					c-4.2,0-6.5,3.2-6.9,9.4L258.9,82.9L258.9,82.9z"/>
				<path class="st1" d="M307.4,87.7l-3.6,3.6v11.6h-12.7V45h12.7v30.7l1.3-1.7l9.5-11.9h15.2l-14.2,16.7l15.2,24h-14.5L307.4,87.7
					L307.4,87.7z"/>
				<path class="st0" d="M333.7,102.8V48.1h19.7c7,0,12.4,1.3,16.1,3.9s5.5,6.3,5.5,11.2c0,2.8-0.6,5.2-2,7.3
					c-1.3,2-3.2,3.5-5.8,4.4c2.9,0.8,5,2.2,6.6,4.2c1.5,2.1,2.3,4.6,2.3,7.5c0,5.4-1.7,9.4-5.1,12.1c-3.4,2.7-8.4,4.1-15.1,4.1
					L333.7,102.8L333.7,102.8z M346.9,70.9h6.9c2.9,0,4.9-0.6,6.2-1.6s1.8-2.6,1.8-4.6c0-2.3-0.7-4-2-5s-3.5-1.5-6.4-1.5h-6.5
					L346.9,70.9L346.9,70.9z M346.9,79.6v13.1h8.6c2.4,0,4.2-0.5,5.5-1.6c1.3-1.1,1.9-2.6,1.9-4.6c0-4.6-2.3-6.9-6.8-6.9L346.9,79.6
					L346.9,79.6z"/>
				<path class="st0" d="M407.4,73.6l-4.2-0.3c-4,0-6.5,1.2-7.7,3.8v25.8h-12.7V62.1h11.9l0.4,5.2c2.1-4,5.1-6,8.9-6
					c1.4,0,2.5,0.2,3.5,0.5L407.4,73.6L407.4,73.6z"/>
				<path class="st0" d="M433.8,102.8c-0.5-0.8-0.9-2-1.2-3.7c-2.3,2.9-5.6,4.4-9.8,4.4c-3.8,0-7.1-1.2-9.8-3.5
					c-2.7-2.3-4-5.2-4-8.7c0-4.4,1.6-7.8,4.9-10c3.3-2.3,8-3.4,14.2-3.4h3.9v-2.2c0-3.8-1.6-5.6-4.9-5.6c-3,0-4.5,1.5-4.5,4.5H410
					c0-3.9,1.7-7.1,5-9.6c3.4-2.5,7.6-3.7,12.8-3.7s9.3,1.3,12.3,3.8c3,2.5,4.5,6,4.6,10.4v18c0,3.7,0.6,6.6,1.7,8.6v0.6
					L433.8,102.8L433.8,102.8z M425.8,94.6c1.6,0,2.9-0.3,3.9-1c1-0.7,1.8-1.4,2.2-2.3v-6.5h-3.7c-4.4,0-6.6,2-6.6,5.9
					c0,1.2,0.4,2.1,1.2,2.8C423.7,94.2,424.6,94.6,425.8,94.6L425.8,94.6z"/>
				<path class="st0" d="M451.6,51.6c0-1.8,0.6-3.3,2-4.5c1.3-1.2,3-1.7,5.1-1.7s3.8,0.6,5.1,1.7c1.3,1.2,2,2.7,2,4.5
					s-0.6,3.3-2,4.5c-1.3,1.2-3,1.7-5.1,1.7s-3.8-0.6-5.1-1.7C452.3,54.9,451.6,53.4,451.6,51.6z M465.1,102.8h-12.7V62.1h12.7
					V102.8L465.1,102.8z"/>
				<path class="st0" d="M484.5,62.1l0.4,4.8c2.8-3.7,6.7-5.5,11.6-5.5c4.2,0,7.4,1.3,9.5,3.8c2.1,2.5,3.2,6.3,3.2,11.4v26.2h-12.7
					V77.1c0-2.1-0.4-3.6-1.2-4.5c-0.8-1-2.3-1.4-4.5-1.4c-2.5,0-4.3,1-5.5,2.9v28.7h-12.7V62.1H484.5L484.5,62.1z"/>
				<path class="st0" d="M531.3,93.1h18.5v9.8h-34.5v-7.1l18-23.8H516v-9.8h33.3V69L531.3,93.1L531.3,93.1z"/>
			</g>
		</g>
	</g>
</g>
</svg>
