<?xml version="1.0" encoding="utf-8"?>
<!-- Generator: Adobe Illustrator 26.2.1, SVG Export Plug-In . SVG Version: 6.00 Build 0)  -->
<svg version="1.1" id="Layer_1" xmlns="http://www.w3.org/2000/svg" xmlns:xlink="http://www.w3.org/1999/xlink" x="0px" y="0px"
	 width="403.8px" height="62px" viewBox="0 0 403.8 62" style="enable-background:new 0 0 403.8 62;" xml:space="preserve">
<style type="text/css">
	.st0{fill:#754E37;}
	.st1{fill:#EB743B;}
</style>
<g>
	<g id="a">
		<g>
			<g>
				<path class="st0" d="M4.5,59.7V4.9h19.7c7,0,12.4,1.3,16.1,3.9c3.7,2.6,5.5,6.3,5.5,11.2c0,2.8-0.6,5.2-2,7.3
					c-1.3,2-3.2,3.5-5.8,4.4c2.9,0.8,5.1,2.2,6.6,4.2c1.5,2.1,2.3,4.6,2.3,7.5c0,5.4-1.7,9.4-5.1,12.1c-3.4,2.7-8.4,4.1-15.1,4.1
					L4.5,59.7L4.5,59.7z M17.7,27.8h6.9c2.9,0,4.9-0.6,6.2-1.6s1.8-2.6,1.8-4.6c0-2.3-0.7-4-2-5s-3.5-1.5-6.4-1.5h-6.5
					C17.7,15.1,17.7,27.8,17.7,27.8z M17.7,36.4v13.1h8.6c2.4,0,4.2-0.5,5.5-1.6s1.9-2.6,1.9-4.6c0-4.6-2.3-6.9-6.8-6.9H17.7
					L17.7,36.4z"/>
				<path class="st0" d="M51.9,39c0-4.1,0.8-7.7,2.4-10.8s3.9-5.6,6.8-7.3c3-1.7,6.4-2.6,10.4-2.6c6.1,0,10.9,1.9,14.4,5.7
					s5.3,8.9,5.3,15.4v0.4c0,6.3-1.8,11.4-5.3,15.1c-3.5,3.7-8.3,5.6-14.3,5.6s-10.4-1.7-13.9-5.2S52.2,47,52,41.1L51.9,39L51.9,39z
					 M64.6,39.8c0,3.8,0.6,6.5,1.8,8.3c1.2,1.8,2.9,2.6,5.2,2.6c4.5,0,6.8-3.5,6.9-10.4V39c0-7.3-2.3-10.9-7-10.9
					c-4.2,0-6.5,3.2-6.9,9.4V39.8L64.6,39.8z"/>
				<path class="st0" d="M95.2,39c0-4.1,0.8-7.7,2.4-10.8s3.9-5.6,6.8-7.3c3-1.7,6.4-2.6,10.4-2.6c6.1,0,10.9,1.9,14.4,5.7
					c3.5,3.8,5.3,8.9,5.3,15.4v0.4c0,6.3-1.8,11.4-5.3,15.1c-3.5,3.7-8.3,5.6-14.3,5.6s-10.4-1.7-13.9-5.2s-5.4-8.2-5.7-14.1
					L95.2,39L95.2,39z M107.9,39.8c0,3.8,0.6,6.5,1.8,8.3s2.9,2.6,5.2,2.6c4.5,0,6.8-3.5,6.9-10.4V39c0-7.3-2.3-10.9-7-10.9
					c-4.2,0-6.5,3.2-6.9,9.4V39.8L107.9,39.8z"/>
				<path class="st0" d="M156.4,44.5l-3.6,3.6v11.6h-12.7V1.9h12.7v30.7l1.3-1.7l9.5-11.9h15.2l-14.2,16.7l15.2,24h-14.5L156.4,44.5
					L156.4,44.5z"/>
				<path class="st1" d="M182.7,59.7V4.9h19.7c7,0,12.4,1.3,16.1,3.9S224,15.1,224,20c0,2.8-0.6,5.2-2,7.3c-1.3,2-3.2,3.5-5.8,4.4
					c2.9,0.8,5,2.2,6.6,4.2c1.5,2.1,2.3,4.6,2.3,7.5c0,5.4-1.7,9.4-5.1,12.1c-3.4,2.7-8.4,4.1-15.1,4.1L182.7,59.7L182.7,59.7z
					 M195.9,27.8h6.9c2.9,0,4.9-0.6,6.2-1.6s1.8-2.6,1.8-4.6c0-2.3-0.7-4-2-5s-3.5-1.5-6.4-1.5h-6.5V27.8L195.9,27.8z M195.9,36.4
					v13.1h8.6c2.4,0,4.2-0.5,5.5-1.6s1.9-2.6,1.9-4.6c0-4.6-2.3-6.9-6.8-6.9H195.9L195.9,36.4z"/>
				<path class="st1" d="M256.4,30.5l-4.2-0.3c-4,0-6.5,1.2-7.7,3.8v25.8h-12.7V19h11.9l0.4,5.2c2.1-4,5.1-6,8.9-6
					c1.4,0,2.5,0.2,3.5,0.5L256.4,30.5L256.4,30.5z"/>
				<path class="st1" d="M282.8,59.7c-0.5-0.8-0.9-2-1.2-3.7c-2.3,2.9-5.6,4.4-9.8,4.4c-3.8,0-7.1-1.2-9.8-3.5c-2.7-2.3-4-5.2-4-8.7
					c0-4.4,1.6-7.8,4.9-10c3.3-2.3,8-3.4,14.2-3.4h3.9v-2.2c0-3.8-1.6-5.6-4.9-5.6c-3,0-4.5,1.5-4.5,4.5H259c0-3.9,1.7-7.1,5-9.6
					c3.4-2.5,7.6-3.7,12.8-3.7s9.3,1.3,12.3,3.8s4.5,6,4.6,10.4v18c0,3.7,0.6,6.6,1.7,8.6v0.6L282.8,59.7L282.8,59.7z M274.8,51.4
					c1.6,0,2.9-0.3,3.9-1s1.8-1.4,2.2-2.3v-6.5h-3.7c-4.4,0-6.6,2-6.6,5.9c0,1.2,0.4,2.1,1.2,2.8C272.7,51,273.6,51.4,274.8,51.4
					L274.8,51.4z"/>
				<path class="st1" d="M300.6,8.5c0-1.8,0.6-3.3,2-4.5c1.3-1.2,3-1.7,5.1-1.7s3.8,0.6,5.1,1.7c1.3,1.2,2,2.7,2,4.5s-0.6,3.3-2,4.5
					c-1.3,1.2-3,1.7-5.1,1.7s-3.8-0.6-5.1-1.7C301.3,11.8,300.6,10.3,300.6,8.5z M314.1,59.7h-12.7V19h12.7V59.7L314.1,59.7z"/>
				<path class="st1" d="M333.5,19l0.4,4.8c2.8-3.7,6.7-5.5,11.6-5.5c4.2,0,7.4,1.3,9.5,3.8s3.2,6.3,3.2,11.4v26.2h-12.7V34
					c0-2.1-0.4-3.6-1.2-4.5c-0.8-1-2.3-1.4-4.5-1.4c-2.5,0-4.3,1-5.5,2.9v28.7h-12.7V19H333.5L333.5,19z"/>
				<path class="st1" d="M380.3,49.9h18.5v9.8h-34.5v-7.1l18-23.8H365V19h33.3v6.8L380.3,49.9L380.3,49.9z"/>
			</g>
		</g>
	</g>
</g>
</svg>
