<?xml version="1.0" encoding="utf-8"?>
<!-- Generator: Adobe Illustrator 26.2.1, SVG Export Plug-In . SVG Version: 6.00 Build 0)  -->
<svg version="1.1" id="a" xmlns="http://www.w3.org/2000/svg" xmlns:xlink="http://www.w3.org/1999/xlink" x="0px" y="0px"
	 width="201.4px" height="30px" viewBox="0 0 201.4 30" style="enable-background:new 0 0 201.4 30;" xml:space="preserve">
<style type="text/css">
	.st0{fill:#754E37;}
	.st1{fill:#EB743B;}
</style>
<g>
	<polygon class="st0" points="14,1 2,8 2,22 14,29 	"/>
	<polygon class="st1" points="15,1 27,8 27,22 15,29 	"/>
</g>
<g>
	<path class="st0" d="M35.7,26V3.3h8.2c2.9,0,5.2,0.5,6.7,1.6s2.3,2.6,2.3,4.7c0,1.2-0.3,2.2-0.8,3s-1.3,1.4-2.4,1.8
		c1.2,0.3,2.1,0.9,2.7,1.8c0.6,0.9,1,1.9,1,3.1c0,2.2-0.7,3.9-2.1,5S47.7,26,44.9,26L35.7,26L35.7,26z M41.2,12.8h2.9
		c1.2,0,2-0.2,2.6-0.7s0.8-1.1,0.8-1.9c0-1-0.3-1.6-0.8-2.1s-1.4-0.6-2.7-0.6h-2.7L41.2,12.8L41.2,12.8z M41.2,16.3v5.5h3.6
		c1,0,1.8-0.2,2.3-0.7s0.8-1.1,0.8-1.9c0-1.9-0.9-2.9-2.8-2.9H41.2z"/>
	<path class="st0" d="M55.4,17.4c0-1.7,0.3-3.2,1-4.5c0.7-1.3,1.6-2.3,2.8-3s2.7-1.1,4.3-1.1c2.5,0,4.5,0.8,6,2.4
		c1.5,1.6,2.2,3.7,2.2,6.4v0.2c0,2.6-0.7,4.7-2.2,6.3c-1.5,1.5-3.4,2.3-5.9,2.3s-4.3-0.7-5.8-2.2c-1.5-1.4-2.2-3.4-2.4-5.9
		L55.4,17.4L55.4,17.4z M60.7,17.7c0,1.6,0.2,2.7,0.7,3.4s1.2,1.1,2.2,1.1c1.9,0,2.8-1.4,2.9-4.3v-0.5c0-3-1-4.5-2.9-4.5
		c-1.8,0-2.7,1.3-2.9,3.9L60.7,17.7L60.7,17.7z"/>
	<path class="st0" d="M73.4,17.4c0-1.7,0.3-3.2,1-4.5c0.7-1.3,1.6-2.3,2.8-3s2.7-1.1,4.3-1.1c2.5,0,4.5,0.8,6,2.4
		c1.5,1.6,2.2,3.7,2.2,6.4v0.2c0,2.6-0.7,4.7-2.2,6.3c-1.5,1.5-3.4,2.3-5.9,2.3s-4.3-0.7-5.8-2.2s-2.2-3.4-2.4-5.9L73.4,17.4
		L73.4,17.4z M78.6,17.7c0,1.6,0.2,2.7,0.7,3.4s1.2,1.1,2.2,1.1c1.9,0,2.8-1.4,2.9-4.3v-0.5c0-3-1-4.5-2.9-4.5
		c-1.8,0-2.7,1.3-2.9,3.9L78.6,17.7L78.6,17.7z"/>
	<path class="st0" d="M98.8,19.7l-1.5,1.5V26H92V2h5.3v12.7l0.5-0.7l4-4.9h6.3l-5.9,6.9l6.3,9.9h-6L98.8,19.7L98.8,19.7z"/>
	<path class="st1" d="M109.7,26V3.3h8.2c2.9,0,5.2,0.5,6.7,1.6s2.3,2.6,2.3,4.7c0,1.2-0.3,2.2-0.8,3s-1.3,1.4-2.4,1.8
		c1.2,0.3,2.1,0.9,2.7,1.8c0.6,0.9,0.9,1.9,0.9,3.1c0,2.2-0.7,3.9-2.1,5s-3.5,1.7-6.3,1.7L109.7,26L109.7,26z M115.2,12.8h2.9
		c1.2,0,2.1-0.2,2.6-0.7s0.8-1.1,0.8-1.9c0-1-0.3-1.6-0.8-2.1s-1.4-0.6-2.7-0.6h-2.7V12.8L115.2,12.8z M115.2,16.3v5.5h3.6
		c1,0,1.8-0.2,2.3-0.7s0.8-1.1,0.8-1.9c0-1.9-0.9-2.9-2.8-2.9H115.2z"/>
	<path class="st1" d="M140.3,13.9l-1.7-0.1c-1.6,0-2.7,0.5-3.2,1.6V26h-5.3V9.1h4.9l0.2,2.2c0.9-1.6,2.1-2.5,3.7-2.5
		c0.6,0,1.1,0.1,1.5,0.2L140.3,13.9L140.3,13.9z"/>
	<path class="st1" d="M151.2,26c-0.2-0.3-0.4-0.9-0.5-1.5c-1,1.2-2.3,1.8-4.1,1.8c-1.6,0-2.9-0.5-4.1-1.4c-1.1-1-1.7-2.2-1.7-3.6
		c0-1.8,0.7-3.2,2-4.1c1.4-0.9,3.3-1.4,5.9-1.4h1.6v-0.9c0-1.6-0.7-2.3-2-2.3c-1.2,0-1.9,0.6-1.9,1.9h-5.3c0-1.6,0.7-3,2.1-4
		c1.4-1,3.2-1.5,5.3-1.5s3.9,0.5,5.1,1.6c1.2,1.1,1.9,2.5,1.9,4.3v7.5c0,1.5,0.3,2.7,0.7,3.6V26L151.2,26L151.2,26z M148,22.6
		c0.7,0,1.2-0.1,1.6-0.4c0.4-0.3,0.7-0.6,0.9-1v-2.7H149c-1.8,0-2.8,0.8-2.8,2.5c0,0.5,0.2,0.9,0.5,1.2
		C147,22.4,147.4,22.6,148,22.6L148,22.6z"/>
	<path class="st1" d="M158.6,4.7c0-0.8,0.3-1.4,0.8-1.8s1.2-0.7,2.1-0.7s1.6,0.2,2.1,0.7s0.8,1.1,0.8,1.8s-0.3,1.4-0.8,1.8
		s-1.2,0.7-2.1,0.7s-1.6-0.2-2.1-0.7S158.6,5.5,158.6,4.7z M164.2,26H159V9.1h5.3V26z"/>
	<path class="st1" d="M172.3,9.1l0.2,2c1.2-1.5,2.8-2.3,4.8-2.3c1.8,0,3.1,0.5,3.9,1.6s1.3,2.6,1.4,4.8V26h-5.3V15.3
		c0-0.9-0.2-1.5-0.5-1.9c-0.3-0.4-1-0.6-1.9-0.6c-1,0-1.8,0.4-2.3,1.2V26h-5.3V9.1H172.3L172.3,9.1z"/>
	<path class="st1" d="M191.7,21.9h7.7V26h-14.3v-2.9l7.5-9.9h-7.2V9.1h13.8V12L191.7,21.9L191.7,21.9z"/>
</g>
</svg>
