<?xml version="1.0" encoding="UTF-8"?><svg id="a" xmlns="http://www.w3.org/2000/svg" viewBox="0 0 70 30"><defs><style>.b{fill:#754e37;}.c{fill:#eb743b;}</style></defs><g><polygon class="b" points="14 1 2 8 2 22 14 29 14 1"/><polygon class="c" points="15 1 27 8 27 22 15 29 15 1"/></g><g><path class="b" d="M30.97,25V5.24h7.94c2.82,0,4.96,.47,6.44,1.4,1.48,.93,2.21,2.29,2.21,4.07,0,2.18-.98,3.63-2.93,4.35,1.05,.26,1.88,.77,2.47,1.54s.89,1.67,.89,2.73c0,1.91-.65,3.33-1.96,4.26-1.31,.92-3.34,1.4-6.1,1.42h-8.96Zm5.73-11.59h2.71c.87-.01,1.49-.17,1.86-.47s.55-.75,.55-1.35c0-.71-.19-1.22-.57-1.51-.38-.29-.98-.44-1.79-.44h-2.76v3.77Zm0,3.58v3.6h3.02c.78,0,1.4-.16,1.85-.47s.68-.74,.68-1.27c0-1.19-.7-1.81-2.09-1.86h-3.46Z"/><path class="c" d="M50.42,25V5.24h7.94c2.82,0,4.96,.47,6.44,1.4,1.48,.93,2.21,2.29,2.21,4.07,0,2.18-.98,3.63-2.93,4.35,1.05,.26,1.88,.77,2.47,1.54s.89,1.67,.89,2.73c0,1.91-.65,3.33-1.96,4.26-1.31,.92-3.34,1.4-6.1,1.42h-8.96Zm5.73-11.59h2.71c.87-.01,1.49-.17,1.86-.47s.55-.75,.55-1.35c0-.71-.19-1.22-.57-1.51-.38-.29-.98-.44-1.79-.44h-2.76v3.77Zm0,3.58v3.6h3.02c.78,0,1.4-.16,1.85-.47s.68-.74,.68-1.27c0-1.19-.7-1.81-2.09-1.86h-3.46Z"/></g></svg>