<?xml version="1.0" encoding="utf-8"?>
<!-- Generator: Adobe Illustrator 26.2.1, SVG Export Plug-In . SVG Version: 6.00 Build 0)  -->
<svg version="1.1" id="Layer_1" xmlns="http://www.w3.org/2000/svg" xmlns:xlink="http://www.w3.org/1999/xlink" x="0px" y="0px"
	 width="374.9px" height="150px" viewBox="0 0 374.9 150" style="enable-background:new 0 0 374.9 150;" xml:space="preserve">
<style type="text/css">
	.st0{fill:#754E37;}
	.st1{fill:#EB743B;}
	.st2{fill:#573A29;}
	.st3{fill:#FFFEDB;}
	.st4{fill:#CFA691;}
	.st5{opacity:7.000000e-02;}
	.st6{fill:#D3562C;}
</style>
<g>
	<g id="a">
		<g>
			<g>
				<path class="st0" d="M156.1,69.8V15.1h19.7c7,0,12.4,1.3,16.1,3.9s5.5,6.3,5.5,11.2c0,2.8-0.6,5.2-2,7.3c-1.3,2-3.2,3.5-5.8,4.4
					c2.9,0.8,5.1,2.2,6.6,4.2c1.5,2.1,2.3,4.6,2.3,7.5c0,5.4-1.7,9.4-5.1,12.1c-3.4,2.7-8.4,4.1-15.1,4.1L156.1,69.8L156.1,69.8z
					 M169.3,37.9h6.9c2.9,0,4.9-0.5,6.2-1.6c1.2-1,1.8-2.5,1.8-4.6c0-2.3-0.7-4-2-5s-3.5-1.5-6.4-1.5h-6.5V37.9z M169.3,46.6v13.1
					h8.6c2.4,0,4.2-0.5,5.5-1.6c1.3-1.1,1.9-2.6,1.9-4.6c0-4.6-2.3-6.9-6.8-6.9L169.3,46.6L169.3,46.6z"/>
				<path class="st0" d="M203.6,49.1c0-4.1,0.8-7.7,2.4-10.9c1.6-3.2,3.9-5.6,6.8-7.3c3-1.7,6.4-2.6,10.4-2.6
					c6.1,0,10.9,1.9,14.4,5.7s5.3,8.9,5.3,15.4v0.5c0,6.3-1.8,11.4-5.3,15.1c-3.5,3.7-8.3,5.6-14.3,5.6s-10.4-1.7-13.9-5.2
					s-5.4-8.2-5.7-14.1L203.6,49.1L203.6,49.1z M216.3,49.9c0,3.8,0.6,6.5,1.8,8.3c1.2,1.8,2.9,2.6,5.2,2.6c4.5,0,6.8-3.5,6.9-10.4
					v-1.3c0-7.3-2.3-10.9-7-10.9c-4.2,0-6.5,3.2-6.9,9.4L216.3,49.9L216.3,49.9z"/>
				<path class="st0" d="M246.9,49.1c0-4.1,0.8-7.7,2.4-10.9c1.6-3.2,3.9-5.6,6.8-7.3c3-1.7,6.4-2.6,10.4-2.6
					c6.1,0,10.9,1.9,14.4,5.7c3.5,3.8,5.3,8.9,5.3,15.4v0.5c0,6.3-1.8,11.4-5.3,15.1c-3.5,3.7-8.3,5.6-14.3,5.6s-10.4-1.7-13.9-5.2
					s-5.4-8.2-5.7-14.1L246.9,49.1L246.9,49.1z M259.5,49.9c0,3.8,0.6,6.5,1.8,8.3s2.9,2.6,5.2,2.6c4.5,0,6.8-3.5,6.9-10.4v-1.3
					c0-7.3-2.3-10.9-7-10.9c-4.2,0-6.5,3.2-6.9,9.4L259.5,49.9L259.5,49.9z"/>
				<path class="st0" d="M308,54.7l-3.6,3.6v11.6h-12.7V12.1h12.7v30.7l1.3-1.7l9.5-11.9h15.2l-14.2,16.7l15.2,23.9h-14.5L308,54.7
					L308,54.7z"/>
				<path class="st1" d="M156.1,138.8V84.1h19.7c7,0,12.4,1.3,16.1,3.9s5.5,6.3,5.5,11.2c0,2.8-0.6,5.2-2,7.3
					c-1.3,2-3.2,3.5-5.8,4.4c2.9,0.8,5.1,2.2,6.6,4.2c1.5,2.1,2.3,4.6,2.3,7.5c0,5.4-1.7,9.4-5.1,12.1c-3.4,2.7-8.4,4.1-15.1,4.1
					L156.1,138.8L156.1,138.8z M169.3,106.9h6.9c2.9,0,4.9-0.6,6.2-1.6s1.8-2.6,1.8-4.6c0-2.3-0.7-4-2-5s-3.5-1.5-6.4-1.5h-6.5
					V106.9z M169.3,115.6v13.1h8.6c2.4,0,4.2-0.5,5.5-1.6c1.3-1.1,1.9-2.6,1.9-4.6c0-4.6-2.3-6.9-6.8-6.9L169.3,115.6L169.3,115.6z"
					/>
				<path class="st1" d="M229.8,109.6l-4.2-0.3c-4,0-6.5,1.2-7.7,3.8v25.8h-12.7V98.2h11.9l0.4,5.2c2.1-4,5.1-6,8.9-6
					c1.4,0,2.5,0.2,3.5,0.4L229.8,109.6L229.8,109.6z"/>
				<path class="st1" d="M256.2,138.8c-0.4-0.8-0.9-2-1.2-3.6c-2.3,2.9-5.6,4.4-9.8,4.4c-3.8,0-7.1-1.2-9.8-3.5
					c-2.7-2.3-4-5.2-4-8.7c0-4.4,1.6-7.8,4.9-10c3.3-2.3,8-3.4,14.2-3.4h3.9v-2.2c0-3.8-1.6-5.6-4.9-5.6c-3,0-4.5,1.5-4.5,4.5h-12.7
					c0-3.9,1.7-7.1,5-9.6c3.4-2.4,7.6-3.7,12.8-3.7s9.3,1.3,12.3,3.8c3,2.5,4.5,6,4.6,10.4v18c0,3.7,0.6,6.6,1.7,8.6v0.6H256.2
					L256.2,138.8z M248.2,130.6c1.6,0,2.9-0.3,3.9-1c1-0.7,1.8-1.4,2.2-2.3v-6.5h-3.7c-4.4,0-6.6,2-6.6,5.9c0,1.2,0.4,2.1,1.2,2.8
					C246.1,130.2,247.1,130.6,248.2,130.6L248.2,130.6z"/>
				<path class="st1" d="M274,87.6c0-1.8,0.6-3.3,2-4.5c1.3-1.2,3-1.7,5.1-1.7s3.8,0.6,5.1,1.7c1.3,1.2,2,2.7,2,4.5s-0.6,3.3-2,4.5
					c-1.3,1.2-3,1.7-5.1,1.7s-3.8-0.6-5.1-1.7C274.7,90.9,274,89.4,274,87.6z M287.5,138.8h-12.7V98.2h12.7V138.8z"/>
				<path class="st1" d="M306.9,98.2l0.4,4.8c2.8-3.7,6.7-5.5,11.6-5.5c4.2,0,7.4,1.3,9.5,3.8c2.1,2.5,3.2,6.3,3.2,11.4v26.2H319
					v-25.7c0-2.1-0.4-3.6-1.2-4.5c-0.8-1-2.3-1.4-4.5-1.4c-2.5,0-4.3,1-5.5,2.9v28.7H295V98.1L306.9,98.2L306.9,98.2z"/>
				<path class="st1" d="M353.7,129.1h18.5v9.8h-34.5v-7.1l18-23.8h-17.3v-9.8h33.4v6.8L353.7,129.1L353.7,129.1z"/>
			</g>
			<g>
				<polygon class="st1" points="70,2.8 70,146.8 131,111.8 131,37.8 				"/>
				<polygon class="st0" points="65,2.8 4,37.8 4,111.8 65,146.8 				"/>
				<g>
					<g>
						<path class="st2" d="M65,125.1h-7c-0.9,0-1.6-0.7-1.6-1.6c0-2.3,0-4.9-8.3-6c-8.7-1.2-31.5-4.9-31.7-5
							c-0.8-0.1-1.3-0.8-1.3-1.6V49.1c0-0.5,0.2-0.9,0.5-1.2s0.8-0.5,1.2-0.4l7.2,0.8c0.9,0.1,1.5,0.9,1.4,1.8s-0.9,1.5-1.8,1.4
							l-5.4-0.6v58.7c5,0.8,22.8,3.7,30.3,4.7c8.5,1.1,10.6,4.2,11,7.6H65L65,125.1L65,125.1z"/>
						<path class="st2" d="M61.4,57.4C61.4,48,44,35,23.8,39.6v61.8c20.7-0.9,37.6,6.7,37.6,16.2V57.4z"/>
						<path class="st2" d="M35.2,55.1c-0.8,0-1.5,0.7-1.6,1.5c0,0.9,0.4,1.6,1.5,1.6c14.5,0,26.2,12.4,26.2,16.2v-4.2
							C61.4,66.2,50.5,55.1,35.2,55.1L35.2,55.1L35.2,55.1z"/>
						<path class="st2" d="M35.2,66c-0.8,0-1.5,0.7-1.6,1.5c0,0.9,0.4,1.6,1.5,1.6c14.5,0,26.2,12.4,26.2,16.2v-4.2
							C61.4,77.1,50.5,66,35.2,66L35.2,66L35.2,66z"/>
						<path class="st2" d="M35.2,76.9c-0.8,0-1.5,0.7-1.6,1.5c0,0.9,0.4,1.6,1.5,1.6c14.5,0,26.2,12.4,26.2,16.2v-4.2
							C61.4,88,50.5,76.9,35.2,76.9L35.2,76.9L35.2,76.9z"/>
					</g>
					<g>
						<path class="st3" d="M65,122.1h-7c-0.9,0-1.6-0.7-1.6-1.6c0-2.3,0-4.9-8.3-6c-8.7-1.2-31.5-4.9-31.7-5
							c-0.8-0.1-1.3-0.8-1.3-1.6V46.1c0-0.5,0.2-0.9,0.5-1.2s0.8-0.5,1.2-0.4l7.2,0.8c0.9,0.1,1.5,0.9,1.4,1.8s-0.9,1.5-1.8,1.4
							l-5.4-0.6v58.7c5,0.8,22.8,3.7,30.3,4.7c8.5,1.1,10.6,4.2,11,7.6H65L65,122.1L65,122.1z"/>
						<path class="st4" d="M61.4,54.4C61.4,45,44,32,23.8,36.6v61.8c20.7-0.9,37.6,6.7,37.6,16.2V54.4z"/>
						<g>
							<path class="st3" d="M35.2,52.1c-0.8,0-1.5,0.7-1.6,1.5c0,0.9,0.4,1.6,1.5,1.6c14.5,0,26.2,12.4,26.2,16.2v-4.2
								C61.4,63.2,50.5,52.1,35.2,52.1L35.2,52.1L35.2,52.1z"/>
							<path class="st3" d="M35.2,63c-0.8,0-1.5,0.7-1.6,1.5c0,0.9,0.4,1.6,1.5,1.6c14.5,0,26.2,12.4,26.2,16.2v-4.2
								C61.4,74.1,50.5,63,35.2,63L35.2,63L35.2,63z"/>
							<path class="st3" d="M35.2,73.9c-0.8,0-1.5,0.7-1.6,1.5c0,0.9,0.4,1.6,1.5,1.6c14.5,0,26.2,12.4,26.2,16.2v-4.2
								C61.4,85,50.5,73.9,35.2,73.9L35.2,73.9L35.2,73.9z"/>
						</g>
					</g>
				</g>
				<g>
					<g class="st5">
						<path d="M87.3,94.6c0.4-0.6,1.1-1,1.8-1c0.4,0,0.8,0.1,1.1,0.3c1,0.6,1.3,1.9,0.7,2.9c-0.4,0.7-1.1,1-1.8,1
							c-0.4,0-0.8-0.1-1.1-0.3c-0.5-0.3-0.8-0.8-1-1.3C87,95.6,87.1,95.1,87.3,94.6L87.3,94.6z M99.9,116.9c-0.5,0.4-1,0.5-1.4,0.5
							c-0.6,0-1.2-0.3-1.6-0.7c-0.8-0.9-0.7-2.2,0.2-3c0.5-0.4,1-0.5,1.4-0.5c0.6,0,1.2,0.3,1.6,0.7c0.4,0.4,0.6,1,0.5,1.5
							S100.4,116.6,99.9,116.9L99.9,116.9z"/>
						<path d="M79,48.4c0.1,0,0.1,0,0.2,0C79.2,48.5,79.1,48.5,79,48.4z"/>
						<path d="M90.4,58.1c0.2-0.3,0.4-0.5,0.7-0.7c0.3-0.2,0.7-0.3,1.1-0.3s0.8,0.1,1.1,0.3c1,0.6,1.3,1.9,0.7,2.9
							c-0.4,0.6-1.1,1-1.8,1c-0.4,0-0.8-0.1-1.1-0.3C90.1,60.4,89.8,59.1,90.4,58.1L90.4,58.1z M96.8,37.9c-0.6,1-1.9,1.3-2.9,0.7
							l-0.1-0.1c-0.9-0.7-1.2-1.9-0.6-2.8c0.4-0.6,1.1-1,1.8-1c0.4,0,0.8,0.1,1.1,0.3c0.5,0.3,0.8,0.8,0.9,1.3
							C97.2,36.9,97.1,37.4,96.8,37.9L96.8,37.9z"/>
						<path d="M113.6,49.5c0.4-0.6,1.1-1,1.8-1c0.4,0,0.8,0.1,1.1,0.3c0.5,0.3,0.8,0.8,0.9,1.3c0.1,0.5,0,1.1-0.3,1.6
							c-0.6,1-1.9,1.3-2.9,0.7l-0.1-0.1C113.2,51.7,113,50.5,113.6,49.5z M113.6,73c0.4-0.6,1.1-1,1.8-1c0.4,0,0.8,0.1,1.1,0.3
							c0.5,0.3,0.8,0.8,0.9,1.3c0.1,0.6,0,1.1-0.3,1.6c-0.6,0.9-1.9,1.3-2.9,0.7l-0.1-0.1C113.2,75.2,113,73.9,113.6,73z
							 M113.6,99.3c0.4-0.6,1.1-1,1.8-1c0.4,0,0.8,0.1,1.1,0.3c0.5,0.3,0.8,0.8,0.9,1.3c0.1,0.6,0,1.1-0.3,1.6
							c-0.6,0.9-1.9,1.3-2.9,0.7l-0.1-0.1C113.2,101.5,113,100.2,113.6,99.3z"/>
						<path d="M103.2,108.9c-1.2-1.4-2.9-2.1-4.7-2.1c-1.5,0-2.9,0.5-4,1.5c-1.6,1.4-2.3,3.4-2.1,5.4c-1.9,0.7-4.3,1.4-5.3,1.3
							c-0.8,0-1.3-0.3-2.2-1c-1.2-0.8-2.4-1.5-4.2-1.8c2.9-2.8,6-6.8,8.6-12.8c2.1-0.1,4-1.2,5-3c1.7-2.9,0.8-6.7-2.1-8.4
							c-0.9-0.6-2-0.9-3.1-0.9c-2.2,0-4.2,1.1-5.3,3c-0.8,1.4-1.1,3.1-0.7,4.6c0.3,1.4,1.2,2.6,2.3,3.4c-4.1,9.2-9.2,13.1-12.6,14.7
							c-0.1,0-0.2,0.1-0.4,0.2c-1.2,0.5-2.1,0.7-2.6,0.8v4c0.3,0,1.9-0.1,4.2-1.2c5.3-1.4,6.8-0.3,8.4,0.7c1,0.7,2.3,1.6,4.3,1.7
							c0.1,0,0.2,0,0.3,0c2.1,0,5.2-1,7-1.7c1.1,1.1,2.7,1.8,4.3,1.8l0,0c1.5,0,2.9-0.5,4-1.5c1.2-1.1,2-2.6,2.1-4.2
							C104.8,111.8,104.3,110.2,103.2,108.9L103.2,108.9z M87.3,92.2c0.4-0.6,1.1-1,1.8-1c0.4,0,0.8,0.1,1.1,0.3
							c1,0.6,1.3,1.9,0.7,2.9c-0.4,0.7-1.1,1-1.8,1c-0.4,0-0.8-0.1-1.1-0.3c-0.5-0.3-0.8-0.8-1-1.3C87,93.2,87.1,92.7,87.3,92.2
							L87.3,92.2z M99.9,114.5c-0.5,0.4-1,0.5-1.4,0.5c-0.6,0-1.2-0.3-1.6-0.7c-0.8-0.9-0.7-2.2,0.2-3c0.5-0.4,1-0.5,1.4-0.5
							c0.6,0,1.2,0.3,1.6,0.7c0.4,0.4,0.6,1,0.5,1.5S100.4,114.2,99.9,114.5L99.9,114.5z"/>
						<path d="M79,46c0.1,0,0.1,0,0.2,0C79.2,46.1,79.1,46.1,79,46z"/>
						<path d="M101,33c-0.4-1.6-1.3-3-2.7-3.8c-1-0.6-2.1-0.9-3.3-0.9c-2.1,0-4.1,1.1-5.2,2.9c-1.3,2.1-1.2,4.8,0.1,6.8
							c-3.7,4.1-8.7,4.3-9.9,4.3c-3.7-1.6-7.2-2.2-10-2.3v4c2.4,0.1,5.6,0.7,8.8,2.1h0c3.4,1.6,6.3,3.9,8.6,7
							c-0.1,0.2-0.3,0.3-0.4,0.5c-1.8,2.8-0.9,6.6,1.9,8.4c1,0.6,2.1,1,3.3,1c2.1,0,4.1-1.1,5.2-2.8c1.8-2.8,0.9-6.6-1.9-8.5
							c-1.4-0.9-3.1-1.1-4.7-0.8c-1.5-2.2-3.3-4-5.3-5.6c2.5-0.8,5.4-2.3,7.8-5.1c0.6,0.2,1.2,0.3,1.8,0.3c2.1,0,4.1-1.1,5.2-2.8
							C101.1,36.3,101.3,34.7,101,33L101,33z M90.4,55.7c0.2-0.3,0.4-0.5,0.7-0.7c0.3-0.2,0.7-0.3,1.1-0.3s0.8,0.1,1.1,0.3
							c1,0.6,1.3,1.9,0.7,2.9c-0.4,0.6-1.1,1-1.8,1c-0.4,0-0.8-0.1-1.1-0.3C90.1,58,89.8,56.7,90.4,55.7L90.4,55.7z M96.8,35.5
							c-0.6,1-1.9,1.3-2.9,0.7l-0.1-0.1c-0.9-0.7-1.2-1.9-0.6-2.8c0.4-0.6,1.1-1,1.8-1c0.4,0,0.8,0.1,1.1,0.3
							c0.5,0.3,0.8,0.8,0.9,1.3C97.2,34.5,97.1,35,96.8,35.5L96.8,35.5z"/>
						<path d="M109.7,74c0.4,1,1.1,2,2.1,2.7c0.1,0.1,0.2,0.1,0.3,0.2c1,0.6,2.1,0.9,3.3,0.9c2.1,0,4.1-1.1,5.2-2.8
							c0.9-1.4,1.2-3,0.8-4.6c-0.4-1.6-1.3-3-2.7-3.8c-1-0.6-2.1-0.9-3.3-0.9c-0.1,0-0.2,0-0.4,0c-0.7-3.2-0.9-7.8,0-11.3
							c0.1,0,0.2,0,0.3,0c2.1,0,4.1-1.1,5.2-2.8c0.9-1.4,1.2-3,0.8-4.6c-0.4-1.6-1.3-3-2.7-3.8c-1-0.6-2.1-0.9-3.3-0.9
							c-2.1,0-4.1,1.1-5.2,2.8c-1.6,2.5-1.1,5.8,1,7.8c0,0,0.1,0,0.1,0.1c-1.3,4.5-1.2,10.3,0,14.4c-0.1,0.1-0.3,0.2-0.4,0.4
							c-0.2,0.2-0.4,0.5-0.6,0.8c-0.3,0.5-0.6,1-0.7,1.6c-3.4,0.5-5.2,1.7-6.8,2.7c-2,1.3-4,2.6-9.6,2.7c-2-0.2-3.6-0.2-5.3-0.1
							c-1.4,0.1-2.9,0.1-4.8,0c-1.3-0.1-2.1-0.9-3.5-2.4c-1.8-2.1-4.2-4.7-9.4-5v4c3.3,0.3,4.8,1.9,6.4,3.7c1.5,1.7,3.2,3.6,6.3,3.8
							c2.1,0.1,3.8,0.1,5.2,0c2.5-0.1,4.4-0.2,7.9,0.7c2.6,0.6,12.1,9.7,14.8,14.3c-0.1,0.1-0.2,0.3-0.3,0.4c-1.7,2.8-1,6.4,1.6,8.2
							c0.1,0.1,0.2,0.1,0.3,0.2c1,0.6,2.1,0.9,3.3,0.9c2.1,0,4.1-1.1,5.2-2.8c0.9-1.4,1.2-3,0.8-4.6c-0.4-1.6-1.3-3-2.7-3.8
							c-1-0.6-2.1-0.9-3.3-0.9c-0.5,0-1.1,0.1-1.5,0.2c-2.6-4.2-8.7-10.5-13.2-13.8c1.8-0.6,3.1-1.4,4.2-2.2
							C106.2,75.2,107.4,74.4,109.7,74L109.7,74z M113.5,47.1c0.4-0.6,1.1-1,1.8-1c0.4,0,0.8,0.1,1.1,0.3c0.5,0.3,0.8,0.8,0.9,1.3
							c0.1,0.5,0,1.1-0.3,1.6c-0.6,1-1.9,1.3-2.9,0.7l-0.1-0.1C113.2,49.3,112.9,48.1,113.5,47.1z M113.5,70.6c0.4-0.6,1.1-1,1.8-1
							c0.4,0,0.8,0.1,1.1,0.3c0.5,0.3,0.8,0.8,0.9,1.3c0.1,0.6,0,1.1-0.3,1.6c-0.6,0.9-1.9,1.3-2.9,0.7l-0.1-0.1
							C113.2,72.8,112.9,71.5,113.5,70.6z M113.5,96.9c0.4-0.6,1.1-1,1.8-1c0.4,0,0.8,0.1,1.1,0.3c0.5,0.3,0.8,0.8,0.9,1.3
							c0.1,0.6,0,1.1-0.3,1.6c-0.6,0.9-1.9,1.3-2.9,0.7l-0.1-0.1C113.2,99.1,112.9,97.8,113.5,96.9z"/>
					</g>
					<g>
						<g>
							<path class="st6" d="M103.2,111.9c-1.2-1.4-2.9-2.1-4.7-2.1c-1.5,0-2.9,0.5-4,1.5c-1.6,1.4-2.3,3.4-2.1,5.4
								c-1.9,0.7-4.3,1.4-5.3,1.3c-0.8,0-1.3-0.3-2.2-1c-1.2-0.8-2.4-1.5-4.2-1.8c2.9-2.8,6-6.8,8.6-12.8c2.1-0.1,4-1.2,5-3
								c1.7-2.9,0.8-6.7-2.1-8.4c-0.9-0.6-2-0.9-3.1-0.9c-2.2,0-4.2,1.1-5.3,3c-0.8,1.4-1.1,3.1-0.7,4.6c0.3,1.4,1.2,2.6,2.3,3.4
								c-4.1,9.2-9.2,13.1-12.6,14.7c-0.1,0-0.2,0.1-0.4,0.2c-1.2,0.5-2.1,0.7-2.6,0.8v4c0.3,0,1.9-0.1,4.2-1.2
								c5.3-1.4,6.8-0.3,8.4,0.7c1,0.7,2.3,1.6,4.3,1.7c0.1,0,0.2,0,0.3,0c2.1,0,5.2-1,7-1.7c1.1,1.1,2.7,1.8,4.3,1.8l0,0
								c1.5,0,2.9-0.5,4-1.5c1.2-1.1,2-2.6,2.1-4.2C104.8,114.8,104.3,113.2,103.2,111.9L103.2,111.9z M87.3,95.2
								c0.4-0.6,1.1-1,1.8-1c0.4,0,0.8,0.1,1.1,0.3c1,0.6,1.3,1.9,0.7,2.9c-0.4,0.7-1.1,1-1.8,1c-0.4,0-0.8-0.1-1.1-0.3
								c-0.5-0.3-0.8-0.8-1-1.3C87,96.2,87.1,95.7,87.3,95.2L87.3,95.2z M99.9,117.5c-0.5,0.4-1,0.5-1.4,0.5c-0.6,0-1.2-0.3-1.6-0.7
								c-0.8-0.9-0.7-2.2,0.2-3c0.5-0.4,1-0.5,1.4-0.5c0.6,0,1.2,0.3,1.6,0.7c0.4,0.4,0.6,1,0.5,1.5S100.4,117.2,99.9,117.5
								L99.9,117.5z"/>
							<path d="M79,48.4c0.1,0,0.1,0,0.2,0C79.2,48.5,79.1,48.5,79,48.4z"/>
							<path class="st6" d="M101,36c-0.4-1.6-1.3-3-2.7-3.8c-1-0.6-2.1-0.9-3.3-0.9c-2.1,0-4.1,1.1-5.2,2.9
								c-1.3,2.1-1.2,4.8,0.1,6.8c-3.7,4.1-8.7,4.3-9.9,4.3c-3.7-1.6-7.2-2.2-10-2.3v4c2.4,0.1,5.6,0.7,8.8,2.1h0
								c3.4,1.6,6.3,3.9,8.6,7c-0.1,0.2-0.3,0.3-0.4,0.5c-1.8,2.8-0.9,6.6,1.9,8.4c1,0.6,2.1,0.9,3.3,0.9c2.1,0,4.1-1.1,5.2-2.8
								c1.8-2.8,0.9-6.6-1.9-8.5c-1.4-0.9-3.1-1.1-4.7-0.8c-1.5-2.2-3.3-4-5.3-5.6c2.5-0.8,5.4-2.3,7.8-5.1c0.6,0.2,1.2,0.3,1.8,0.3
								c2.1,0,4.1-1.1,5.2-2.8C101.1,39.3,101.3,37.7,101,36L101,36z M90.4,58.7c0.2-0.3,0.4-0.5,0.7-0.7c0.3-0.2,0.7-0.3,1.1-0.3
								s0.8,0.1,1.1,0.3c1,0.6,1.3,1.9,0.7,2.9c-0.4,0.6-1.1,1-1.8,1c-0.4,0-0.8-0.1-1.1-0.3C90.1,61,89.8,59.7,90.4,58.7L90.4,58.7
								z M96.8,38.5c-0.6,1-1.9,1.3-2.9,0.7l-0.1-0.1c-0.9-0.7-1.2-1.9-0.6-2.8c0.4-0.6,1.1-1,1.8-1c0.4,0,0.8,0.1,1.1,0.3
								c0.5,0.3,0.8,0.8,0.9,1.3C97.2,37.5,97.1,38,96.8,38.5L96.8,38.5z"/>
							<path class="st6" d="M109.7,77c0.4,1,1.1,2,2.1,2.7c0.1,0.1,0.2,0.1,0.3,0.2c1,0.6,2.1,0.9,3.3,0.9c2.1,0,4.1-1.1,5.2-2.8
								c0.9-1.4,1.2-3,0.8-4.6c-0.4-1.6-1.3-3-2.7-3.8c-1-0.6-2.1-0.9-3.3-0.9c-0.1,0-0.2,0-0.4,0c-0.7-3.2-0.9-7.8,0-11.3
								c0.1,0,0.2,0,0.3,0c2.1,0,4.1-1.1,5.2-2.8c0.9-1.4,1.2-3,0.8-4.6c-0.4-1.6-1.3-3-2.7-3.8c-1-0.6-2.1-0.9-3.3-0.9
								c-2.1,0-4.1,1.1-5.2,2.8c-1.6,2.5-1.1,5.8,1,7.8c0,0,0.1,0,0.1,0.1c-1.3,4.5-1.2,10.3,0,14.4c-0.1,0.1-0.3,0.2-0.4,0.4
								c-0.2,0.2-0.4,0.5-0.6,0.8c-0.3,0.5-0.6,1-0.7,1.6c-3.4,0.5-5.2,1.7-6.8,2.7c-2,1.3-4,2.6-9.6,2.7c-2-0.2-3.6-0.2-5.3-0.1
								c-1.4,0.1-2.9,0.1-4.8,0c-1.3-0.1-2.1-0.9-3.5-2.4c-1.8-2.1-4.2-4.7-9.4-5v4c3.3,0.3,4.8,1.9,6.4,3.7
								c1.5,1.7,3.2,3.6,6.3,3.8c2.1,0.1,3.8,0.1,5.2,0c2.5-0.1,4.4-0.2,7.9,0.7c2.6,0.6,12.1,9.7,14.8,14.3
								c-0.1,0.1-0.2,0.3-0.3,0.4c-1.7,2.8-1,6.4,1.6,8.2c0.1,0.1,0.2,0.1,0.3,0.2c1,0.6,2.1,0.9,3.3,0.9c2.1,0,4.1-1.1,5.2-2.8
								c0.9-1.4,1.2-3,0.8-4.6c-0.4-1.6-1.3-3-2.7-3.8c-1-0.6-2.1-0.9-3.3-0.9c-0.5,0-1.1,0.1-1.5,0.2c-2.6-4.2-8.7-10.5-13.2-13.8
								c1.8-0.6,3.1-1.4,4.2-2.2C106.2,78.2,107.4,77.4,109.7,77L109.7,77z M113.5,50.1c0.4-0.6,1.1-1,1.8-1c0.4,0,0.8,0.1,1.1,0.3
								c0.5,0.3,0.8,0.8,0.9,1.3c0.1,0.5,0,1.1-0.3,1.6c-0.6,1-1.9,1.3-2.9,0.7l-0.1-0.1C113.2,52.3,112.9,51.1,113.5,50.1z
								 M113.5,73.6c0.4-0.6,1.1-1,1.8-1c0.4,0,0.8,0.1,1.1,0.3c0.5,0.3,0.8,0.8,0.9,1.3c0.1,0.6,0,1.1-0.3,1.6
								c-0.6,0.9-1.9,1.3-2.9,0.7l-0.1-0.1C113.2,75.8,112.9,74.5,113.5,73.6z M113.5,99.9c0.4-0.6,1.1-1,1.8-1
								c0.4,0,0.8,0.1,1.1,0.3c0.5,0.3,0.8,0.8,0.9,1.3c0.1,0.6,0,1.1-0.3,1.6c-0.6,0.9-1.9,1.3-2.9,0.7l-0.1-0.1
								C113.2,102.1,112.9,100.8,113.5,99.9z"/>
						</g>
						<g>
							<path class="st3" d="M103.2,108.9c-1.2-1.4-2.9-2.1-4.7-2.1c-1.5,0-2.9,0.5-4,1.5c-1.6,1.4-2.3,3.4-2.1,5.4
								c-1.9,0.7-4.3,1.4-5.3,1.3c-0.8,0-1.3-0.3-2.2-1c-1.2-0.8-2.4-1.5-4.2-1.8c2.9-2.8,6-6.8,8.6-12.8c2.1-0.1,4-1.2,5-3
								c1.7-2.9,0.8-6.7-2.1-8.4c-0.9-0.6-2-0.9-3.1-0.9c-2.2,0-4.2,1.1-5.3,3c-0.8,1.4-1.1,3.1-0.7,4.6c0.3,1.4,1.2,2.6,2.3,3.4
								c-4.1,9.2-9.2,13.1-12.6,14.7c-0.1,0-0.2,0.1-0.4,0.2c-1.2,0.5-2.1,0.7-2.6,0.8v4c0.3,0,1.9-0.1,4.2-1.2
								c5.3-1.4,6.8-0.3,8.4,0.7c1,0.7,2.3,1.6,4.3,1.7c0.1,0,0.2,0,0.3,0c2.1,0,5.2-1,7-1.7c1.1,1.1,2.7,1.8,4.3,1.8l0,0
								c1.5,0,2.9-0.5,4-1.5c1.2-1.1,2-2.6,2.1-4.2C104.8,111.8,104.3,110.2,103.2,108.9L103.2,108.9z M87.3,92.2
								c0.4-0.6,1.1-1,1.8-1c0.4,0,0.8,0.1,1.1,0.3c1,0.6,1.3,1.9,0.7,2.9c-0.4,0.7-1.1,1-1.8,1c-0.4,0-0.8-0.1-1.1-0.3
								c-0.5-0.3-0.8-0.8-1-1.3C87,93.2,87.1,92.7,87.3,92.2L87.3,92.2z M99.9,114.5c-0.5,0.4-1,0.5-1.4,0.5c-0.6,0-1.2-0.3-1.6-0.7
								c-0.8-0.9-0.7-2.2,0.2-3c0.5-0.4,1-0.5,1.4-0.5c0.6,0,1.2,0.3,1.6,0.7c0.4,0.4,0.6,1,0.5,1.5S100.4,114.2,99.9,114.5
								L99.9,114.5z"/>
							<path class="st3" d="M79,46c0.1,0,0.1,0,0.2,0C79.2,46.1,79.1,46.1,79,46z"/>
							<path class="st3" d="M101,33c-0.4-1.6-1.3-3-2.7-3.8c-1-0.6-2.1-0.9-3.3-0.9c-2.1,0-4.1,1.1-5.2,2.9
								c-1.3,2.1-1.2,4.8,0.1,6.8c-3.7,4.1-8.7,4.3-9.9,4.3c-3.7-1.6-7.2-2.2-10-2.3v4c2.4,0.1,5.6,0.7,8.8,2.1h0
								c3.4,1.6,6.3,3.9,8.6,7c-0.1,0.2-0.3,0.3-0.4,0.5c-1.8,2.8-0.9,6.6,1.9,8.4c1,0.6,2.1,1,3.3,1c2.1,0,4.1-1.1,5.2-2.8
								c1.8-2.8,0.9-6.6-1.9-8.5c-1.4-0.9-3.1-1.1-4.7-0.8c-1.5-2.2-3.3-4-5.3-5.6c2.5-0.8,5.4-2.3,7.8-5.1c0.6,0.2,1.2,0.3,1.8,0.3
								c2.1,0,4.1-1.1,5.2-2.8C101.1,36.3,101.3,34.7,101,33L101,33z M90.4,55.7c0.2-0.3,0.4-0.5,0.7-0.7c0.3-0.2,0.7-0.3,1.1-0.3
								s0.8,0.1,1.1,0.3c1,0.6,1.3,1.9,0.7,2.9c-0.4,0.6-1.1,1-1.8,1c-0.4,0-0.8-0.1-1.1-0.3C90.1,58,89.8,56.7,90.4,55.7L90.4,55.7
								z M96.8,35.5c-0.6,1-1.9,1.3-2.9,0.7l-0.1-0.1c-0.9-0.7-1.2-1.9-0.6-2.8c0.4-0.6,1.1-1,1.8-1c0.4,0,0.8,0.1,1.1,0.3
								c0.5,0.3,0.8,0.8,0.9,1.3C97.2,34.5,97.1,35,96.8,35.5L96.8,35.5z"/>
							<path class="st3" d="M109.7,74c0.4,1,1.1,2,2.1,2.7c0.1,0.1,0.2,0.1,0.3,0.2c1,0.6,2.1,0.9,3.3,0.9c2.1,0,4.1-1.1,5.2-2.8
								c0.9-1.4,1.2-3,0.8-4.6c-0.4-1.6-1.3-3-2.7-3.8c-1-0.6-2.1-0.9-3.3-0.9c-0.1,0-0.2,0-0.4,0c-0.7-3.2-0.9-7.8,0-11.3
								c0.1,0,0.2,0,0.3,0c2.1,0,4.1-1.1,5.2-2.8c0.9-1.4,1.2-3,0.8-4.6c-0.4-1.6-1.3-3-2.7-3.8c-1-0.6-2.1-0.9-3.3-0.9
								c-2.1,0-4.1,1.1-5.2,2.8c-1.6,2.5-1.1,5.8,1,7.8c0,0,0.1,0,0.1,0.1c-1.3,4.5-1.2,10.3,0,14.4c-0.1,0.1-0.3,0.2-0.4,0.4
								c-0.2,0.2-0.4,0.5-0.6,0.8c-0.3,0.5-0.6,1-0.7,1.6c-3.4,0.5-5.2,1.7-6.8,2.7c-2,1.3-4,2.6-9.6,2.7c-2-0.2-3.6-0.2-5.3-0.1
								c-1.4,0.1-2.9,0.1-4.8,0c-1.3-0.1-2.1-0.9-3.5-2.4c-1.8-2.1-4.2-4.7-9.4-5v4c3.3,0.3,4.8,1.9,6.4,3.7
								c1.5,1.7,3.2,3.6,6.3,3.8c2.1,0.1,3.8,0.1,5.2,0c2.5-0.1,4.4-0.2,7.9,0.7c2.6,0.6,12.1,9.7,14.8,14.3
								c-0.1,0.1-0.2,0.3-0.3,0.4c-1.7,2.8-1,6.4,1.6,8.2c0.1,0.1,0.2,0.1,0.3,0.2c1,0.6,2.1,0.9,3.3,0.9c2.1,0,4.1-1.1,5.2-2.8
								c0.9-1.4,1.2-3,0.8-4.6c-0.4-1.6-1.3-3-2.7-3.8c-1-0.6-2.1-0.9-3.3-0.9c-0.5,0-1.1,0.1-1.5,0.2c-2.6-4.2-8.7-10.5-13.2-13.8
								c1.8-0.6,3.1-1.4,4.2-2.2C106.2,75.2,107.4,74.4,109.7,74L109.7,74z M113.5,47.1c0.4-0.6,1.1-1,1.8-1c0.4,0,0.8,0.1,1.1,0.3
								c0.5,0.3,0.8,0.8,0.9,1.3c0.1,0.5,0,1.1-0.3,1.6c-0.6,1-1.9,1.3-2.9,0.7l-0.1-0.1C113.2,49.3,112.9,48.1,113.5,47.1z
								 M113.5,70.6c0.4-0.6,1.1-1,1.8-1c0.4,0,0.8,0.1,1.1,0.3c0.5,0.3,0.8,0.8,0.9,1.3c0.1,0.6,0,1.1-0.3,1.6
								c-0.6,0.9-1.9,1.3-2.9,0.7l-0.1-0.1C113.2,72.8,112.9,71.5,113.5,70.6z M113.5,96.9c0.4-0.6,1.1-1,1.8-1
								c0.4,0,0.8,0.1,1.1,0.3c0.5,0.3,0.8,0.8,0.9,1.3c0.1,0.6,0,1.1-0.3,1.6c-0.6,0.9-1.9,1.3-2.9,0.7l-0.1-0.1
								C113.2,99.1,112.9,97.8,113.5,96.9z"/>
						</g>
					</g>
				</g>
			</g>
		</g>
	</g>
</g>
</svg>
