<?xml version="1.0" encoding="utf-8"?>
<!-- Generator: Adobe Illustrator 26.2.1, SVG Export Plug-In . SVG Version: 6.00 Build 0)  -->
<svg version="1.1" id="a" xmlns="http://www.w3.org/2000/svg" xmlns:xlink="http://www.w3.org/1999/xlink" x="0px" y="0px"
	 width="258.6px" height="100px" viewBox="0 0 258.6 100" style="enable-background:new 0 0 258.6 100;" xml:space="preserve">
<style type="text/css">
	.st0{fill:#EB743B;}
	.st1{fill:#754E37;}
	.st2{fill:#FFFEDB;}
	.st3{fill:#CFA691;}
</style>
<g>
	<polygon class="st0" points="46,2 46,98 87,74 87,26 	"/>
	<polygon class="st1" points="43,2 2,26 2,74 43,98 	"/>
	<path class="st2" d="M78.3,58.1c-1.2-2-3.4-3.2-5.7-3.2c-0.7,0-1.3,0.1-2,0.3c-2.6-3.1-5.8-4.8-8.6-5.6c2.2-1.7,4.2-3.8,5.9-6.2
		c1.7,0.4,3.6,0.1,5.2-0.8c3.2-2,4.1-6.2,2.1-9.4c-1.2-2-3.4-3.1-5.7-3.1c-1.3,0-2.5,0.4-3.6,1c-3.2,2-4.1,6.2-2.1,9.3
		c0.1,0.2,0.3,0.4,0.4,0.6c-2.5,3.4-5.7,6.1-9.5,7.8h0C51.1,50.5,49,51,46,51v5c4,0,5.9-1.1,10-2.9c1.4,0,7,0.2,11,4.8
		c-1.5,2.2-1.7,5.1-0.2,7.5c1.2,2,3.4,3.2,5.7,3.2c1.3,0,2.5-0.4,3.6-1c1.5-1,2.6-2.5,3-4.2C79.6,61.4,79.2,59.6,78.3,58.1
		L78.3,58.1z M68.1,34.7c0.4-0.3,0.9-0.4,1.4-0.4c0.9,0,1.7,0.5,2.2,1.2c0.8,1.2,0.4,2.8-0.8,3.6c-0.4,0.3-0.9,0.4-1.4,0.4
		s-1-0.1-1.4-0.4c-0.3-0.2-0.6-0.5-0.8-0.8C66.5,37.1,66.8,35.4,68.1,34.7L68.1,34.7z M75.1,62.3C75,63,74.6,63.5,74,63.9
		c-0.4,0.3-0.9,0.4-1.4,0.4c-0.9,0-1.7-0.5-2.2-1.2c-0.8-1.2-0.4-2.7,0.7-3.5l0.1-0.1c1.2-0.8,2.9-0.4,3.6,0.8
		C75.2,60.9,75.3,61.6,75.1,62.3z"/>
	<g>
		<path class="st2" d="M43,81.7h-4.7c-0.6,0-1.1-0.5-1.1-1.1c0-1.5,0-3.3-5.6-4c-5.8-0.8-21-3.3-21.2-3.3c-0.5-0.1-0.9-0.5-0.9-1.1
			V30.9c0-0.3,0.1-0.6,0.4-0.8c0.2-0.2,0.5-0.3,0.8-0.3l4.8,0.5c0.6,0.1,1,0.6,1,1.2s-0.6,1-1.2,1l-3.6-0.4v39.2
			c3.4,0.6,15.3,2.5,20.2,3.2c5.7,0.8,7.1,2.8,7.4,5.1H43L43,81.7L43,81.7z"/>
		<path class="st3" d="M40.6,36.5c0-6.3-11.7-15-25.1-11.9v41.3c13.8-0.6,25.1,4.4,25.1,10.8V36.5z"/>
		<g>
			<path class="st2" d="M23.1,34.9c-0.6,0-1,0.4-1,1c0,0.6,0.2,1.1,1,1.1c9.7,0,17.5,8.3,17.5,10.8v-2.8
				C40.6,42.4,33.3,34.9,23.1,34.9C23.1,34.9,23.1,34.9,23.1,34.9z"/>
			<path class="st2" d="M23.1,42.2c-0.6,0-1,0.4-1,1c0,0.6,0.2,1.1,1,1.1c9.7,0,17.5,8.3,17.5,10.8v-2.8
				C40.6,49.7,33.3,42.2,23.1,42.2C23.1,42.2,23.1,42.2,23.1,42.2z"/>
			<path class="st2" d="M23.1,49.5c-0.6,0-1,0.4-1,1c0,0.6,0.2,1.1,1,1.1c9.7,0,17.5,8.3,17.5,10.8v-2.8
				C40.6,56.9,33.3,49.5,23.1,49.5C23.1,49.5,23.1,49.5,23.1,49.5z"/>
		</g>
	</g>
</g>
<g>
	<path class="st1" d="M103.5,46V6.9h14.1c5,0,8.9,0.9,11.5,2.8c2.6,1.8,3.9,4.5,3.9,8c0,2-0.5,3.8-1.4,5.2c-0.9,1.4-2.3,2.5-4.1,3.2
		c2,0.5,3.6,1.5,4.7,3c1.1,1.5,1.6,3.3,1.6,5.4c0,3.8-1.2,6.7-3.6,8.6c-2.4,1.9-6,2.9-10.8,2.9C119.3,46,103.5,46,103.5,46z
		 M112.9,23.2h4.9c2.1,0,3.5-0.4,4.4-1.1s1.3-1.8,1.3-3.3c0-1.6-0.5-2.8-1.4-3.6s-2.5-1.1-4.6-1.1h-4.6V23.2z M112.9,29.4v9.4h6.2
		c1.7,0,3-0.4,3.9-1.2c0.9-0.8,1.4-1.9,1.4-3.3c0-3.3-1.6-4.9-4.9-4.9H112.9z"/>
	<path class="st1" d="M137.4,31.2c0-2.9,0.6-5.5,1.7-7.8c1.1-2.3,2.8-4,4.9-5.2s4.6-1.8,7.4-1.8c4.4,0,7.8,1.4,10.3,4
		s3.8,6.4,3.8,11v0.3c0,4.5-1.3,8.1-3.8,10.8c-2.5,2.7-5.9,4-10.2,4s-7.5-1.2-10-3.7c-2.5-2.5-3.9-5.8-4.1-10.1L137.4,31.2
		L137.4,31.2z M146.4,31.8c0,2.7,0.4,4.7,1.3,5.9s2.1,1.9,3.7,1.9c3.2,0,4.9-2.5,4.9-7.4v-0.9c0-5.2-1.7-7.8-5-7.8
		c-3,0-4.7,2.2-4.9,6.7L146.4,31.8L146.4,31.8z"/>
	<path class="st1" d="M168.3,31.2c0-2.9,0.6-5.5,1.7-7.8c1.1-2.3,2.8-4,4.9-5.2s4.6-1.8,7.4-1.8c4.4,0,7.8,1.4,10.3,4
		s3.8,6.4,3.8,11v0.3c0,4.5-1.3,8.1-3.8,10.8c-2.5,2.7-5.9,4-10.2,4s-7.5-1.2-10-3.7c-2.5-2.5-3.9-5.8-4.1-10.1L168.3,31.2
		L168.3,31.2z M177.3,31.8c0,2.7,0.4,4.7,1.3,5.9s2.1,1.9,3.7,1.9c3.2,0,4.9-2.5,4.9-7.4v-0.9c0-5.2-1.7-7.8-5-7.8
		c-3,0-4.7,2.2-4.9,6.7L177.3,31.8L177.3,31.8z"/>
	<path class="st1" d="M212,35.2l-2.6,2.5V46h-9.1V4.7h9.1v21.9l0.9-1.2l6.8-8.5H228l-10.2,11.9L228.7,46h-10.4L212,35.2L212,35.2z"
		/>
	<path class="st0" d="M103.5,92V52.9h14.1c5,0,8.9,0.9,11.5,2.8c2.6,1.8,3.9,4.5,3.9,8c0,2-0.5,3.7-1.4,5.2
		c-0.9,1.4-2.3,2.5-4.1,3.2c2,0.5,3.6,1.5,4.7,3s1.6,3.3,1.6,5.4c0,3.8-1.2,6.7-3.6,8.6c-2.4,1.9-6,2.9-10.8,2.9
		C119.3,92,103.5,92,103.5,92z M112.9,69.2h4.9c2.1,0,3.5-0.4,4.4-1.1s1.3-1.8,1.3-3.3c0-1.7-0.5-2.8-1.4-3.6s-2.5-1.1-4.6-1.1h-4.6
		V69.2z M112.9,75.4v9.4h6.2c1.7,0,3-0.4,3.9-1.2c0.9-0.8,1.4-1.9,1.4-3.3c0-3.3-1.6-4.9-4.9-4.9C119.5,75.4,112.9,75.4,112.9,75.4z
		"/>
	<path class="st0" d="M156.1,71.1l-3-0.2c-2.9,0-4.7,0.9-5.5,2.7V92h-9.1V63h8.5l0.3,3.7c1.5-2.8,3.6-4.3,6.4-4.3
		c1,0,1.8,0.1,2.5,0.3L156.1,71.1L156.1,71.1z"/>
	<path class="st0" d="M174.9,92c-0.3-0.6-0.6-1.5-0.9-2.6c-1.7,2.1-4,3.1-7,3.1c-2.7,0-5.1-0.8-7-2.5c-1.9-1.7-2.9-3.7-2.9-6.2
		c0-3.2,1.2-5.5,3.5-7.1s5.7-2.4,10.1-2.4h2.8v-1.5c0-2.7-1.2-4-3.5-4c-2.1,0-3.2,1.1-3.2,3.2h-9.1c0-2.8,1.2-5.1,3.6-6.8
		s5.4-2.6,9.1-2.6s6.6,0.9,8.8,2.7c2.1,1.8,3.2,4.3,3.3,7.4v12.9c0,2.7,0.4,4.7,1.2,6.1V92L174.9,92L174.9,92z M169.3,86.1
		c1.1,0,2.1-0.2,2.8-0.7c0.7-0.5,1.3-1,1.6-1.6v-4.7H171c-3.1,0-4.7,1.4-4.7,4.2c0,0.8,0.3,1.5,0.8,2S168.4,86.1,169.3,86.1z"/>
	<path class="st0" d="M187.7,55.4c0-1.3,0.5-2.4,1.4-3.2c0.9-0.8,2.1-1.2,3.6-1.2s2.7,0.4,3.6,1.2c0.9,0.8,1.4,1.9,1.4,3.2
		s-0.5,2.4-1.4,3.2s-2.1,1.2-3.6,1.2s-2.7-0.4-3.6-1.2S187.7,56.7,187.7,55.4z M197.3,92h-9.1V62.9h9.1V92z"/>
	<path class="st0" d="M211.2,62.9l0.3,3.4c2-2.6,4.8-4,8.3-4c3,0,5.3,0.9,6.8,2.7c1.5,1.8,2.3,4.5,2.3,8.2V92h-9.1V73.7
		c0-1.5-0.3-2.6-0.9-3.2s-1.7-1-3.2-1c-1.8,0-3.1,0.7-3.9,2.1V92h-9.1V62.9L211.2,62.9L211.2,62.9z"/>
	<path class="st0" d="M244.6,85h13.2v7h-24.7v-5.1l12.9-17h-12.3v-7h23.8v4.9C257.5,67.8,244.6,85,244.6,85z"/>
</g>
</svg>
