<?xml version="1.0" encoding="utf-8"?>
<!-- Generator: Adobe Illustrator 25.0.0, SVG Export Plug-In . SVG Version: 6.00 Build 0)  -->
<svg version="1.1" id="Layer_1" xmlns="http://www.w3.org/2000/svg" xmlns:xlink="http://www.w3.org/1999/xlink" x="0px" y="0px"
	 viewBox="0 0 612 492" style="enable-background:new 0 0 612 492;" xml:space="preserve">
<style type="text/css">
	.st0{fill:none;stroke:#52392C;stroke-miterlimit:10;}
	.st1{fill:#52392C;}
	.st2{fill:#010101;}
	.st3{opacity:0.5;}
	.st4{opacity:0.5;fill:none;stroke:#52392C;stroke-miterlimit:10;enable-background:new    ;}
	.st5{fill:#EA7538;stroke:#FFFFFF;stroke-miterlimit:10;}
	.st6{fill:#FFFFFF;}
	.st7{enable-background:new    ;}
	.st8{fill:none;}
</style>
<g>
	<g>
		<path class="st0" d="M316.71,67.38c9.57-3.14,25.3,2.62,27.52,17.28"/>
		<g>
			<polygon class="st1" points="340.41,82.21 344.07,83.51 347.57,81.86 344.42,90.29 			"/>
		</g>
	</g>
</g>
<g>
	<path class="st2" d="M339.55,62.71v0.59l0.28-0.64l2.8-5.69h0.72l0.76,5.7l0.04,0.7l0.29-0.71l2.54-5.7h0.9l-3.5,7.46h-0.72
		l-0.84-5.92l-0.01-0.41l-0.16,0.42l-2.93,5.91H339l-0.82-7.46l0.79-0.01L339.55,62.71z"/>
	<path class="st2" d="M352.82,57.66c-0.18-0.04-0.37-0.06-0.56-0.06c-0.54,0-1.03,0.16-1.48,0.48c-0.45,0.32-0.75,0.73-0.9,1.22
		l-0.91,5.13h-0.84l1.33-7.46h0.83l-0.26,1.19c0.28-0.44,0.62-0.78,1.01-1.01s0.83-0.34,1.3-0.33c0.17,0,0.36,0.03,0.58,0.1
		L352.82,57.66z"/>
	<path class="st2" d="M353,60.63c0.08-0.72,0.31-1.38,0.68-1.98c0.37-0.6,0.83-1.06,1.38-1.37s1.15-0.46,1.79-0.45
		c0.63,0.01,1.17,0.18,1.62,0.51s0.77,0.78,0.98,1.35c0.21,0.57,0.28,1.2,0.21,1.89l-0.01,0.13c-0.14,1.18-0.57,2.12-1.29,2.83
		c-0.71,0.71-1.57,1.06-2.58,1.03c-0.86-0.01-1.55-0.32-2.06-0.92c-0.52-0.6-0.77-1.4-0.76-2.39l0.02-0.39L353,60.63z M353.83,60.86
		c-0.06,0.55-0.02,1.05,0.12,1.51c0.15,0.46,0.37,0.82,0.69,1.09c0.32,0.26,0.71,0.4,1.18,0.41c0.51,0.01,0.98-0.12,1.4-0.38
		c0.42-0.26,0.77-0.63,1.04-1.11s0.45-1.01,0.53-1.59l0.02-0.23c0.08-0.89-0.06-1.61-0.42-2.18c-0.37-0.56-0.9-0.85-1.59-0.87
		c-0.76-0.02-1.41,0.26-1.96,0.85c-0.55,0.59-0.89,1.38-1.01,2.36V60.86z"/>
	<path class="st2" d="M363.73,55.06l-0.34,1.91h1.54l-0.12,0.68h-1.54l-0.85,4.98l-0.01,0.43c0,0.5,0.24,0.76,0.71,0.77
		c0.15,0,0.38-0.01,0.69-0.05l-0.04,0.68c-0.28,0.08-0.56,0.11-0.85,0.1c-0.5-0.01-0.86-0.18-1.08-0.51
		c-0.23-0.33-0.31-0.81-0.25-1.43l0.84-4.97h-1.38l0.13-0.68h1.36l0.35-1.91H363.73L363.73,55.06z"/>
	<path class="st2" d="M368.39,64.57c-0.61-0.01-1.15-0.18-1.59-0.5c-0.45-0.32-0.78-0.77-0.99-1.32c-0.21-0.56-0.28-1.16-0.22-1.81
		l0.02-0.23c0.07-0.69,0.28-1.35,0.63-1.97s0.8-1.1,1.35-1.43c0.54-0.33,1.12-0.49,1.74-0.47c0.57,0.01,1.05,0.16,1.45,0.46
		c0.39,0.29,0.68,0.7,0.86,1.23s0.24,1.1,0.17,1.74l-0.06,0.5h-5.31l-0.02,0.17c-0.07,0.5-0.03,0.98,0.11,1.44
		c0.15,0.46,0.39,0.82,0.72,1.09s0.73,0.41,1.2,0.42c0.45,0.01,0.86-0.07,1.23-0.26s0.7-0.43,1.01-0.74l0.5,0.39
		c-0.34,0.43-0.75,0.76-1.23,0.98C369.47,64.47,368.96,64.57,368.39,64.57z M369.28,57.53c-0.61-0.02-1.16,0.19-1.65,0.63
		c-0.49,0.45-0.85,1.07-1.1,1.88l4.45,0.01l0.02-0.1c0.08-0.65-0.03-1.21-0.35-1.69C370.33,57.79,369.87,57.55,369.28,57.53z"/>
</g>
<g class="st3">
	<g>
		<path class="st0" d="M493.27,67.38c9.57-3.14,25.3,2.62,27.52,17.28"/>
		<g>
			<polygon class="st1" points="516.98,82.21 520.63,83.51 524.13,81.86 520.98,90.29 			"/>
		</g>
	</g>
</g>
<g class="st3">
	<path class="st2" d="M516.11,62.71v0.59l0.28-0.64l2.8-5.69h0.72l0.76,5.7l0.04,0.7l0.29-0.71l2.54-5.7h0.9l-3.5,7.46h-0.72
		l-0.84-5.92l-0.01-0.41l-0.16,0.42l-2.93,5.91h-0.72l-0.82-7.46l0.79-0.01L516.11,62.71z"/>
	<path class="st2" d="M529.39,57.66c-0.18-0.04-0.37-0.06-0.56-0.06c-0.54,0-1.03,0.16-1.48,0.48c-0.45,0.32-0.75,0.73-0.9,1.22
		l-0.91,5.13h-0.84l1.33-7.46h0.83l-0.26,1.19c0.28-0.44,0.62-0.78,1.01-1.01s0.83-0.34,1.3-0.33c0.17,0,0.36,0.03,0.58,0.1
		L529.39,57.66z"/>
	<path class="st2" d="M529.57,60.63c0.08-0.72,0.31-1.38,0.68-1.98s0.83-1.06,1.38-1.37s1.15-0.46,1.79-0.45
		c0.63,0.01,1.17,0.18,1.62,0.51s0.77,0.78,0.98,1.35c0.21,0.57,0.28,1.2,0.21,1.89l-0.01,0.13c-0.14,1.18-0.57,2.12-1.29,2.83
		c-0.71,0.71-1.57,1.06-2.58,1.03c-0.86-0.01-1.55-0.32-2.06-0.92c-0.51-0.6-0.77-1.4-0.76-2.39l0.02-0.39L529.57,60.63z
		 M530.39,60.86c-0.06,0.55-0.02,1.05,0.12,1.51s0.37,0.82,0.69,1.09s0.71,0.4,1.18,0.41c0.51,0.01,0.98-0.12,1.4-0.38
		s0.77-0.63,1.04-1.11s0.45-1.01,0.53-1.59l0.02-0.23c0.08-0.89-0.06-1.61-0.42-2.18s-0.9-0.85-1.59-0.87
		c-0.76-0.02-1.41,0.26-1.96,0.85c-0.55,0.59-0.89,1.38-1.01,2.36V60.86z"/>
	<path class="st2" d="M540.29,55.06l-0.34,1.91h1.54l-0.12,0.68h-1.54l-0.85,4.98l-0.01,0.43c0,0.5,0.24,0.76,0.71,0.77
		c0.15,0,0.38-0.01,0.69-0.05l-0.04,0.68c-0.28,0.08-0.56,0.11-0.85,0.1c-0.5-0.01-0.86-0.18-1.08-0.51
		c-0.23-0.33-0.31-0.81-0.25-1.43l0.84-4.97h-1.38l0.13-0.68h1.36l0.35-1.91H540.29L540.29,55.06z"/>
	<path class="st2" d="M544.95,64.57c-0.61-0.01-1.15-0.18-1.59-0.5c-0.44-0.32-0.78-0.77-0.99-1.32c-0.21-0.56-0.28-1.16-0.22-1.81
		l0.02-0.23c0.07-0.69,0.28-1.35,0.63-1.97s0.8-1.1,1.35-1.43c0.54-0.33,1.12-0.49,1.74-0.47c0.57,0.01,1.05,0.16,1.45,0.46
		s0.68,0.7,0.86,1.23c0.18,0.52,0.24,1.1,0.17,1.74l-0.06,0.5H543l-0.02,0.17c-0.07,0.5-0.03,0.98,0.11,1.44
		c0.15,0.46,0.39,0.82,0.72,1.09s0.73,0.41,1.2,0.42c0.45,0.01,0.86-0.07,1.23-0.26s0.7-0.43,1.01-0.74l0.5,0.39
		c-0.34,0.43-0.75,0.76-1.23,0.98C546.04,64.47,545.52,64.57,544.95,64.57z M545.85,57.53c-0.61-0.02-1.16,0.19-1.65,0.63
		c-0.49,0.45-0.85,1.07-1.1,1.88l4.45,0.01l0.02-0.1c0.08-0.65-0.03-1.21-0.35-1.69C546.89,57.79,546.44,57.55,545.85,57.53z"/>
</g>
<g>
	<g>
		<path class="st0" d="M293.65,179.74c-7.69,6.37-10.7,22.46,1.07,31.86"/>
		<g>
			<polygon class="st1" points="290.54,212.94 293.8,210.87 294.53,207.14 299.59,214.64 			"/>
		</g>
	</g>
</g>
<g>
	<path class="st2" d="M212.07,197.65c0.56,0.02,1.05-0.13,1.48-0.45s0.71-0.75,0.85-1.29h0.8c-0.14,0.74-0.51,1.34-1.12,1.79
		c-0.6,0.45-1.29,0.67-2.06,0.65c-0.62-0.01-1.14-0.18-1.56-0.5s-0.72-0.76-0.91-1.32s-0.25-1.19-0.18-1.9l0.03-0.3
		c0.06-0.48,0.18-0.95,0.37-1.41s0.44-0.86,0.75-1.21s0.68-0.63,1.12-0.83c0.43-0.2,0.92-0.3,1.46-0.29
		c0.78,0.02,1.41,0.28,1.87,0.77s0.68,1.13,0.65,1.89l-0.8-0.01c0.01-0.57-0.14-1.04-0.46-1.39s-0.75-0.54-1.3-0.56
		c-0.59-0.02-1.1,0.15-1.55,0.5s-0.79,0.84-1.01,1.48s-0.33,1.32-0.32,2.04c0.01,0.74,0.18,1.31,0.51,1.71
		S211.47,197.63,212.07,197.65z"/>
	<path class="st2" d="M216.62,194.4c0.08-0.72,0.31-1.38,0.68-1.98c0.37-0.6,0.83-1.06,1.38-1.37s1.15-0.46,1.79-0.45
		c0.63,0.01,1.17,0.18,1.62,0.51c0.45,0.33,0.77,0.78,0.98,1.35c0.21,0.57,0.28,1.2,0.21,1.89l-0.01,0.13
		c-0.14,1.18-0.57,2.12-1.29,2.83c-0.71,0.71-1.57,1.06-2.58,1.03c-0.86-0.01-1.55-0.32-2.06-0.92s-0.77-1.4-0.76-2.39l0.02-0.39
		L216.62,194.4z M217.45,194.64c-0.06,0.55-0.02,1.05,0.12,1.51c0.15,0.46,0.37,0.82,0.69,1.09c0.32,0.26,0.71,0.4,1.18,0.41
		c0.51,0.01,0.98-0.12,1.4-0.38s0.77-0.63,1.04-1.11s0.45-1.01,0.53-1.59l0.02-0.23c0.08-0.89-0.06-1.61-0.42-2.18
		c-0.37-0.56-0.9-0.85-1.59-0.87c-0.76-0.02-1.41,0.26-1.96,0.85c-0.55,0.59-0.89,1.38-1.01,2.36L217.45,194.64L217.45,194.64z"/>
	<path class="st2" d="M226.52,190.74l-0.26,1.28c0.34-0.46,0.73-0.81,1.18-1.06s0.93-0.36,1.44-0.36c0.74,0.02,1.27,0.27,1.61,0.75
		c0.34,0.48,0.45,1.15,0.35,1.99L230,198.2h-0.84l0.84-4.86c0.03-0.26,0.03-0.51,0.01-0.76c-0.08-0.82-0.54-1.24-1.38-1.26
		c-0.5-0.01-0.96,0.13-1.39,0.43s-0.81,0.74-1.13,1.34l-0.91,5.11h-0.84l1.33-7.46L226.52,190.74L226.52,190.74z"/>
	<path class="st2" d="M235.15,188.83l-0.34,1.91h1.54l-0.12,0.68h-1.54l-0.85,4.98l-0.01,0.43c0,0.5,0.24,0.76,0.71,0.77
		c0.15,0,0.38-0.01,0.69-0.05l-0.04,0.68c-0.28,0.08-0.56,0.11-0.85,0.1c-0.5-0.01-0.86-0.18-1.08-0.51s-0.31-0.81-0.25-1.43
		l0.84-4.97h-1.38l0.13-0.68h1.36l0.35-1.91H235.15L235.15,188.83z"/>
	<path class="st2" d="M241.54,198.2c-0.02-0.17-0.03-0.35-0.02-0.52l0.06-0.52c-0.35,0.37-0.76,0.66-1.22,0.88
		c-0.46,0.21-0.95,0.31-1.48,0.3c-0.65-0.01-1.17-0.21-1.58-0.6c-0.4-0.39-0.58-0.88-0.54-1.47c0.04-0.49,0.21-0.92,0.52-1.28
		s0.75-0.64,1.32-0.84c0.57-0.2,1.21-0.3,1.92-0.3l1.57,0.01l0.13-0.86c0.06-0.51-0.06-0.92-0.34-1.23s-0.7-0.47-1.25-0.49
		c-0.56-0.01-1.04,0.12-1.46,0.4c-0.41,0.28-0.67,0.64-0.78,1.1h-0.83c0.09-0.65,0.44-1.19,1.03-1.6c0.6-0.41,1.3-0.61,2.11-0.6
		c0.79,0.02,1.4,0.25,1.82,0.7s0.6,1.03,0.52,1.74l-0.64,3.75l-0.06,0.6c-0.01,0.25,0,0.49,0.06,0.74l-0.01,0.08L241.54,198.2
		L241.54,198.2z M239.03,197.62c0.52,0.02,1.02-0.1,1.49-0.36c0.47-0.26,0.87-0.63,1.18-1.11l0.29-1.65l-1.35-0.01
		c-0.86,0-1.56,0.15-2.1,0.45c-0.54,0.3-0.84,0.72-0.9,1.27c-0.04,0.4,0.07,0.74,0.33,1C238.23,197.48,238.58,197.61,239.03,197.62z
		"/>
	<path class="st2" d="M245.32,198.2h-0.85l1.34-7.46h0.84L245.32,198.2z M246.05,188.58c0.02-0.3,0.23-0.49,0.61-0.56
		c0.18,0.03,0.32,0.09,0.39,0.17c0.08,0.08,0.13,0.21,0.15,0.4c-0.05,0.17-0.12,0.3-0.21,0.38s-0.22,0.14-0.4,0.18
		C246.21,189.08,246.03,188.9,246.05,188.58z"/>
	<path class="st2" d="M249.74,190.74l-0.26,1.28c0.34-0.46,0.73-0.81,1.18-1.06s0.93-0.36,1.44-0.36c0.74,0.02,1.27,0.27,1.61,0.75
		c0.33,0.48,0.45,1.15,0.35,1.99l-0.84,4.86h-0.84l0.84-4.86c0.03-0.26,0.03-0.51,0.01-0.76c-0.08-0.82-0.54-1.24-1.38-1.26
		c-0.5-0.01-0.96,0.13-1.39,0.43s-0.81,0.74-1.13,1.34l-0.91,5.11h-0.84l1.33-7.46L249.74,190.74L249.74,190.74z"/>
	<path class="st2" d="M258.45,198.34c-0.61-0.01-1.15-0.18-1.59-0.5s-0.78-0.77-0.99-1.32c-0.21-0.56-0.28-1.16-0.22-1.81l0.02-0.23
		c0.07-0.69,0.28-1.35,0.63-1.97c0.35-0.62,0.8-1.1,1.35-1.43c0.54-0.33,1.12-0.49,1.74-0.47c0.57,0.01,1.05,0.16,1.45,0.46
		c0.39,0.29,0.68,0.7,0.86,1.23c0.18,0.52,0.24,1.1,0.17,1.74l-0.06,0.5h-5.31l-0.02,0.17c-0.07,0.5-0.03,0.98,0.11,1.44
		c0.15,0.46,0.39,0.82,0.72,1.09c0.33,0.27,0.73,0.41,1.2,0.42c0.45,0.01,0.86-0.07,1.23-0.26s0.7-0.43,1.01-0.74l0.5,0.39
		c-0.34,0.43-0.75,0.76-1.23,0.98C259.53,198.24,259.01,198.35,258.45,198.34z M259.34,191.3c-0.61-0.02-1.16,0.19-1.65,0.63
		c-0.49,0.45-0.85,1.07-1.1,1.88l4.45,0.01l0.02-0.1c0.08-0.65-0.03-1.21-0.35-1.69C260.39,191.57,259.93,191.32,259.34,191.3z"/>
	<path class="st2" d="M263.09,194.45c0.11-0.78,0.33-1.47,0.66-2.08c0.33-0.6,0.74-1.05,1.22-1.35c0.48-0.29,1.02-0.43,1.61-0.42
		c0.45,0.01,0.87,0.11,1.24,0.31s0.67,0.49,0.89,0.89l0.78-4.19h0.84l-1.89,10.59h-0.79l0.19-0.99c-0.67,0.78-1.49,1.16-2.48,1.13
		c-0.71-0.02-1.27-0.29-1.68-0.81c-0.4-0.52-0.62-1.22-0.63-2.11c-0.01-0.28,0-0.56,0.04-0.83V194.45z M263.94,194.59
		c-0.04,0.31-0.05,0.64-0.04,0.98c0.02,0.63,0.17,1.12,0.45,1.48c0.28,0.36,0.68,0.55,1.2,0.57c0.52,0.01,0.98-0.1,1.38-0.35
		s0.73-0.58,1.01-0.99l0.62-3.51c-0.14-0.44-0.36-0.79-0.68-1.05c-0.31-0.25-0.71-0.39-1.2-0.4c-0.72-0.02-1.32,0.24-1.8,0.8
		s-0.79,1.33-0.93,2.32L263.94,194.59z"/>
	<path class="st2" d="M275.08,198.2h-0.85l1.34-7.46h0.84L275.08,198.2z M275.8,188.58c0.02-0.3,0.23-0.49,0.61-0.56
		c0.18,0.03,0.32,0.09,0.39,0.17c0.08,0.08,0.13,0.21,0.15,0.4c-0.05,0.17-0.12,0.3-0.21,0.38s-0.22,0.14-0.4,0.18
		C275.96,189.08,275.78,188.9,275.8,188.58z"/>
	<path class="st2" d="M279.5,190.74l-0.26,1.28c0.34-0.46,0.73-0.81,1.18-1.06s0.93-0.36,1.44-0.36c0.74,0.02,1.27,0.27,1.61,0.75
		c0.34,0.48,0.45,1.15,0.35,1.99l-0.84,4.86h-0.84l0.84-4.86c0.03-0.26,0.03-0.51,0.01-0.76c-0.08-0.82-0.54-1.24-1.38-1.26
		c-0.5-0.01-0.96,0.13-1.39,0.43s-0.81,0.74-1.13,1.34l-0.91,5.11h-0.84l1.33-7.46L279.5,190.74L279.5,190.74z"/>
</g>
<g>
	<g>
		<path class="st0" d="M293.65,280.96c-7.69,6.37-10.7,22.46,1.07,31.86"/>
		<g>
			<polygon class="st1" points="290.54,314.16 293.8,312.09 294.53,308.36 299.59,315.86 			"/>
		</g>
	</g>
</g>
<g>
	<path class="st2" d="M236.72,302.46c-0.44-0.01-0.85-0.1-1.24-0.27c-0.39-0.17-0.71-0.44-0.95-0.81l-0.71,3.81h-0.84l1.84-10.33
		h0.78l-0.2,1.05c0.67-0.82,1.5-1.22,2.5-1.19c0.72,0.02,1.28,0.28,1.68,0.78c0.4,0.5,0.61,1.21,0.62,2.13
		c0,0.29-0.01,0.57-0.04,0.84l-0.03,0.19c-0.12,0.81-0.34,1.5-0.67,2.08c-0.33,0.58-0.72,1.02-1.19,1.31
		C237.83,302.34,237.3,302.47,236.72,302.46z M239.33,298.47l0.04-0.65c0.01-0.74-0.12-1.31-0.41-1.73s-0.72-0.64-1.28-0.65
		c-0.5-0.01-0.95,0.11-1.35,0.35c-0.4,0.25-0.74,0.6-1.02,1.07l-0.63,3.59c0.15,0.42,0.39,0.74,0.72,0.97
		c0.33,0.22,0.72,0.34,1.18,0.35c0.68,0.02,1.27-0.23,1.74-0.75c0.48-0.52,0.79-1.25,0.96-2.18L239.33,298.47z"/>
	<path class="st2" d="M246.15,302.31c-0.02-0.17-0.03-0.35-0.02-0.52l0.06-0.52c-0.35,0.37-0.76,0.66-1.22,0.88
		c-0.46,0.21-0.95,0.31-1.48,0.3c-0.65-0.01-1.17-0.21-1.58-0.6c-0.4-0.39-0.58-0.88-0.54-1.47c0.04-0.49,0.21-0.92,0.52-1.28
		s0.75-0.64,1.32-0.84c0.57-0.2,1.21-0.3,1.92-0.3l1.57,0.01l0.13-0.86c0.06-0.51-0.06-0.92-0.34-1.23s-0.7-0.47-1.25-0.49
		c-0.56-0.01-1.04,0.12-1.46,0.4c-0.41,0.28-0.67,0.64-0.78,1.1h-0.83c0.09-0.65,0.44-1.19,1.03-1.6s1.3-0.61,2.11-0.6
		c0.79,0.02,1.4,0.25,1.82,0.7c0.43,0.45,0.6,1.03,0.52,1.74l-0.64,3.75l-0.06,0.6c-0.01,0.25,0,0.49,0.06,0.74L247,302.3
		L246.15,302.31L246.15,302.31z M243.64,301.74c0.52,0.02,1.02-0.1,1.49-0.36c0.47-0.26,0.87-0.63,1.18-1.11l0.29-1.65l-1.35-0.01
		c-0.86,0-1.56,0.15-2.1,0.45c-0.54,0.3-0.84,0.72-0.9,1.27c-0.04,0.4,0.07,0.74,0.33,1C242.84,301.59,243.19,301.73,243.64,301.74z
		"/>
	<path class="st2" d="M253.67,295.55c-0.18-0.04-0.37-0.06-0.56-0.06c-0.54,0-1.03,0.16-1.48,0.48c-0.45,0.32-0.75,0.73-0.9,1.22
		l-0.91,5.13h-0.84l1.33-7.46h0.83l-0.26,1.19c0.28-0.44,0.62-0.78,1.01-1.01s0.83-0.34,1.3-0.33c0.17,0,0.36,0.03,0.58,0.1
		L253.67,295.55z"/>
	<path class="st2" d="M257.12,292.94l-0.34,1.91h1.54l-0.12,0.68h-1.54l-0.85,4.98l-0.01,0.43c0,0.5,0.24,0.76,0.71,0.77
		c0.15,0,0.38-0.01,0.69-0.05l-0.04,0.68c-0.28,0.08-0.56,0.11-0.85,0.1c-0.5-0.01-0.86-0.18-1.08-0.51s-0.31-0.81-0.25-1.43
		l0.84-4.97h-1.38l0.13-0.68h1.36l0.35-1.91H257.12L257.12,292.94z"/>
	<path class="st2" d="M262.44,298.51c0.08-0.72,0.31-1.38,0.68-1.98s0.83-1.06,1.38-1.37s1.15-0.46,1.79-0.45
		c0.63,0.01,1.17,0.18,1.62,0.51s0.77,0.78,0.98,1.35c0.21,0.57,0.28,1.2,0.21,1.89l-0.01,0.13c-0.14,1.18-0.57,2.12-1.29,2.83
		c-0.71,0.71-1.57,1.06-2.58,1.03c-0.86-0.01-1.55-0.32-2.06-0.92s-0.77-1.4-0.76-2.39l0.02-0.39L262.44,298.51z M263.26,298.75
		c-0.06,0.55-0.02,1.05,0.12,1.51c0.15,0.46,0.37,0.82,0.69,1.09c0.32,0.26,0.71,0.4,1.18,0.41c0.51,0.01,0.98-0.12,1.4-0.38
		c0.42-0.26,0.77-0.63,1.04-1.11s0.45-1.01,0.53-1.59l0.02-0.23c0.08-0.89-0.06-1.61-0.42-2.18s-0.9-0.85-1.59-0.87
		c-0.76-0.02-1.41,0.26-1.96,0.85c-0.55,0.59-0.89,1.38-1.01,2.36V298.75z"/>
	<path class="st2" d="M270.78,302.31l1.21-6.79h-1.23l0.13-0.68h1.23l0.15-1.01c0.12-0.73,0.41-1.3,0.86-1.7s1.02-0.6,1.7-0.59
		c0.27,0.01,0.58,0.06,0.93,0.14l-0.15,0.68c-0.26-0.07-0.52-0.1-0.76-0.1c-0.47,0-0.86,0.15-1.17,0.45
		c-0.31,0.3-0.5,0.71-0.58,1.25l-0.13,0.88h1.78l-0.13,0.68h-1.76l-1.21,6.79H270.78L270.78,302.31z"/>
</g>
<g class="st3">
	<g>
		<path class="st0" d="M384.08,430.26c-9.24,3.96-25.44-0.4-29.01-14.8"/>
		<g>
			<polygon class="st1" points="359.1,417.58 355.34,416.6 352.01,418.55 354.37,409.88 			"/>
		</g>
	</g>
</g>
<g class="st3">
	<path class="st2" d="M316.49,441.34c-0.44-0.01-0.85-0.1-1.24-0.27c-0.39-0.17-0.71-0.44-0.95-0.81l-0.71,3.81h-0.84l1.84-10.33
		h0.78l-0.2,1.05c0.67-0.82,1.5-1.22,2.5-1.19c0.72,0.02,1.28,0.28,1.68,0.78c0.4,0.5,0.61,1.21,0.62,2.13
		c0,0.29-0.01,0.57-0.04,0.84l-0.03,0.19c-0.12,0.81-0.34,1.5-0.67,2.08c-0.33,0.58-0.72,1.02-1.19,1.31
		C317.59,441.22,317.07,441.36,316.49,441.34z M319.1,437.35l0.04-0.65c0.01-0.73-0.12-1.31-0.41-1.73s-0.72-0.64-1.28-0.65
		c-0.5-0.01-0.95,0.11-1.35,0.36c-0.4,0.25-0.74,0.6-1.02,1.07l-0.63,3.59c0.15,0.42,0.39,0.75,0.72,0.97
		c0.33,0.22,0.72,0.34,1.18,0.35c0.68,0.02,1.26-0.23,1.74-0.75s0.79-1.25,0.96-2.18L319.1,437.35z"/>
	<path class="st2" d="M325.92,441.2c-0.02-0.17-0.03-0.35-0.02-0.52l0.06-0.52c-0.35,0.37-0.76,0.66-1.22,0.88
		c-0.46,0.21-0.95,0.31-1.48,0.3c-0.65-0.01-1.17-0.21-1.58-0.6c-0.4-0.39-0.58-0.88-0.54-1.47c0.04-0.49,0.21-0.92,0.52-1.28
		s0.75-0.64,1.32-0.84s1.21-0.3,1.92-0.3l1.57,0.01l0.13-0.86c0.06-0.51-0.06-0.92-0.34-1.23s-0.7-0.47-1.25-0.49
		c-0.56-0.01-1.04,0.12-1.46,0.4c-0.41,0.28-0.67,0.65-0.78,1.1h-0.83c0.09-0.65,0.44-1.19,1.03-1.6c0.6-0.41,1.3-0.61,2.11-0.6
		c0.79,0.02,1.4,0.25,1.82,0.7c0.43,0.45,0.6,1.03,0.52,1.74l-0.64,3.75l-0.06,0.6c-0.01,0.25,0,0.49,0.06,0.74l-0.01,0.08
		L325.92,441.2L325.92,441.2z M323.41,440.62c0.52,0.02,1.02-0.1,1.49-0.36c0.48-0.26,0.87-0.63,1.18-1.11l0.29-1.65l-1.35-0.01
		c-0.86,0-1.56,0.15-2.1,0.45s-0.84,0.72-0.9,1.27c-0.04,0.41,0.07,0.74,0.33,1C322.6,440.47,322.96,440.61,323.41,440.62z"/>
	<path class="st2" d="M333.44,434.43c-0.18-0.04-0.37-0.06-0.56-0.06c-0.54,0-1.03,0.16-1.48,0.48c-0.45,0.32-0.75,0.73-0.9,1.22
		l-0.91,5.13h-0.84l1.33-7.46h0.83l-0.26,1.19c0.28-0.44,0.62-0.78,1.01-1.01s0.83-0.34,1.3-0.33c0.17,0,0.36,0.03,0.58,0.1
		L333.44,434.43z"/>
	<path class="st2" d="M336.88,431.83l-0.34,1.91h1.54l-0.12,0.68h-1.54l-0.85,4.98l-0.01,0.43c0,0.5,0.24,0.76,0.71,0.77
		c0.15,0,0.38-0.01,0.69-0.05l-0.04,0.68c-0.28,0.08-0.56,0.11-0.85,0.1c-0.5-0.01-0.86-0.18-1.08-0.51
		c-0.23-0.33-0.31-0.81-0.25-1.43l0.84-4.97h-1.38l0.13-0.68h1.36l0.35-1.91H336.88L336.88,431.83z"/>
	<path class="st2" d="M342.21,437.4c0.08-0.72,0.31-1.38,0.68-1.98s0.83-1.06,1.38-1.37s1.15-0.46,1.79-0.45
		c0.63,0.01,1.17,0.18,1.62,0.51s0.77,0.78,0.98,1.35c0.21,0.57,0.28,1.2,0.21,1.89l-0.01,0.13c-0.14,1.18-0.57,2.12-1.29,2.83
		c-0.71,0.71-1.57,1.06-2.58,1.03c-0.86-0.01-1.55-0.32-2.06-0.92s-0.77-1.4-0.76-2.39l0.02-0.39L342.21,437.4z M343.03,437.63
		c-0.06,0.55-0.02,1.05,0.12,1.51c0.15,0.46,0.37,0.82,0.69,1.09c0.32,0.26,0.71,0.4,1.18,0.41c0.51,0.01,0.98-0.12,1.4-0.38
		c0.42-0.26,0.77-0.63,1.04-1.11s0.45-1.01,0.53-1.59l0.02-0.23c0.08-0.89-0.06-1.61-0.42-2.18c-0.37-0.56-0.9-0.85-1.59-0.87
		c-0.76-0.02-1.41,0.26-1.96,0.85c-0.55,0.59-0.89,1.38-1.01,2.36V437.63z"/>
	<path class="st2" d="M350.55,441.2l1.21-6.79h-1.23l0.13-0.68h1.23l0.15-1.01c0.12-0.73,0.41-1.3,0.86-1.7
		c0.46-0.4,1.02-0.6,1.7-0.59c0.27,0.01,0.58,0.06,0.93,0.14l-0.15,0.68c-0.26-0.07-0.52-0.1-0.76-0.1c-0.47,0-0.86,0.15-1.17,0.45
		s-0.5,0.71-0.58,1.25l-0.13,0.88h1.78l-0.13,0.68h-1.76l-1.21,6.79H350.55L350.55,441.2z"/>
</g>
<g class="st3">
	<g>
		<path class="st0" d="M434.53,155.52c-0.19,9.83-11.07,22.29-26,19.38"/>
		<g>
			<polygon class="st1" points="412.19,172.23 409.69,175.14 410.11,178.9 403.02,173.17 			"/>
		</g>
	</g>
</g>
<g class="st3">
	<path class="st2" d="M419.5,184.18l-0.34,1.91h1.54l-0.12,0.68h-1.54l-0.85,4.98l-0.01,0.43c0,0.5,0.24,0.76,0.71,0.77
		c0.15,0,0.38-0.01,0.69-0.05l-0.04,0.68c-0.28,0.08-0.56,0.11-0.85,0.1c-0.5-0.01-0.86-0.18-1.08-0.51
		c-0.23-0.33-0.31-0.81-0.25-1.43l0.84-4.97h-1.38l0.13-0.68h1.36l0.35-1.91H419.5L419.5,184.18z"/>
	<path class="st2" d="M425.8,186.79c-0.18-0.04-0.37-0.06-0.56-0.06c-0.54,0-1.03,0.16-1.48,0.48c-0.45,0.32-0.75,0.73-0.9,1.22
		l-0.91,5.13h-0.84l1.33-7.46h0.83l-0.26,1.19c0.28-0.44,0.62-0.78,1.01-1.01s0.83-0.34,1.3-0.33c0.17,0,0.36,0.03,0.58,0.1
		L425.8,186.79z"/>
	<path class="st2" d="M430.41,193.56c-0.02-0.17-0.03-0.35-0.02-0.52l0.06-0.52c-0.35,0.37-0.76,0.66-1.22,0.88
		c-0.46,0.21-0.95,0.31-1.48,0.3c-0.65-0.01-1.17-0.21-1.58-0.6s-0.58-0.88-0.54-1.47c0.04-0.49,0.21-0.92,0.52-1.28
		s0.75-0.64,1.32-0.84s1.21-0.3,1.92-0.3l1.57,0.01l0.13-0.86c0.06-0.51-0.06-0.92-0.34-1.23s-0.7-0.47-1.25-0.49
		c-0.56-0.01-1.04,0.12-1.46,0.4c-0.41,0.28-0.67,0.64-0.78,1.1h-0.83c0.09-0.65,0.44-1.19,1.03-1.6c0.6-0.41,1.3-0.61,2.11-0.6
		c0.79,0.02,1.4,0.25,1.82,0.7c0.43,0.45,0.6,1.03,0.52,1.74l-0.64,3.75l-0.06,0.6c-0.01,0.25,0,0.49,0.06,0.74l-0.01,0.08
		L430.41,193.56L430.41,193.56z M427.9,192.98c0.52,0.02,1.02-0.1,1.49-0.36c0.47-0.26,0.87-0.63,1.18-1.11l0.29-1.65l-1.35-0.01
		c-0.86,0-1.56,0.15-2.1,0.45s-0.84,0.72-0.9,1.27c-0.04,0.4,0.07,0.74,0.33,1C427.1,192.83,427.45,192.97,427.9,192.98z"/>
	<path class="st2" d="M435.39,186.09l-0.26,1.28c0.34-0.46,0.73-0.81,1.18-1.06s0.93-0.36,1.44-0.36c0.74,0.02,1.27,0.27,1.61,0.75
		c0.34,0.48,0.45,1.15,0.35,1.99l-0.84,4.86h-0.84l0.84-4.86c0.03-0.26,0.03-0.51,0.01-0.76c-0.08-0.82-0.54-1.24-1.38-1.26
		c-0.5-0.01-0.96,0.13-1.39,0.43s-0.81,0.74-1.13,1.34l-0.91,5.11h-0.84l1.33-7.46L435.39,186.09L435.39,186.09z"/>
	<path class="st2" d="M445.9,191.61c0.08-0.63-0.32-1.09-1.19-1.38l-1.22-0.35c-1.12-0.37-1.65-0.98-1.59-1.84
		c0.03-0.62,0.33-1.13,0.88-1.51c0.55-0.39,1.22-0.58,1.98-0.57c0.75,0.01,1.36,0.22,1.83,0.62c0.47,0.4,0.68,0.94,0.65,1.61h-0.84
		c0.03-0.45-0.11-0.81-0.43-1.09c-0.31-0.28-0.73-0.42-1.25-0.43c-0.54,0-0.99,0.12-1.36,0.37s-0.58,0.57-0.62,0.98
		c-0.07,0.59,0.3,1.01,1.12,1.25l0.89,0.25l0.48,0.16c1.07,0.39,1.57,1.03,1.51,1.91c-0.04,0.6-0.3,1.09-0.8,1.47
		s-1.13,0.6-1.91,0.64l-0.29,0.01c-0.52-0.01-0.98-0.11-1.4-0.29s-0.73-0.45-0.96-0.78c-0.23-0.33-0.32-0.72-0.29-1.16l0.84,0.01
		c0,0.47,0.16,0.84,0.49,1.11c0.33,0.27,0.78,0.41,1.35,0.42c0.57,0,1.05-0.12,1.45-0.38C445.62,192.37,445.84,192.03,445.9,191.61z
		"/>
	<path class="st2" d="M449.2,193.56h-0.85l1.89-10.59h0.85L449.2,193.56z"/>
	<path class="st2" d="M456.25,193.56c-0.02-0.17-0.03-0.35-0.02-0.52l0.06-0.52c-0.35,0.37-0.76,0.66-1.22,0.88
		c-0.46,0.21-0.95,0.31-1.48,0.3c-0.65-0.01-1.17-0.21-1.58-0.6s-0.58-0.88-0.54-1.47c0.04-0.49,0.21-0.92,0.52-1.28
		s0.75-0.64,1.32-0.84s1.21-0.3,1.92-0.3l1.57,0.01l0.13-0.86c0.06-0.51-0.06-0.92-0.34-1.23s-0.7-0.47-1.25-0.49
		c-0.56-0.01-1.04,0.12-1.46,0.4c-0.41,0.28-0.67,0.64-0.78,1.1h-0.83c0.09-0.65,0.44-1.19,1.03-1.6s1.3-0.61,2.11-0.6
		c0.79,0.02,1.4,0.25,1.82,0.7s0.6,1.03,0.52,1.74l-0.64,3.75l-0.06,0.6c-0.01,0.25,0,0.49,0.06,0.74l-0.01,0.08L456.25,193.56
		L456.25,193.56z M453.74,192.98c0.52,0.02,1.02-0.1,1.49-0.36c0.47-0.26,0.87-0.63,1.18-1.11l0.29-1.65l-1.35-0.01
		c-0.86,0-1.56,0.15-2.1,0.45s-0.84,0.72-0.9,1.27c-0.04,0.4,0.07,0.74,0.33,1C452.93,192.83,453.29,192.97,453.74,192.98z"/>
	<path class="st2" d="M462.06,184.18l-0.34,1.91h1.54l-0.12,0.68h-1.54l-0.85,4.98l-0.01,0.43c0,0.5,0.24,0.76,0.71,0.77
		c0.15,0,0.38-0.01,0.69-0.05l-0.04,0.68c-0.28,0.08-0.56,0.11-0.85,0.1c-0.5-0.01-0.86-0.18-1.08-0.51s-0.31-0.81-0.25-1.43
		l0.84-4.97h-1.38l0.13-0.68h1.36l0.35-1.91H462.06L462.06,184.18z"/>
	<path class="st2" d="M464.62,193.56h-0.85l1.34-7.46h0.84L464.62,193.56z M465.34,183.94c0.02-0.3,0.23-0.49,0.61-0.56
		c0.18,0.03,0.32,0.09,0.39,0.17s0.13,0.21,0.15,0.4c-0.05,0.17-0.12,0.3-0.21,0.38s-0.22,0.14-0.4,0.18
		C465.51,184.44,465.33,184.25,465.34,183.94z"/>
	<path class="st2" d="M467.11,189.76c0.08-0.72,0.31-1.38,0.68-1.98s0.83-1.06,1.38-1.37s1.15-0.46,1.79-0.45
		c0.63,0.01,1.17,0.18,1.62,0.51s0.77,0.78,0.98,1.35c0.21,0.57,0.28,1.2,0.21,1.89l-0.01,0.13c-0.14,1.18-0.57,2.12-1.29,2.83
		c-0.71,0.71-1.57,1.06-2.58,1.03c-0.86-0.01-1.55-0.32-2.06-0.92c-0.52-0.6-0.77-1.4-0.76-2.39l0.02-0.39L467.11,189.76z
		 M467.93,189.99c-0.06,0.55-0.02,1.05,0.12,1.51c0.15,0.46,0.37,0.82,0.69,1.09c0.32,0.26,0.71,0.4,1.18,0.41
		c0.51,0.01,0.98-0.12,1.4-0.38c0.42-0.26,0.77-0.63,1.04-1.11s0.45-1.01,0.53-1.59l0.02-0.23c0.08-0.89-0.06-1.61-0.42-2.18
		c-0.37-0.56-0.9-0.85-1.59-0.87c-0.76-0.02-1.41,0.26-1.96,0.85c-0.55,0.59-0.89,1.38-1.01,2.36V189.99z"/>
	<path class="st2" d="M477,186.09l-0.26,1.28c0.34-0.46,0.73-0.81,1.18-1.06s0.93-0.36,1.44-0.36c0.74,0.02,1.27,0.27,1.61,0.75
		c0.33,0.48,0.45,1.15,0.35,1.99l-0.84,4.86h-0.84l0.84-4.86c0.03-0.26,0.03-0.51,0.01-0.76c-0.08-0.82-0.54-1.24-1.38-1.26
		c-0.5-0.01-0.96,0.13-1.39,0.43s-0.81,0.74-1.13,1.34l-0.91,5.11h-0.84l1.33-7.46L477,186.09L477,186.09z"/>
</g>
<path class="st4" d="M473.09,169.54c-19.4,9.28-45.44,11.14-63.93,5.79"/>
<g>
	<g>
		<path class="st0" d="M431.37,240.32c0.8-9.8-8.76-23.25-23.91-21.79"/>
		<g>
			<polygon class="st1" points="409.45,214.71 408.65,218.41 410.84,221.55 401.81,219.73 			"/>
		</g>
	</g>
</g>
<g>
	<path class="st2" d="M446.85,235.96c-0.44-0.01-0.85-0.1-1.24-0.27s-0.71-0.44-0.95-0.81l-0.71,3.81h-0.84l1.84-10.33h0.78
		l-0.2,1.05c0.67-0.82,1.5-1.22,2.5-1.19c0.72,0.02,1.28,0.28,1.68,0.78s0.61,1.21,0.62,2.13c0,0.29-0.01,0.57-0.04,0.84l-0.03,0.19
		c-0.12,0.81-0.34,1.5-0.67,2.08c-0.33,0.58-0.72,1.02-1.19,1.31C447.95,235.84,447.42,235.97,446.85,235.96z M449.46,231.97
		l0.04-0.65c0.01-0.74-0.12-1.31-0.41-1.73s-0.72-0.64-1.28-0.65c-0.5-0.01-0.95,0.11-1.35,0.35c-0.4,0.25-0.74,0.6-1.02,1.07
		l-0.63,3.59c0.15,0.42,0.39,0.74,0.72,0.97c0.33,0.22,0.72,0.34,1.18,0.35c0.68,0.02,1.27-0.23,1.74-0.75
		c0.48-0.52,0.79-1.25,0.96-2.18L449.46,231.97z"/>
	<path class="st2" d="M456.59,234.88c-0.61,0.75-1.45,1.1-2.52,1.08c-0.72-0.01-1.26-0.27-1.62-0.76c-0.35-0.49-0.48-1.18-0.38-2.06
		l0.82-4.78h0.84l-0.82,4.8c-0.03,0.25-0.03,0.49-0.01,0.74c0.03,0.42,0.16,0.75,0.39,0.98c0.23,0.23,0.54,0.35,0.93,0.37
		c0.57,0.02,1.09-0.1,1.57-0.38s0.79-0.64,0.93-1.09l0.95-5.41h0.85l-1.33,7.46h-0.82L456.59,234.88z"/>
	<path class="st2" d="M465.97,232.12c-0.17,1.19-0.55,2.13-1.17,2.83c-0.61,0.7-1.37,1.04-2.27,1.01c-0.5-0.01-0.94-0.12-1.32-0.32
		c-0.38-0.21-0.67-0.49-0.88-0.84l-0.24,1.02h-0.79l1.89-10.59h0.84l-0.8,4.21c0.66-0.84,1.49-1.25,2.49-1.22
		c0.73,0.02,1.3,0.28,1.69,0.79s0.6,1.22,0.62,2.12c0,0.29-0.01,0.58-0.04,0.85L465.97,232.12z M465.14,231.96l0.05-0.65
		c0.01-0.75-0.12-1.33-0.4-1.73c-0.28-0.41-0.71-0.62-1.27-0.64c-1.03-0.02-1.84,0.49-2.43,1.53l-0.58,3.37
		c0.14,0.44,0.37,0.79,0.71,1.03c0.33,0.24,0.74,0.37,1.22,0.38c0.7,0.01,1.29-0.25,1.77-0.79S464.98,233.07,465.14,231.96z"/>
	<path class="st2" d="M468.12,235.81h-0.85l1.89-10.59h0.85L468.12,235.81z"/>
	<path class="st2" d="M471.34,235.81h-0.85l1.34-7.46h0.84L471.34,235.81z M472.07,226.19c0.02-0.3,0.23-0.49,0.61-0.56
		c0.18,0.03,0.32,0.09,0.39,0.17s0.13,0.21,0.15,0.4c-0.05,0.17-0.12,0.3-0.21,0.38c-0.09,0.08-0.22,0.14-0.4,0.18
		C472.23,226.7,472.05,226.51,472.07,226.19z"/>
	<path class="st2" d="M478.47,233.87c0.07-0.63-0.32-1.09-1.19-1.38l-1.22-0.35c-1.12-0.37-1.65-0.98-1.59-1.84
		c0.03-0.62,0.33-1.13,0.88-1.51c0.55-0.39,1.22-0.58,1.98-0.57c0.75,0.01,1.36,0.22,1.83,0.62s0.68,0.94,0.65,1.61h-0.84
		c0.03-0.45-0.11-0.81-0.43-1.09s-0.73-0.42-1.25-0.43c-0.54,0-0.99,0.12-1.36,0.37s-0.58,0.57-0.62,0.98
		c-0.07,0.59,0.3,1.01,1.12,1.25l0.89,0.25l0.48,0.16c1.07,0.39,1.57,1.03,1.51,1.91c-0.04,0.6-0.3,1.09-0.8,1.47
		s-1.13,0.6-1.91,0.64l-0.29,0.01c-0.52-0.01-0.98-0.11-1.4-0.29c-0.41-0.19-0.73-0.45-0.96-0.78c-0.22-0.34-0.32-0.72-0.29-1.16
		l0.84,0.01c0,0.47,0.16,0.84,0.49,1.11s0.78,0.41,1.35,0.42c0.57,0,1.05-0.12,1.45-0.38C478.19,234.63,478.42,234.29,478.47,233.87
		z"/>
	<path class="st2" d="M482.72,229.61c0.74-0.95,1.61-1.42,2.61-1.4c0.74,0.02,1.27,0.27,1.61,0.75s0.45,1.15,0.35,1.99l-0.84,4.86
		h-0.83l0.84-4.86c0.03-0.26,0.03-0.51,0.01-0.76c-0.08-0.82-0.54-1.24-1.38-1.26c-0.5-0.01-0.96,0.13-1.39,0.43
		s-0.81,0.74-1.13,1.34l-0.91,5.11h-0.84l1.89-10.59h0.84L482.72,229.61z"/>
	<path class="st2" d="M491.66,235.95c-0.61-0.01-1.15-0.18-1.59-0.5c-0.45-0.32-0.78-0.77-0.99-1.32s-0.28-1.16-0.22-1.81l0.02-0.23
		c0.07-0.69,0.28-1.35,0.63-1.97s0.8-1.1,1.35-1.43c0.54-0.33,1.12-0.49,1.74-0.47c0.57,0.01,1.05,0.16,1.45,0.46
		s0.68,0.7,0.86,1.23s0.24,1.1,0.17,1.74l-0.06,0.5h-5.31l-0.02,0.17c-0.07,0.5-0.03,0.98,0.11,1.44c0.15,0.46,0.39,0.82,0.72,1.09
		c0.33,0.27,0.73,0.41,1.2,0.42c0.45,0.01,0.86-0.07,1.23-0.26c0.36-0.18,0.7-0.43,1.01-0.74l0.5,0.39
		c-0.34,0.43-0.75,0.76-1.23,0.98C492.75,235.86,492.23,235.96,491.66,235.95z M492.55,228.92c-0.61-0.02-1.16,0.19-1.65,0.63
		c-0.49,0.45-0.85,1.07-1.1,1.88l4.45,0.01l0.02-0.1c0.08-0.65-0.03-1.21-0.35-1.69C493.6,229.18,493.14,228.94,492.55,228.92z"/>
	<path class="st2" d="M496.3,232.06c0.11-0.78,0.33-1.47,0.66-2.08c0.33-0.6,0.74-1.05,1.22-1.35s1.02-0.43,1.61-0.42
		c0.45,0.01,0.87,0.11,1.24,0.31s0.67,0.49,0.89,0.89l0.78-4.19h0.84l-1.89,10.59h-0.79l0.19-0.99c-0.67,0.78-1.49,1.16-2.48,1.13
		c-0.71-0.02-1.27-0.29-1.68-0.81c-0.4-0.52-0.62-1.22-0.63-2.11c-0.01-0.28,0-0.56,0.04-0.83V232.06z M497.15,232.2
		c-0.04,0.31-0.05,0.64-0.04,0.98c0.02,0.63,0.17,1.12,0.45,1.48c0.28,0.36,0.68,0.55,1.2,0.57c0.52,0.01,0.98-0.1,1.38-0.35
		s0.73-0.58,1.01-0.99l0.62-3.51c-0.14-0.44-0.36-0.79-0.68-1.05c-0.31-0.25-0.71-0.39-1.2-0.4c-0.72-0.02-1.32,0.24-1.8,0.8
		s-0.79,1.33-0.93,2.32L497.15,232.2z"/>
</g>
<g class="st3">
	<g>
		<path class="st0" d="M494.32,332.46c8.44,5.39,13.49,20.99,3.02,31.74"/>
		<g>
			<polygon class="st1" points="496.96,359.76 498.17,363.36 501.67,365.02 492.91,367.81 			"/>
		</g>
	</g>
</g>
<g class="st3">
	<path class="st2" d="M519.41,353.27c-0.44-0.01-0.85-0.1-1.24-0.27c-0.39-0.17-0.71-0.44-0.95-0.81l-0.71,3.81h-0.84l1.84-10.33
		h0.78l-0.2,1.05c0.67-0.82,1.5-1.22,2.5-1.19c0.72,0.02,1.28,0.28,1.68,0.78c0.4,0.5,0.61,1.21,0.62,2.13
		c0,0.29-0.01,0.57-0.04,0.84l-0.03,0.19c-0.12,0.81-0.34,1.5-0.67,2.08c-0.33,0.58-0.72,1.02-1.19,1.31
		C520.51,353.15,519.99,353.28,519.41,353.27z M522.02,349.28l0.04-0.65c0.01-0.74-0.12-1.31-0.41-1.73s-0.72-0.64-1.28-0.66
		c-0.5-0.01-0.95,0.11-1.35,0.35c-0.4,0.25-0.74,0.6-1.02,1.07l-0.63,3.59c0.15,0.42,0.39,0.74,0.72,0.96
		c0.33,0.22,0.72,0.34,1.18,0.35c0.68,0.02,1.26-0.22,1.74-0.75s0.79-1.25,0.96-2.18L522.02,349.28z"/>
	<path class="st2" d="M529.15,352.19c-0.61,0.75-1.45,1.1-2.52,1.08c-0.72-0.01-1.26-0.27-1.62-0.76c-0.35-0.49-0.48-1.18-0.38-2.06
		l0.82-4.78h0.84l-0.82,4.8c-0.03,0.25-0.03,0.49-0.01,0.74c0.03,0.42,0.16,0.75,0.39,0.98s0.54,0.35,0.93,0.37
		c0.57,0.02,1.09-0.1,1.57-0.38s0.79-0.64,0.93-1.09l0.95-5.41h0.85l-1.33,7.46h-0.82L529.15,352.19z"/>
	<path class="st2" d="M538.53,349.43c-0.17,1.19-0.55,2.13-1.17,2.83c-0.61,0.7-1.37,1.04-2.27,1.01c-0.5-0.01-0.94-0.12-1.32-0.32
		c-0.38-0.21-0.67-0.49-0.88-0.84l-0.24,1.02h-0.79l1.89-10.59h0.84l-0.8,4.21c0.66-0.84,1.49-1.25,2.49-1.22
		c0.73,0.02,1.3,0.28,1.69,0.79c0.4,0.51,0.6,1.22,0.62,2.12c0,0.29-0.01,0.58-0.04,0.85L538.53,349.43z M537.7,349.27l0.05-0.65
		c0.01-0.75-0.12-1.33-0.4-1.73c-0.28-0.41-0.71-0.62-1.27-0.64c-1.03-0.02-1.84,0.49-2.43,1.53l-0.58,3.37
		c0.14,0.45,0.37,0.79,0.71,1.03s0.74,0.37,1.22,0.38c0.7,0.01,1.29-0.25,1.77-0.8C537.23,351.22,537.54,350.39,537.7,349.27z"/>
	<path class="st2" d="M540.68,353.13h-0.85l1.89-10.59h0.85L540.68,353.13z"/>
	<path class="st2" d="M543.91,353.13h-0.85l1.34-7.46h0.84L543.91,353.13z M544.63,343.51c0.02-0.3,0.23-0.49,0.61-0.56
		c0.18,0.03,0.32,0.09,0.39,0.17s0.13,0.21,0.15,0.4c-0.05,0.17-0.12,0.3-0.21,0.38c-0.09,0.08-0.22,0.14-0.4,0.18
		C544.79,344.01,544.61,343.82,544.63,343.51z"/>
	<path class="st2" d="M551.03,351.18c0.08-0.63-0.32-1.09-1.19-1.38l-1.22-0.35c-1.12-0.37-1.65-0.98-1.59-1.84
		c0.03-0.62,0.33-1.13,0.88-1.51s1.22-0.58,1.98-0.57c0.75,0.01,1.36,0.22,1.83,0.62c0.47,0.4,0.68,0.94,0.65,1.61h-0.84
		c0.03-0.45-0.11-0.81-0.43-1.09c-0.31-0.28-0.73-0.42-1.25-0.43c-0.54,0-0.99,0.12-1.36,0.37s-0.58,0.57-0.62,0.98
		c-0.07,0.59,0.3,1.01,1.12,1.25l0.89,0.25l0.48,0.16c1.07,0.39,1.57,1.03,1.51,1.91c-0.04,0.6-0.3,1.09-0.8,1.47
		c-0.49,0.38-1.13,0.6-1.91,0.64l-0.29,0.01c-0.52-0.01-0.98-0.11-1.4-0.29c-0.41-0.19-0.73-0.45-0.96-0.78
		c-0.22-0.34-0.32-0.72-0.29-1.16l0.84,0.01c0,0.47,0.16,0.84,0.49,1.11s0.78,0.41,1.35,0.42c0.57,0,1.05-0.12,1.45-0.38
		C550.75,351.94,550.98,351.6,551.03,351.18z"/>
	<path class="st2" d="M555.28,346.93c0.74-0.95,1.61-1.42,2.61-1.4c0.74,0.02,1.27,0.27,1.61,0.75c0.33,0.48,0.45,1.15,0.35,1.99
		l-0.84,4.86h-0.84l0.84-4.86c0.03-0.26,0.03-0.51,0.01-0.76c-0.08-0.82-0.54-1.24-1.38-1.26c-0.5-0.01-0.96,0.13-1.39,0.43
		s-0.81,0.74-1.13,1.34l-0.91,5.11h-0.84l1.89-10.59h0.84L555.28,346.93z"/>
	<path class="st2" d="M564.22,353.26c-0.61-0.01-1.15-0.18-1.59-0.5s-0.78-0.77-0.99-1.32c-0.21-0.56-0.28-1.16-0.22-1.81l0.02-0.23
		c0.07-0.69,0.28-1.35,0.63-1.97s0.8-1.1,1.35-1.43c0.54-0.33,1.12-0.49,1.74-0.47c0.57,0.01,1.05,0.16,1.45,0.46
		s0.68,0.7,0.86,1.23s0.24,1.1,0.17,1.74l-0.06,0.5h-5.31l-0.02,0.17c-0.07,0.5-0.03,0.98,0.11,1.44c0.15,0.46,0.39,0.82,0.72,1.09
		c0.33,0.27,0.73,0.41,1.2,0.42c0.45,0.01,0.86-0.07,1.23-0.26c0.36-0.18,0.7-0.43,1.01-0.74l0.5,0.39
		c-0.34,0.43-0.75,0.76-1.23,0.98S564.79,353.27,564.22,353.26z M565.11,346.23c-0.61-0.02-1.16,0.19-1.65,0.63s-0.85,1.07-1.1,1.88
		l4.45,0.01l0.02-0.1c0.08-0.65-0.03-1.21-0.35-1.69C566.16,346.49,565.7,346.25,565.11,346.23z"/>
	<path class="st2" d="M568.86,349.37c0.11-0.78,0.33-1.47,0.66-2.08s0.74-1.05,1.22-1.35c0.48-0.29,1.02-0.43,1.61-0.42
		c0.45,0.01,0.87,0.11,1.24,0.31s0.67,0.49,0.89,0.89l0.78-4.19h0.84l-1.89,10.59h-0.79l0.19-0.99c-0.67,0.78-1.49,1.16-2.48,1.13
		c-0.71-0.02-1.27-0.29-1.68-0.81c-0.4-0.52-0.62-1.22-0.63-2.11c-0.01-0.28,0-0.56,0.04-0.83V349.37z M569.71,349.51
		c-0.04,0.31-0.05,0.63-0.04,0.98c0.02,0.63,0.17,1.12,0.45,1.48c0.28,0.36,0.68,0.55,1.2,0.57c0.52,0.01,0.98-0.1,1.38-0.35
		s0.73-0.58,1.01-0.99l0.62-3.51c-0.14-0.45-0.36-0.8-0.68-1.05c-0.31-0.25-0.71-0.39-1.2-0.4c-0.72-0.02-1.32,0.24-1.8,0.8
		s-0.79,1.33-0.93,2.32L569.71,349.51z"/>
</g>
<g>
	<polygon class="st5" points="379.65,97.18 409.16,147.58 379.65,197.79 320.63,197.79 291.12,147.53 320.63,97.5 	"/>
	<g>
		<path class="st6" d="M342.17,181.16l1.39-7.14h2.12l-2.29,10.04h-2.14l-1.68-6.72l-1.68,6.72h-2.14l-2.29-10.04h2.12l1.4,7.13
			l1.7-7.13h1.8L342.17,181.16z"/>
		<path class="st6" d="M346.15,180.25c0-0.74,0.15-1.4,0.44-1.98s0.71-1.03,1.26-1.35s1.19-0.48,1.92-0.48
			c1.03,0,1.88,0.31,2.53,0.92c0.65,0.62,1.02,1.45,1.09,2.51l0.01,0.51c0,1.15-0.33,2.06-0.98,2.76c-0.66,0.69-1.54,1.04-2.64,1.04
			c-1.11,0-1.99-0.34-2.65-1.03c-0.66-0.69-0.99-1.63-0.99-2.81L346.15,180.25L346.15,180.25z M348.2,180.4
			c0,0.71,0.14,1.25,0.41,1.63s0.67,0.56,1.18,0.56c0.5,0,0.88-0.18,1.16-0.56c0.28-0.37,0.42-0.96,0.42-1.78
			c0-0.7-0.14-1.23-0.42-1.62c-0.28-0.38-0.67-0.57-1.18-0.57c-0.5,0-0.89,0.19-1.16,0.57C348.33,179.01,348.2,179.6,348.2,180.4z"
			/>
		<path class="st6" d="M358.98,178.46c-0.28-0.04-0.52-0.06-0.74-0.06c-0.78,0-1.28,0.26-1.52,0.77v4.88h-2.05v-7.46h1.93l0.06,0.89
			c0.41-0.69,0.98-1.03,1.71-1.03c0.23,0,0.44,0.03,0.64,0.09L358.98,178.46z"/>
		<path class="st6" d="M362.75,181.06l-0.74,0.72v2.28h-2.05v-10.59h2.05v5.87l0.4-0.5l1.96-2.24h2.46l-2.77,3.11l3.01,4.35h-2.35
			L362.75,181.06z"/>
	</g>
	<path class="st1" d="M338.3,128.77c-2.02,0.56-3.63,2.05-4.3,3.99l-9.25,27.02l1.46,1.42l14.89-14.49c-0.3-0.6-0.48-1.27-0.48-1.99
		c0-2.56,2.13-4.63,4.76-4.63s4.76,2.08,4.76,4.63c0,2.56-2.13,4.63-4.76,4.63c-0.73,0-1.42-0.17-2.04-0.46l-14.89,14.49l1.46,1.42
		l27.76-9.01c1.99-0.65,3.53-2.21,4.1-4.18l4.24-14.62l-12.7-12.36L338.3,128.77z M374.14,122.54l-5.96-5.8
		c-1.86-1.81-4.88-1.81-6.74,0l-5.61,5.46l12.7,12.36l5.61-5.46C376,127.28,376,124.35,374.14,122.54z"/>
</g>
<g class="st3">
	<polygon class="st5" points="556.22,96 585.73,146.4 556.22,196.61 497.2,196.61 467.69,146.35 497.2,96.32 	"/>
	<g>
		<path class="st6" d="M518.73,179.98l1.39-7.14h2.12l-2.29,10.04h-2.14l-1.68-6.72l-1.68,6.72h-2.14l-2.29-10.04h2.12l1.4,7.13
			l1.7-7.13h1.8L518.73,179.98z"/>
		<path class="st6" d="M522.71,179.08c0-0.74,0.15-1.4,0.44-1.98s0.71-1.03,1.26-1.35s1.19-0.48,1.92-0.48
			c1.03,0,1.88,0.31,2.53,0.92c0.65,0.62,1.02,1.45,1.09,2.51l0.01,0.51c0,1.15-0.33,2.06-0.98,2.76c-0.66,0.69-1.54,1.04-2.64,1.04
			s-1.99-0.34-2.65-1.03c-0.66-0.69-0.99-1.63-0.99-2.81L522.71,179.08L522.71,179.08z M524.76,179.22c0,0.71,0.14,1.25,0.41,1.63
			c0.27,0.38,0.67,0.56,1.18,0.56c0.5,0,0.88-0.18,1.16-0.56c0.28-0.37,0.42-0.96,0.42-1.78c0-0.7-0.14-1.23-0.42-1.62
			s-0.67-0.57-1.18-0.57c-0.5,0-0.89,0.19-1.16,0.57C524.9,177.83,524.76,178.42,524.76,179.22z"/>
		<path class="st6" d="M535.55,177.29c-0.28-0.04-0.52-0.06-0.74-0.06c-0.78,0-1.28,0.26-1.52,0.77v4.88h-2.05v-7.46h1.93l0.06,0.89
			c0.41-0.68,0.98-1.03,1.71-1.03c0.23,0,0.44,0.03,0.64,0.09L535.55,177.29z"/>
		<path class="st6" d="M539.32,179.89l-0.74,0.72v2.28h-2.05V172.3h2.05v5.87l0.4-0.5l1.96-2.24h2.46l-2.77,3.11l3.01,4.35h-2.35
			L539.32,179.89z"/>
	</g>
	<path class="st1" d="M514.86,127.6c-2.02,0.56-3.63,2.05-4.3,3.99l-9.25,27.02l1.46,1.42l14.89-14.49c-0.3-0.6-0.48-1.27-0.48-1.99
		c0-2.56,2.13-4.63,4.76-4.63s4.76,2.08,4.76,4.63c0,2.56-2.13,4.63-4.76,4.63c-0.73,0-1.42-0.17-2.04-0.46l-14.89,14.49l1.46,1.42
		l27.76-9.01c1.99-0.65,3.53-2.21,4.1-4.18l4.24-14.62l-12.7-12.36L514.86,127.6z M550.71,121.36l-5.96-5.8
		c-1.86-1.81-4.88-1.81-6.74,0l-5.61,5.46l12.7,12.36l5.61-5.46C552.57,126.11,552.57,123.17,550.71,121.36z"/>
</g>
<g>
	<polygon class="st5" points="291.37,46.57 320.88,96.97 291.37,147.18 232.35,147.18 202.84,96.92 232.35,46.89 	"/>
	<g>
		<path class="st6" d="M246.44,131.38h-3.73l-0.71,2.07h-2.26l3.84-10.04h1.97l3.86,10.04h-2.26L246.44,131.38z M243.29,129.7h2.58
			l-1.3-3.76L243.29,129.7z"/>
		<path class="st6" d="M254.76,132.69c-0.51,0.6-1.2,0.9-2.1,0.9c-0.82,0-1.45-0.23-1.88-0.69s-0.65-1.13-0.66-2.02v-4.89h2.05v4.83
			c0,0.78,0.36,1.17,1.09,1.17c0.69,0,1.17-0.23,1.43-0.71v-5.29h2.05v7.46h-1.93L254.76,132.69z"/>
		<path class="st6" d="M260.74,124.15v1.83h1.31v1.46h-1.31v3.72c0,0.28,0.05,0.47,0.16,0.59s0.32,0.18,0.62,0.18
			c0.23,0,0.43-0.02,0.6-0.05v1.51c-0.4,0.12-0.82,0.18-1.24,0.18c-1.44,0-2.17-0.71-2.2-2.12v-4.02h-1.12v-1.46h1.12v-1.83
			L260.74,124.15L260.74,124.15z"/>
		<path class="st6" d="M265.19,126.8c0.54-0.63,1.23-0.95,2.05-0.95c1.66,0,2.51,0.94,2.53,2.82v4.78h-2.05v-4.72
			c0-0.43-0.09-0.74-0.28-0.95c-0.19-0.2-0.5-0.31-0.94-0.31c-0.6,0-1.03,0.22-1.3,0.68v5.3h-2.05v-10.6h2.05L265.19,126.8
			L265.19,126.8z"/>
		<path class="st6" d="M270.99,129.64c0-0.74,0.15-1.4,0.44-1.98s0.72-1.03,1.27-1.35c0.55-0.32,1.19-0.48,1.92-0.48
			c1.03,0,1.88,0.31,2.53,0.92c0.65,0.62,1.02,1.45,1.09,2.51l0.01,0.51c0,1.15-0.33,2.06-0.98,2.76c-0.66,0.69-1.54,1.04-2.64,1.04
			s-1.99-0.34-2.65-1.03c-0.66-0.69-0.99-1.63-0.99-2.81L270.99,129.64z M273.04,129.79c0,0.71,0.14,1.25,0.41,1.63
			c0.27,0.38,0.67,0.56,1.18,0.56c0.5,0,0.88-0.18,1.16-0.56c0.28-0.37,0.42-0.96,0.42-1.78c0-0.7-0.14-1.23-0.42-1.62
			c-0.28-0.38-0.67-0.57-1.18-0.57c-0.5,0-0.89,0.19-1.16,0.57S273.04,128.99,273.04,129.79z"/>
		<path class="st6" d="M283.83,127.85c-0.28-0.04-0.52-0.06-0.74-0.06c-0.78,0-1.28,0.26-1.52,0.77v4.88h-2.05v-7.46h1.93l0.06,0.89
			c0.41-0.69,0.98-1.03,1.71-1.03c0.23,0,0.44,0.03,0.64,0.09L283.83,127.85z"/>
	</g>
	<path class="st1" d="M261.86,89.14c7.01,0,12.7-5.53,12.7-12.36s-5.68-12.36-12.7-12.36c-7.02,0-12.7,5.53-12.7,12.36
		S254.84,89.14,261.86,89.14z M270.75,92.23h-1.66c-2.2,0.99-4.65,1.54-7.23,1.54c-2.58,0-5.02-0.56-7.23-1.54h-1.66
		c-7.36,0-13.33,5.81-13.33,12.98v4.02c0,2.56,2.13,4.63,4.76,4.63h34.92c2.63,0,4.76-2.08,4.76-4.63v-4.02
		C284.08,98.05,278.11,92.23,270.75,92.23z"/>
</g>
<g class="st3">
	<polygon class="st5" points="467.93,46.57 497.44,96.97 467.93,147.18 408.92,147.18 379.41,96.92 408.92,46.89 	"/>
	<g>
		<path class="st6" d="M423.01,131.38h-3.73l-0.71,2.07h-2.26l3.84-10.04h1.97l3.86,10.04h-2.26L423.01,131.38z M419.85,129.7h2.58
			l-1.3-3.76L419.85,129.7z"/>
		<path class="st6" d="M431.32,132.69c-0.51,0.6-1.2,0.9-2.1,0.9c-0.82,0-1.45-0.23-1.88-0.69s-0.65-1.13-0.66-2.02v-4.89h2.05v4.83
			c0,0.78,0.36,1.17,1.09,1.17c0.69,0,1.17-0.23,1.43-0.71v-5.29h2.05v7.46h-1.93L431.32,132.69z"/>
		<path class="st6" d="M437.3,124.15v1.83h1.32v1.46h-1.31v3.72c0,0.28,0.05,0.47,0.16,0.59s0.32,0.18,0.62,0.18
			c0.23,0,0.43-0.02,0.6-0.05v1.51c-0.4,0.12-0.82,0.18-1.24,0.18c-1.44,0-2.17-0.71-2.2-2.12v-4.02h-1.12v-1.46h1.12v-1.83
			L437.3,124.15L437.3,124.15z"/>
		<path class="st6" d="M441.76,126.8c0.54-0.63,1.23-0.95,2.05-0.95c1.66,0,2.51,0.94,2.53,2.82v4.78h-2.05v-4.72
			c0-0.43-0.09-0.74-0.28-0.95c-0.19-0.2-0.5-0.31-0.94-0.31c-0.6,0-1.03,0.22-1.3,0.68v5.3h-2.05v-10.6h2.05L441.76,126.8
			L441.76,126.8z"/>
		<path class="st6" d="M447.56,129.64c0-0.74,0.15-1.4,0.44-1.98s0.72-1.03,1.27-1.35c0.55-0.32,1.19-0.48,1.92-0.48
			c1.03,0,1.88,0.31,2.53,0.92c0.65,0.62,1.02,1.45,1.09,2.51l0.01,0.51c0,1.15-0.33,2.06-0.98,2.76c-0.66,0.69-1.54,1.04-2.64,1.04
			s-1.99-0.34-2.65-1.03c-0.66-0.69-0.99-1.63-0.99-2.81L447.56,129.64L447.56,129.64z M449.61,129.79c0,0.71,0.14,1.25,0.41,1.63
			s0.67,0.56,1.18,0.56c0.5,0,0.88-0.18,1.16-0.56c0.28-0.37,0.42-0.96,0.42-1.78c0-0.7-0.14-1.23-0.42-1.62
			c-0.28-0.38-0.67-0.57-1.18-0.57c-0.5,0-0.89,0.19-1.16,0.57S449.61,128.99,449.61,129.79z"/>
		<path class="st6" d="M460.39,127.85c-0.28-0.04-0.52-0.06-0.74-0.06c-0.78,0-1.28,0.26-1.52,0.77v4.88h-2.05v-7.46h1.93l0.06,0.89
			c0.41-0.69,0.98-1.03,1.71-1.03c0.23,0,0.44,0.03,0.64,0.09L460.39,127.85z"/>
	</g>
	<path class="st1" d="M438.42,89.14c7.01,0,12.7-5.53,12.7-12.36s-5.68-12.36-12.7-12.36s-12.7,5.53-12.7,12.36
		C425.73,83.61,431.41,89.14,438.42,89.14z M447.31,92.23h-1.66c-2.2,0.99-4.65,1.54-7.23,1.54c-2.58,0-5.02-0.56-7.23-1.54h-1.66
		c-7.36,0-13.33,5.81-13.33,12.98v4.02c0,2.56,2.13,4.63,4.76,4.63h34.92c2.63,0,4.76-2.08,4.76-4.63v-4.02
		C460.65,98.05,454.67,92.23,447.31,92.23z"/>
</g>
<g>
	<polygon class="st5" points="379.65,197.22 409.16,247.62 379.65,297.83 320.63,297.83 291.12,247.57 320.63,197.54 	"/>
	<g>
		<path class="st6" d="M334.7,279.75h-4.08v2.69h4.79v1.66h-6.92v-10.04h6.9v1.68h-4.77v2.39h4.08V279.75z"/>
		<path class="st6" d="M336.07,280.31c0-1.16,0.27-2.09,0.81-2.78s1.27-1.03,2.2-1.03c0.75,0,1.36,0.27,1.85,0.81v-3.81h2.05v10.59
			h-1.85l-0.1-0.79c-0.51,0.62-1.17,0.93-1.97,0.93c-0.9,0-1.63-0.35-2.17-1.04C336.34,282.51,336.07,281.55,336.07,280.31z
			 M338.12,280.46c0,0.7,0.13,1.24,0.38,1.61s0.61,0.56,1.09,0.56c0.63,0,1.08-0.26,1.34-0.78v-2.95c-0.26-0.52-0.7-0.78-1.33-0.78
			C338.61,278.12,338.12,278.9,338.12,280.46z"/>
		<path class="st6" d="M344.55,274.71c0-0.3,0.1-0.54,0.31-0.74s0.48-0.29,0.84-0.29c0.35,0,0.63,0.1,0.84,0.29s0.31,0.44,0.31,0.74
			s-0.1,0.55-0.31,0.75s-0.49,0.29-0.83,0.29s-0.62-0.1-0.83-0.29S344.55,275.01,344.55,274.71z M346.73,284.1h-2.05v-7.46h2.05
			V284.1z"/>
		<path class="st6" d="M350.86,274.8v1.83h1.31v1.46h-1.31v3.72c0,0.28,0.05,0.47,0.16,0.59s0.32,0.18,0.62,0.18
			c0.23,0,0.43-0.02,0.6-0.05v1.51c-0.4,0.12-0.82,0.18-1.24,0.18c-1.44,0-2.17-0.71-2.2-2.12v-4.02h-1.12v-1.46h1.12v-1.83
			L350.86,274.8L350.86,274.8z"/>
		<path class="st6" d="M353.3,274.71c0-0.3,0.1-0.54,0.31-0.74c0.21-0.19,0.48-0.29,0.84-0.29c0.35,0,0.63,0.1,0.84,0.29
			s0.31,0.44,0.31,0.74s-0.1,0.55-0.31,0.75c-0.21,0.19-0.49,0.29-0.83,0.29s-0.62-0.1-0.83-0.29
			C353.41,275.26,353.3,275.01,353.3,274.71z M355.48,284.1h-2.05v-7.46h2.05V284.1z"/>
		<path class="st6" d="M356.84,280.3c0-0.74,0.15-1.4,0.44-1.98c0.29-0.58,0.72-1.03,1.27-1.35c0.55-0.32,1.19-0.48,1.92-0.48
			c1.03,0,1.88,0.31,2.53,0.92c0.65,0.62,1.02,1.45,1.09,2.51l0.01,0.51c0,1.15-0.33,2.06-0.98,2.76c-0.66,0.69-1.54,1.04-2.64,1.04
			s-1.99-0.34-2.65-1.03c-0.66-0.69-0.99-1.63-0.99-2.81L356.84,280.3L356.84,280.3z M358.89,280.44c0,0.71,0.14,1.25,0.41,1.63
			s0.67,0.56,1.18,0.56c0.5,0,0.88-0.18,1.16-0.56c0.28-0.37,0.42-0.96,0.42-1.78c0-0.7-0.14-1.23-0.42-1.62
			c-0.28-0.38-0.67-0.57-1.18-0.57c-0.5,0-0.89,0.19-1.16,0.57C359.03,279.05,358.89,279.64,358.89,280.44z"/>
		<path class="st6" d="M367.26,276.64l0.06,0.86c0.55-0.67,1.28-1,2.2-1c0.81,0,1.42,0.23,1.81,0.7s0.6,1.16,0.61,2.08v4.82h-2.05
			v-4.77c0-0.42-0.09-0.73-0.28-0.92s-0.5-0.29-0.94-0.29c-0.58,0-1.01,0.24-1.3,0.72v5.26h-2.05v-7.46H367.26L367.26,276.64z"/>
	</g>
	<path class="st1" d="M372.36,250.23v-32.44c0-1.29-1.06-2.32-2.38-2.32h-32.54c-5.26,0-9.52,4.15-9.52,9.27v30.9
		c0,5.12,4.27,9.27,9.52,9.27h32.54c1.32,0,2.38-1.03,2.38-2.32v-1.54c0-0.72-0.35-1.38-0.88-1.81c-0.42-1.49-0.42-5.72,0-7.21
		C372.02,251.61,372.36,250.96,372.36,250.23L372.36,250.23z M340.62,228.41c0-0.32,0.27-0.58,0.6-0.58h21.03
		c0.33,0,0.6,0.26,0.6,0.58v1.93c0,0.32-0.27,0.58-0.6,0.58h-21.03c-0.33,0-0.6-0.26-0.6-0.58V228.41z M340.62,234.59
		c0-0.32,0.27-0.58,0.6-0.58h21.03c0.33,0,0.6,0.26,0.6,0.58v1.93c0,0.32-0.27,0.58-0.6,0.58h-21.03c-0.33,0-0.6-0.26-0.6-0.58
		V234.59z M365.76,258.73h-28.31c-1.75,0-3.17-1.38-3.17-3.09c0-1.7,1.43-3.09,3.17-3.09h28.31
		C365.57,254.2,365.57,257.08,365.76,258.73z"/>
</g>
<g class="st3">
	<polygon class="st5" points="467.93,346.7 497.44,397.1 467.93,447.31 408.92,447.31 379.41,397.05 408.92,347.02 	"/>
	<g>
		<g>
			<path class="st6" d="M422.98,422.16h-4.08v2.69h4.79v1.66h-6.92v-10.04h6.9v1.68h-4.78v2.39h4.08v1.62H422.98z"/>
			<path class="st6" d="M424.35,422.73c0-1.16,0.27-2.09,0.81-2.78s1.27-1.03,2.2-1.03c0.75,0,1.36,0.27,1.85,0.81v-3.81h2.05v10.59
				h-1.85l-0.1-0.79c-0.51,0.62-1.17,0.93-1.97,0.93c-0.9,0-1.63-0.35-2.17-1.04C424.62,424.92,424.35,423.96,424.35,422.73z
				 M426.4,422.88c0,0.7,0.13,1.24,0.38,1.61s0.61,0.56,1.09,0.56c0.63,0,1.08-0.26,1.34-0.78v-2.95c-0.26-0.52-0.7-0.78-1.33-0.78
				C426.89,420.54,426.4,421.31,426.4,422.88z"/>
			<path class="st6" d="M432.83,417.12c0-0.3,0.1-0.54,0.31-0.74c0.21-0.19,0.48-0.29,0.84-0.29c0.35,0,0.63,0.1,0.84,0.29
				s0.31,0.44,0.31,0.74s-0.1,0.55-0.31,0.74s-0.49,0.29-0.83,0.29s-0.62-0.1-0.83-0.29C432.94,417.67,432.83,417.43,432.83,417.12z
				 M435.01,426.51h-2.05v-7.46h2.05V426.51z"/>
			<path class="st6" d="M439.15,417.22v1.83h1.31v1.46h-1.31v3.72c0,0.28,0.05,0.47,0.16,0.59s0.32,0.18,0.62,0.18
				c0.23,0,0.43-0.02,0.6-0.05v1.51c-0.4,0.12-0.82,0.18-1.24,0.18c-1.44,0-2.17-0.71-2.2-2.12v-4.02h-1.12v-1.46h1.12v-1.83
				L439.15,417.22L439.15,417.22z"/>
			<path class="st6" d="M441.58,417.12c0-0.3,0.1-0.54,0.31-0.74c0.21-0.19,0.48-0.29,0.84-0.29c0.35,0,0.63,0.1,0.84,0.29
				s0.31,0.44,0.31,0.74s-0.1,0.55-0.31,0.74s-0.49,0.29-0.83,0.29s-0.62-0.1-0.83-0.29C441.69,417.67,441.58,417.43,441.58,417.12z
				 M443.76,426.51h-2.05v-7.46h2.05V426.51z"/>
			<path class="st6" d="M445.13,422.72c0-0.74,0.15-1.4,0.44-1.98s0.72-1.03,1.27-1.35c0.55-0.32,1.19-0.48,1.92-0.48
				c1.03,0,1.88,0.31,2.53,0.92c0.65,0.62,1.02,1.45,1.09,2.51l0.01,0.51c0,1.15-0.33,2.06-0.98,2.75
				c-0.66,0.69-1.54,1.04-2.64,1.04c-1.11,0-1.99-0.34-2.65-1.03c-0.66-0.69-0.99-1.63-0.99-2.81L445.13,422.72L445.13,422.72z
				 M447.18,422.86c0,0.71,0.14,1.25,0.41,1.63c0.27,0.38,0.67,0.56,1.18,0.56c0.5,0,0.88-0.19,1.16-0.56
				c0.28-0.37,0.42-0.96,0.42-1.78c0-0.69-0.14-1.23-0.42-1.62c-0.28-0.38-0.67-0.57-1.18-0.57c-0.5,0-0.89,0.19-1.16,0.57
				C447.31,421.47,447.18,422.06,447.18,422.86z"/>
			<path class="st6" d="M455.54,419.05l0.06,0.86c0.55-0.67,1.28-1,2.2-1c0.81,0,1.42,0.23,1.81,0.7c0.4,0.46,0.6,1.16,0.61,2.08
				v4.82h-2.05v-4.77c0-0.42-0.09-0.73-0.28-0.92s-0.5-0.28-0.94-0.28c-0.58,0-1.01,0.24-1.3,0.72v5.26h-2.05v-7.46L455.54,419.05
				L455.54,419.05z"/>
			<path class="st6" d="M411.3,435.38c0-1.05,0.14-2.06,0.43-3.01s0.71-1.79,1.28-2.53c0.56-0.73,1.17-1.24,1.83-1.53l0.4,1.08
				c-0.69,0.5-1.23,1.26-1.62,2.3s-0.58,2.25-0.58,3.64v0.22c0,1.39,0.19,2.61,0.57,3.65s0.92,1.82,1.62,2.34l-0.4,1.05
				c-0.64-0.28-1.24-0.78-1.8-1.49s-0.98-1.53-1.27-2.46c-0.29-0.93-0.45-1.9-0.47-2.91L411.3,435.38L411.3,435.38z"/>
			<path class="st6" d="M419.83,439.6c-1.12,0-2.04-0.34-2.75-1.01s-1.06-1.57-1.06-2.68v-0.19c0-0.75,0.15-1.42,0.45-2.01
				s0.72-1.05,1.26-1.37c0.55-0.32,1.17-0.48,1.87-0.48c1.05,0,1.87,0.32,2.48,0.97c0.6,0.64,0.9,1.56,0.9,2.74v0.81h-4.88
				c0.07,0.49,0.26,0.88,0.6,1.17s0.76,0.44,1.27,0.44c0.79,0,1.41-0.28,1.85-0.83l1.01,1.1c-0.31,0.42-0.72,0.75-1.25,0.99
				C421.05,439.48,420.47,439.6,419.83,439.6z M419.59,433.47c-0.41,0-0.74,0.13-0.99,0.4s-0.41,0.65-0.48,1.15h2.85v-0.16
				c-0.01-0.44-0.13-0.79-0.37-1.03S420.03,433.47,419.59,433.47z"/>
			<path class="st6" d="M428.13,435.97h-3.99v-1.61h3.99V435.97z"/>
			<path class="st6" d="M436.68,435.8c0,1.2-0.26,2.13-0.79,2.8c-0.52,0.67-1.26,1.01-2.2,1.01c-0.83,0-1.49-0.31-1.99-0.93
				l-0.09,0.79h-1.84v-10.59h2.05v3.8c0.47-0.54,1.09-0.81,1.86-0.81c0.93,0,1.67,0.33,2.2,1s0.8,1.61,0.8,2.82L436.68,435.8
				L436.68,435.8z M434.63,435.65c0-0.75-0.12-1.31-0.37-1.65c-0.25-0.35-0.61-0.52-1.1-0.52c-0.65,0-1.1,0.26-1.35,0.78v2.94
				c0.25,0.52,0.7,0.79,1.36,0.79s1.1-0.32,1.3-0.95C434.58,436.74,434.63,436.28,434.63,435.65z"/>
			<path class="st6" d="M437.62,435.66c0-0.74,0.15-1.4,0.44-1.98c0.29-0.58,0.71-1.03,1.26-1.35s1.19-0.48,1.92-0.48
				c1.03,0,1.88,0.31,2.53,0.92c0.65,0.62,1.02,1.45,1.1,2.51l0.01,0.51c0,1.15-0.33,2.06-0.98,2.75c-0.66,0.69-1.54,1.04-2.64,1.04
				s-1.99-0.34-2.65-1.03c-0.66-0.69-0.99-1.63-0.99-2.81V435.66L437.62,435.66z M439.67,435.8c0,0.71,0.14,1.25,0.41,1.63
				c0.27,0.38,0.67,0.56,1.18,0.56c0.5,0,0.88-0.19,1.16-0.56c0.28-0.37,0.42-0.96,0.42-1.78c0-0.69-0.14-1.23-0.42-1.62
				c-0.28-0.38-0.67-0.57-1.18-0.57c-0.5,0-0.89,0.19-1.16,0.57C439.81,434.42,439.67,435.01,439.67,435.8z"/>
			<path class="st6" d="M445.83,435.66c0-0.74,0.15-1.4,0.44-1.98c0.29-0.58,0.71-1.03,1.26-1.35s1.19-0.48,1.92-0.48
				c1.03,0,1.88,0.31,2.53,0.92c0.65,0.62,1.02,1.45,1.1,2.51l0.01,0.51c0,1.15-0.33,2.06-0.98,2.75c-0.66,0.69-1.54,1.04-2.64,1.04
				s-1.99-0.34-2.65-1.03c-0.66-0.69-0.99-1.63-0.99-2.81V435.66L445.83,435.66z M447.88,435.8c0,0.71,0.14,1.25,0.41,1.63
				c0.27,0.38,0.67,0.56,1.18,0.56c0.5,0,0.88-0.19,1.16-0.56c0.28-0.37,0.42-0.96,0.42-1.78c0-0.69-0.14-1.23-0.42-1.62
				c-0.28-0.38-0.67-0.57-1.18-0.57c-0.5,0-0.89,0.19-1.16,0.57C448.01,434.42,447.88,435.01,447.88,435.8z"/>
			<path class="st6" d="M457.14,436.47l-0.74,0.72v2.28h-2.05v-10.59h2.05v5.87l0.4-0.5l1.96-2.24h2.46l-2.77,3.11l3.01,4.35h-2.35
				L457.14,436.47z"/>
			<path class="st6" d="M465.63,435.54c0,1.04-0.15,2.04-0.46,3s-0.75,1.81-1.33,2.54c-0.58,0.74-1.19,1.24-1.85,1.52l-0.4-1.05
				c0.67-0.49,1.2-1.25,1.59-2.28s0.59-2.2,0.6-3.54v-0.37c0-1.37-0.19-2.59-0.58-3.63s-0.92-1.83-1.61-2.36l0.4-1.05
				c0.64,0.27,1.25,0.76,1.82,1.48c0.57,0.71,1.01,1.54,1.33,2.49c0.31,0.95,0.48,1.93,0.49,2.94V435.54L465.63,435.54z"/>
		</g>
	</g>
	<path class="st1" d="M460.65,395v-32.44c0-1.29-1.06-2.32-2.38-2.32h-32.54c-5.26,0-9.52,4.15-9.52,9.27v30.9
		c0,5.12,4.27,9.27,9.52,9.27h32.54c1.32,0,2.38-1.03,2.38-2.32v-1.54c0-0.72-0.35-1.38-0.88-1.81c-0.42-1.49-0.42-5.72,0-7.21
		C460.3,396.38,460.65,395.73,460.65,395L460.65,395z M428.9,373.18c0-0.32,0.27-0.58,0.59-0.58h21.03c0.33,0,0.59,0.26,0.59,0.58
		v1.93c0,0.32-0.27,0.58-0.59,0.58h-21.03c-0.33,0-0.59-0.26-0.59-0.58V373.18z M428.9,379.36c0-0.32,0.27-0.58,0.59-0.58h21.03
		c0.33,0,0.59,0.26,0.59,0.58v1.93c0,0.32-0.27,0.58-0.59,0.58h-21.03c-0.33,0-0.59-0.26-0.59-0.58V379.36z M454.04,403.5h-28.31
		c-1.75,0-3.17-1.38-3.17-3.09c0-1.7,1.43-3.09,3.17-3.09h28.31C453.85,398.97,453.85,401.85,454.04,403.5z"/>
</g>
<g>
	<polygon class="st5" points="379.65,297.27 409.16,347.67 379.65,397.87 320.63,397.87 291.12,347.62 320.63,297.58 	"/>
	<g>
		<path class="st6" d="M334.7,372.73h-4.08v2.69h4.79v1.66h-6.92v-10.04h6.9v1.68h-4.77v2.39h4.08V372.73z"/>
		<path class="st6" d="M336.07,373.29c0-1.16,0.27-2.09,0.81-2.78s1.27-1.03,2.2-1.03c0.75,0,1.36,0.27,1.85,0.81v-3.81h2.05v10.59
			h-1.85l-0.1-0.79c-0.51,0.62-1.17,0.93-1.97,0.93c-0.9,0-1.63-0.35-2.17-1.04C336.34,375.49,336.07,374.53,336.07,373.29z
			 M338.12,373.44c0,0.7,0.13,1.24,0.38,1.61s0.61,0.56,1.09,0.56c0.63,0,1.08-0.26,1.34-0.78v-2.95c-0.26-0.52-0.7-0.78-1.33-0.78
			C338.61,371.1,338.12,371.88,338.12,373.44z"/>
		<path class="st6" d="M344.55,367.69c0-0.3,0.1-0.54,0.31-0.74s0.48-0.29,0.84-0.29c0.35,0,0.63,0.1,0.84,0.29s0.31,0.44,0.31,0.74
			s-0.1,0.55-0.31,0.75c-0.21,0.19-0.49,0.29-0.83,0.29s-0.62-0.1-0.83-0.29C344.66,368.24,344.55,367.99,344.55,367.69z
			 M346.73,377.08h-2.05v-7.46h2.05V377.08z"/>
		<path class="st6" d="M350.86,367.79v1.83h1.31v1.46h-1.31v3.72c0,0.28,0.05,0.47,0.16,0.59s0.32,0.18,0.62,0.18
			c0.23,0,0.43-0.02,0.6-0.05v1.51c-0.4,0.12-0.82,0.18-1.24,0.18c-1.44,0-2.17-0.71-2.2-2.12v-4.02h-1.12v-1.46h1.12v-1.83
			L350.86,367.79L350.86,367.79z"/>
		<path class="st6" d="M353.3,367.69c0-0.3,0.1-0.54,0.31-0.74c0.21-0.19,0.48-0.29,0.84-0.29c0.35,0,0.63,0.1,0.84,0.29
			s0.31,0.44,0.31,0.74s-0.1,0.55-0.31,0.75c-0.21,0.19-0.49,0.29-0.83,0.29s-0.62-0.1-0.83-0.29
			C353.41,368.24,353.3,367.99,353.3,367.69z M355.48,377.08h-2.05v-7.46h2.05V377.08z"/>
		<path class="st6" d="M356.84,373.28c0-0.74,0.15-1.4,0.44-1.98c0.29-0.58,0.72-1.03,1.27-1.35c0.55-0.32,1.19-0.48,1.92-0.48
			c1.03,0,1.88,0.31,2.53,0.92c0.65,0.62,1.02,1.45,1.09,2.51l0.01,0.51c0,1.15-0.33,2.06-0.98,2.75c-0.66,0.69-1.54,1.04-2.64,1.04
			s-1.99-0.34-2.65-1.03c-0.66-0.69-0.99-1.63-0.99-2.81L356.84,373.28L356.84,373.28z M358.89,373.42c0,0.71,0.14,1.25,0.41,1.63
			c0.27,0.38,0.67,0.56,1.18,0.56c0.5,0,0.88-0.19,1.16-0.56c0.28-0.37,0.42-0.96,0.42-1.78c0-0.69-0.14-1.23-0.42-1.62
			c-0.28-0.38-0.67-0.57-1.18-0.57c-0.5,0-0.89,0.19-1.16,0.57C359.03,372.04,358.89,372.63,358.89,373.42z"/>
		<path class="st6" d="M367.26,369.62l0.06,0.86c0.55-0.67,1.28-1,2.2-1c0.81,0,1.42,0.23,1.81,0.7s0.6,1.16,0.61,2.08v4.82h-2.05
			v-4.77c0-0.42-0.09-0.73-0.28-0.92s-0.5-0.28-0.94-0.28c-0.58,0-1.01,0.24-1.3,0.72v5.26h-2.05v-7.46L367.26,369.62L367.26,369.62
			z"/>
		<path class="st6" d="M339.52,388.76c-0.38,0.45-0.92,0.79-1.62,1.04s-1.47,0.37-2.32,0.37c-0.89,0-1.68-0.19-2.35-0.57
			s-1.19-0.93-1.56-1.65s-0.55-1.57-0.56-2.54v-0.68c0-1,0.17-1.87,0.52-2.6c0.35-0.73,0.85-1.29,1.5-1.68s1.42-0.58,2.3-0.58
			c1.22,0,2.18,0.28,2.87,0.85s1.1,1.4,1.23,2.48h-2.07c-0.09-0.57-0.3-1-0.63-1.26c-0.32-0.27-0.77-0.4-1.34-0.4
			c-0.72,0-1.27,0.26-1.65,0.79s-0.57,1.31-0.57,2.36v0.64c0,1.05,0.21,1.85,0.62,2.39s1.01,0.81,1.81,0.81s1.37-0.17,1.71-0.5
			v-1.73h-1.93v-1.52h4.06L339.52,388.76L339.52,388.76z"/>
		<path class="st6" d="M345.41,384.43c-0.28-0.04-0.52-0.06-0.74-0.06c-0.78,0-1.28,0.26-1.52,0.77v4.88h-2.05v-7.46h1.93l0.06,0.89
			c0.41-0.68,0.98-1.03,1.71-1.03c0.23,0,0.44,0.03,0.64,0.09L345.41,384.43z"/>
		<path class="st6" d="M345.82,386.23c0-0.74,0.15-1.4,0.44-1.98c0.29-0.58,0.71-1.03,1.26-1.35s1.19-0.48,1.92-0.48
			c1.03,0,1.88,0.31,2.53,0.92c0.65,0.62,1.02,1.45,1.1,2.51l0.01,0.51c0,1.15-0.33,2.06-0.98,2.75c-0.66,0.69-1.54,1.04-2.64,1.04
			s-1.99-0.34-2.65-1.03s-0.99-1.63-0.99-2.81V386.23L345.82,386.23z M347.87,386.37c0,0.71,0.14,1.25,0.41,1.63
			c0.27,0.38,0.67,0.56,1.18,0.56c0.5,0,0.88-0.19,1.16-0.56c0.28-0.37,0.42-0.96,0.42-1.78c0-0.69-0.14-1.23-0.42-1.62
			c-0.28-0.38-0.67-0.57-1.18-0.57c-0.5,0-0.89,0.19-1.16,0.57S347.87,385.57,347.87,386.37z"/>
		<path class="st6" d="M358.94,389.27c-0.51,0.6-1.2,0.9-2.1,0.9c-0.82,0-1.45-0.23-1.88-0.69s-0.65-1.13-0.66-2.02v-4.89h2.05v4.83
			c0,0.78,0.36,1.17,1.09,1.17c0.69,0,1.17-0.23,1.43-0.71v-5.29h2.05v7.46h-1.93L358.94,389.27z"/>
		<path class="st6" d="M369.37,386.37c0,1.15-0.27,2.07-0.81,2.76s-1.26,1.04-2.17,1.04c-0.78,0-1.4-0.26-1.88-0.79v3.52h-2.05
			v-10.33h1.9l0.07,0.73c0.5-0.58,1.14-0.87,1.94-0.87c0.94,0,1.68,0.34,2.2,1.02s0.79,1.62,0.79,2.81L369.37,386.37L369.37,386.37z
			 M367.32,386.22c0-0.69-0.13-1.23-0.38-1.61s-0.62-0.56-1.1-0.56c-0.64,0-1.08,0.24-1.33,0.72v3.06c0.25,0.49,0.7,0.74,1.34,0.74
			C366.83,388.56,367.32,387.78,367.32,386.22z"/>
	</g>
	<path class="st1" d="M375.54,315.84v27.81c0,2.56-2.13,4.63-4.76,4.63h-4.76V328.2c0-4.26-3.56-7.72-7.94-7.72h-20.63v-4.63
		c0-2.56,2.13-4.63,4.76-4.63h28.57C373.4,311.2,375.54,313.28,375.54,315.84z M362.84,328.19V356c0,2.56-2.13,4.63-4.76,4.63
		h-28.57c-2.63,0-4.76-2.08-4.76-4.63v-27.81c0-2.56,2.13-4.63,4.76-4.63h28.57C360.71,323.56,362.84,325.64,362.84,328.19z
		 M356.09,330.9c0-0.64-0.54-1.16-1.19-1.16h-22.62c-0.65,0-1.19,0.52-1.19,1.16v5.02h25V330.9L356.09,330.9z"/>
</g>
<g>
	<polygon class="st5" points="467.93,247.83 497.44,298.23 467.93,348.44 408.92,348.44 379.41,298.19 408.92,248.15 	"/>
	<g>
		<path class="st6" d="M410.44,331.17v3.54h-2.13v-10.04h4.02c0.78,0,1.45,0.14,2.04,0.41c0.59,0.28,1.04,0.67,1.36,1.17
			c0.32,0.51,0.48,1.09,0.48,1.74c0,0.98-0.35,1.76-1.04,2.33c-0.69,0.57-1.65,0.85-2.87,0.85H410.44L410.44,331.17z M410.44,329.5
			h1.9c0.56,0,0.99-0.13,1.28-0.39c0.3-0.26,0.44-0.62,0.44-1.1c0-0.49-0.15-0.89-0.45-1.19s-0.71-0.46-1.23-0.47h-1.95
			L410.44,329.5L410.44,329.5z"/>
		<path class="st6" d="M422.13,333.95c-0.51,0.6-1.2,0.9-2.1,0.9c-0.82,0-1.45-0.23-1.88-0.69s-0.65-1.13-0.66-2.02v-4.89h2.05v4.83
			c0,0.78,0.36,1.17,1.09,1.17c0.69,0,1.17-0.23,1.43-0.71v-5.29h2.05v7.46h-1.93L422.13,333.95z"/>
		<path class="st6" d="M432.57,331.05c0,1.2-0.26,2.13-0.79,2.8c-0.52,0.67-1.26,1.01-2.2,1.01c-0.83,0-1.49-0.31-1.99-0.93
			l-0.09,0.79h-1.84v-10.59h2.05v3.8c0.47-0.54,1.09-0.81,1.86-0.81c0.93,0,1.67,0.33,2.2,1s0.8,1.61,0.8,2.82L432.57,331.05
			L432.57,331.05z M430.52,330.9c0-0.75-0.12-1.31-0.37-1.65s-0.61-0.52-1.1-0.52c-0.65,0-1.1,0.26-1.35,0.78v2.94
			c0.25,0.52,0.7,0.79,1.36,0.79s1.1-0.32,1.3-0.95C430.47,331.99,430.52,331.52,430.52,330.9z"/>
		<path class="st6" d="M435.99,334.71h-2.05v-10.59h2.05V334.71z"/>
		<path class="st6" d="M437.66,325.32c0-0.3,0.1-0.54,0.31-0.74c0.21-0.19,0.49-0.29,0.84-0.29c0.35,0,0.63,0.1,0.84,0.29
			s0.31,0.44,0.31,0.74s-0.11,0.55-0.32,0.75c-0.21,0.19-0.49,0.29-0.83,0.29s-0.62-0.1-0.83-0.29
			C437.77,325.87,437.66,325.62,437.66,325.32z M439.84,334.71h-2.05v-7.46h2.05V334.71z"/>
		<path class="st6" d="M445.68,332.65c0-0.24-0.13-0.44-0.37-0.58c-0.25-0.14-0.64-0.26-1.19-0.37c-1.82-0.37-2.74-1.13-2.74-2.26
			c0-0.66,0.28-1.22,0.85-1.66c0.56-0.44,1.3-0.66,2.22-0.66c0.97,0,1.75,0.22,2.33,0.67s0.88,1.03,0.88,1.74h-2.05
			c0-0.28-0.09-0.52-0.28-0.71s-0.48-0.28-0.89-0.28c-0.34,0-0.61,0.08-0.8,0.23s-0.28,0.34-0.28,0.58c0,0.22,0.11,0.4,0.32,0.53
			s0.58,0.25,1.09,0.35s0.94,0.21,1.29,0.34c1.08,0.39,1.62,1.05,1.62,2.01c0,0.68-0.3,1.23-0.9,1.65c-0.6,0.42-1.38,0.63-2.32,0.63
			c-0.64,0-1.21-0.11-1.71-0.34c-0.5-0.22-0.89-0.53-1.17-0.92s-0.43-0.81-0.43-1.26h1.94c0.02,0.35,0.15,0.62,0.4,0.81
			s0.59,0.28,1.01,0.28c0.39,0,0.69-0.07,0.89-0.22S445.68,332.88,445.68,332.65z"/>
		<path class="st6" d="M450.99,328.06c0.54-0.63,1.23-0.95,2.05-0.95c1.66,0,2.51,0.94,2.53,2.82v4.78h-2.05v-4.72
			c0-0.43-0.09-0.75-0.28-0.95s-0.5-0.31-0.94-0.31c-0.6,0-1.03,0.22-1.3,0.68v5.3h-2.05v-10.59H451L450.99,328.06L450.99,328.06z"
			/>
		<path class="st6" d="M460.64,334.85c-1.12,0-2.04-0.34-2.75-1.01s-1.06-1.57-1.06-2.68v-0.19c0-0.75,0.15-1.42,0.45-2.01
			s0.72-1.05,1.26-1.37c0.55-0.32,1.17-0.48,1.87-0.48c1.05,0,1.87,0.32,2.48,0.97c0.6,0.64,0.9,1.56,0.9,2.74v0.81h-4.88
			c0.07,0.49,0.26,0.88,0.6,1.17c0.33,0.29,0.76,0.44,1.27,0.44c0.79,0,1.41-0.28,1.85-0.83l1.01,1.1
			c-0.31,0.42-0.72,0.75-1.25,0.99C461.86,334.73,461.28,334.85,460.64,334.85z M460.4,328.72c-0.41,0-0.74,0.13-0.99,0.4
			s-0.41,0.65-0.48,1.15h2.85v-0.16c-0.01-0.44-0.13-0.79-0.37-1.03S460.84,328.72,460.4,328.72z"/>
		<path class="st6" d="M469.26,329.12c-0.28-0.04-0.52-0.06-0.74-0.06c-0.78,0-1.28,0.26-1.52,0.77v4.88h-2.05v-7.46h1.93l0.06,0.89
			c0.41-0.68,0.98-1.03,1.71-1.03c0.23,0,0.44,0.03,0.64,0.09L469.26,329.12z"/>
	</g>
	<path class="st1" d="M465.64,275.66v1.77c0,0.49-0.41,0.88-0.91,0.88h-2.72v1.32c0,0.73-0.61,1.32-1.36,1.32h-44.44
		c-0.75,0-1.36-0.59-1.36-1.32v-1.32h-2.72c-0.5,0-0.91-0.4-0.91-0.88v-1.77c0-0.36,0.22-0.68,0.56-0.82l26.3-9.71
		c0.22-0.09,0.47-0.09,0.69,0l26.3,9.71C465.41,274.98,465.64,275.31,465.64,275.66z M462.91,309.21h-48.98
		c-1.5,0-2.72,1.19-2.72,2.65v1.77c0,0.49,0.41,0.88,0.91,0.88h52.61c0.5,0,0.91-0.4,0.91-0.88v-1.77
		C465.64,310.39,464.42,309.21,462.91,309.21z M420.28,282.73v21.19h-4.08c-0.75,0-1.36,0.59-1.36,1.32v2.21H462v-2.21
		c0-0.73-0.61-1.32-1.36-1.32h-4.08v-21.19h-7.26v21.19h-7.26v-21.19h-7.26v21.19h-7.26v-21.19H420.28z"/>
</g>
<g class="st3">
	<polygon class="st5" points="114.8,45.7 144.31,96.1 114.8,146.31 55.78,146.31 26.27,96.05 55.78,46.02 	"/>
	<g>
		<path class="st6" d="M77.32,129.68l1.39-7.14h2.12l-2.29,10.04H76.4l-1.68-6.72l-1.68,6.72H70.9l-2.29-10.04h2.12l1.4,7.13
			l1.7-7.13h1.8L77.32,129.68z"/>
		<path class="st6" d="M81.3,128.77c0-0.74,0.15-1.4,0.44-1.98s0.71-1.03,1.26-1.35c0.55-0.32,1.19-0.48,1.92-0.48
			c1.03,0,1.88,0.31,2.53,0.92c0.65,0.62,1.02,1.45,1.09,2.51l0.01,0.51c0,1.15-0.33,2.06-0.98,2.76c-0.66,0.69-1.54,1.04-2.64,1.04
			c-1.11,0-1.99-0.34-2.65-1.03s-0.99-1.63-0.99-2.81L81.3,128.77L81.3,128.77z M83.35,128.92c0,0.71,0.14,1.25,0.41,1.63
			s0.67,0.56,1.18,0.56c0.5,0,0.88-0.18,1.16-0.56c0.28-0.37,0.42-0.96,0.42-1.78c0-0.7-0.14-1.23-0.42-1.62s-0.67-0.57-1.18-0.57
			c-0.5,0-0.89,0.19-1.16,0.57C83.48,127.53,83.35,128.12,83.35,128.92z"/>
		<path class="st6" d="M94.13,126.98c-0.28-0.04-0.52-0.06-0.74-0.06c-0.78,0-1.28,0.26-1.52,0.77v4.88h-2.05v-7.46h1.93l0.06,0.89
			c0.41-0.68,0.98-1.03,1.71-1.03c0.23,0,0.44,0.03,0.64,0.09L94.13,126.98z"/>
		<path class="st6" d="M97.9,129.58l-0.74,0.72v2.28h-2.05v-10.59h2.05v5.87l0.4-0.5l1.96-2.24h2.46l-2.77,3.11l3.01,4.35h-2.35
			L97.9,129.58z"/>
	</g>
	<path class="st1" d="M73.45,77.29c-2.02,0.56-3.63,2.05-4.3,3.99L59.9,108.3l1.46,1.42l14.89-14.49c-0.3-0.6-0.48-1.27-0.48-1.99
		c0-2.56,2.13-4.63,4.76-4.63s4.76,2.08,4.76,4.63c0,2.56-2.13,4.63-4.76,4.63c-0.73,0-1.42-0.17-2.04-0.46L63.6,111.9l1.46,1.42
		l27.76-9.01c1.99-0.65,3.53-2.21,4.1-4.18l4.24-14.62l-12.7-12.36L73.45,77.29z M109.29,71.05l-5.96-5.8
		c-1.86-1.81-4.88-1.81-6.74,0l-5.61,5.46l12.7,12.36l5.61-5.46C111.15,75.8,111.15,72.87,109.29,71.05z"/>
</g>
<g class="st3">
	<polygon class="st5" points="203.08,196.22 232.6,246.62 203.08,296.83 144.07,296.83 114.56,246.57 144.07,196.54 	"/>
	<g>
		<path class="st6" d="M165.6,280.2l1.39-7.14h2.12l-2.29,10.04h-2.14l-1.68-6.72l-1.68,6.72h-2.14l-2.29-10.04h2.12l1.4,7.13
			l1.7-7.13h1.8L165.6,280.2z"/>
		<path class="st6" d="M169.58,279.3c0-0.74,0.15-1.4,0.44-1.98c0.29-0.58,0.71-1.03,1.26-1.35s1.19-0.48,1.92-0.48
			c1.03,0,1.88,0.31,2.53,0.92c0.65,0.62,1.02,1.45,1.09,2.51l0.01,0.51c0,1.15-0.33,2.06-0.98,2.76c-0.66,0.69-1.54,1.04-2.64,1.04
			s-1.99-0.34-2.65-1.03s-0.99-1.63-0.99-2.81L169.58,279.3L169.58,279.3z M171.63,279.44c0,0.71,0.14,1.25,0.41,1.63
			s0.67,0.56,1.18,0.56c0.5,0,0.88-0.18,1.16-0.56c0.28-0.37,0.42-0.96,0.42-1.78c0-0.7-0.14-1.23-0.42-1.62s-0.67-0.57-1.18-0.57
			c-0.5,0-0.89,0.19-1.16,0.57C171.77,278.05,171.63,278.64,171.63,279.44z"/>
		<path class="st6" d="M182.42,277.51c-0.28-0.04-0.52-0.06-0.74-0.06c-0.78,0-1.28,0.26-1.52,0.77v4.88h-2.05v-7.46h1.93l0.06,0.89
			c0.41-0.68,0.98-1.03,1.71-1.03c0.23,0,0.44,0.03,0.64,0.09L182.42,277.51z"/>
		<path class="st6" d="M186.19,280.11l-0.74,0.72v2.28h-2.05v-10.59h2.05v5.87l0.4-0.5l1.96-2.24h2.46l-2.77,3.11l3.01,4.35h-2.35
			L186.19,280.11z"/>
	</g>
	<path class="st1" d="M161.73,227.82c-2.02,0.56-3.63,2.05-4.3,3.99l-9.25,27.02l1.46,1.42l14.89-14.49
		c-0.3-0.6-0.48-1.27-0.48-1.99c0-2.56,2.13-4.63,4.76-4.63s4.76,2.08,4.76,4.63c0,2.56-2.13,4.63-4.76,4.63
		c-0.73,0-1.42-0.17-2.04-0.46l-14.89,14.49l1.46,1.42l27.76-9.01c1.99-0.65,3.53-2.21,4.1-4.18l4.24-14.62l-12.7-12.36
		L161.73,227.82z M197.58,221.58l-5.96-5.8c-1.86-1.81-4.88-1.81-6.74,0l-5.61,5.46l12.7,12.36l5.61-5.46
		C199.44,226.33,199.44,223.39,197.58,221.58z"/>
</g>
<g class="st3">
	<path class="st2" d="M57.55,195.32c-0.44-0.01-0.85-0.1-1.24-0.27s-0.71-0.44-0.95-0.81l-0.71,3.81h-0.84l1.84-10.33h0.78
		l-0.2,1.05c0.67-0.82,1.5-1.22,2.5-1.19c0.72,0.02,1.28,0.28,1.68,0.78s0.61,1.21,0.62,2.13c0,0.29-0.01,0.57-0.04,0.84l-0.03,0.19
		c-0.12,0.81-0.34,1.5-0.67,2.08c-0.33,0.58-0.72,1.02-1.19,1.31C58.65,195.2,58.13,195.34,57.55,195.32z M60.16,191.33l0.04-0.65
		c0.01-0.73-0.12-1.31-0.41-1.73s-0.72-0.64-1.28-0.65c-0.5-0.01-0.95,0.11-1.35,0.36s-0.74,0.6-1.02,1.07l-0.63,3.59
		c0.15,0.42,0.39,0.75,0.72,0.97s0.72,0.34,1.18,0.35c0.68,0.02,1.26-0.23,1.74-0.75c0.48-0.52,0.79-1.25,0.96-2.18L60.16,191.33z"
		/>
	<path class="st2" d="M66.98,195.18c-0.02-0.17-0.03-0.35-0.02-0.52l0.06-0.52c-0.35,0.37-0.76,0.66-1.22,0.88
		c-0.46,0.21-0.95,0.31-1.48,0.3c-0.65-0.01-1.17-0.21-1.58-0.6c-0.4-0.39-0.58-0.88-0.54-1.47c0.04-0.49,0.21-0.92,0.52-1.28
		s0.75-0.64,1.32-0.84s1.21-0.3,1.92-0.3l1.57,0.01l0.13-0.86c0.06-0.51-0.06-0.92-0.34-1.23s-0.7-0.47-1.25-0.49
		c-0.56-0.01-1.04,0.12-1.46,0.4c-0.41,0.28-0.67,0.64-0.78,1.1H63c0.09-0.65,0.44-1.19,1.03-1.6s1.3-0.61,2.11-0.6
		c0.79,0.02,1.4,0.25,1.82,0.7c0.43,0.45,0.6,1.03,0.52,1.74l-0.64,3.75l-0.06,0.6c-0.01,0.25,0,0.49,0.06,0.74l-0.01,0.08
		L66.98,195.18L66.98,195.18z M64.47,194.6c0.52,0.02,1.02-0.1,1.49-0.36c0.48-0.26,0.87-0.63,1.18-1.11l0.29-1.65l-1.35-0.01
		c-0.86,0-1.56,0.15-2.1,0.45s-0.84,0.72-0.9,1.27c-0.04,0.41,0.07,0.74,0.33,1C63.66,194.46,64.02,194.59,64.47,194.6z"/>
	<path class="st2" d="M74.5,188.41c-0.18-0.04-0.37-0.06-0.56-0.06c-0.54,0-1.03,0.16-1.48,0.48s-0.75,0.73-0.9,1.22l-0.91,5.13
		h-0.84l1.33-7.46h0.83l-0.26,1.19c0.28-0.44,0.62-0.78,1.01-1.01s0.83-0.34,1.3-0.33c0.17,0,0.36,0.03,0.58,0.1L74.5,188.41z"/>
	<path class="st2" d="M77.94,185.81l-0.34,1.91h1.54l-0.12,0.68h-1.54l-0.85,4.98l-0.01,0.43c0,0.5,0.24,0.76,0.71,0.77
		c0.15,0,0.38-0.01,0.69-0.05l-0.04,0.68c-0.28,0.08-0.56,0.11-0.85,0.1c-0.5-0.01-0.86-0.18-1.08-0.51
		c-0.23-0.33-0.31-0.81-0.25-1.43l0.84-4.97h-1.38l0.13-0.68h1.36l0.35-1.91H77.94L77.94,185.81z"/>
	<path class="st2" d="M83.27,191.38c0.08-0.72,0.31-1.38,0.68-1.98s0.83-1.06,1.38-1.37s1.15-0.46,1.79-0.45
		c0.63,0.01,1.17,0.18,1.62,0.51s0.77,0.78,0.98,1.35c0.21,0.57,0.28,1.2,0.21,1.89l-0.01,0.13c-0.14,1.18-0.57,2.12-1.29,2.83
		c-0.71,0.71-1.57,1.06-2.58,1.03c-0.86-0.01-1.55-0.32-2.06-0.92c-0.52-0.6-0.77-1.4-0.76-2.39l0.02-0.39L83.27,191.38z
		 M84.09,191.61c-0.06,0.55-0.02,1.05,0.12,1.51c0.15,0.46,0.37,0.82,0.69,1.09s0.71,0.4,1.18,0.41c0.51,0.01,0.98-0.12,1.4-0.38
		c0.42-0.26,0.77-0.63,1.04-1.11s0.45-1.01,0.53-1.59l0.02-0.23c0.08-0.89-0.06-1.61-0.42-2.18c-0.37-0.56-0.9-0.85-1.59-0.87
		c-0.76-0.02-1.41,0.26-1.96,0.85s-0.89,1.38-1.01,2.36L84.09,191.61z"/>
	<path class="st2" d="M91.61,195.18l1.21-6.79h-1.23l0.13-0.68h1.23l0.15-1.01c0.12-0.73,0.41-1.3,0.86-1.7
		c0.46-0.4,1.02-0.6,1.7-0.59c0.27,0.01,0.58,0.06,0.93,0.14l-0.15,0.68c-0.26-0.07-0.52-0.1-0.76-0.1c-0.47,0-0.86,0.15-1.17,0.45
		c-0.31,0.3-0.5,0.71-0.58,1.25l-0.13,0.88h1.78l-0.13,0.68h-1.76l-1.21,6.79H91.61L91.61,195.18z"/>
</g>
<g class="st3">
	<g>
		<path class="st0" d="M118.81,215.28c-7.78-6.01-11.32-22.17-0.1-32.43"/>
		<g>
			<polygon class="st1" points="118.68,187.39 117.83,183.65 114.56,181.74 123.38,179.46 			"/>
		</g>
	</g>
</g>
<path class="st4" d="M117.36,184.17c-21.49,0.61-40.24-26.12-40.24-30.12"/>
<g>
	<g>
		<path class="st0" d="M208.48,65c-9.71-2.79-25.27,3.57-26.96,18.35"/>
		<g>
			<polygon class="st1" points="185.26,80.74 181.64,82.19 178.07,80.66 181.54,89 			"/>
		</g>
	</g>
</g>
<g>
	<path class="st2" d="M156.53,60.33v0.59l0.28-0.64l2.8-5.69h0.72l0.76,5.7l0.04,0.7l0.29-0.71l2.54-5.7h0.9l-3.5,7.46h-0.72
		l-0.84-5.92l-0.01-0.41l-0.16,0.42l-2.93,5.91h-0.72l-0.82-7.46l0.79-0.01L156.53,60.33z"/>
	<path class="st2" d="M169.81,55.29c-0.18-0.04-0.37-0.06-0.56-0.06c-0.54,0-1.03,0.16-1.48,0.48s-0.75,0.73-0.9,1.22l-0.91,5.13
		h-0.84l1.33-7.46h0.83l-0.26,1.19c0.28-0.44,0.62-0.78,1.01-1.01s0.83-0.34,1.3-0.33c0.17,0,0.36,0.03,0.58,0.1L169.81,55.29z"/>
	<path class="st2" d="M169.99,58.25c0.08-0.72,0.31-1.38,0.68-1.98c0.37-0.6,0.83-1.06,1.38-1.37s1.15-0.46,1.79-0.45
		c0.63,0.01,1.17,0.18,1.62,0.51s0.77,0.78,0.98,1.35c0.21,0.57,0.28,1.2,0.21,1.89l-0.01,0.13c-0.14,1.18-0.57,2.12-1.29,2.83
		c-0.71,0.71-1.57,1.06-2.58,1.03c-0.86-0.01-1.55-0.32-2.06-0.92s-0.77-1.4-0.76-2.39l0.02-0.39L169.99,58.25z M170.81,58.48
		c-0.06,0.55-0.02,1.05,0.12,1.51c0.15,0.46,0.37,0.82,0.69,1.09c0.32,0.26,0.71,0.4,1.18,0.41c0.51,0.01,0.98-0.12,1.4-0.38
		s0.77-0.63,1.04-1.11s0.45-1.01,0.53-1.59l0.02-0.23c0.08-0.89-0.06-1.61-0.42-2.18c-0.37-0.56-0.9-0.85-1.59-0.87
		c-0.76-0.02-1.41,0.26-1.96,0.85s-0.89,1.38-1.01,2.36L170.81,58.48L170.81,58.48z"/>
	<path class="st2" d="M180.71,52.68l-0.34,1.91h1.54l-0.12,0.68h-1.54l-0.85,4.98l-0.01,0.43c0,0.5,0.24,0.76,0.71,0.77
		c0.15,0,0.38-0.01,0.69-0.05l-0.04,0.68c-0.28,0.08-0.56,0.11-0.85,0.1c-0.5-0.01-0.86-0.18-1.08-0.51s-0.31-0.81-0.25-1.43
		l0.84-4.97h-1.38l0.13-0.68h1.36l0.35-1.91L180.71,52.68L180.71,52.68z"/>
	<path class="st2" d="M185.37,62.19c-0.61-0.01-1.15-0.18-1.59-0.5c-0.45-0.32-0.78-0.77-0.99-1.32s-0.28-1.16-0.22-1.81l0.02-0.23
		c0.07-0.69,0.28-1.35,0.63-1.97s0.8-1.1,1.35-1.43c0.54-0.33,1.12-0.49,1.74-0.47c0.57,0.01,1.05,0.16,1.45,0.46
		c0.39,0.29,0.68,0.7,0.86,1.23c0.18,0.52,0.24,1.1,0.17,1.74l-0.06,0.5h-5.31l-0.02,0.17c-0.07,0.5-0.03,0.98,0.11,1.44
		c0.15,0.46,0.39,0.82,0.72,1.09s0.73,0.41,1.2,0.42c0.45,0.01,0.86-0.07,1.23-0.26c0.36-0.18,0.7-0.43,1.01-0.74l0.5,0.39
		c-0.34,0.43-0.75,0.76-1.23,0.98C186.46,62.09,185.94,62.2,185.37,62.19z M186.27,55.15c-0.61-0.02-1.16,0.19-1.65,0.63
		c-0.49,0.45-0.85,1.07-1.1,1.88l4.45,0.01l0.02-0.1c0.08-0.65-0.03-1.21-0.35-1.69C187.31,55.42,186.86,55.17,186.27,55.15z"/>
</g>
<g>
	<g>
		<g>
			<polygon class="st5" points="203.54,97 233.06,147.4 203.54,197.61 144.53,197.61 115.02,147.35 144.53,97.32 			"/>
		</g>
	</g>
	<g class="st7">
		<path class="st6" d="M159.23,180.75c0-0.42-0.15-0.73-0.44-0.96c-0.29-0.22-0.82-0.46-1.58-0.7c-0.76-0.25-1.36-0.49-1.81-0.73
			c-1.21-0.65-1.82-1.54-1.82-2.64c0-0.58,0.16-1.09,0.49-1.54c0.32-0.45,0.79-0.8,1.4-1.06c0.61-0.25,1.29-0.38,2.05-0.38
			c0.76,0,1.44,0.14,2.04,0.41c0.6,0.28,1.06,0.67,1.39,1.17c0.33,0.5,0.49,1.07,0.49,1.71h-2.2c0-0.49-0.15-0.87-0.46-1.14
			c-0.31-0.27-0.74-0.41-1.3-0.41c-0.54,0-0.95,0.11-1.25,0.34c-0.3,0.23-0.45,0.53-0.45,0.9c0,0.35,0.17,0.64,0.52,0.87
			s0.86,0.46,1.54,0.66c1.25,0.38,2.16,0.84,2.73,1.4s0.86,1.25,0.86,2.08c0,0.92-0.35,1.65-1.05,2.17
			c-0.7,0.52-1.64,0.79-2.82,0.79c-0.82,0-1.57-0.15-2.24-0.45c-0.67-0.3-1.19-0.71-1.54-1.23s-0.53-1.13-0.53-1.82h2.2
			c0,1.18,0.7,1.76,2.11,1.76c0.52,0,0.93-0.11,1.22-0.32C159.08,181.42,159.23,181.13,159.23,180.75z"/>
		<path class="st6" d="M166.42,183.69c-1.16,0-2.11-0.36-2.84-1.07s-1.09-1.66-1.09-2.85v-0.21c0-0.8,0.15-1.51,0.46-2.14
			c0.31-0.63,0.74-1.11,1.31-1.45c0.56-0.34,1.21-0.51,1.93-0.51c1.08,0,1.94,0.34,2.56,1.03c0.62,0.68,0.93,1.65,0.93,2.91v0.87
			h-5.05c0.07,0.52,0.27,0.93,0.62,1.24c0.34,0.31,0.78,0.47,1.31,0.47c0.82,0,1.45-0.29,1.91-0.89l1.04,1.17
			c-0.32,0.45-0.75,0.8-1.29,1.05C167.68,183.56,167.08,183.69,166.42,183.69z M166.18,177.18c-0.42,0-0.76,0.14-1.02,0.43
			c-0.26,0.29-0.43,0.69-0.5,1.22h2.94v-0.17c-0.01-0.47-0.14-0.83-0.38-1.09S166.63,177.18,166.18,177.18z"/>
		<path class="st6" d="M175.34,177.6c-0.29-0.04-0.54-0.06-0.76-0.06c-0.8,0-1.33,0.27-1.57,0.81v5.19h-2.12v-7.92h2l0.06,0.94
			c0.42-0.73,1.01-1.09,1.77-1.09c0.23,0,0.45,0.03,0.66,0.09L175.34,177.6z"/>
		<path class="st6" d="M176.34,173.57c0-0.32,0.11-0.58,0.32-0.78c0.21-0.21,0.5-0.31,0.87-0.31c0.36,0,0.65,0.1,0.86,0.31
			s0.32,0.47,0.32,0.78c0,0.32-0.11,0.59-0.33,0.79c-0.22,0.21-0.5,0.31-0.86,0.31s-0.64-0.1-0.86-0.31S176.34,173.89,176.34,173.57
			z M178.59,183.54h-2.12v-7.92h2.12V183.54z"/>
		<path class="st6" d="M183.98,183.69c-1.16,0-2.11-0.36-2.84-1.07s-1.09-1.66-1.09-2.85v-0.21c0-0.8,0.15-1.51,0.46-2.14
			c0.31-0.63,0.74-1.11,1.31-1.45c0.56-0.34,1.21-0.51,1.93-0.51c1.08,0,1.94,0.34,2.56,1.03c0.62,0.68,0.93,1.65,0.93,2.91v0.87
			h-5.05c0.07,0.52,0.27,0.93,0.62,1.24c0.34,0.31,0.78,0.47,1.31,0.47c0.82,0,1.45-0.29,1.91-0.89l1.04,1.17
			c-0.32,0.45-0.75,0.8-1.29,1.05C185.24,183.56,184.64,183.69,183.98,183.69z M183.74,177.18c-0.42,0-0.76,0.14-1.02,0.43
			c-0.26,0.29-0.43,0.69-0.5,1.22h2.94v-0.17c-0.01-0.47-0.14-0.83-0.38-1.09S184.19,177.18,183.74,177.18z"/>
		<path class="st6" d="M192.73,181.35c0-0.26-0.13-0.46-0.38-0.61c-0.26-0.15-0.67-0.28-1.23-0.4c-1.88-0.39-2.83-1.2-2.83-2.4
			c0-0.7,0.29-1.29,0.88-1.76c0.58-0.47,1.35-0.71,2.29-0.71c1.01,0,1.81,0.24,2.41,0.71c0.6,0.47,0.9,1.09,0.9,1.85h-2.12
			c0-0.3-0.1-0.55-0.29-0.75c-0.2-0.2-0.5-0.3-0.92-0.3c-0.36,0-0.63,0.08-0.83,0.24c-0.2,0.16-0.29,0.37-0.29,0.62
			c0,0.23,0.11,0.42,0.33,0.57c0.22,0.14,0.6,0.27,1.12,0.37c0.53,0.11,0.97,0.22,1.33,0.36c1.12,0.41,1.68,1.12,1.68,2.13
			c0,0.72-0.31,1.31-0.93,1.75c-0.62,0.45-1.42,0.67-2.4,0.67c-0.66,0-1.25-0.12-1.77-0.36c-0.52-0.24-0.92-0.56-1.21-0.97
			c-0.29-0.41-0.44-0.86-0.44-1.34h2.01c0.02,0.38,0.16,0.66,0.42,0.86s0.61,0.3,1.04,0.3c0.41,0,0.71-0.08,0.92-0.23
			C192.63,181.8,192.73,181.6,192.73,181.35z"/>
	</g>
	<polygon class="st8" points="154.51,174.36 193.57,174.36 193.57,174.36 	"/>
	<path class="st1" d="M171.71,115.87c1.48-0.65,3.18-0.65,4.66,0l21.66,9.52c0.84,0.37,1.38,1.17,1.38,1.97
		c0,0.96-0.53,1.76-1.38,2.14l-21.66,9.52c-1.48,0.65-3.18,0.65-4.66,0l-21.65-9.52c-0.84-0.38-1.38-1.18-1.38-2.14
		c0-0.8,0.54-1.6,1.38-1.97L171.71,115.87z M198.02,137.46c0.84,0.37,1.38,1.17,1.38,1.97c0,0.96-0.53,1.76-1.38,2.14l-21.66,9.52
		c-1.48,0.65-3.18,0.65-4.66,0l-21.65-9.52c-0.84-0.38-1.38-1.18-1.38-2.14c0-0.8,0.54-1.6,1.38-1.97l5.27-2.32l15.06,6.62
		c2.32,1.03,4.99,1.03,7.31,0l15.06-6.62L198.02,137.46z M177.69,153.82l15.06-6.62l5.27,2.32c0.84,0.37,1.38,1.17,1.38,1.97
		c0,0.96-0.53,1.76-1.38,2.14l-21.66,9.52c-1.48,0.65-3.18,0.65-4.66,0l-21.65-9.52c-0.84-0.38-1.38-1.18-1.38-2.14
		c0-0.8,0.54-1.6,1.38-1.97l5.27-2.32l15.06,6.62C172.7,154.85,175.37,154.85,177.69,153.82L177.69,153.82z"/>
</g>
</svg>
