<?xml version="1.0" encoding="utf-8"?>
<!-- Generator: Adobe Illustrator 16.0.0, SVG Export Plug-In . SVG Version: 6.00 Build 0)  -->
<!DOCTYPE svg PUBLIC "-//W3C//DTD SVG 1.1//EN" "http://www.w3.org/Graphics/SVG/1.1/DTD/svg11.dtd">
<svg version="1.1" id="Layer_1" xmlns="http://www.w3.org/2000/svg" xmlns:xlink="http://www.w3.org/1999/xlink" x="0px" y="0px"
	 width="370px" height="400px" viewBox="0 0 370 400" enable-background="new 0 0 370 400" xml:space="preserve">
<g>
	<g>
		<path fill="none" stroke="#51382B" stroke-miterlimit="10" d="M121.142,50.697c7.914-2.667,20.918,2.229,22.757,14.681"/>
		<g>
			<polygon fill="#51382B" points="140.741,63.293 143.763,64.401 146.658,62.996 144.053,70.158 			"/>
		</g>
	</g>
</g>
<g>
	<path d="M140.027,46.726v0.498l0.229-0.545l2.314-4.834h0.598l0.627,4.846l0.035,0.598l0.24-0.604l2.098-4.84h0.744l-2.895,6.34
		h-0.598l-0.697-5.027l-0.006-0.352l-0.135,0.357l-2.426,5.021h-0.598l-0.674-6.34l0.656-0.006L140.027,46.726z"/>
	<path d="M151.002,42.437c-0.152-0.031-0.307-0.049-0.463-0.053c-0.445,0-0.854,0.136-1.225,0.407s-0.619,0.616-0.744,1.034
		l-0.75,4.359h-0.691l1.102-6.34h0.686l-0.211,1.008c0.23-0.375,0.509-0.66,0.835-0.855s0.685-0.289,1.075-0.281
		c0.137,0,0.297,0.027,0.48,0.082L151.002,42.437z"/>
	<path d="M151.154,44.956c0.07-0.613,0.258-1.175,0.562-1.685s0.685-0.897,1.14-1.163s0.948-0.393,1.479-0.381
		c0.523,0.008,0.97,0.151,1.339,0.431s0.639,0.66,0.809,1.143s0.228,1.017,0.173,1.603l-0.012,0.111
		c-0.117,1-0.472,1.803-1.063,2.408s-1.302,0.898-2.13,0.879c-0.711-0.012-1.279-0.273-1.705-0.785s-0.635-1.188-0.627-2.027
		l0.018-0.334L151.154,44.956z M151.834,45.155c-0.051,0.465-0.017,0.894,0.103,1.286s0.31,0.7,0.571,0.923s0.588,0.34,0.979,0.352
		c0.422,0.008,0.808-0.1,1.157-0.322s0.638-0.537,0.864-0.943s0.373-0.855,0.439-1.348l0.018-0.193
		c0.07-0.754-0.046-1.37-0.349-1.849s-0.741-0.724-1.315-0.735c-0.625-0.02-1.165,0.222-1.62,0.724s-0.733,1.169-0.835,2.001
		L151.834,45.155z"/>
	<path d="M160.02,40.222l-0.281,1.623h1.271l-0.1,0.574h-1.271l-0.703,4.23l-0.012,0.363c0,0.426,0.195,0.645,0.586,0.656
		c0.121,0.004,0.311-0.01,0.568-0.041l-0.029,0.574c-0.23,0.066-0.465,0.096-0.703,0.088c-0.41-0.008-0.709-0.151-0.896-0.431
		s-0.256-0.685-0.205-1.216l0.697-4.225h-1.137l0.105-0.574h1.125l0.287-1.623H160.02z"/>
	<path d="M163.875,48.302c-0.508-0.008-0.947-0.149-1.318-0.425s-0.644-0.65-0.817-1.125s-0.235-0.987-0.185-1.538l0.018-0.199
		c0.055-0.586,0.229-1.144,0.521-1.673s0.664-0.934,1.113-1.213s0.93-0.413,1.441-0.401c0.473,0.008,0.872,0.137,1.198,0.387
		s0.563,0.598,0.712,1.043s0.195,0.938,0.141,1.477l-0.047,0.428h-4.389l-0.018,0.141c-0.059,0.426-0.027,0.833,0.094,1.222
		s0.319,0.697,0.595,0.926s0.606,0.347,0.993,0.354c0.375,0.012,0.713-0.061,1.014-0.217s0.578-0.365,0.832-0.627l0.41,0.334
		c-0.285,0.367-0.624,0.646-1.017,0.835S164.344,48.31,163.875,48.302z M164.613,42.325c-0.508-0.02-0.963,0.16-1.365,0.539
		s-0.705,0.912-0.908,1.6l3.68,0.006l0.018-0.088c0.07-0.555-0.027-1.032-0.293-1.433S165.102,42.341,164.613,42.325z"/>
</g>
<g opacity="0.5">
	<g>
		<path fill="none" stroke="#51382B" stroke-miterlimit="10" d="M267.142,50.697c7.914-2.667,20.918,2.229,22.757,14.681"/>
		<g>
			<polygon fill="#51382B" points="286.741,63.293 289.763,64.401 292.658,62.996 290.053,70.158 			"/>
		</g>
	</g>
</g>
<g opacity="0.5">
	<path d="M286.027,46.726v0.498l0.229-0.545l2.314-4.834h0.598l0.627,4.846l0.035,0.598l0.24-0.604l2.098-4.84h0.744l-2.895,6.34
		h-0.598l-0.697-5.027l-0.006-0.352l-0.135,0.357l-2.426,5.021h-0.598l-0.674-6.34l0.656-0.006L286.027,46.726z"/>
	<path d="M297.002,42.437c-0.152-0.031-0.307-0.049-0.463-0.053c-0.445,0-0.854,0.136-1.225,0.407s-0.619,0.616-0.744,1.034
		l-0.75,4.359h-0.691l1.102-6.34h0.686l-0.211,1.008c0.23-0.375,0.509-0.66,0.835-0.855s0.685-0.289,1.075-0.281
		c0.137,0,0.297,0.027,0.48,0.082L297.002,42.437z"/>
	<path d="M297.154,44.956c0.07-0.613,0.258-1.175,0.562-1.685s0.685-0.897,1.14-1.163s0.948-0.393,1.479-0.381
		c0.523,0.008,0.97,0.151,1.339,0.431s0.639,0.66,0.809,1.143s0.228,1.017,0.173,1.603l-0.012,0.111
		c-0.117,1-0.472,1.803-1.063,2.408s-1.302,0.898-2.13,0.879c-0.711-0.012-1.279-0.273-1.705-0.785s-0.635-1.188-0.627-2.027
		l0.018-0.334L297.154,44.956z M297.834,45.155c-0.051,0.465-0.017,0.894,0.103,1.286s0.31,0.7,0.571,0.923s0.588,0.34,0.979,0.352
		c0.422,0.008,0.808-0.1,1.157-0.322s0.638-0.537,0.864-0.943s0.373-0.855,0.439-1.348l0.018-0.193
		c0.07-0.754-0.046-1.37-0.349-1.849s-0.741-0.724-1.315-0.735c-0.625-0.02-1.165,0.222-1.62,0.724s-0.733,1.169-0.835,2.001
		L297.834,45.155z"/>
	<path d="M306.02,40.222l-0.281,1.623h1.271l-0.1,0.574h-1.271l-0.703,4.23l-0.012,0.363c0,0.426,0.195,0.645,0.586,0.656
		c0.121,0.004,0.311-0.01,0.568-0.041l-0.029,0.574c-0.23,0.066-0.465,0.096-0.703,0.088c-0.41-0.008-0.709-0.151-0.896-0.431
		s-0.256-0.685-0.205-1.216l0.697-4.225h-1.137l0.105-0.574h1.125l0.287-1.623H306.02z"/>
	<path d="M309.875,48.302c-0.508-0.008-0.947-0.149-1.318-0.425s-0.644-0.65-0.817-1.125s-0.235-0.987-0.185-1.538l0.018-0.199
		c0.055-0.586,0.229-1.144,0.521-1.673s0.664-0.934,1.113-1.213s0.93-0.413,1.441-0.401c0.473,0.008,0.872,0.137,1.198,0.387
		s0.563,0.598,0.712,1.043s0.195,0.938,0.141,1.477l-0.047,0.428h-4.389l-0.018,0.141c-0.059,0.426-0.027,0.833,0.094,1.222
		s0.319,0.697,0.595,0.926s0.606,0.347,0.993,0.354c0.375,0.012,0.713-0.061,1.014-0.217s0.578-0.365,0.832-0.627l0.41,0.334
		c-0.285,0.367-0.624,0.646-1.017,0.835S310.344,48.31,309.875,48.302z M310.613,42.325c-0.508-0.02-0.963,0.16-1.365,0.539
		s-0.705,0.912-0.908,1.6l3.68,0.006l0.018-0.088c0.07-0.555-0.027-1.032-0.293-1.433S311.102,42.341,310.613,42.325z"/>
</g>
<g>
	<g>
		<path fill="none" stroke="#51382B" stroke-miterlimit="10" d="M102.079,146.154c-6.356,5.416-8.846,19.086,0.888,27.067"/>
		<g>
			<polygon fill="#51382B" points="99.504,174.363 102.199,172.603 102.803,169.441 106.987,175.812 			"/>
		</g>
	</g>
</g>
<g>
	<path d="M26.152,163.831c0.461,0.016,0.868-0.112,1.222-0.384s0.589-0.638,0.706-1.099h0.662c-0.117,0.629-0.425,1.136-0.923,1.521
		s-1.065,0.569-1.702,0.554c-0.512-0.012-0.941-0.152-1.289-0.422s-0.599-0.643-0.753-1.119s-0.204-1.014-0.149-1.611l0.023-0.252
		c0.047-0.41,0.147-0.809,0.302-1.195s0.36-0.729,0.618-1.028s0.565-0.535,0.923-0.709s0.761-0.255,1.21-0.243
		c0.648,0.016,1.164,0.234,1.547,0.656s0.562,0.957,0.539,1.605l-0.662-0.006c0.008-0.488-0.119-0.883-0.381-1.184
		s-0.619-0.459-1.072-0.475c-0.484-0.016-0.912,0.125-1.283,0.422s-0.65,0.717-0.838,1.26s-0.275,1.119-0.264,1.729
		c0.012,0.629,0.152,1.112,0.422,1.45S25.66,163.815,26.152,163.831z"/>
	<path d="M29.92,161.071c0.07-0.613,0.258-1.175,0.562-1.685s0.685-0.897,1.14-1.163s0.948-0.393,1.479-0.381
		c0.523,0.008,0.97,0.151,1.339,0.431s0.639,0.66,0.809,1.143s0.228,1.017,0.173,1.603l-0.012,0.111
		c-0.117,1-0.472,1.803-1.063,2.408s-1.302,0.898-2.13,0.879c-0.711-0.012-1.279-0.273-1.705-0.785s-0.635-1.188-0.627-2.027
		l0.018-0.334L29.92,161.071z M30.6,161.271c-0.051,0.465-0.017,0.894,0.103,1.286s0.31,0.7,0.571,0.923s0.588,0.34,0.979,0.352
		c0.422,0.008,0.808-0.1,1.157-0.322s0.638-0.537,0.864-0.943s0.373-0.855,0.439-1.348l0.018-0.193
		c0.07-0.754-0.046-1.37-0.349-1.849s-0.741-0.724-1.315-0.735c-0.625-0.02-1.165,0.222-1.62,0.724s-0.733,1.169-0.835,2.001
		L30.6,161.271z"/>
	<path d="M38.1,157.96l-0.211,1.084c0.281-0.391,0.606-0.69,0.976-0.899s0.765-0.31,1.187-0.302c0.609,0.016,1.053,0.229,1.33,0.639
		s0.375,0.975,0.293,1.693l-0.691,4.125h-0.691l0.691-4.133c0.023-0.222,0.027-0.437,0.012-0.644
		c-0.066-0.695-0.445-1.052-1.137-1.071c-0.41-0.008-0.793,0.114-1.148,0.366c-0.355,0.252-0.668,0.631-0.938,1.139l-0.75,4.343
		H36.33l1.102-6.34H38.1z"/>
	<path d="M45.236,156.337l-0.281,1.623h1.271l-0.1,0.574h-1.271l-0.703,4.23l-0.012,0.363c0,0.426,0.195,0.645,0.586,0.656
		c0.121,0.004,0.311-0.01,0.568-0.041l-0.029,0.574c-0.23,0.066-0.465,0.096-0.703,0.088c-0.41-0.008-0.709-0.151-0.896-0.431
		s-0.256-0.685-0.205-1.216l0.697-4.225h-1.137l0.105-0.574h1.125l0.287-1.623H45.236z"/>
	<path d="M50.521,164.3c-0.02-0.148-0.025-0.297-0.018-0.445l0.053-0.439c-0.293,0.316-0.628,0.564-1.005,0.744
		s-0.784,0.266-1.222,0.258c-0.535-0.008-0.97-0.177-1.304-0.507s-0.483-0.745-0.448-1.245c0.031-0.418,0.175-0.78,0.431-1.087
		s0.62-0.545,1.093-0.715s1.002-0.255,1.588-0.255l1.295,0.006l0.105-0.727c0.047-0.434-0.047-0.781-0.281-1.043
		s-0.58-0.4-1.037-0.416c-0.461-0.008-0.862,0.106-1.204,0.343s-0.556,0.548-0.642,0.935H47.24c0.078-0.555,0.363-1.007,0.855-1.356
		s1.074-0.521,1.746-0.513c0.652,0.016,1.155,0.213,1.509,0.592s0.497,0.871,0.431,1.477l-0.527,3.188l-0.047,0.51
		c-0.012,0.211,0.004,0.42,0.047,0.627l-0.012,0.07H50.521z M48.447,163.808c0.43,0.016,0.841-0.087,1.233-0.308
		s0.718-0.536,0.976-0.943l0.24-1.403l-1.119-0.006c-0.711,0-1.291,0.126-1.74,0.379s-0.697,0.613-0.744,1.083
		c-0.035,0.344,0.056,0.628,0.272,0.851C47.782,163.685,48.076,163.8,48.447,163.808z"/>
	<path d="M53.65,164.3h-0.703l1.107-6.34h0.697L53.65,164.3z M54.248,156.126c0.02-0.254,0.188-0.414,0.504-0.48
		c0.152,0.027,0.261,0.075,0.325,0.144s0.106,0.181,0.126,0.337c-0.039,0.148-0.096,0.257-0.17,0.325s-0.186,0.118-0.334,0.149
		C54.383,156.554,54.232,156.396,54.248,156.126z"/>
	<path d="M57.307,157.96l-0.211,1.084c0.281-0.391,0.606-0.69,0.976-0.899s0.765-0.31,1.187-0.302
		c0.609,0.016,1.053,0.229,1.33,0.639s0.375,0.975,0.293,1.693l-0.691,4.125h-0.691l0.691-4.133
		c0.023-0.222,0.027-0.437,0.012-0.644c-0.066-0.695-0.445-1.052-1.137-1.071c-0.41-0.008-0.793,0.114-1.148,0.366
		c-0.355,0.252-0.668,0.631-0.938,1.139l-0.75,4.343h-0.691l1.102-6.34H57.307z"/>
	<path d="M64.502,164.417c-0.508-0.008-0.947-0.149-1.318-0.425s-0.644-0.65-0.817-1.125s-0.235-0.987-0.185-1.538l0.018-0.199
		c0.055-0.586,0.229-1.144,0.521-1.673s0.664-0.934,1.113-1.213s0.93-0.413,1.441-0.401c0.473,0.008,0.872,0.137,1.198,0.387
		s0.563,0.598,0.712,1.043s0.195,0.938,0.141,1.477l-0.047,0.428h-4.389l-0.018,0.141c-0.059,0.426-0.027,0.833,0.094,1.222
		s0.319,0.697,0.595,0.926s0.606,0.347,0.993,0.354c0.375,0.012,0.713-0.061,1.014-0.217s0.578-0.365,0.832-0.627l0.41,0.334
		c-0.285,0.367-0.624,0.646-1.017,0.835S64.971,164.425,64.502,164.417z M65.24,158.44c-0.508-0.02-0.963,0.16-1.365,0.539
		s-0.705,0.912-0.908,1.6l3.68,0.006l0.018-0.088c0.07-0.555-0.027-1.032-0.293-1.433S65.729,158.456,65.24,158.44z"/>
	<path d="M68.34,161.112c0.09-0.664,0.271-1.253,0.545-1.767s0.608-0.896,1.005-1.146s0.841-0.369,1.333-0.357
		c0.375,0.008,0.717,0.095,1.025,0.261s0.553,0.417,0.732,0.753l0.645-3.557h0.691l-1.564,9h-0.65l0.158-0.844
		c-0.551,0.664-1.234,0.984-2.051,0.961c-0.59-0.016-1.052-0.245-1.386-0.688s-0.509-1.04-0.524-1.79
		c-0.008-0.242,0.002-0.477,0.029-0.703L68.34,161.112z M69.043,161.229c-0.031,0.261-0.043,0.54-0.035,0.836
		c0.016,0.534,0.14,0.954,0.372,1.26c0.232,0.306,0.563,0.467,0.993,0.482c0.434,0.012,0.814-0.087,1.143-0.298
		c0.328-0.211,0.605-0.491,0.832-0.842l0.51-2.981c-0.113-0.378-0.3-0.675-0.56-0.892c-0.26-0.216-0.591-0.33-0.993-0.342
		c-0.594-0.02-1.089,0.208-1.485,0.681s-0.651,1.131-0.765,1.973L69.043,161.229z"/>
	<path d="M78.254,164.3h-0.703l1.107-6.34h0.697L78.254,164.3z M78.852,156.126c0.02-0.254,0.188-0.414,0.504-0.48
		c0.152,0.027,0.261,0.075,0.325,0.144s0.106,0.181,0.126,0.337c-0.039,0.148-0.096,0.257-0.17,0.325s-0.186,0.118-0.334,0.149
		C78.986,156.554,78.836,156.396,78.852,156.126z"/>
	<path d="M81.91,157.96l-0.211,1.084c0.281-0.391,0.606-0.69,0.976-0.899s0.765-0.31,1.187-0.302
		c0.609,0.016,1.053,0.229,1.33,0.639s0.375,0.975,0.293,1.693l-0.691,4.125h-0.691l0.691-4.133
		c0.023-0.222,0.027-0.437,0.012-0.644c-0.066-0.695-0.445-1.052-1.137-1.071c-0.41-0.008-0.793,0.114-1.148,0.366
		c-0.355,0.252-0.668,0.631-0.938,1.139l-0.75,4.343h-0.691l1.102-6.34H81.91z"/>
</g>
<g>
	<g>
		<path fill="none" stroke="#51382B" stroke-miterlimit="10" d="M102.079,232.154c-6.356,5.416-8.846,19.086,0.888,27.067"/>
		<g>
			<polygon fill="#51382B" points="99.504,260.362 102.199,258.603 102.803,255.44 106.987,261.812 			"/>
		</g>
	</g>
</g>
<g>
	<path d="M55.004,250.423c-0.363-0.008-0.706-0.085-1.028-0.231s-0.583-0.376-0.782-0.688l-0.586,3.234h-0.691l1.523-8.777h0.645
		l-0.164,0.896c0.551-0.699,1.24-1.037,2.068-1.014c0.594,0.016,1.057,0.236,1.389,0.662s0.504,1.029,0.516,1.811
		c0.004,0.246-0.008,0.484-0.035,0.715l-0.023,0.164c-0.098,0.684-0.281,1.273-0.551,1.77s-0.598,0.866-0.984,1.11
		S55.48,250.435,55.004,250.423z M57.16,247.033l0.035-0.556c0.012-0.625-0.102-1.114-0.34-1.469s-0.592-0.541-1.061-0.556
		c-0.41-0.008-0.782,0.093-1.116,0.301c-0.334,0.209-0.616,0.512-0.847,0.91l-0.521,3.049c0.125,0.359,0.323,0.632,0.595,0.82
		c0.271,0.187,0.597,0.287,0.976,0.298c0.566,0.02,1.046-0.192,1.438-0.635c0.393-0.443,0.657-1.061,0.794-1.853L57.16,247.033z"/>
	<path d="M62.797,250.3c-0.02-0.148-0.025-0.297-0.018-0.445l0.053-0.439c-0.293,0.316-0.628,0.564-1.005,0.744
		s-0.784,0.266-1.222,0.258c-0.535-0.008-0.97-0.177-1.304-0.507s-0.483-0.745-0.448-1.245c0.031-0.418,0.175-0.78,0.431-1.087
		s0.62-0.545,1.093-0.715s1.002-0.255,1.588-0.255l1.295,0.006l0.105-0.727c0.047-0.434-0.047-0.781-0.281-1.043
		s-0.58-0.4-1.037-0.416c-0.461-0.008-0.862,0.106-1.204,0.343s-0.556,0.548-0.642,0.935h-0.686
		c0.078-0.555,0.363-1.007,0.855-1.356s1.074-0.521,1.746-0.513c0.652,0.016,1.155,0.213,1.509,0.592s0.497,0.871,0.431,1.477
		l-0.527,3.188l-0.047,0.51c-0.012,0.211,0.004,0.42,0.047,0.627l-0.012,0.07H62.797z M60.723,249.808
		c0.43,0.016,0.841-0.087,1.233-0.308s0.718-0.536,0.976-0.943l0.24-1.403l-1.119-0.006c-0.711,0-1.291,0.126-1.74,0.379
		s-0.697,0.613-0.744,1.083c-0.035,0.344,0.056,0.628,0.272,0.851C60.058,249.685,60.352,249.8,60.723,249.808z"/>
	<path d="M69.02,244.552c-0.152-0.031-0.307-0.049-0.463-0.053c-0.445,0-0.854,0.136-1.225,0.407s-0.619,0.616-0.744,1.034
		l-0.75,4.359h-0.691l1.102-6.34h0.686l-0.211,1.008c0.23-0.375,0.509-0.66,0.835-0.855s0.685-0.289,1.075-0.281
		c0.137,0,0.297,0.027,0.48,0.082L69.02,244.552z"/>
	<path d="M71.867,242.337l-0.281,1.623h1.271l-0.1,0.574h-1.271l-0.703,4.23l-0.012,0.363c0,0.426,0.195,0.645,0.586,0.656
		c0.121,0.004,0.311-0.01,0.568-0.041l-0.029,0.574c-0.23,0.066-0.465,0.096-0.703,0.088c-0.41-0.008-0.709-0.151-0.896-0.431
		s-0.256-0.685-0.205-1.216l0.697-4.225h-1.137l0.105-0.574h1.125l0.287-1.623H71.867z"/>
	<path d="M76.268,247.071c0.07-0.613,0.258-1.175,0.562-1.685s0.685-0.897,1.14-1.163s0.948-0.393,1.479-0.381
		c0.523,0.008,0.97,0.151,1.339,0.431s0.639,0.66,0.809,1.143s0.228,1.017,0.173,1.603l-0.012,0.111
		c-0.117,1-0.472,1.803-1.063,2.408s-1.302,0.898-2.13,0.879c-0.711-0.012-1.279-0.273-1.705-0.785s-0.635-1.188-0.627-2.027
		l0.018-0.334L76.268,247.071z M76.947,247.271c-0.051,0.465-0.017,0.894,0.103,1.286s0.31,0.7,0.571,0.923s0.588,0.34,0.979,0.352
		c0.422,0.008,0.808-0.1,1.157-0.322s0.638-0.537,0.864-0.943s0.373-0.855,0.439-1.348l0.018-0.193
		c0.07-0.754-0.046-1.37-0.349-1.849s-0.741-0.724-1.315-0.735c-0.625-0.02-1.165,0.222-1.62,0.724s-0.733,1.169-0.835,2.001
		L76.947,247.271z"/>
	<path d="M83.164,250.3l1.002-5.766h-1.02l0.105-0.574h1.014l0.123-0.861c0.098-0.621,0.335-1.102,0.712-1.441
		s0.847-0.506,1.409-0.498c0.227,0.008,0.482,0.047,0.768,0.117l-0.123,0.58c-0.219-0.059-0.428-0.088-0.627-0.088
		c-0.391,0-0.714,0.127-0.97,0.381s-0.417,0.607-0.483,1.061l-0.111,0.75h1.471l-0.105,0.574h-1.459l-1.002,5.766H83.164z"/>
</g>
<g opacity="0.5">
	<g>
		<path fill="none" stroke="#51382B" stroke-miterlimit="10" d="M176.851,359.01c-7.642,3.368-21.034-0.336-23.986-12.572"/>
		<g>
			<polygon fill="#51382B" points="156.197,348.229 153.087,347.397 150.33,349.059 152.28,341.69 			"/>
		</g>
	</g>
</g>
<g opacity="0.5">
	<path d="M120.962,368.423c-0.363-0.008-0.706-0.085-1.028-0.231s-0.583-0.376-0.782-0.688l-0.586,3.234h-0.691l1.523-8.777h0.645
		l-0.164,0.896c0.551-0.699,1.24-1.037,2.068-1.014c0.594,0.016,1.057,0.236,1.389,0.662s0.504,1.029,0.516,1.811
		c0.004,0.246-0.008,0.484-0.035,0.715l-0.023,0.164c-0.098,0.684-0.281,1.273-0.551,1.77s-0.598,0.866-0.984,1.11
		S121.438,368.435,120.962,368.423z M123.118,365.033l0.035-0.556c0.012-0.624-0.102-1.114-0.34-1.47
		c-0.238-0.354-0.592-0.54-1.061-0.556c-0.41-0.008-0.782,0.093-1.116,0.302s-0.616,0.512-0.847,0.91l-0.521,3.049
		c0.125,0.359,0.323,0.633,0.595,0.82c0.271,0.187,0.597,0.286,0.976,0.298c0.566,0.02,1.046-0.192,1.438-0.635
		c0.393-0.443,0.657-1.061,0.794-1.853L123.118,365.033z"/>
	<path d="M128.755,368.3c-0.02-0.148-0.025-0.297-0.018-0.445l0.053-0.439c-0.293,0.316-0.628,0.564-1.005,0.744
		s-0.784,0.266-1.222,0.258c-0.535-0.008-0.97-0.177-1.304-0.507s-0.483-0.745-0.448-1.245c0.031-0.418,0.175-0.78,0.431-1.087
		s0.62-0.545,1.093-0.715s1.002-0.255,1.588-0.255l1.295,0.006l0.105-0.727c0.047-0.434-0.047-0.781-0.281-1.043
		s-0.58-0.4-1.037-0.416c-0.461-0.008-0.862,0.106-1.204,0.343s-0.556,0.548-0.642,0.935h-0.686
		c0.078-0.555,0.363-1.007,0.855-1.356s1.074-0.521,1.746-0.513c0.652,0.016,1.155,0.213,1.509,0.592s0.497,0.871,0.431,1.477
		l-0.527,3.188l-0.047,0.51c-0.012,0.211,0.004,0.42,0.047,0.627l-0.012,0.07H128.755z M126.681,367.808
		c0.43,0.016,0.841-0.087,1.233-0.308c0.393-0.222,0.718-0.536,0.976-0.943l0.24-1.403l-1.119-0.006
		c-0.711,0-1.291,0.126-1.74,0.379s-0.697,0.613-0.744,1.083c-0.035,0.345,0.056,0.629,0.272,0.852
		C126.016,367.685,126.31,367.8,126.681,367.808z"/>
	<path d="M134.978,362.552c-0.152-0.031-0.307-0.049-0.463-0.053c-0.445,0-0.854,0.136-1.225,0.407s-0.619,0.616-0.744,1.034
		l-0.75,4.359h-0.691l1.102-6.34h0.686l-0.211,1.008c0.23-0.375,0.509-0.66,0.835-0.855s0.685-0.289,1.075-0.281
		c0.137,0,0.297,0.027,0.48,0.082L134.978,362.552z"/>
	<path d="M137.825,360.337l-0.281,1.623h1.271l-0.1,0.574h-1.271l-0.703,4.23l-0.012,0.363c0,0.426,0.195,0.645,0.586,0.656
		c0.121,0.004,0.311-0.01,0.568-0.041l-0.029,0.574c-0.23,0.066-0.465,0.096-0.703,0.088c-0.41-0.008-0.709-0.151-0.896-0.431
		s-0.256-0.685-0.205-1.216l0.697-4.225h-1.137l0.105-0.574h1.125l0.287-1.623H137.825z"/>
	<path d="M142.226,365.071c0.07-0.613,0.258-1.175,0.562-1.685s0.685-0.897,1.14-1.163s0.948-0.393,1.479-0.381
		c0.523,0.008,0.97,0.151,1.339,0.431s0.639,0.66,0.809,1.143s0.228,1.017,0.173,1.603l-0.012,0.111
		c-0.117,1-0.472,1.803-1.063,2.408s-1.302,0.898-2.13,0.879c-0.711-0.012-1.279-0.273-1.705-0.785s-0.635-1.188-0.627-2.027
		l0.018-0.334L142.226,365.071z M142.905,365.271c-0.051,0.465-0.017,0.894,0.103,1.286s0.31,0.7,0.571,0.923
		s0.588,0.34,0.979,0.352c0.422,0.008,0.808-0.1,1.157-0.322s0.638-0.537,0.864-0.943s0.373-0.855,0.439-1.348l0.018-0.193
		c0.07-0.754-0.046-1.37-0.349-1.849s-0.741-0.724-1.315-0.735c-0.625-0.02-1.165,0.222-1.62,0.724s-0.733,1.169-0.835,2.001
		L142.905,365.271z"/>
	<path d="M149.122,368.3l1.002-5.766h-1.02l0.105-0.574h1.014l0.123-0.861c0.098-0.621,0.335-1.102,0.712-1.441
		s0.847-0.506,1.409-0.498c0.227,0.008,0.482,0.047,0.768,0.117l-0.123,0.58c-0.219-0.059-0.428-0.088-0.627-0.088
		c-0.391,0-0.714,0.127-0.97,0.381s-0.417,0.607-0.483,1.061l-0.111,0.75h1.471l-0.105,0.574h-1.459l-1.002,5.766H149.122z"/>
</g>
<g opacity="0.5">
	<g>
		<path fill="none" stroke="#51382B" stroke-miterlimit="10" d="M218.564,125.576c-0.16,8.349-9.156,18.939-21.499,16.469"/>
		<g>
			<polygon fill="#51382B" points="200.094,139.775 198.03,142.246 198.377,145.446 192.514,140.576 			"/>
		</g>
	</g>
</g>
<g opacity="0.5">
	<path d="M206.137,149.933l-0.281,1.623h1.271l-0.1,0.574h-1.271l-0.703,4.23l-0.012,0.363c0,0.426,0.195,0.645,0.586,0.656
		c0.121,0.004,0.311-0.01,0.568-0.041l-0.029,0.574c-0.23,0.066-0.465,0.096-0.703,0.088c-0.41-0.008-0.709-0.151-0.896-0.431
		s-0.256-0.685-0.205-1.216l0.697-4.225h-1.137l0.105-0.574h1.125l0.287-1.623H206.137z"/>
	<path d="M211.352,152.147c-0.152-0.031-0.307-0.049-0.463-0.053c-0.445,0-0.854,0.136-1.225,0.407s-0.619,0.616-0.744,1.034
		l-0.75,4.359h-0.691l1.102-6.34h0.686l-0.211,1.008c0.23-0.375,0.509-0.66,0.835-0.855s0.685-0.289,1.075-0.281
		c0.137,0,0.297,0.027,0.48,0.082L211.352,152.147z"/>
	<path d="M215.16,157.896c-0.02-0.148-0.025-0.297-0.018-0.445l0.053-0.439c-0.293,0.316-0.628,0.564-1.005,0.744
		s-0.784,0.266-1.222,0.258c-0.535-0.008-0.97-0.177-1.304-0.507s-0.483-0.745-0.448-1.245c0.031-0.418,0.175-0.78,0.431-1.087
		s0.62-0.545,1.093-0.715s1.002-0.255,1.588-0.255l1.295,0.006l0.105-0.727c0.047-0.434-0.047-0.781-0.281-1.043
		s-0.58-0.4-1.037-0.416c-0.461-0.008-0.862,0.106-1.204,0.343s-0.556,0.548-0.642,0.935h-0.686
		c0.078-0.555,0.363-1.007,0.855-1.356s1.074-0.521,1.746-0.513c0.652,0.016,1.155,0.213,1.509,0.592s0.497,0.871,0.431,1.477
		l-0.527,3.188l-0.047,0.51c-0.012,0.211,0.004,0.42,0.047,0.627l-0.012,0.07H215.16z M213.086,157.403
		c0.43,0.016,0.841-0.087,1.233-0.308s0.718-0.536,0.976-0.943l0.24-1.403l-1.119-0.006c-0.711,0-1.291,0.126-1.74,0.379
		s-0.697,0.613-0.744,1.083c-0.035,0.344,0.056,0.628,0.272,0.851C212.421,157.28,212.715,157.396,213.086,157.403z"/>
	<path d="M219.279,151.556l-0.211,1.084c0.281-0.391,0.606-0.69,0.976-0.899s0.765-0.31,1.187-0.302
		c0.609,0.016,1.053,0.229,1.33,0.639s0.375,0.975,0.293,1.693l-0.691,4.125h-0.691l0.691-4.133
		c0.023-0.222,0.027-0.437,0.012-0.644c-0.066-0.695-0.445-1.052-1.137-1.071c-0.41-0.008-0.793,0.114-1.148,0.366
		c-0.355,0.252-0.668,0.631-0.938,1.139l-0.75,4.343h-0.691l1.102-6.34H219.279z"/>
	<path d="M227.969,156.243c0.062-0.539-0.266-0.93-0.984-1.172l-1.008-0.299c-0.926-0.312-1.363-0.834-1.312-1.564
		c0.027-0.527,0.271-0.956,0.729-1.286s1.005-0.491,1.638-0.483c0.621,0.008,1.125,0.183,1.512,0.524s0.566,0.798,0.539,1.368
		h-0.691c0.023-0.379-0.095-0.688-0.354-0.926s-0.604-0.361-1.034-0.369c-0.445,0-0.82,0.104-1.125,0.313s-0.477,0.485-0.516,0.829
		c-0.059,0.504,0.25,0.857,0.926,1.061l0.732,0.211l0.393,0.135c0.883,0.332,1.299,0.873,1.248,1.623
		c-0.031,0.508-0.251,0.925-0.659,1.251s-0.935,0.509-1.579,0.548l-0.24,0.006c-0.426-0.008-0.811-0.091-1.154-0.249
		s-0.607-0.38-0.791-0.665s-0.264-0.613-0.24-0.984l0.697,0.006c0,0.398,0.135,0.713,0.404,0.943s0.641,0.35,1.113,0.357
		c0.469,0,0.867-0.106,1.195-0.319S227.922,156.603,227.969,156.243z"/>
	<path d="M230.693,157.896h-0.703l1.564-9h0.703L230.693,157.896z"/>
	<path d="M236.523,157.896c-0.02-0.148-0.025-0.297-0.018-0.445l0.053-0.439c-0.293,0.316-0.628,0.564-1.005,0.744
		s-0.784,0.266-1.222,0.258c-0.535-0.008-0.97-0.177-1.304-0.507s-0.483-0.745-0.448-1.245c0.031-0.418,0.175-0.78,0.431-1.087
		s0.62-0.545,1.093-0.715s1.002-0.255,1.588-0.255l1.295,0.006l0.105-0.727c0.047-0.434-0.047-0.781-0.281-1.043
		s-0.58-0.4-1.037-0.416c-0.461-0.008-0.862,0.106-1.204,0.343s-0.556,0.548-0.642,0.935h-0.686
		c0.078-0.555,0.363-1.007,0.855-1.356s1.074-0.521,1.746-0.513c0.652,0.016,1.155,0.213,1.509,0.592s0.497,0.871,0.431,1.477
		l-0.527,3.188l-0.047,0.51c-0.012,0.211,0.004,0.42,0.047,0.627l-0.012,0.07H236.523z M234.449,157.403
		c0.43,0.016,0.841-0.087,1.233-0.308s0.718-0.536,0.976-0.943l0.24-1.403l-1.119-0.006c-0.711,0-1.291,0.126-1.74,0.379
		s-0.697,0.613-0.744,1.083c-0.035,0.344,0.056,0.628,0.272,0.851C233.784,157.28,234.078,157.396,234.449,157.403z"/>
	<path d="M241.328,149.933l-0.281,1.623h1.271l-0.1,0.574h-1.271l-0.703,4.23l-0.012,0.363c0,0.426,0.195,0.645,0.586,0.656
		c0.121,0.004,0.311-0.01,0.568-0.041l-0.029,0.574c-0.23,0.066-0.465,0.096-0.703,0.088c-0.41-0.008-0.709-0.151-0.896-0.431
		s-0.256-0.685-0.205-1.216l0.697-4.225h-1.137l0.105-0.574h1.125l0.287-1.623H241.328z"/>
	<path d="M243.449,157.896h-0.703l1.107-6.34h0.697L243.449,157.896z M244.047,149.722c0.02-0.254,0.188-0.414,0.504-0.48
		c0.152,0.027,0.261,0.075,0.325,0.144s0.106,0.181,0.126,0.337c-0.039,0.148-0.096,0.257-0.17,0.325s-0.186,0.118-0.334,0.149
		C244.182,150.149,244.031,149.991,244.047,149.722z"/>
	<path d="M245.506,154.667c0.07-0.613,0.258-1.175,0.562-1.685s0.685-0.897,1.14-1.163s0.948-0.393,1.479-0.381
		c0.523,0.008,0.97,0.151,1.339,0.431s0.639,0.66,0.809,1.143s0.228,1.017,0.173,1.603l-0.012,0.111
		c-0.117,1-0.472,1.803-1.063,2.408s-1.302,0.898-2.13,0.879c-0.711-0.012-1.279-0.273-1.705-0.785s-0.635-1.188-0.627-2.027
		l0.018-0.334L245.506,154.667z M246.186,154.866c-0.051,0.465-0.017,0.894,0.103,1.286s0.31,0.7,0.571,0.923
		s0.588,0.34,0.979,0.352c0.422,0.008,0.808-0.1,1.157-0.322s0.638-0.537,0.864-0.943s0.373-0.855,0.439-1.348l0.018-0.193
		c0.07-0.754-0.046-1.37-0.349-1.849s-0.741-0.724-1.315-0.735c-0.625-0.02-1.165,0.222-1.62,0.724s-0.733,1.169-0.835,2.001
		L246.186,154.866z"/>
	<path d="M253.686,151.556l-0.211,1.084c0.281-0.391,0.606-0.69,0.976-0.899s0.765-0.31,1.187-0.302
		c0.609,0.016,1.053,0.229,1.33,0.639s0.375,0.975,0.293,1.693l-0.691,4.125h-0.691l0.691-4.133
		c0.023-0.222,0.027-0.437,0.012-0.644c-0.066-0.695-0.445-1.052-1.137-1.071c-0.41-0.008-0.793,0.114-1.148,0.366
		c-0.355,0.252-0.668,0.631-0.938,1.139l-0.75,4.343h-0.691l1.102-6.34H253.686z"/>
</g>
<path opacity="0.5" fill="none" stroke="#51382B" stroke-miterlimit="10" d="M250.455,137.49
	c-16.041,7.882-37.576,9.464-52.865,4.918"/>
<g>
	<g>
		<path fill="none" stroke="#51382B" stroke-miterlimit="10" d="M215.955,197.632c0.665-8.323-7.241-19.75-19.768-18.511"/>
		<g>
			<polygon fill="#51382B" points="197.829,175.865 197.168,179.015 198.978,181.678 191.514,180.132 			"/>
		</g>
	</g>
</g>
<g>
	<path d="M228.752,193.923c-0.363-0.008-0.706-0.085-1.028-0.231s-0.583-0.376-0.782-0.688l-0.586,3.234h-0.691l1.523-8.777h0.645
		l-0.164,0.896c0.551-0.699,1.24-1.037,2.068-1.014c0.594,0.016,1.057,0.236,1.389,0.662s0.504,1.029,0.516,1.811
		c0.004,0.246-0.008,0.484-0.035,0.715l-0.023,0.164c-0.098,0.684-0.281,1.273-0.551,1.77s-0.598,0.866-0.984,1.11
		S229.229,193.935,228.752,193.923z M230.908,190.533l0.035-0.556c0.012-0.625-0.102-1.114-0.34-1.469s-0.592-0.541-1.061-0.556
		c-0.41-0.008-0.782,0.093-1.116,0.301c-0.334,0.209-0.616,0.512-0.847,0.91l-0.521,3.049c0.125,0.359,0.323,0.632,0.595,0.82
		c0.271,0.187,0.597,0.287,0.976,0.298c0.566,0.02,1.046-0.192,1.438-0.635c0.393-0.443,0.657-1.061,0.794-1.853L230.908,190.533z"
		/>
	<path d="M236.809,193.003c-0.504,0.633-1.199,0.938-2.086,0.914c-0.598-0.012-1.043-0.228-1.336-0.647s-0.398-1.003-0.316-1.749
		l0.68-4.061h0.691l-0.674,4.078c-0.023,0.211-0.025,0.42-0.006,0.627c0.027,0.359,0.135,0.637,0.322,0.832s0.445,0.299,0.773,0.311
		c0.469,0.02,0.902-0.089,1.301-0.325s0.656-0.546,0.773-0.929l0.785-4.594h0.703l-1.102,6.34h-0.68L236.809,193.003z"/>
	<path d="M244.561,190.659c-0.137,1.008-0.458,1.809-0.964,2.402s-1.132,0.881-1.878,0.861c-0.414-0.008-0.778-0.1-1.093-0.275
		s-0.556-0.414-0.724-0.715l-0.199,0.867h-0.656l1.564-9h0.691l-0.662,3.58c0.543-0.715,1.229-1.061,2.057-1.037
		c0.605,0.016,1.072,0.24,1.4,0.674s0.498,1.033,0.51,1.799c0.004,0.25-0.008,0.49-0.035,0.721L244.561,190.659z M243.875,190.525
		l0.041-0.556c0.012-0.635-0.1-1.126-0.334-1.473c-0.234-0.347-0.584-0.528-1.049-0.544c-0.855-0.016-1.525,0.417-2.01,1.298
		l-0.48,2.865c0.113,0.378,0.308,0.669,0.583,0.875c0.275,0.205,0.61,0.312,1.005,0.324c0.582,0.012,1.069-0.213,1.462-0.675
		S243.746,191.472,243.875,190.525z"/>
	<path d="M246.342,193.8h-0.703l1.564-9h0.703L246.342,193.8z"/>
	<path d="M249.008,193.8h-0.703l1.107-6.34h0.697L249.008,193.8z M249.605,185.626c0.02-0.254,0.188-0.414,0.504-0.48
		c0.152,0.027,0.261,0.075,0.325,0.144s0.106,0.181,0.126,0.337c-0.039,0.148-0.096,0.257-0.17,0.325s-0.186,0.118-0.334,0.149
		C249.74,186.054,249.59,185.896,249.605,185.626z"/>
	<path d="M254.902,192.147c0.062-0.539-0.266-0.93-0.984-1.172l-1.008-0.299c-0.926-0.312-1.363-0.834-1.312-1.564
		c0.027-0.527,0.271-0.956,0.729-1.286s1.005-0.491,1.638-0.483c0.621,0.008,1.125,0.183,1.512,0.524s0.566,0.798,0.539,1.368
		h-0.691c0.023-0.379-0.095-0.688-0.354-0.926s-0.604-0.361-1.034-0.369c-0.445,0-0.82,0.104-1.125,0.313s-0.477,0.485-0.516,0.829
		c-0.059,0.504,0.25,0.857,0.926,1.061l0.732,0.211l0.393,0.135c0.883,0.332,1.299,0.873,1.248,1.623
		c-0.031,0.508-0.251,0.925-0.659,1.251s-0.935,0.509-1.579,0.548l-0.24,0.006c-0.426-0.008-0.811-0.091-1.154-0.249
		s-0.607-0.38-0.791-0.665s-0.264-0.613-0.24-0.984l0.697,0.006c0,0.398,0.135,0.713,0.404,0.943s0.641,0.35,1.113,0.357
		c0.469,0,0.867-0.106,1.195-0.319S254.855,192.507,254.902,192.147z"/>
	<path d="M258.412,188.532c0.609-0.809,1.328-1.205,2.156-1.189c0.609,0.016,1.053,0.229,1.33,0.639s0.375,0.975,0.293,1.693
		L261.5,193.8h-0.691l0.691-4.133c0.023-0.222,0.027-0.437,0.012-0.644c-0.066-0.695-0.445-1.052-1.137-1.071
		c-0.41-0.008-0.793,0.114-1.148,0.366c-0.355,0.252-0.668,0.631-0.938,1.139l-0.75,4.343h-0.691l1.564-9h0.691L258.412,188.532z"/>
	<path d="M265.807,193.917c-0.508-0.008-0.947-0.149-1.318-0.425s-0.644-0.65-0.817-1.125s-0.235-0.987-0.185-1.538l0.018-0.199
		c0.055-0.586,0.229-1.144,0.521-1.673s0.664-0.934,1.113-1.213s0.93-0.413,1.441-0.401c0.473,0.008,0.872,0.137,1.198,0.387
		s0.563,0.598,0.712,1.043s0.195,0.938,0.141,1.477l-0.047,0.428h-4.389l-0.018,0.141c-0.059,0.426-0.027,0.833,0.094,1.222
		s0.319,0.697,0.595,0.926s0.606,0.347,0.993,0.354c0.375,0.012,0.713-0.061,1.014-0.217s0.578-0.365,0.832-0.627l0.41,0.334
		c-0.285,0.367-0.624,0.646-1.017,0.835S266.275,193.925,265.807,193.917z M266.545,187.94c-0.508-0.02-0.963,0.16-1.365,0.539
		s-0.705,0.912-0.908,1.6l3.68,0.006l0.018-0.088c0.07-0.555-0.027-1.032-0.293-1.433S267.033,187.956,266.545,187.94z"/>
	<path d="M269.645,190.612c0.09-0.664,0.271-1.253,0.545-1.767s0.608-0.896,1.005-1.146s0.841-0.369,1.333-0.357
		c0.375,0.008,0.717,0.095,1.025,0.261s0.553,0.417,0.732,0.753l0.645-3.557h0.691l-1.564,9h-0.65l0.158-0.844
		c-0.551,0.664-1.234,0.984-2.051,0.961c-0.59-0.016-1.052-0.245-1.386-0.688s-0.509-1.04-0.524-1.79
		c-0.008-0.242,0.002-0.477,0.029-0.703L269.645,190.612z M270.348,190.729c-0.031,0.261-0.043,0.54-0.035,0.836
		c0.016,0.534,0.14,0.954,0.372,1.26c0.232,0.306,0.563,0.467,0.993,0.482c0.434,0.012,0.814-0.087,1.143-0.298
		c0.328-0.211,0.605-0.491,0.832-0.842l0.51-2.981c-0.113-0.378-0.3-0.675-0.56-0.892c-0.26-0.216-0.591-0.33-0.993-0.342
		c-0.594-0.02-1.089,0.208-1.485,0.681s-0.651,1.131-0.765,1.973L270.348,190.729z"/>
</g>
<g opacity="0.5">
	<g>
		<path fill="none" stroke="#51382B" stroke-miterlimit="10" d="M268.009,275.913c6.981,4.581,11.156,17.834,2.494,26.967"/>
		<g>
			<polygon fill="#51382B" points="270.193,299.108 271.188,302.17 274.081,303.58 266.837,305.951 			"/>
		</g>
	</g>
</g>
<g opacity="0.5">
	<path d="M288.752,293.594c-0.363-0.008-0.706-0.085-1.028-0.231s-0.583-0.376-0.782-0.688l-0.586,3.234h-0.691l1.523-8.777h0.645
		l-0.164,0.896c0.551-0.699,1.24-1.037,2.068-1.014c0.594,0.016,1.057,0.236,1.389,0.662s0.504,1.029,0.516,1.811
		c0.004,0.246-0.008,0.484-0.035,0.715l-0.023,0.164c-0.098,0.684-0.281,1.273-0.551,1.77s-0.598,0.866-0.984,1.11
		S289.229,293.605,288.752,293.594z M290.908,290.204l0.035-0.556c0.012-0.625-0.102-1.114-0.34-1.469
		c-0.238-0.355-0.592-0.541-1.061-0.557c-0.41-0.008-0.782,0.093-1.116,0.301c-0.334,0.209-0.616,0.513-0.847,0.91l-0.521,3.05
		c0.125,0.359,0.323,0.632,0.595,0.819s0.597,0.287,0.976,0.299c0.566,0.02,1.046-0.191,1.438-0.635s0.657-1.061,0.794-1.853
		L290.908,290.204z"/>
	<path d="M296.809,292.674c-0.504,0.633-1.199,0.938-2.086,0.914c-0.598-0.012-1.043-0.228-1.336-0.647s-0.398-1.003-0.316-1.749
		l0.68-4.061h0.691l-0.674,4.078c-0.023,0.211-0.025,0.42-0.006,0.627c0.027,0.359,0.135,0.637,0.322,0.832s0.445,0.299,0.773,0.311
		c0.469,0.02,0.902-0.089,1.301-0.325s0.656-0.546,0.773-0.929l0.785-4.594h0.703l-1.102,6.34h-0.68L296.809,292.674z"/>
	<path d="M304.561,290.33c-0.137,1.008-0.458,1.809-0.964,2.402s-1.132,0.881-1.878,0.861c-0.414-0.008-0.778-0.1-1.093-0.275
		s-0.556-0.414-0.724-0.715l-0.199,0.867h-0.656l1.564-9h0.691l-0.662,3.58c0.543-0.715,1.229-1.061,2.057-1.037
		c0.605,0.016,1.072,0.24,1.4,0.674s0.498,1.033,0.51,1.799c0.004,0.25-0.008,0.49-0.035,0.721L304.561,290.33z M303.875,290.195
		l0.041-0.555c0.012-0.636-0.1-1.127-0.334-1.474s-0.584-0.528-1.049-0.544c-0.855-0.016-1.525,0.417-2.01,1.298l-0.48,2.864
		c0.113,0.379,0.308,0.67,0.583,0.875s0.61,0.312,1.005,0.324c0.582,0.012,1.069-0.213,1.462-0.676
		C303.485,291.848,303.746,291.143,303.875,290.195z"/>
	<path d="M306.342,293.471h-0.703l1.564-9h0.703L306.342,293.471z"/>
	<path d="M309.008,293.471h-0.703l1.107-6.34h0.697L309.008,293.471z M309.605,285.297c0.02-0.254,0.188-0.414,0.504-0.48
		c0.152,0.027,0.261,0.075,0.325,0.144s0.106,0.181,0.126,0.337c-0.039,0.148-0.096,0.257-0.17,0.325s-0.186,0.118-0.334,0.149
		C309.74,285.725,309.59,285.566,309.605,285.297z"/>
	<path d="M314.902,291.818c0.062-0.539-0.266-0.93-0.984-1.172l-1.008-0.299c-0.926-0.312-1.363-0.834-1.312-1.564
		c0.027-0.527,0.271-0.956,0.729-1.286s1.005-0.491,1.638-0.483c0.621,0.008,1.125,0.183,1.512,0.524s0.566,0.798,0.539,1.368
		h-0.691c0.023-0.379-0.095-0.688-0.354-0.926s-0.604-0.361-1.034-0.369c-0.445,0-0.82,0.104-1.125,0.313s-0.477,0.485-0.516,0.829
		c-0.059,0.504,0.25,0.857,0.926,1.061l0.732,0.211l0.393,0.135c0.883,0.332,1.299,0.873,1.248,1.623
		c-0.031,0.508-0.251,0.925-0.659,1.251s-0.935,0.509-1.579,0.548l-0.24,0.006c-0.426-0.008-0.811-0.091-1.154-0.249
		s-0.607-0.38-0.791-0.665s-0.264-0.613-0.24-0.984l0.697,0.006c0,0.398,0.135,0.713,0.404,0.943s0.641,0.35,1.113,0.357
		c0.469,0,0.867-0.106,1.195-0.319S314.855,292.178,314.902,291.818z"/>
	<path d="M318.412,288.203c0.609-0.809,1.328-1.205,2.156-1.189c0.609,0.016,1.053,0.229,1.33,0.639s0.375,0.975,0.293,1.693
		l-0.691,4.125h-0.691l0.691-4.133c0.023-0.223,0.027-0.437,0.012-0.644c-0.066-0.694-0.445-1.052-1.137-1.071
		c-0.41-0.008-0.793,0.114-1.148,0.365c-0.355,0.252-0.668,0.632-0.938,1.139l-0.75,4.344h-0.691l1.564-9h0.691L318.412,288.203z"/>
	<path d="M325.807,293.588c-0.508-0.008-0.947-0.149-1.318-0.425s-0.644-0.65-0.817-1.125s-0.235-0.987-0.185-1.538l0.018-0.199
		c0.055-0.586,0.229-1.144,0.521-1.673s0.664-0.934,1.113-1.213s0.93-0.413,1.441-0.401c0.473,0.008,0.872,0.137,1.198,0.387
		s0.563,0.598,0.712,1.043s0.195,0.938,0.141,1.477l-0.047,0.428h-4.389l-0.018,0.141c-0.059,0.426-0.027,0.833,0.094,1.222
		s0.319,0.697,0.595,0.926s0.606,0.347,0.993,0.354c0.375,0.012,0.713-0.061,1.014-0.217s0.578-0.365,0.832-0.627l0.41,0.334
		c-0.285,0.367-0.624,0.646-1.017,0.835S326.275,293.596,325.807,293.588z M326.545,287.611c-0.508-0.02-0.963,0.16-1.365,0.539
		s-0.705,0.912-0.908,1.6l3.68,0.006l0.018-0.088c0.07-0.555-0.027-1.032-0.293-1.433S327.033,287.627,326.545,287.611z"/>
	<path d="M329.645,290.283c0.09-0.664,0.271-1.253,0.545-1.767s0.608-0.896,1.005-1.146s0.841-0.369,1.333-0.357
		c0.375,0.008,0.717,0.095,1.025,0.261s0.553,0.417,0.732,0.753l0.645-3.557h0.691l-1.564,9h-0.65l0.158-0.844
		c-0.551,0.664-1.234,0.984-2.051,0.961c-0.59-0.016-1.052-0.245-1.386-0.688s-0.509-1.04-0.524-1.79
		c-0.008-0.242,0.002-0.477,0.029-0.703L329.645,290.283z M330.348,290.4c-0.031,0.261-0.043,0.539-0.035,0.836
		c0.016,0.533,0.14,0.954,0.372,1.26c0.232,0.307,0.563,0.467,0.993,0.482c0.434,0.012,0.814-0.088,1.143-0.298
		c0.328-0.211,0.605-0.491,0.832-0.843l0.51-2.98c-0.113-0.379-0.3-0.676-0.56-0.893c-0.26-0.216-0.591-0.33-0.993-0.342
		c-0.594-0.02-1.089,0.207-1.485,0.682c-0.396,0.473-0.651,1.131-0.765,1.973L330.348,290.4z"/>
</g>
<g>
	<polygon fill="#EB743B" stroke="#FFFFFF" stroke-miterlimit="10" points="173.188,76.012 197.59,118.832 173.188,161.49 
		124.387,161.49 99.986,118.792 124.387,76.281 	"/>
	<g>
		<path fill="#FFFFFF" d="M142.192,147.363l1.148-6.07h1.752l-1.893,8.531h-1.77l-1.389-5.707l-1.389,5.707h-1.77l-1.893-8.531
			h1.752l1.154,6.059l1.406-6.059h1.488L142.192,147.363z"/>
		<path fill="#FFFFFF" d="M145.485,146.595c0-0.629,0.121-1.189,0.363-1.682s0.591-0.873,1.046-1.143s0.983-0.404,1.585-0.404
			c0.855,0,1.554,0.262,2.095,0.785s0.843,1.234,0.905,2.133l0.012,0.434c0,0.973-0.271,1.753-0.814,2.341s-1.271,0.882-2.186,0.882
			s-1.644-0.293-2.188-0.879s-0.817-1.383-0.817-2.391V146.595z M147.179,146.715c0,0.603,0.113,1.063,0.34,1.382
			c0.227,0.319,0.551,0.479,0.973,0.479c0.41,0,0.73-0.157,0.961-0.473c0.23-0.314,0.346-0.818,0.346-1.511
			c0-0.591-0.115-1.048-0.346-1.373s-0.555-0.487-0.973-0.487c-0.414,0-0.734,0.162-0.961,0.484S147.179,146.039,147.179,146.715z"
			/>
		<path fill="#FFFFFF" d="M156.097,145.072c-0.23-0.031-0.434-0.047-0.609-0.047c-0.641,0-1.061,0.217-1.26,0.65v4.148h-1.693v-6.34
			h1.6l0.047,0.756c0.34-0.582,0.811-0.873,1.412-0.873c0.188,0,0.363,0.025,0.527,0.076L156.097,145.072z"/>
		<path fill="#FFFFFF" d="M159.214,147.281l-0.609,0.609v1.934h-1.693v-9h1.693v4.986l0.328-0.422l1.623-1.904h2.033l-2.291,2.643
			l2.49,3.697h-1.945L159.214,147.281z"/>
	</g>
	<path fill="#51382B" d="M138.993,102.855c-1.673,0.473-3.003,1.743-3.553,3.393l-7.652,22.957l1.204,1.205l12.314-12.313
		c-0.245-0.514-0.395-1.081-0.395-1.688c0-2.174,1.764-3.938,3.938-3.938c2.175,0,3.938,1.764,3.938,3.938
		c0,2.175-1.763,3.938-3.938,3.938c-0.606,0-1.174-0.148-1.688-0.394l-12.313,12.313l1.205,1.205l22.957-7.652
		c1.648-0.551,2.919-1.881,3.392-3.553l3.51-12.42l-10.5-10.5L138.993,102.855z M168.634,97.555l-4.931-4.93
		c-1.538-1.539-4.032-1.539-5.57,0l-4.64,4.639l10.502,10.501l4.639-4.639C170.172,101.588,170.172,99.094,168.634,97.555z"/>
</g>
<g opacity="0.5">
	<polygon fill="#EB743B" stroke="#FFFFFF" stroke-miterlimit="10" points="319.188,75.012 343.59,117.832 319.188,160.49 
		270.387,160.49 245.986,117.792 270.387,75.281 	"/>
	<g>
		<path fill="#FFFFFF" d="M288.192,146.363l1.148-6.07h1.752l-1.893,8.531h-1.77l-1.389-5.707l-1.389,5.707h-1.77l-1.893-8.531
			h1.752l1.154,6.059l1.406-6.059h1.488L288.192,146.363z"/>
		<path fill="#FFFFFF" d="M291.485,145.595c0-0.629,0.121-1.189,0.363-1.682s0.591-0.873,1.046-1.143s0.983-0.404,1.585-0.404
			c0.855,0,1.554,0.262,2.095,0.785s0.843,1.234,0.905,2.133l0.012,0.434c0,0.973-0.271,1.753-0.814,2.341s-1.271,0.882-2.186,0.882
			s-1.644-0.293-2.188-0.879s-0.817-1.383-0.817-2.391V145.595z M293.179,145.715c0,0.603,0.113,1.063,0.34,1.382
			c0.227,0.319,0.551,0.479,0.973,0.479c0.41,0,0.73-0.157,0.961-0.473c0.23-0.314,0.346-0.818,0.346-1.511
			c0-0.591-0.115-1.048-0.346-1.373s-0.555-0.487-0.973-0.487c-0.414,0-0.734,0.162-0.961,0.484S293.179,145.039,293.179,145.715z"
			/>
		<path fill="#FFFFFF" d="M302.097,144.072c-0.23-0.031-0.434-0.047-0.609-0.047c-0.641,0-1.061,0.217-1.26,0.65v4.148h-1.693v-6.34
			h1.6l0.047,0.756c0.34-0.582,0.811-0.873,1.412-0.873c0.188,0,0.363,0.025,0.527,0.076L302.097,144.072z"/>
		<path fill="#FFFFFF" d="M305.214,146.281l-0.609,0.609v1.934h-1.693v-9h1.693v4.986l0.328-0.422l1.623-1.904h2.033l-2.291,2.643
			l2.49,3.697h-1.945L305.214,146.281z"/>
	</g>
	<path fill="#51382B" d="M284.993,101.855c-1.673,0.473-3.003,1.743-3.553,3.393l-7.652,22.957l1.204,1.205l12.314-12.313
		c-0.245-0.514-0.395-1.081-0.395-1.688c0-2.174,1.764-3.938,3.938-3.938c2.175,0,3.938,1.764,3.938,3.938
		c0,2.175-1.763,3.938-3.938,3.938c-0.606,0-1.174-0.148-1.688-0.394l-12.313,12.313l1.205,1.205l22.957-7.652
		c1.648-0.551,2.919-1.881,3.392-3.553l3.51-12.42l-10.5-10.5L284.993,101.855z M314.634,96.555l-4.931-4.93
		c-1.538-1.539-4.032-1.539-5.57,0l-4.64,4.639l10.502,10.501l4.639-4.639C316.172,100.588,316.172,98.094,314.634,96.555z"/>
</g>
<g>
	<polygon fill="#EB743B" stroke="#FFFFFF" stroke-miterlimit="10" points="100.188,33.012 124.59,75.832 100.188,118.49 
		51.387,118.49 26.986,75.792 51.387,33.281 	"/>
	<g>
		<path fill="#FFFFFF" d="M63.037,105.066h-3.082l-0.586,1.758H57.5l3.176-8.531h1.629l3.193,8.531h-1.869L63.037,105.066z
			 M60.43,103.642h2.133l-1.072-3.193L60.43,103.642z"/>
		<path fill="#FFFFFF" d="M69.916,106.179c-0.418,0.508-0.996,0.762-1.734,0.762c-0.68,0-1.197-0.195-1.555-0.586
			s-0.541-0.963-0.549-1.717v-4.154h1.693v4.101c0,0.661,0.301,0.991,0.902,0.991c0.574,0,0.969-0.199,1.184-0.599v-4.493h1.699
			v6.34h-1.594L69.916,106.179z"/>
		<path fill="#FFFFFF" d="M74.861,98.925v1.559h1.084v1.242h-1.084v3.164c0,0.234,0.045,0.402,0.135,0.504s0.262,0.152,0.516,0.152
			c0.188,0,0.354-0.014,0.498-0.041v1.283c-0.332,0.102-0.674,0.152-1.025,0.152c-1.188,0-1.793-0.6-1.816-1.799v-3.416h-0.926
			v-1.242h0.926v-1.559H74.861z"/>
		<path fill="#FFFFFF" d="M78.541,101.175c0.449-0.539,1.014-0.809,1.693-0.809c1.375,0,2.072,0.799,2.092,2.396v4.061h-1.693
			v-4.014c0-0.363-0.078-0.632-0.234-0.806s-0.416-0.261-0.779-0.261c-0.496,0-0.855,0.191-1.078,0.574v4.506h-1.693v-9h1.693
			V101.175z"/>
		<path fill="#FFFFFF" d="M83.34,103.595c0-0.629,0.121-1.189,0.363-1.682s0.592-0.873,1.047-1.143s0.982-0.404,1.584-0.404
			c0.855,0,1.555,0.262,2.096,0.785s0.842,1.234,0.904,2.133l0.012,0.434c0,0.973-0.271,1.753-0.814,2.341s-1.271,0.882-2.186,0.882
			s-1.643-0.293-2.188-0.879s-0.818-1.383-0.818-2.391V103.595z M85.033,103.715c0,0.603,0.113,1.063,0.34,1.382
			c0.227,0.319,0.551,0.479,0.973,0.479c0.41,0,0.73-0.157,0.961-0.473c0.23-0.314,0.346-0.818,0.346-1.511
			c0-0.591-0.115-1.048-0.346-1.373s-0.555-0.487-0.973-0.487c-0.414,0-0.734,0.162-0.961,0.484S85.033,103.039,85.033,103.715z"/>
		<path fill="#FFFFFF" d="M93.951,102.072c-0.23-0.031-0.434-0.047-0.609-0.047c-0.641,0-1.061,0.217-1.26,0.65v4.148h-1.693v-6.34
			h1.6l0.047,0.756c0.34-0.582,0.811-0.873,1.412-0.873c0.188,0,0.363,0.025,0.527,0.076L93.951,102.072z"/>
	</g>
	<path fill="#51382B" d="M75.787,69.185c5.8,0,10.5-4.7,10.5-10.5s-4.7-10.5-10.5-10.5s-10.5,4.7-10.5,10.5
		S69.987,69.185,75.787,69.185z M83.137,71.81h-1.369c-1.821,0.837-3.848,1.312-5.98,1.312s-4.15-0.476-5.98-1.312h-1.369
		c-6.087,0-11.025,4.938-11.025,11.024v3.413c0,2.174,1.764,3.938,3.938,3.938h28.875c2.174,0,3.938-1.764,3.938-3.938v-3.413
		C94.162,76.748,89.224,71.81,83.137,71.81z"/>
</g>
<g opacity="0.5">
	<polygon fill="#EB743B" stroke="#FFFFFF" stroke-miterlimit="10" points="246.188,33.012 270.59,75.832 246.188,118.49 
		197.387,118.49 172.986,75.792 197.387,33.281 	"/>
	<g>
		<path fill="#FFFFFF" d="M209.037,105.066h-3.082l-0.586,1.758H203.5l3.176-8.531h1.629l3.193,8.531h-1.869L209.037,105.066z
			 M206.43,103.642h2.133l-1.072-3.193L206.43,103.642z"/>
		<path fill="#FFFFFF" d="M215.916,106.179c-0.418,0.508-0.996,0.762-1.734,0.762c-0.68,0-1.197-0.195-1.555-0.586
			s-0.541-0.963-0.549-1.717v-4.154h1.693v4.101c0,0.661,0.301,0.991,0.902,0.991c0.574,0,0.969-0.199,1.184-0.599v-4.493h1.699
			v6.34h-1.594L215.916,106.179z"/>
		<path fill="#FFFFFF" d="M220.861,98.925v1.559h1.084v1.242h-1.084v3.164c0,0.234,0.045,0.402,0.135,0.504s0.262,0.152,0.516,0.152
			c0.188,0,0.354-0.014,0.498-0.041v1.283c-0.332,0.102-0.674,0.152-1.025,0.152c-1.188,0-1.793-0.6-1.816-1.799v-3.416h-0.926
			v-1.242h0.926v-1.559H220.861z"/>
		<path fill="#FFFFFF" d="M224.541,101.175c0.449-0.539,1.014-0.809,1.693-0.809c1.375,0,2.072,0.799,2.092,2.396v4.061h-1.693
			v-4.014c0-0.363-0.078-0.632-0.234-0.806s-0.416-0.261-0.779-0.261c-0.496,0-0.855,0.191-1.078,0.574v4.506h-1.693v-9h1.693
			V101.175z"/>
		<path fill="#FFFFFF" d="M229.34,103.595c0-0.629,0.121-1.189,0.363-1.682s0.592-0.873,1.047-1.143s0.982-0.404,1.584-0.404
			c0.855,0,1.555,0.262,2.096,0.785s0.842,1.234,0.904,2.133l0.012,0.434c0,0.973-0.271,1.753-0.814,2.341s-1.271,0.882-2.186,0.882
			s-1.643-0.293-2.188-0.879s-0.818-1.383-0.818-2.391V103.595z M231.033,103.715c0,0.603,0.113,1.063,0.34,1.382
			c0.227,0.319,0.551,0.479,0.973,0.479c0.41,0,0.73-0.157,0.961-0.473c0.23-0.314,0.346-0.818,0.346-1.511
			c0-0.591-0.115-1.048-0.346-1.373s-0.555-0.487-0.973-0.487c-0.414,0-0.734,0.162-0.961,0.484S231.033,103.039,231.033,103.715z"
			/>
		<path fill="#FFFFFF" d="M239.951,102.072c-0.23-0.031-0.434-0.047-0.609-0.047c-0.641,0-1.061,0.217-1.26,0.65v4.148h-1.693v-6.34
			h1.6l0.047,0.756c0.34-0.582,0.811-0.873,1.412-0.873c0.188,0,0.363,0.025,0.527,0.076L239.951,102.072z"/>
	</g>
	<path fill="#51382B" d="M221.787,69.185c5.8,0,10.5-4.7,10.5-10.5s-4.7-10.5-10.5-10.5s-10.5,4.7-10.5,10.5
		S215.987,69.185,221.787,69.185z M229.137,71.81h-1.369c-1.821,0.837-3.848,1.312-5.98,1.312s-4.15-0.476-5.98-1.312h-1.369
		c-6.087,0-11.025,4.938-11.025,11.024v3.413c0,2.174,1.764,3.938,3.938,3.938h28.875c2.174,0,3.938-1.764,3.938-3.938v-3.413
		C240.162,76.748,235.224,71.81,229.137,71.81z"/>
</g>
<g>
	<polygon fill="#EB743B" stroke="#FFFFFF" stroke-miterlimit="10" points="173.188,161.012 197.59,203.832 173.188,246.49 
		124.387,246.49 99.986,203.792 124.387,161.281 	"/>
	<g>
		<path fill="#FFFFFF" d="M136.02,231.126h-3.375v2.285h3.961v1.412h-5.719v-8.531h5.707v1.424h-3.949v2.033h3.375V231.126z"/>
		<path fill="#FFFFFF" d="M137.15,231.607c0-0.988,0.223-1.775,0.666-2.361s1.049-0.879,1.818-0.879c0.617,0,1.127,0.23,1.529,0.691
			v-3.234h1.699v9h-1.529l-0.082-0.674c-0.422,0.527-0.965,0.791-1.629,0.791c-0.746,0-1.344-0.294-1.795-0.882
			S137.15,232.654,137.15,231.607z M138.844,231.733c0,0.595,0.104,1.051,0.311,1.367c0.207,0.317,0.508,0.476,0.902,0.476
			c0.523,0,0.893-0.221,1.107-0.663v-2.506c-0.211-0.442-0.576-0.663-1.096-0.663C139.252,229.744,138.844,230.407,138.844,231.733z
			"/>
		<path fill="#FFFFFF" d="M144.164,226.843c0-0.254,0.086-0.463,0.256-0.627s0.4-0.246,0.693-0.246c0.289,0,0.52,0.082,0.691,0.246
			s0.258,0.373,0.258,0.627c0,0.258-0.086,0.469-0.26,0.633s-0.404,0.246-0.689,0.246s-0.514-0.082-0.688-0.246
			S144.164,227.101,144.164,226.843z M145.963,234.824h-1.699v-6.34h1.699V234.824z"/>
		<path fill="#FFFFFF" d="M149.385,226.925v1.559h1.084v1.242h-1.084v3.164c0,0.234,0.045,0.402,0.135,0.504
			s0.262,0.152,0.516,0.152c0.188,0,0.354-0.014,0.498-0.041v1.283c-0.332,0.102-0.674,0.152-1.025,0.152
			c-1.188,0-1.793-0.6-1.816-1.799v-3.416h-0.926v-1.242h0.926v-1.559H149.385z"/>
		<path fill="#FFFFFF" d="M151.4,226.843c0-0.254,0.086-0.463,0.256-0.627s0.4-0.246,0.693-0.246c0.289,0,0.52,0.082,0.691,0.246
			s0.258,0.373,0.258,0.627c0,0.258-0.086,0.469-0.26,0.633s-0.404,0.246-0.689,0.246s-0.514-0.082-0.688-0.246
			S151.4,227.101,151.4,226.843z M153.199,234.824H151.5v-6.34h1.699V234.824z"/>
		<path fill="#FFFFFF" d="M154.33,231.595c0-0.629,0.121-1.189,0.363-1.682s0.592-0.873,1.047-1.143s0.982-0.404,1.584-0.404
			c0.855,0,1.555,0.262,2.096,0.785s0.842,1.234,0.904,2.133l0.012,0.434c0,0.973-0.271,1.753-0.814,2.341s-1.271,0.882-2.186,0.882
			s-1.643-0.293-2.188-0.879s-0.818-1.383-0.818-2.391V231.595z M156.023,231.715c0,0.603,0.113,1.063,0.34,1.382
			c0.227,0.319,0.551,0.479,0.973,0.479c0.41,0,0.73-0.157,0.961-0.473c0.23-0.314,0.346-0.818,0.346-1.511
			c0-0.591-0.115-1.048-0.346-1.373s-0.555-0.487-0.973-0.487c-0.414,0-0.734,0.162-0.961,0.484S156.023,231.039,156.023,231.715z"
			/>
		<path fill="#FFFFFF" d="M162.938,228.484l0.053,0.732c0.453-0.566,1.061-0.85,1.822-0.85c0.672,0,1.172,0.197,1.5,0.592
			s0.496,0.984,0.504,1.77v4.096h-1.693v-4.055c0-0.359-0.078-0.62-0.234-0.782s-0.416-0.243-0.779-0.243
			c-0.477,0-0.834,0.203-1.072,0.609v4.471h-1.693v-6.34H162.938z"/>
	</g>
	<path fill="#51382B" d="M167.162,206.051v-27.562c0-1.092-0.877-1.969-1.969-1.969h-26.906c-4.348,0-7.875,3.527-7.875,7.875v26.25
		c0,4.348,3.527,7.875,7.875,7.875h26.906c1.092,0,1.969-0.879,1.969-1.969v-1.312c0-0.615-0.287-1.174-0.73-1.535
		c-0.344-1.263-0.344-4.863,0-6.127C166.875,207.223,167.162,206.666,167.162,206.051L167.162,206.051z M140.912,187.512
		c0-0.271,0.223-0.492,0.492-0.492h17.391c0.271,0,0.492,0.221,0.492,0.492v1.641c0,0.271-0.221,0.491-0.492,0.491h-17.391
		c-0.27,0-0.492-0.221-0.492-0.491V187.512z M140.912,192.761c0-0.271,0.223-0.491,0.492-0.491h17.391
		c0.271,0,0.492,0.221,0.492,0.491v1.641c0,0.271-0.221,0.493-0.492,0.493h-17.391c-0.27,0-0.492-0.223-0.492-0.493V192.761z
		 M161.699,213.27h-23.412c-1.451,0-2.625-1.173-2.625-2.625c0-1.445,1.182-2.625,2.625-2.625h23.412
		C161.543,209.422,161.543,211.867,161.699,213.27z"/>
</g>
<g opacity="0.5">
	<polygon fill="#EB743B" stroke="#FFFFFF" stroke-miterlimit="10" points="246.188,288.012 270.59,330.832 246.188,373.49 
		197.387,373.49 172.986,330.792 197.387,288.281 	"/>
	<g>
		<g>
			<path fill="#FFFFFF" d="M209.02,352.127h-3.375v2.285h3.961v1.412h-5.719v-8.531h5.707v1.424h-3.949v2.033h3.375V352.127z"/>
			<path fill="#FFFFFF" d="M210.15,352.607c0-0.988,0.223-1.775,0.666-2.361s1.049-0.879,1.818-0.879
				c0.617,0,1.127,0.23,1.529,0.691v-3.234h1.699v9h-1.529l-0.082-0.674c-0.422,0.527-0.965,0.791-1.629,0.791
				c-0.746,0-1.344-0.295-1.795-0.883S210.15,353.654,210.15,352.607z M211.844,352.732c0,0.596,0.104,1.051,0.311,1.367
				c0.207,0.318,0.508,0.477,0.902,0.477c0.523,0,0.893-0.222,1.107-0.664v-2.506c-0.211-0.441-0.576-0.662-1.096-0.662
				C212.252,350.744,211.844,351.406,211.844,352.732z"/>
			<path fill="#FFFFFF" d="M217.164,347.844c0-0.254,0.086-0.463,0.256-0.627s0.4-0.246,0.693-0.246c0.289,0,0.52,0.082,0.691,0.246
				s0.258,0.373,0.258,0.627c0,0.258-0.086,0.469-0.26,0.633s-0.404,0.246-0.689,0.246s-0.514-0.082-0.688-0.246
				S217.164,348.102,217.164,347.844z M218.963,355.824h-1.699v-6.34h1.699V355.824z"/>
			<path fill="#FFFFFF" d="M222.385,347.926v1.559h1.084v1.242h-1.084v3.164c0,0.234,0.045,0.402,0.135,0.504
				s0.262,0.152,0.516,0.152c0.188,0,0.354-0.014,0.498-0.041v1.283c-0.332,0.102-0.674,0.152-1.025,0.152
				c-1.188,0-1.793-0.6-1.816-1.799v-3.416h-0.926v-1.242h0.926v-1.559H222.385z"/>
			<path fill="#FFFFFF" d="M224.4,347.844c0-0.254,0.086-0.463,0.256-0.627s0.4-0.246,0.693-0.246c0.289,0,0.52,0.082,0.691,0.246
				s0.258,0.373,0.258,0.627c0,0.258-0.086,0.469-0.26,0.633s-0.404,0.246-0.689,0.246s-0.514-0.082-0.688-0.246
				S224.4,348.102,224.4,347.844z M226.199,355.824H224.5v-6.34h1.699V355.824z"/>
			<path fill="#FFFFFF" d="M227.33,352.596c0-0.629,0.121-1.189,0.363-1.682s0.592-0.873,1.047-1.143s0.982-0.404,1.584-0.404
				c0.855,0,1.555,0.262,2.096,0.785s0.842,1.234,0.904,2.133l0.012,0.434c0,0.973-0.271,1.752-0.814,2.34s-1.271,0.883-2.186,0.883
				s-1.643-0.293-2.188-0.879s-0.818-1.383-0.818-2.391V352.596z M229.023,352.715c0,0.604,0.113,1.064,0.34,1.383
				s0.551,0.479,0.973,0.479c0.41,0,0.73-0.158,0.961-0.473s0.346-0.818,0.346-1.512c0-0.59-0.115-1.048-0.346-1.373
				c-0.23-0.324-0.555-0.486-0.973-0.486c-0.414,0-0.734,0.161-0.961,0.484C229.137,351.539,229.023,352.039,229.023,352.715z"/>
			<path fill="#FFFFFF" d="M235.938,349.484l0.053,0.732c0.453-0.566,1.061-0.85,1.822-0.85c0.672,0,1.172,0.197,1.5,0.592
				s0.496,0.984,0.504,1.77v4.096h-1.693v-4.055c0-0.359-0.078-0.621-0.234-0.783s-0.416-0.242-0.779-0.242
				c-0.477,0-0.834,0.203-1.072,0.609v4.471h-1.693v-6.34H235.938z"/>
			<path fill="#FFFFFF" d="M199.355,363.355c0-0.895,0.119-1.746,0.357-2.555s0.59-1.525,1.055-2.148s0.969-1.055,1.512-1.297
				l0.328,0.914c-0.57,0.422-1.016,1.074-1.336,1.957s-0.48,1.914-0.48,3.094v0.182c0,1.184,0.158,2.219,0.475,3.105
				s0.764,1.549,1.342,1.986l-0.328,0.896c-0.531-0.238-1.027-0.66-1.486-1.264s-0.809-1.299-1.051-2.088s-0.371-1.613-0.387-2.473
				V363.355z"/>
			<path fill="#FFFFFF" d="M206.41,366.941c-0.93,0-1.688-0.285-2.271-0.855s-0.875-1.33-0.875-2.279v-0.164
				c0-0.637,0.123-1.207,0.369-1.709s0.594-0.889,1.045-1.16s0.967-0.406,1.545-0.406c0.867,0,1.549,0.273,2.047,0.82
				s0.748,1.322,0.748,2.326v0.691h-4.037c0.055,0.414,0.219,0.746,0.494,0.996s0.625,0.375,1.047,0.375
				c0.652,0,1.162-0.236,1.529-0.709l0.832,0.932c-0.254,0.359-0.598,0.639-1.031,0.84S206.938,366.941,206.41,366.941z
				 M206.217,361.732c-0.336,0-0.609,0.113-0.818,0.341s-0.342,0.554-0.4,0.978h2.355v-0.136c-0.008-0.377-0.109-0.668-0.305-0.874
				S206.576,361.732,206.217,361.732z"/>
			<path fill="#FFFFFF" d="M213.271,363.854h-3.299v-1.365h3.299V363.854z"/>
			<path fill="#FFFFFF" d="M220.344,363.713c0,1.016-0.217,1.807-0.65,2.375s-1.039,0.854-1.816,0.854
				c-0.688,0-1.236-0.264-1.646-0.791l-0.076,0.674h-1.523v-9h1.693v3.229c0.391-0.457,0.904-0.686,1.541-0.686
				c0.773,0,1.379,0.283,1.818,0.852s0.66,1.369,0.66,2.4V363.713z M218.65,363.59c0-0.641-0.102-1.109-0.305-1.404
				s-0.506-0.441-0.908-0.441c-0.539,0-0.91,0.221-1.113,0.662v2.502c0.207,0.445,0.582,0.668,1.125,0.668
				c0.547,0,0.906-0.27,1.078-0.809C218.609,364.51,218.65,364.117,218.65,363.59z"/>
			<path fill="#FFFFFF" d="M221.123,363.596c0-0.629,0.121-1.189,0.363-1.682s0.59-0.873,1.045-1.143s0.984-0.404,1.586-0.404
				c0.855,0,1.553,0.262,2.094,0.785s0.844,1.234,0.906,2.133l0.012,0.434c0,0.973-0.271,1.752-0.814,2.34s-1.271,0.883-2.186,0.883
				s-1.645-0.293-2.189-0.879s-0.816-1.383-0.816-2.391V363.596z M222.816,363.715c0,0.604,0.113,1.064,0.34,1.383
				s0.551,0.479,0.973,0.479c0.41,0,0.73-0.158,0.961-0.473s0.346-0.818,0.346-1.512c0-0.59-0.115-1.048-0.346-1.373
				c-0.23-0.324-0.555-0.486-0.973-0.486c-0.414,0-0.734,0.161-0.961,0.484C222.93,362.539,222.816,363.039,222.816,363.715z"/>
			<path fill="#FFFFFF" d="M227.908,363.596c0-0.629,0.121-1.189,0.363-1.682s0.59-0.873,1.045-1.143s0.984-0.404,1.586-0.404
				c0.855,0,1.553,0.262,2.094,0.785s0.844,1.234,0.906,2.133l0.012,0.434c0,0.973-0.271,1.752-0.814,2.34s-1.271,0.883-2.186,0.883
				s-1.645-0.293-2.189-0.879s-0.816-1.383-0.816-2.391V363.596z M229.602,363.715c0,0.604,0.113,1.064,0.34,1.383
				s0.551,0.479,0.973,0.479c0.41,0,0.73-0.158,0.961-0.473s0.346-0.818,0.346-1.512c0-0.59-0.115-1.048-0.346-1.373
				c-0.23-0.324-0.555-0.486-0.973-0.486c-0.414,0-0.734,0.161-0.961,0.484C229.715,362.539,229.602,363.039,229.602,363.715z"/>
			<path fill="#FFFFFF" d="M237.26,364.281l-0.609,0.609v1.934h-1.693v-9h1.693v4.986l0.328-0.422l1.623-1.904h2.033l-2.291,2.643
				l2.49,3.697h-1.945L237.26,364.281z"/>
			<path fill="#FFFFFF" d="M244.285,363.49c0,0.883-0.127,1.732-0.381,2.549s-0.619,1.537-1.096,2.162s-0.986,1.055-1.529,1.289
				l-0.328-0.896c0.555-0.418,0.992-1.062,1.312-1.934s0.486-1.873,0.498-3.006v-0.311c0-1.168-0.16-2.197-0.479-3.088
				s-0.762-1.559-1.332-2.004l0.328-0.896c0.531,0.23,1.031,0.648,1.502,1.254s0.836,1.311,1.096,2.115s0.396,1.639,0.408,2.502
				V363.49z"/>
		</g>
	</g>
	<path fill="#51382B" d="M240.162,329.051v-27.562c0-1.092-0.877-1.969-1.969-1.969h-26.906c-4.348,0-7.875,3.527-7.875,7.875v26.25
		c0,4.348,3.527,7.875,7.875,7.875h26.906c1.092,0,1.969-0.879,1.969-1.969v-1.312c0-0.615-0.287-1.174-0.73-1.535
		c-0.344-1.263-0.344-4.863,0-6.127C239.875,330.223,240.162,329.666,240.162,329.051L240.162,329.051z M213.912,310.512
		c0-0.271,0.223-0.492,0.492-0.492h17.391c0.271,0,0.492,0.221,0.492,0.492v1.641c0,0.271-0.221,0.491-0.492,0.491h-17.391
		c-0.27,0-0.492-0.221-0.492-0.491V310.512z M213.912,315.761c0-0.271,0.223-0.491,0.492-0.491h17.391
		c0.271,0,0.492,0.221,0.492,0.491v1.641c0,0.271-0.221,0.493-0.492,0.493h-17.391c-0.27,0-0.492-0.223-0.492-0.493V315.761z
		 M234.699,336.27h-23.412c-1.451,0-2.625-1.173-2.625-2.625c0-1.445,1.182-2.625,2.625-2.625h23.412
		C234.543,332.422,234.543,334.867,234.699,336.27z"/>
</g>
<g>
	<polygon fill="#EB743B" stroke="#FFFFFF" stroke-miterlimit="10" points="173.188,246.012 197.59,288.832 173.188,331.49 
		124.387,331.49 99.986,288.792 124.387,246.281 	"/>
	<g>
		<path fill="#FFFFFF" d="M136.02,310.127h-3.375v2.285h3.961v1.412h-5.719v-8.531h5.707v1.424h-3.949v2.033h3.375V310.127z"/>
		<path fill="#FFFFFF" d="M137.15,310.607c0-0.988,0.223-1.775,0.666-2.361s1.049-0.879,1.818-0.879c0.617,0,1.127,0.23,1.529,0.691
			v-3.234h1.699v9h-1.529l-0.082-0.674c-0.422,0.527-0.965,0.791-1.629,0.791c-0.746,0-1.344-0.295-1.795-0.883
			S137.15,311.654,137.15,310.607z M138.844,310.732c0,0.596,0.104,1.051,0.311,1.367c0.207,0.318,0.508,0.477,0.902,0.477
			c0.523,0,0.893-0.222,1.107-0.664v-2.506c-0.211-0.441-0.576-0.662-1.096-0.662C139.252,308.744,138.844,309.406,138.844,310.732z
			"/>
		<path fill="#FFFFFF" d="M144.164,305.844c0-0.254,0.086-0.463,0.256-0.627s0.4-0.246,0.693-0.246c0.289,0,0.52,0.082,0.691,0.246
			s0.258,0.373,0.258,0.627c0,0.258-0.086,0.469-0.26,0.633s-0.404,0.246-0.689,0.246s-0.514-0.082-0.688-0.246
			S144.164,306.102,144.164,305.844z M145.963,313.824h-1.699v-6.34h1.699V313.824z"/>
		<path fill="#FFFFFF" d="M149.385,305.926v1.559h1.084v1.242h-1.084v3.164c0,0.234,0.045,0.402,0.135,0.504
			s0.262,0.152,0.516,0.152c0.188,0,0.354-0.014,0.498-0.041v1.283c-0.332,0.102-0.674,0.152-1.025,0.152
			c-1.188,0-1.793-0.6-1.816-1.799v-3.416h-0.926v-1.242h0.926v-1.559H149.385z"/>
		<path fill="#FFFFFF" d="M151.4,305.844c0-0.254,0.086-0.463,0.256-0.627s0.4-0.246,0.693-0.246c0.289,0,0.52,0.082,0.691,0.246
			s0.258,0.373,0.258,0.627c0,0.258-0.086,0.469-0.26,0.633s-0.404,0.246-0.689,0.246s-0.514-0.082-0.688-0.246
			S151.4,306.102,151.4,305.844z M153.199,313.824H151.5v-6.34h1.699V313.824z"/>
		<path fill="#FFFFFF" d="M154.33,310.596c0-0.629,0.121-1.189,0.363-1.682s0.592-0.873,1.047-1.143s0.982-0.404,1.584-0.404
			c0.855,0,1.555,0.262,2.096,0.785s0.842,1.234,0.904,2.133l0.012,0.434c0,0.973-0.271,1.752-0.814,2.34s-1.271,0.883-2.186,0.883
			s-1.643-0.293-2.188-0.879s-0.818-1.383-0.818-2.391V310.596z M156.023,310.715c0,0.604,0.113,1.064,0.34,1.383
			s0.551,0.479,0.973,0.479c0.41,0,0.73-0.158,0.961-0.473s0.346-0.818,0.346-1.512c0-0.59-0.115-1.048-0.346-1.373
			c-0.23-0.324-0.555-0.486-0.973-0.486c-0.414,0-0.734,0.161-0.961,0.484C156.137,309.539,156.023,310.039,156.023,310.715z"/>
		<path fill="#FFFFFF" d="M162.938,307.484l0.053,0.732c0.453-0.566,1.061-0.85,1.822-0.85c0.672,0,1.172,0.197,1.5,0.592
			s0.496,0.984,0.504,1.77v4.096h-1.693v-4.055c0-0.359-0.078-0.621-0.234-0.783s-0.416-0.242-0.779-0.242
			c-0.477,0-0.834,0.203-1.072,0.609v4.471h-1.693v-6.34H162.938z"/>
		<path fill="#FFFFFF" d="M140.002,323.746c-0.316,0.379-0.764,0.672-1.342,0.881s-1.219,0.314-1.922,0.314
			c-0.738,0-1.387-0.162-1.943-0.484s-0.986-0.789-1.289-1.402s-0.457-1.334-0.465-2.162v-0.58c0-0.852,0.143-1.59,0.43-2.213
			s0.701-1.1,1.242-1.43s1.176-0.494,1.902-0.494c1.012,0,1.803,0.24,2.373,0.723s0.908,1.186,1.014,2.107h-1.711
			c-0.078-0.488-0.252-0.846-0.52-1.072s-0.635-0.34-1.104-0.34c-0.598,0-1.053,0.225-1.365,0.674s-0.471,1.117-0.475,2.004v0.545
			c0,0.895,0.17,1.57,0.51,2.027s0.838,0.686,1.494,0.686c0.66,0,1.131-0.141,1.412-0.422v-1.471h-1.6v-1.295h3.357V323.746z"/>
		<path fill="#FFFFFF" d="M144.877,320.072c-0.23-0.031-0.434-0.047-0.609-0.047c-0.641,0-1.061,0.217-1.26,0.65v4.148h-1.693v-6.34
			h1.6l0.047,0.756c0.34-0.582,0.811-0.873,1.412-0.873c0.188,0,0.363,0.025,0.527,0.076L144.877,320.072z"/>
		<path fill="#FFFFFF" d="M145.217,321.596c0-0.629,0.121-1.189,0.363-1.682s0.59-0.873,1.045-1.143s0.984-0.404,1.586-0.404
			c0.855,0,1.553,0.262,2.094,0.785s0.844,1.234,0.906,2.133l0.012,0.434c0,0.973-0.271,1.752-0.814,2.34s-1.271,0.883-2.186,0.883
			s-1.645-0.293-2.189-0.879s-0.816-1.383-0.816-2.391V321.596z M146.91,321.715c0,0.604,0.113,1.064,0.34,1.383
			s0.551,0.479,0.973,0.479c0.41,0,0.73-0.158,0.961-0.473s0.346-0.818,0.346-1.512c0-0.59-0.115-1.048-0.346-1.373
			c-0.23-0.324-0.555-0.486-0.973-0.486c-0.414,0-0.734,0.161-0.961,0.484C147.023,320.539,146.91,321.039,146.91,321.715z"/>
		<path fill="#FFFFFF" d="M156.062,324.18c-0.418,0.508-0.996,0.762-1.734,0.762c-0.68,0-1.199-0.195-1.557-0.586
			s-0.539-0.963-0.547-1.717v-4.154h1.693v4.1c0,0.661,0.301,0.992,0.902,0.992c0.574,0,0.969-0.199,1.184-0.6v-4.492h1.699v6.34
			h-1.594L156.062,324.18z"/>
		<path fill="#FFFFFF" d="M164.688,321.713c0,0.977-0.223,1.758-0.666,2.346s-1.041,0.883-1.795,0.883
			c-0.641,0-1.158-0.223-1.553-0.668v2.988h-1.693v-8.777h1.57l0.059,0.621c0.41-0.492,0.945-0.738,1.605-0.738
			c0.781,0,1.389,0.289,1.822,0.867s0.65,1.375,0.65,2.391V321.713z M162.994,321.59c0-0.59-0.105-1.045-0.314-1.365
			s-0.512-0.48-0.91-0.48c-0.531,0-0.896,0.203-1.096,0.609v2.596c0.207,0.418,0.576,0.627,1.107,0.627
			C162.59,323.576,162.994,322.914,162.994,321.59z"/>
	</g>
	<path fill="#51382B" d="M169.787,261.789v23.625c0,2.174-1.764,3.938-3.938,3.938h-3.938v-17.062c0-3.617-2.945-6.562-6.562-6.562
		h-17.062v-3.938c0-2.174,1.764-3.938,3.938-3.938h23.625C168.023,257.852,169.787,259.615,169.787,261.789z M159.287,272.289
		v23.625c0,2.174-1.764,3.938-3.938,3.938h-23.625c-2.174,0-3.938-1.764-3.938-3.938v-23.625c0-2.174,1.764-3.938,3.938-3.938
		h23.625C157.523,268.352,159.287,270.115,159.287,272.289z M153.709,274.586c0-0.541-0.443-0.984-0.984-0.984h-18.703
		c-0.541,0-0.984,0.443-0.984,0.984v4.266h20.672V274.586z"/>
</g>
<g>
	<polygon fill="#EB743B" stroke="#FFFFFF" stroke-miterlimit="10" points="246.188,204.012 270.59,246.832 246.188,289.49 
		197.387,289.49 172.986,246.792 197.387,204.281 	"/>
	<g>
		<path fill="#FFFFFF" d="M198.646,274.818v3.006h-1.758v-8.531h3.328c0.641,0,1.203,0.117,1.689,0.352s0.861,0.566,1.123,0.998
			s0.393,0.924,0.393,1.475c0,0.836-0.287,1.494-0.859,1.977s-1.363,0.725-2.375,0.725H198.646z M198.646,273.395h1.57
			c0.465,0,0.818-0.109,1.062-0.328s0.367-0.531,0.367-0.938c0-0.418-0.123-0.756-0.369-1.014s-0.586-0.391-1.02-0.398h-1.611
			V273.395z"/>
		<path fill="#FFFFFF" d="M208.314,277.18c-0.418,0.508-0.996,0.762-1.734,0.762c-0.68,0-1.199-0.195-1.557-0.586
			s-0.539-0.963-0.547-1.717v-4.154h1.693v4.1c0,0.661,0.301,0.992,0.902,0.992c0.574,0,0.969-0.199,1.184-0.6v-4.492h1.699v6.34
			h-1.594L208.314,277.18z"/>
		<path fill="#FFFFFF" d="M216.945,274.713c0,1.016-0.217,1.807-0.65,2.375s-1.039,0.854-1.816,0.854
			c-0.688,0-1.236-0.264-1.646-0.791l-0.076,0.674h-1.523v-9h1.693v3.229c0.391-0.457,0.904-0.686,1.541-0.686
			c0.773,0,1.379,0.283,1.818,0.852s0.66,1.369,0.66,2.4V274.713z M215.252,274.59c0-0.641-0.102-1.109-0.305-1.404
			s-0.506-0.441-0.908-0.441c-0.539,0-0.91,0.221-1.113,0.662v2.502c0.207,0.445,0.582,0.668,1.125,0.668
			c0.547,0,0.906-0.27,1.078-0.809C215.211,275.51,215.252,275.117,215.252,274.59z"/>
		<path fill="#FFFFFF" d="M219.775,277.824h-1.699v-9h1.699V277.824z"/>
		<path fill="#FFFFFF" d="M221.158,269.844c0-0.254,0.084-0.463,0.254-0.627s0.402-0.246,0.695-0.246
			c0.289,0,0.52,0.082,0.691,0.246s0.258,0.373,0.258,0.627c0,0.258-0.088,0.469-0.262,0.633s-0.402,0.246-0.688,0.246
			s-0.516-0.082-0.689-0.246S221.158,270.102,221.158,269.844z M222.957,277.824h-1.699v-6.34h1.699V277.824z"/>
		<path fill="#FFFFFF" d="M227.785,276.072c0-0.207-0.104-0.371-0.309-0.49s-0.533-0.225-0.986-0.318
			c-1.508-0.316-2.262-0.957-2.262-1.922c0-0.562,0.232-1.033,0.699-1.41s1.078-0.564,1.832-0.564c0.805,0,1.447,0.189,1.93,0.568
			s0.725,0.871,0.725,1.477h-1.693c0-0.242-0.078-0.443-0.234-0.602s-0.4-0.236-0.732-0.236c-0.285,0-0.506,0.064-0.662,0.193
			s-0.234,0.293-0.234,0.492c0,0.188,0.088,0.338,0.266,0.453s0.479,0.215,0.9,0.299s0.777,0.18,1.066,0.285
			c0.895,0.328,1.342,0.896,1.342,1.705c0,0.578-0.248,1.045-0.744,1.402s-1.137,0.537-1.922,0.537
			c-0.531,0-1.004-0.096-1.416-0.285s-0.734-0.449-0.969-0.779s-0.352-0.686-0.352-1.068h1.605c0.016,0.301,0.127,0.531,0.334,0.691
			s0.484,0.24,0.832,0.24c0.324,0,0.568-0.062,0.734-0.186S227.785,276.271,227.785,276.072z"/>
		<path fill="#FFFFFF" d="M232.174,272.176c0.449-0.539,1.014-0.809,1.693-0.809c1.375,0,2.072,0.799,2.092,2.396v4.061h-1.693
			v-4.014c0-0.363-0.078-0.633-0.234-0.807s-0.416-0.26-0.779-0.26c-0.496,0-0.855,0.191-1.078,0.574v4.506h-1.693v-9h1.693V272.176
			z"/>
		<path fill="#FFFFFF" d="M240.154,277.941c-0.93,0-1.688-0.285-2.271-0.855s-0.875-1.33-0.875-2.279v-0.164
			c0-0.637,0.123-1.207,0.369-1.709s0.594-0.889,1.045-1.16s0.967-0.406,1.545-0.406c0.867,0,1.549,0.273,2.047,0.82
			s0.748,1.322,0.748,2.326v0.691h-4.037c0.055,0.414,0.219,0.746,0.494,0.996s0.625,0.375,1.047,0.375
			c0.652,0,1.162-0.236,1.529-0.709l0.832,0.932c-0.254,0.359-0.598,0.639-1.031,0.84S240.682,277.941,240.154,277.941z
			 M239.961,272.732c-0.336,0-0.609,0.113-0.818,0.341s-0.342,0.554-0.4,0.978h2.355v-0.136c-0.008-0.377-0.109-0.668-0.305-0.874
			S240.32,272.732,239.961,272.732z"/>
		<path fill="#FFFFFF" d="M247.285,273.072c-0.23-0.031-0.434-0.047-0.609-0.047c-0.641,0-1.061,0.217-1.26,0.65v4.148h-1.693v-6.34
			h1.6l0.047,0.756c0.34-0.582,0.811-0.873,1.412-0.873c0.188,0,0.363,0.025,0.527,0.076L247.285,273.072z"/>
	</g>
	<path fill="#51382B" d="M244.287,227.657v1.5c0,0.414-0.336,0.75-0.75,0.75h-2.25v1.125c0,0.621-0.504,1.125-1.125,1.125h-36.75
		c-0.621,0-1.125-0.504-1.125-1.125v-1.125h-2.25c-0.414,0-0.75-0.336-0.75-0.75v-1.5c0-0.304,0.184-0.577,0.463-0.693l21.75-8.25
		c0.184-0.076,0.391-0.076,0.574,0l21.75,8.25C244.105,227.08,244.287,227.354,244.287,227.657z M242.037,256.157h-40.5
		c-1.242,0-2.25,1.007-2.25,2.25v1.5c0,0.414,0.336,0.75,0.75,0.75h43.5c0.414,0,0.75-0.336,0.75-0.75v-1.5
		C244.287,257.164,243.279,256.157,242.037,256.157z M206.787,233.657v18h-3.375c-0.621,0-1.125,0.504-1.125,1.125v1.875h39v-1.875
		c0-0.621-0.504-1.125-1.125-1.125h-3.375v-18h-6v18h-6v-18h-6v18h-6v-18H206.787z"/>
</g>
</svg>
