<?xml version="1.0" encoding="utf-8"?>
<!-- Generator: Adobe Illustrator 25.0.0, SVG Export Plug-In . SVG Version: 6.00 Build 0)  -->
<svg version="1.1" id="Layer_1" xmlns="http://www.w3.org/2000/svg" xmlns:xlink="http://www.w3.org/1999/xlink" x="0px" y="0px"
	 viewBox="0 0 512 512" style="enable-background:new 0 0 512 512;" xml:space="preserve">
<style type="text/css">
	.st0{fill:#754E37;stroke:#000000;stroke-width:0.25;stroke-miterlimit:10;}
	.st1{fill:#FFFFFF;stroke:#000000;stroke-width:0.25;stroke-miterlimit:10;}
</style>
<g>
	<path class="st0" d="M256,1c4.6,0,9.2,1,13.4,2.9l188.3,79.9c22,9.3,38.4,31,38.3,57.2c-0.5,99.2-41.3,280.7-213.6,363.2
		c-16.7,8-36.1,8-52.8,0C57.3,421.7,16.5,240.2,16,141c-0.1-26.2,16.3-47.9,38.3-57.2L242.7,3.9C246.8,2,251.4,1,256,1z"/>
</g>
<g>
	<path class="st1" d="M256,23.5c4.2,0,8.5,0.9,12.3,2.6l173,73c20.2,8.5,35.3,28.3,35.2,52.2C476,241.9,438.6,407.7,280.3,483
		c-15.3,7.3-33.2,7.3-48.5,0C73.4,407.7,36,241.9,35.5,151.3c-0.1-23.9,15-43.7,35.2-52.2l173.1-73C247.5,24.4,251.8,23.5,256,23.5z
		"/>
</g>
</svg>
